<?xml version="1.0" encoding="UTF-8"?>
<svg width="22px" height="24px" viewBox="0 0 22 24" version="1.1" xmlns="http://www.w3.org/2000/svg" xmlns:xlink="http://www.w3.org/1999/xlink">
    <defs>
        <path d="M204.8,244 L209.2,242.28 C209.706667,242.066667 210.033333,241.74 210.18,241.3 C210.326667,240.86 210.226667,240.36 209.88,239.8 C209.053333,238.413333 208.506667,236.973333 208.24,235.48 C207.973333,233.986667 207.906667,232.54 208.04,231.14 C208.173333,229.74 208.486667,228.426667 208.98,227.2 C209.473333,225.973333 210.066667,224.933333 210.76,224.08 C210.973333,223.866667 211.1,223.566667 211.14,223.18 C211.18,222.793333 211,222.466667 210.6,222.2 L210.6,222.2 L208.44,220.84 C206.76,222.333333 205.413333,224.02 204.4,225.9 C203.386667,227.78 202.72,229.746667 202.4,231.8 C202.08,233.853333 202.12,235.926667 202.52,238.02 C202.92,240.113333 203.68,242.106667 204.8,244 L204.8,244 Z M216.96,244 L221.36,242.28 C221.866667,242.066667 222.193333,241.74 222.34,241.3 C222.486667,240.86 222.386667,240.36 222.04,239.8 C221.213333,238.413333 220.666667,236.973333 220.4,235.48 C220.133333,233.986667 220.066667,232.54 220.2,231.14 C220.333333,229.74 220.646667,228.426667 221.14,227.2 C221.633333,225.973333 222.226667,224.933333 222.92,224.08 C223.133333,223.866667 223.26,223.566667 223.3,223.18 C223.34,222.793333 223.16,222.466667 222.76,222.2 L222.76,222.2 L220.6,220.84 C218.92,222.333333 217.573333,224.02 216.56,225.9 C215.546667,227.78 214.88,229.746667 214.56,231.8 C214.24,233.853333 214.28,235.926667 214.68,238.02 C215.08,240.113333 215.84,242.106667 216.96,244 L216.96,244 Z" id="path-1"></path>
    </defs>
    <g id="HS_Website" stroke="none" stroke-width="1" fill="none" fill-rule="evenodd">
        <g id="[desktop]-Homepage" transform="translate(-416.000000, -4633.000000)" fill-rule="nonzero">
            <g id="Group-69" transform="translate(214.000000, 4413.000000)">
                <g id="quote">
                    <use fill="#74ABFC" xlink:href="#path-1"></use>
                    <use fill="#F2A886" xlink:href="#path-1"></use>
                </g>
            </g>
        </g>
    </g>
</svg>