<?xml version="1.0" encoding="UTF-8"?>
<svg width="23px" height="22px" viewBox="0 0 23 22" version="1.1" xmlns="http://www.w3.org/2000/svg" xmlns:xlink="http://www.w3.org/1999/xlink">
    <!-- Generator: Sketch 57.1 (83088) - https://sketch.com -->
    <title>Star_active</title>
    <desc>Created with Sketch.</desc>
    <g id="Symbols" stroke="none" stroke-width="1" fill="none" fill-rule="evenodd">
        <g id="Reviews" transform="translate(-733.000000, -497.000000)" fill="#EB3C30">
            <g id="Group-19" transform="translate(0.000000, 177.393693)">
                <g id="Feedback-Copy" transform="translate(467.000000, 0.000000)">
                    <g id="Group-2" transform="translate(141.935484, 318.000000)">
                        <path d="M136,19.7840237 L130.510958,22.6697837 C129.924345,22.9781846 129.198792,22.7526488 128.890391,22.1660353 C128.767584,21.9324427 128.725207,21.664881 128.769819,21.4047719 L129.818133,15.2926341 L129.818133,15.2926341 L125.377405,10.9639941 C124.902824,10.5013927 124.893114,9.74165677 125.355715,9.26707647 C125.539925,9.07809611 125.781296,8.9551115 126.042461,8.91716209 L132.179396,8.02541321 L132.179396,8.02541321 L134.923917,2.46440657 C135.217223,1.87010218 135.936774,1.62609538 136.531079,1.91940213 C136.767734,2.03619842 136.959287,2.22775144 137.076083,2.46440657 L139.820604,8.02541321 L139.820604,8.02541321 L145.957539,8.91716209 C146.613393,9.01246323 147.067811,9.62139465 146.97251,10.2772485 C146.93456,10.5384129 146.811576,10.7797838 146.622595,10.9639941 L142.181867,15.2926341 L142.181867,15.2926341 L143.230181,21.4047719 C143.342214,22.0579756 142.903509,22.6783227 142.250305,22.7903559 C141.990196,22.8349682 141.722634,22.7925905 141.489042,22.6697837 L136,19.7840237 L136,19.7840237 Z" id="Star_active"></path>
                    </g>
                </g>
            </g>
        </g>
    </g>
</svg>