<?xml version="1.0" encoding="UTF-8"?>
<svg width="23px" height="22px" viewBox="0 0 23 22" version="1.1" xmlns="http://www.w3.org/2000/svg" xmlns:xlink="http://www.w3.org/1999/xlink">
    <!-- Generator: Sketch 57.1 (83088) - https://sketch.com -->
    <title>Star_inactive</title>
    <desc>Created with Sketch.</desc>
    <g id="Symbols" stroke="none" stroke-width="1" fill="none" fill-rule="evenodd">
        <g id="Reviews" transform="translate(-702.000000, -497.000000)" stroke="#D93D27" stroke-width="1.5">
            <g id="Group-19" transform="translate(0.000000, 177.393693)">
                <g id="Feedback-Copy" transform="translate(467.000000, 0.000000)">
                    <g id="Group-2" transform="translate(141.935484, 318.000000)">
                        <path d="M99.1619525,22.0059351 L105,18.9366919 L110.838048,22.0059351 C110.925645,22.0519877 111.02598,22.0678793 111.123521,22.0511497 C111.368473,22.0091372 111.532987,21.7765071 111.490975,21.5315557 L110.376007,15.0307942 L115.099087,10.4269294 C115.169954,10.3578505 115.216073,10.2673364 115.230304,10.1693997 C115.266042,9.92345456 115.095636,9.69510527 114.849691,9.65936735 L108.322555,8.71091903 L105.403531,2.79633085 C105.359733,2.70758518 105.2879,2.6357528 105.199155,2.59195419 C104.97629,2.48196416 104.706459,2.57346671 104.596469,2.79633085 L101.677445,8.71091903 L95.1503094,9.65936735 C95.0523728,9.67359838 94.9618587,9.71971761 94.8927798,9.79058524 C94.7193042,9.96855285 94.7229458,10.2534538 94.9009134,10.4269294 L99.6239931,15.0307942 L98.5090252,21.5315557 C98.4922956,21.6290966 98.5081872,21.7294322 98.5542398,21.8170295 C98.6698902,22.0370095 98.9419724,22.1215855 99.1619525,22.0059351 Z" id="Star_inactive"></path>
                    </g>
                </g>
            </g>
        </g>
    </g>
</svg>