<?xml version="1.0" encoding="UTF-8"?>
<svg width="61px" height="61px" viewBox="0 0 61 61" version="1.1" xmlns="http://www.w3.org/2000/svg" xmlns:xlink="http://www.w3.org/1999/xlink">
    <title>Safe</title>
    <defs>
        <linearGradient x1="16.53625%" y1="0%" x2="52.7980511%" y2="87.1446747%" id="linearGradient-1">
            <stop stop-color="#9BC8FE" offset="0%"></stop>
            <stop stop-color="#74ABFC" offset="100%"></stop>
        </linearGradient>
    </defs>
    <g id="HS_Website" stroke="none" stroke-width="1" fill="none" fill-rule="evenodd">
        <g id="[desktop]-Services" transform="translate(-1191.000000, -4627.000000)">
            <g id="Group-25-Copy-2" transform="translate(1059.000000, 4627.000000)">
                <g id="Group-11" transform="translate(93.000000, 0.000000)">
                    <g id="Safe" transform="translate(39.000000, 0.000000)">
                        <path d="M32.6213325,58.8786797 L58.8786918,32.6213203 C60.0502647,31.4497475 60.0502647,29.5502525 58.8786918,28.3786797 L32.6213325,2.12132034 C31.4497596,0.949747468 29.5502647,0.949747468 28.3786918,2.12132034 L2.1213325,28.3786797 C0.949759628,29.5502525 0.949759628,31.4497475 2.1213325,32.6213203 L28.3786918,58.8786797 C29.5502647,60.0502525 31.4497596,60.0502525 32.6213325,58.8786797 Z" id="Oval" stroke="#4A4A4A" stroke-width="2"></path>
                        <path d="M29.8892108,16.6995768 C29.7509564,16.6186392 29.5853004,16.5845079 29.4175575,16.6120024 L27.4592975,16.9329783 C27.2942687,16.960028 27.1499988,17.0430365 27.0451127,17.1610483 C26.9402266,17.2790601 26.8747242,17.4320752 26.8672303,17.5991382 L26.7489685,20.2223743 C25.0910601,20.8418082 23.5711708,21.8645638 22.3503686,23.2466506 L19.8761097,22.4155797 C19.7165841,22.3619918 19.5492488,22.3683242 19.4007565,22.4244817 C19.2522643,22.4806392 19.1226151,22.5866218 19.0384838,22.7323416 L18.0285873,24.4815337 C17.9444559,24.6272534 17.9174969,24.7925242 17.9431092,24.949201 C17.9687214,25.1058778 18.0469051,25.2539607 18.1730591,25.3653046 L20.1299343,27.0925556 C19.5434132,28.8408447 19.4176255,30.6684852 19.7101342,32.413993 L17.4976183,33.8279378 C17.3565422,33.9180502 17.2567783,34.0512844 17.2070202,34.2011244 C17.157262,34.3509643 17.1575095,34.5174099 17.2165982,34.6738539 L17.9177549,36.5302447 C17.9778154,36.6892617 18.090202,36.8156582 18.2294232,36.8949213 C18.3686444,36.9741844 18.5347002,37.006314 18.7020991,36.976797 L21.2932082,36.5202288 C22.231712,37.9796317 23.5356267,39.2318953 25.1651361,40.1269373 L24.8933535,42.7522845 C24.8758431,42.9209918 24.9193445,43.0838636 25.0077511,43.2168929 C25.0961576,43.3499222 25.2294694,43.4531092 25.3916003,43.5022485 L27.2714216,44.071992 C27.4323719,44.1207734 27.5993661,44.1094944 27.7460741,44.0490102 C27.8927822,43.9885259 28.019204,43.8788365 28.0990098,43.730797 L29.3509496,41.4097529 C31.1477491,41.5745993 32.9552812,41.2841053 34.6066994,40.584838 L36.4459664,42.4142567 C36.5661222,42.5337657 36.7202384,42.6022456 36.8793375,42.6170019 C37.0384366,42.6317582 37.2025185,42.5927909 37.3426132,42.497413 L39.0028689,41.3670947 C39.141134,41.2729625 39.2369606,41.1368264 39.2822953,40.9855581 C39.3276301,40.8342897 39.3224731,40.6678891 39.258771,40.5132278 L38.2544253,38.0730825 C38.8636627,37.4385883 39.407041,36.7204971 39.8670025,35.9238205 C40.3269639,35.1271439 40.6771599,34.2975189 40.9220293,33.4526567 L43.5372462,33.1023976 C43.7032217,33.08021 43.8499074,33.0014758 43.9582422,32.8865805 C44.0665771,32.7716852 44.1365611,32.6206289 44.1489494,32.4538218 L44.297706,30.450839 C44.3102582,30.2818245 44.261964,30.1202417 44.1696351,29.989836 C44.0773062,29.8594304 43.9409428,29.7602018 43.7773566,29.7158955 L41.2734105,29.0377557 C41.0532847,27.2579519 40.4010937,25.5473362 39.3599329,24.0736854 L40.7439539,21.8291012 C40.8323492,21.6858181 40.8641321,21.5214888 40.843159,21.3641938 C40.8221858,21.2068988 40.7484567,21.0566381 40.6257355,20.9416418 L39.1924125,19.5985406 C39.0687912,19.4827007 38.9127728,19.4188428 38.7533627,19.4087951 C38.5883233,19.3983926 38.4196484,19.445668 38.2795261,19.55265 L36.0102175,21.0031972 C34.4602915,20.0960859 32.7768837,19.6207751 31.0966098,19.5402382 L29.8892108,16.6995768 Z" id="Path" stroke="#4A4A4A" stroke-width="1.5"></path>
                        <circle id="Oval" fill="url(#linearGradient-1)" cx="30.5" cy="30.5" r="7.5"></circle>
                    </g>
                </g>
            </g>
        </g>
    </g>
</svg>