<?xml version="1.0" encoding="UTF-8"?>
<svg width="63px" height="63px" viewBox="0 0 63 63" version="1.1" xmlns="http://www.w3.org/2000/svg" xmlns:xlink="http://www.w3.org/1999/xlink">
    <title>reliable_icon copy</title>
    <defs>
        <linearGradient x1="16.53625%" y1="0%" x2="52.7980511%" y2="87.1446747%" id="linearGradient-1">
            <stop stop-color="#9BC8FE" offset="0%"></stop>
            <stop stop-color="#74ABFC" offset="100%"></stop>
        </linearGradient>
    </defs>
    <g id="HS_Website" stroke="none" stroke-width="1" fill="none" fill-rule="evenodd">
        <g id="[desktop]-Services" transform="translate(-346.000000, -4625.000000)">
            <g id="Group-4" transform="translate(215.000000, 4626.000000)">
                <g id="Group-7" transform="translate(120.000000, 0.000000)">
                    <g id="reliable_icon-copy" transform="translate(12.000000, 0.000000)">
                        <circle id="Oval" stroke="#4A4A4A" stroke-width="2" cx="30.5" cy="30.5" r="30.5"></circle>
                        <path d="M32.6213203,51.8786797 L51.8786797,32.6213203 C53.0502525,31.4497475 53.0502525,29.5502525 51.8786797,28.3786797 L32.6213203,9.12132034 C31.4497475,7.94974747 29.5502525,7.94974747 28.3786797,9.12132034 L9.12132034,28.3786797 C7.94974747,29.5502525 7.94974747,31.4497475 9.12132034,32.6213203 L28.3786797,51.8786797 C29.5502525,53.0502525 31.4497475,53.0502525 32.6213203,51.8786797 Z" id="Oval" stroke="#4A4A4A" stroke-width="2"></path>
                        <path d="M28.3786797,17.1213203 C29.5502525,15.9497475 31.4497475,15.9497475 32.6213203,17.1213203 L32.6213203,17.1213203 L43.8786797,28.3786797 C45.0502525,29.5502525 45.0502525,31.4497475 43.8786797,32.6213203 L43.8786797,32.6213203 L32.6213203,43.8786797 C31.4497475,45.0502525 29.5502525,45.0502525 28.3786797,43.8786797 L28.3786797,43.8786797 L17.1213203,32.6213203 C15.9497475,31.4497475 15.9497475,29.5502525 17.1213203,28.3786797 L17.1213203,28.3786797 Z M37.0966492,25.9765936 C36.5314374,25.370931 35.5822562,25.3381391 34.9765936,25.9033508 L34.9765936,25.9033508 L27.469,32.909 L25.0664354,30.480055 L24.9530769,30.3764643 C24.3665486,29.8927268 23.4973117,29.9223047 22.9451467,30.4684729 C22.3561707,31.0510523 22.3509852,32.0007856 22.9335646,32.5897616 L22.9335646,32.5897616 L26.3610232,36.0548533 L26.4720138,36.1564758 C27.0461062,36.6318369 27.8946947,36.6156741 28.450865,36.0966492 L28.450865,36.0966492 L37.0234064,28.0966492 L37.1302486,27.9863499 C37.630832,27.4141317 37.6265352,26.5444023 37.0966492,25.9765936 Z" id="Combined-Shape" fill="url(#linearGradient-1)"></path>
                    </g>
                </g>
            </g>
        </g>
    </g>
</svg>