<?xml version="1.0" encoding="UTF-8"?>
<svg width="58px" height="64px" viewBox="0 0 58 64" version="1.1" xmlns="http://www.w3.org/2000/svg" xmlns:xlink="http://www.w3.org/1999/xlink">
    <title>Secure_icon Copy</title>
    <defs>
        <linearGradient x1="16.53625%" y1="16.3848808%" x2="52.7980511%" y2="74.9724534%" id="linearGradient-1">
            <stop stop-color="#9BC8FE" offset="0%"></stop>
            <stop stop-color="#74ABFC" offset="100%"></stop>
        </linearGradient>
    </defs>
    <g id="HS_Website" stroke="none" stroke-width="1" fill="none" fill-rule="evenodd">
        <g id="[desktop]-Services" transform="translate(-771.000000, -4625.000000)">
            <g id="Group-25-Copy-3" transform="translate(637.000000, 4626.000000)">
                <g id="Group-11" transform="translate(126.000000, 0.000000)">
                    <g id="Secure_icon-Copy" transform="translate(9.000000, 0.000000)">
                        <path d="M28.0555556,62 C36.6493056,62 55.5555556,35.1141146 55.5555556,18.9444444 C55.5555556,8.94892909 52.8724042,15.6158656 45.2430556,10.3333333 C40.5304641,7.0703528 34.2172625,0 28.0555556,0 C21.7456075,0 15.6442397,6.92557077 10.8680556,10.3333333 C3.42961973,15.6405875 0.555555556,9.09746973 0.555555556,18.9444444 C0.555555556,35.1141146 19.4618056,62 28.0555556,62 Z" id="Oval-Copy-25" stroke="#4A4A4A" stroke-width="2"></path>
                        <rect id="Rectangle" stroke="#4A4A4A" stroke-width="2" x="17.4693487" y="24" width="21.1724138" height="19" rx="4"></rect>
                        <rect id="Rectangle" fill="url(#linearGradient-1)" x="21.3477516" y="28" width="13.415608" height="11" rx="1"></rect>
                        <path d="M31.2279693,13 L24.8831418,13 C24.0547146,13 23.3047146,13.3357864 22.7618214,13.8786797 C22.2189282,14.4215729 21.8831418,15.1715729 21.8831418,16 L21.8831418,24 L34.2279693,24 L34.2279693,16 C34.2279693,15.1715729 33.8921829,14.4215729 33.3492897,13.8786797 C32.8063965,13.3357864 32.0563965,13 31.2279693,13 Z" id="Rectangle-Copy" stroke="#4A4A4A" stroke-width="2"></path>
                    </g>
                </g>
            </g>
        </g>
    </g>
</svg>