<?xml version="1.0" encoding="UTF-8"?>
<svg width="18px" height="18px" viewBox="0 0 18 18" version="1.1" xmlns="http://www.w3.org/2000/svg" xmlns:xlink="http://www.w3.org/1999/xlink">
    <!-- Generator: Sketch 59.1 (86144) - https://sketch.com -->
    <title>close</title>
    <desc>Created with Sketch.</desc>
    <g id="Page-1" stroke="none" stroke-width="1" fill="none" fill-rule="evenodd" opacity="0.445917039">
        <g id="Group-15" transform="translate(-329.000000, -47.000000)" fill="#D8D8D8">
            <g id="close" transform="translate(337.863961, 56.363961) rotate(-315.000000) translate(-337.863961, -56.363961) translate(322.863961, 41.363961)">
                <g id="Group-12" transform="translate(15.000000, 15.000000) rotate(-315.000000) translate(-15.000000, -15.000000) translate(5.000000, 5.000000)">
                    <path d="M17.7777778,2.22222222 C18.6145529,3.05899737 18.6145529,4.41567795 17.7777778,5.2524531 L5.2524531,17.7777778 C4.41567795,18.6145529 3.05899737,18.6145529 2.22222222,17.7777778 C1.38544707,16.9410026 1.38544707,15.584322 2.22222222,14.7475469 L14.7475469,2.22222222 C15.584322,1.38544707 16.9410026,1.38544707 17.7777778,2.22222222 Z" id="Rectangle"></path>
                    <path d="M17.7777778,17.7777778 C16.9410026,18.6145529 15.584322,18.6145529 14.7475469,17.7777778 L2.22222222,5.2524531 C1.38544707,4.41567795 1.38544707,3.05899737 2.22222222,2.22222222 C3.05899737,1.38544707 4.41567795,1.38544707 5.2524531,2.22222222 L17.7777778,14.7475469 C18.6145529,15.584322 18.6145529,16.9410026 17.7777778,17.7777778 Z" id="Rectangle"></path>
                </g>
            </g>
        </g>
    </g>
</svg>