<?xml version="1.0" encoding="UTF-8"?>
<svg width="27px" height="25px" viewBox="0 0 27 25" version="1.1" xmlns="http://www.w3.org/2000/svg" xmlns:xlink="http://www.w3.org/1999/xlink">
    <!-- Generator: Sketch 59.1 (86144) - https://sketch.com -->
    <title>Error</title>
    <desc>Created with Sketch.</desc>
    <g id="Page-1" stroke="none" stroke-width="1" fill="none" fill-rule="evenodd">
        <g id="Group-15" transform="translate(-21.000000, -206.000000)">
            <g id="Error" transform="translate(21.000000, 205.000000)">
                <path d="M16.5,1.73205081 L22.191343,5.01794919 C24.0477494,6.08974596 25.191343,8.07050808 25.191343,10.2141016 L25.191343,16.7858984 C25.191343,18.9294919 24.0477494,20.910254 22.191343,21.9820508 L16.5,25.2679492 C14.6435935,26.339746 12.3564065,26.339746 10.5,25.2679492 L4.80865705,21.9820508 C2.95225059,20.910254 1.80865705,18.9294919 1.80865705,16.7858984 L1.80865705,10.2141016 C1.80865705,8.07050808 2.95225059,6.08974596 4.80865705,5.01794919 L10.5,1.73205081 C12.3564065,0.660254038 14.6435935,0.660254038 16.5,1.73205081 Z" id="Polygon" fill="#ED5E6A" transform="translate(13.500000, 13.500000) rotate(-90.000000) translate(-13.500000, -13.500000) "></path>
                <rect id="Rectangle-Copy-26" fill="#FFFFFF" transform="translate(13.496602, 13.523219) rotate(-270.000000) translate(-13.496602, -13.523219) " x="11.4966016" y="5.52321889" width="4" height="16" rx="2"></rect>
            </g>
        </g>
    </g>
</svg>