<?xml version="1.0" encoding="UTF-8"?>
<svg width="135px" height="143px" viewBox="0 0 135 143" version="1.1" xmlns="http://www.w3.org/2000/svg" xmlns:xlink="http://www.w3.org/1999/xlink">
    <!-- Generator: Sketch 57.1 (83088) - https://sketch.com -->
    <title>Rectangle Copy 37</title>
    <desc>Created with Sketch.</desc>
    <g id="HS_Website" stroke="none" stroke-width="1" fill="none" fill-rule="evenodd" opacity="0.0783807664">
        <g id="[desktop]-Custom-Software-Development-Services" transform="translate(-979.000000, -5074.000000)" fill="#74ABFC">
            <path d="M1012.54309,5093.71443 L1051.19355,5117.87097 L1051.19355,5117.87097 L1078.17427,5099.88382 C1084.1197,5095.9202 1092.15256,5097.52678 1096.11618,5103.4722 C1099.01345,5107.8181 1099.01345,5113.47983 1096.11618,5117.82573 L1078.12903,5144.80645 L1078.12903,5144.80645 L1100.15591,5180.04945 C1103.94302,5186.10883 1102.10098,5194.091 1096.0416,5197.87811 C1091.72953,5200.57315 1086.23863,5200.49242 1082.00766,5197.67177 L1051.19355,5177.12903 L1051.19355,5177.12903 L1015.95055,5199.15591 C1009.89117,5202.94302 1001.909,5201.10098 998.12189,5195.0416 C995.42685,5190.72953 995.507581,5185.23863 998.328227,5181.00766 L1018.87097,5150.19355 L1018.87097,5150.19355 L994.714433,5111.54309 C990.927319,5105.48371 992.769356,5097.50155 998.828739,5093.71443 C1003.02418,5091.09228 1008.34765,5091.09228 1012.54309,5093.71443 Z" id="Rectangle-Copy-37" transform="translate(1048.500000, 5147.500000) rotate(53.000000) translate(-1048.500000, -5147.500000) "></path>
        </g>
    </g>
</svg>