<?xml version="1.0" encoding="UTF-8"?>
<svg width="154px" height="54px" viewBox="0 0 154 54" version="1.1" xmlns="http://www.w3.org/2000/svg" xmlns:xlink="http://www.w3.org/1999/xlink">
    <!-- Generator: Sketch 63.1 (92452) - https://sketch.com -->
    <title>logo</title>
    <desc>Created with Sketch.</desc>
    <g id="Page-1" stroke="none" stroke-width="1" fill="none" fill-rule="evenodd">
        <g id="[Desktop]-Project_SaraEventsV2" transform="translate(-222.000000, -300.000000)">
            <g id="logo" transform="translate(222.000000, 300.000000)">
                <g id="sara_logo-copy" transform="translate(19.500000, 0.000000)" fill="#302D3F">
                    <path d="M22.09644,2.49807776 L22.09644,1.02396362 C22.09644,0.930446226 22.0289331,0.851862124 21.9327324,0.833392674 C21.6398669,0.777174223 21.3462772,0.724650519 21.0525481,0.674557119 C20.2819265,0.54321357 19.5086423,0.426344685 18.7329969,0.32552352 C17.9656179,0.225769631 17.1951087,0.143987986 16.4230478,0.0850734841 C15.7358944,0.0327555202 15.0449498,0 14.3554487,0 C12.255396,0 10.053233,0.19822619 8.05214688,0.835664387 C6.56436031,1.30955215 5.08628825,1.98111747 3.8877333,2.95950969 C2.90944592,3.75806801 2.11484828,4.70720228 1.60109899,5.83756348 C1.12049597,6.89517417 0.860830654,8.00256107 0.860830654,9.15557081 C0.860830654,10.2730561 1.04774057,11.4154231 1.59786082,12.4139093 C2.11830233,13.3584872 2.81393337,14.1718203 3.65708109,14.8723263 C4.57578163,15.6354674 5.60605515,16.2647188 6.69670255,16.7800718 C7.92203538,17.3590198 9.1739302,17.8871329 10.440109,18.3795202 C11.7131913,18.8744534 12.9904068,19.3595026 14.2670782,19.8462448 C15.4927483,20.313536 16.6992233,20.8577097 17.8246765,21.5173678 C18.8577565,22.1228049 19.802106,22.8725428 20.5545355,23.7828694 C21.381173,24.7831686 21.7488583,25.9667951 21.7488583,27.2347706 C21.7488583,28.2942972 21.5563625,29.3442527 21.0903718,30.3109434 C20.6096608,31.3080451 19.8493113,32.1134057 18.9012694,32.7295841 C17.8508023,33.4125337 16.6222223,33.8271769 15.3882993,34.0901769 C13.8429407,34.4195238 12.1935784,34.5094965 10.613504,34.5094965 C8.3721771,34.5094965 6.09982222,34.3910202 3.8877333,34.033907 C2.78851373,33.8564949 1.69482604,33.6318525 0.618772889,33.3486 C0.555336223,33.3319051 0.49327578,33.3433022 0.440902865,33.3812955 C0.388543442,33.4192888 0.360483793,33.4732613 0.360483793,33.5359777 L0.360483793,35.26989 C0.360483793,35.362353 0.426295117,35.440187 0.521092567,35.4598437 C0.864505078,35.5310426 1.20921736,35.596558 1.55334047,35.6585714 C2.43208557,35.8168112 3.31719009,35.9445329 4.20396317,36.0535408 C5.18894277,36.174773 6.17950371,36.2598508 7.16948898,36.3349245 C8.18336926,36.4118198 9.20025833,36.4499974 10.2173723,36.4499974 C12.2608649,36.4499974 14.332912,36.2789975 16.322615,35.8213803 C17.9248844,35.4530029 19.5007133,34.8802185 20.866875,33.9893558 C22.0491267,33.218448 22.9875711,32.2482469 23.6733887,31.0506815 C24.3936793,29.7928173 24.6604821,28.3683165 24.6604821,26.9467775 C24.6604821,25.809404 24.473905,24.6415081 23.9198854,23.6221865 C23.3997767,22.6654955 22.7106175,21.8181168 21.8651266,21.1028361 C20.9449734,20.3242731 19.9074455,19.688005 18.8121162,19.1573416 C17.5942582,18.5673265 16.3459298,18.0358101 15.0812083,17.5439544 C13.8081214,17.0489139 12.5309059,16.5638605 11.2543515,16.0772297 C10.0236577,15.6081297 8.82232332,15.0512987 7.69785952,14.380895 C6.66501346,13.7649394 5.71139464,13.0140228 4.96120041,12.0940221 C4.1407064,11.0876622 3.77245892,9.89839931 3.77245892,8.62905218 C3.77245892,6.50478254 4.74292971,4.78186447 6.55743872,3.55547842 C8.67859351,2.12171932 11.7028157,1.82117606 14.2303609,1.82117606 C15.8244944,1.82117606 17.4146027,1.94889773 18.9906519,2.1735015 C19.9490335,2.31004427 20.9021261,2.48172143 21.8469974,2.68759001 C21.909593,2.70123742 21.9693957,2.68823294 22.0196144,2.65008532 C22.0698195,2.61194627 22.09644,2.55927683 22.09644,2.49807776 L22.09644,2.49807776 Z" id="path122"></path>
                    <path d="M32.3135724,38.3551141 L38.9465252,22.0726252 C38.9704154,22.0139689 39.0153583,21.9741216 39.0750691,21.9586302 C39.1347841,21.9431432 39.1925894,21.9563406 39.240445,21.9963866 L58.8794743,38.4313571 C58.9146222,38.4607673 58.9534975,38.4749973 58.9987246,38.4749973 L60.920298,38.4749973 C60.9861475,38.4749973 61.042766,38.4433666 61.0788499,38.3864122 C61.1149296,38.3294709 61.1203537,38.2631768 61.0940356,38.2007707 L45.8876475,2.14262797 C45.8568874,2.06968117 45.7911549,2.02499986 45.7141857,2.02499986 C45.6372248,2.02499986 45.5713628,2.0692535 45.5404021,2.14210094 L38.4890557,18.7313673 C38.46443,18.7893109 38.4192865,18.8283158 38.3597386,18.8430684 C38.3002033,18.8578384 38.2428703,18.8442348 38.1954911,18.8041543 L30.433018,12.2347478 C30.372998,12.1839408 30.2939769,12.1755514 30.2252149,12.2126815 L28.8123514,12.9755816 C28.7541449,13.0070136 28.7181822,13.0618987 28.7115505,13.1294326 C28.704902,13.1969664 28.7294482,13.2582062 28.780346,13.3011033 L37.5183255,20.6648419 C37.5852615,20.7212562 37.6068199,20.8135003 37.572186,20.89529 L30.2418089,38.200477 C30.2153696,38.2628917 30.2207226,38.3292506 30.2567815,38.3862783 C30.2928528,38.4433061 30.349509,38.4749973 30.4154169,38.4749973 L32.1388987,38.4749973 C32.2167956,38.4749973 32.283343,38.4293353 32.3135724,38.3551141 Z M57.4318391,35.1767704 L39.8492162,20.2109483 C39.7832831,20.1548278 39.7618417,20.0640266 39.7953557,19.9828114 L45.5415972,6.05615928 C45.5720732,5.98229233 45.638491,5.93710969 45.7161748,5.93710969 C45.7938544,5.93710969 45.8601678,5.98267249 45.8904557,6.05662583 L57.7268244,34.949113 C57.7612953,35.0332528 57.7365151,35.1278512 57.6656887,35.1825117 C57.5948539,35.2371894 57.5000788,35.2348523 57.4318391,35.1767704 Z" id="path124"></path>
                    <path d="M69.4694273,0.294478213 L81.4138017,19.8039867 C81.451569,19.8656872 81.4525216,19.9371904 81.4163798,19.9998211 C81.3802511,20.0624561 81.317275,20.0984692 81.2439122,20.0984692 L69.4086622,20.0984692 C69.2995159,20.0984692 69.2104789,20.1858015 69.2104789,20.2928677 L69.2104789,36.2555989 C69.2104789,36.3626651 69.2995159,36.4499974 69.4086622,36.4499974 L70.9853107,36.4499974 C71.0944614,36.4499974 71.183494,36.3626651 71.183494,36.2555989 L71.183494,22.1756072 C71.183494,22.068541 71.2725309,21.9812086 71.3816816,21.9812086 L82.6314007,21.9812086 C82.7027754,21.9812086 82.7640735,22.01513 82.8009974,22.0750432 L91.6018762,36.3561628 C91.6388002,36.416076 91.7001027,36.4499974 91.771473,36.4499974 L93.783457,36.4499974 C93.8566975,36.4499974 93.9195862,36.4141044 93.9557673,36.3516451 C93.9919571,36.2891816 93.9912143,36.2178241 93.9537135,36.1561021 L85.500217,22.2367934 C85.465644,22.1798592 85.462275,22.1155011 85.4907392,22.055395 C85.5192034,21.9953018 85.5715262,21.9563098 85.6381772,21.9455085 C87.5573488,21.6345668 88.77781,21.322995 90.5125716,20.1358153 C91.5328131,19.4375552 92.43901,18.6073215 93.2013782,17.6424052 C93.947596,16.6978787 94.5247195,15.6572287 94.9315079,14.5306094 C95.8243553,12.0582405 95.7119229,9.27388844 94.6959768,6.85364469 C94.1437954,5.53832325 93.3785432,4.34652723 92.3776507,3.31684147 C91.3763474,2.28675279 90.1949906,1.48362533 88.8761937,0.890729837 C87.5138353,0.278233327 86.0695276,0 84.5719183,0 L69.6393168,0 C69.5659539,0 69.5029778,0.03601307 69.4668491,0.0986437506 C69.430703,0.161278718 69.4316469,0.232781935 69.4694273,0.294478213 L69.4694273,0.294478213 Z M73.4791632,1.88275233 L84.5719227,1.88275233 C85.8254188,1.88275233 87.0311977,2.14007733 88.1568889,2.68150353 C89.2256604,3.19553631 90.1738762,3.88771849 90.9835333,4.74300533 C91.7900748,5.59495318 92.4220468,6.56374419 92.8730303,7.63950714 C93.7704833,9.78079748 93.7993933,12.1452857 92.8881407,14.2866875 C92.4467837,15.3235784 91.8344797,16.2634287 91.05628,17.0877688 C89.027228,19.237383 87.2076068,19.8721123 84.3226182,20.0915554 C84.2456504,20.0974233 84.1765436,20.0623104 84.1370197,19.997258 L73.3089241,2.17668619 C73.271419,2.11496419 73.270663,2.04359385 73.3068266,1.98111747 C73.3430077,1.91864109 73.4058921,1.88275233 73.4791457,1.88275233 L73.4791632,1.88275233 Z" id="path126"></path>
                    <path d="M105.213513,38.3549741 L111.809257,22.1311296 C111.833089,22.0725114 111.877915,22.0326578 111.937529,22.0170818 C111.997161,22.0015016 112.05492,22.0145759 112.102821,22.0544252 L131.77953,38.4316915 C131.814615,38.4608904 131.853339,38.4749973 131.898374,38.4749973 L133.820299,38.4749973 C133.886148,38.4749973 133.942758,38.4433615 133.978838,38.3864111 C134.014918,38.3294736 134.020346,38.2631777 133.994049,38.2007659 L118.798602,2.14267694 C118.767863,2.06974014 118.702168,2.02499986 118.62522,2.02499986 C118.548263,2.02499986 118.482414,2.06917845 118.451403,2.14200292 L111.389126,18.7284705 C111.364463,18.7863887 111.319332,18.825348 111.259797,18.8400814 C111.200274,18.8548278 111.142966,18.841248 111.095608,18.8011437 L103.333008,12.2305705 C103.272988,12.1797554 103.193968,12.1713647 103.125206,12.2085007 L101.712349,12.9715222 C101.654139,13.0029593 101.618176,13.0578531 101.611544,13.1253977 C101.6049,13.1929423 101.629442,13.2541918 101.68034,13.2970958 L110.418302,20.6620066 C110.485238,20.7184299 110.506796,20.8106887 110.472162,20.8924914 L103.1418,38.2004333 C103.11536,38.2628579 103.120718,38.3292274 103.156772,38.3862642 C103.192843,38.443301 103.249499,38.4749973 103.315407,38.4749973 L105.038794,38.4749973 C105.116736,38.4749973 105.183305,38.4292676 105.213513,38.3549741 L105.213513,38.3549741 Z M130.331788,35.1762454 L112.749188,20.2080408 C112.683255,20.1519113 112.661818,20.0610957 112.695328,19.9798675 L118.441558,6.05099839 C118.472038,5.97711968 118.538451,5.93192985 118.616135,5.93192985 C118.693819,5.93192985 118.760128,5.9774999 118.790415,6.05146502 L130.626773,34.9485517 C130.661244,35.0327049 130.636464,35.1273184 130.565638,35.1819875 C130.494803,35.2366739 130.400028,35.2343365 130.331788,35.1762454 L130.331788,35.1762454 Z" id="path128"></path>
                    <path d="M121.608138,50.8843556 L121.608138,46.7633136 C121.608138,46.6721991 121.694866,46.5978784 121.801191,46.5978784 L122.263255,46.5978784 C122.365357,46.5978784 122.466298,46.6527207 122.466298,46.7476689 L122.466298,52.4776427 C122.466298,52.5854962 122.377033,52.6234025 122.263255,52.6234025 L121.73326,52.6234025 C121.670552,52.6234025 121.616608,52.6003056 121.578938,52.557351 L120.409295,51.2236339 L117.681971,48.0827721 C117.631403,48.0245301 117.546701,48.0016558 117.466294,48.0245192 C117.385896,48.047379 117.333953,48.109108 117.334038,48.1816925 C117.335656,49.6070931 117.342653,51.0325156 117.3431,52.4579272 C117.343126,52.5490599 117.256394,52.6234025 117.150048,52.6234025 L116.650385,52.6234025 C116.553523,52.6234025 116.484817,52.5883195 116.47624,52.5038765 C116.47573,52.4988501 116.475517,52.4945605 116.475517,52.4895121 L116.475517,46.7557666 C116.475517,46.7122466 116.492011,46.6725201 116.528124,46.6415954 C116.56433,46.6105868 116.610893,46.5978784 116.661329,46.5978784 L117.30958,46.5978784 C117.379984,46.5978784 117.437273,46.6224963 117.479553,46.6707218 L121.260737,50.983732 C121.31151,51.0416457 121.396028,51.0642173 121.47621,51.0412846 C121.556386,51.0183482 121.608138,50.9567869 121.608138,50.8843556 L121.608138,50.8843556 Z M103.339133,48.2319023 L105.132692,49.4973793 C105.199853,49.5447658 105.221689,49.6214357 105.187555,49.6900077 L104.601395,50.8676057 C104.570348,50.9299767 104.502707,50.9682113 104.423581,50.9681276 C104.344451,50.9681276 104.276921,50.9296557 104.246056,50.8672117 L103.038657,48.4241295 C103.003545,48.3530843 103.028786,48.2732119 103.100931,48.2270546 C103.173084,48.1808864 103.269623,48.1828634 103.339133,48.2319023 L103.339133,48.2319023 Z M126.610095,47.4967161 L126.610095,52.4675606 C126.610095,52.5101614 126.593856,52.5476629 126.55948,52.5786423 C126.521665,52.6127222 126.470228,52.6254306 126.416438,52.6254306 L125.936122,52.6254306 C125.886264,52.6254306 125.842575,52.610085 125.806496,52.5807215 C125.768923,52.550136 125.75191,52.5118175 125.75191,52.4675606 L125.75191,47.4967161 C125.75191,47.4056016 125.665182,47.3312772 125.558857,47.3312772 L123.713572,47.3312772 C123.58862,47.3312772 123.529352,47.2583608 123.529352,47.1572482 L123.529352,46.7456627 C123.529352,46.6517687 123.607234,46.5958722 123.713572,46.5958722 L128.629563,46.5958722 C128.730193,46.5958722 128.797196,46.636868 128.824293,46.7132679 C128.830112,46.7296568 128.832645,46.7442802 128.832645,46.7614022 L128.832645,47.1572482 C128.832645,47.2677827 128.758559,47.3312772 128.629563,47.3312772 L126.803152,47.3312772 C126.696827,47.3312772 126.610095,47.4056016 126.610095,47.4967161 L126.610095,47.4967161 Z M106.488212,49.5233724 C106.906969,49.8109745 107.323424,50.1010862 107.735712,50.3954911 C107.814586,50.4518035 108.006051,50.5800364 108.049958,50.6519789 C108.102177,50.7375307 108.028551,50.7994348 107.943403,50.8375491 L107.487685,51.0415217 C107.417912,51.0727564 107.337803,51.0658514 107.276666,51.0233418 L106.657504,50.5928068 L106.213867,50.2798098 C106.165606,50.2457627 106.107074,50.2341814 106.046273,50.2466308 C105.985485,50.2590875 105.939394,50.2921023 105.914319,50.3411777 L104.843028,52.437628 C104.813394,52.4956329 104.788778,52.5475826 104.744352,52.5992296 C104.694942,52.6566544 104.527118,52.6607799 104.456604,52.6343528 C104.348095,52.5936852 104.175155,52.2061632 104.117674,52.0998088 C104.11712,52.098751 104.116652,52.0978756 104.116099,52.0968178 L102.132092,48.228572 C101.907183,47.7900523 101.687791,47.3494534 101.474272,46.9067681 C101.452274,46.8611689 101.403673,46.7441963 101.403673,46.6979259 C101.403673,46.601019 101.50054,46.5749967 101.597526,46.5749967 L102.124877,46.5749967 C102.237115,46.5749967 102.242086,46.593151 102.325421,46.6502987 C102.425004,46.7186044 102.517874,46.7921628 102.615473,46.8618292 C103.563093,47.5383503 104.533626,48.1906876 105.499413,48.8479054 C105.54833,48.8811902 105.607028,48.8919106 105.667527,48.8785821 C105.728026,48.8652573 105.773431,48.8316187 105.797548,48.7822478 L106.825996,46.6772985 C106.856695,46.6144606 106.924587,46.5757481 107.004079,46.5757481 L107.538815,46.5757481 C107.606997,46.5757481 107.691184,46.5865561 107.725764,46.644353 C107.7685,46.7157702 107.710198,46.826779 107.675268,46.8951249 L106.432084,49.3279098 C106.396572,49.397412 106.41911,49.4759129 106.488203,49.5233615 L106.488212,49.5233724 Z M111.404271,49.4083513 L114.31367,49.4083513 C114.421285,49.4083513 114.488505,49.4767081 114.488505,49.5662505 L114.488505,49.9859118 C114.488505,50.0751843 114.423894,50.1518359 114.31367,50.1518359 L111.404271,50.1518359 C111.297946,50.1518359 111.211218,50.2261566 111.211218,50.3172711 L111.211218,51.7245867 C111.211218,51.8157012 111.297946,51.8900219 111.404271,51.8900219 L115.095322,51.8900219 C115.217997,51.8900219 115.298403,51.9478735 115.298403,52.055986 L115.298403,52.4594555 C115.298403,52.5730067 115.2373,52.6254306 115.104784,52.6254306 L110.527821,52.6254306 C110.407679,52.6254306 110.343609,52.5705044 110.343609,52.4675606 L110.343609,46.7376087 C110.343609,46.6313054 110.412144,46.5958722 110.527821,46.5958722 L115.133018,46.5958722 C115.246856,46.5958722 115.307815,46.6481064 115.307815,46.7456627 L115.307815,47.1653569 C115.307815,47.2695701 115.248197,47.3312772 115.123594,47.3312772 L111.404271,47.3312772 C111.297946,47.3312772 111.211218,47.4056016 111.211218,47.4967161 C111.211218,48.0787925 111.211218,48.6608506 111.211218,49.242916 C111.211218,49.3340305 111.297946,49.4083513 111.404271,49.4083513 L111.404271,49.4083513 Z M133.808024,51.6856773 C133.671328,51.9004761 133.483089,52.0758511 133.247347,52.2140822 C132.987641,52.3663567 132.690409,52.4650291 132.385697,52.5280276 C132.025953,52.602414 131.6522,52.6307233 131.282695,52.6307233 C130.929238,52.6307233 130.573592,52.6068094 130.223166,52.5680641 C129.983197,52.5415239 129.742688,52.5087644 129.507031,52.4613049 C129.407836,52.4413304 129.339543,52.367451 129.339543,52.2801228 L129.339543,51.8699635 C129.339543,51.8094455 129.370386,51.7568173 129.427033,51.7206801 C129.483645,51.6845501 129.551397,51.6743149 129.619026,51.6916667 C129.824665,51.7444189 130.034697,51.7847035 130.246283,51.815413 C130.609177,51.8680923 130.98259,51.8852362 131.350277,51.8852362 C131.862496,51.8852362 132.654428,51.830507 132.90056,51.3714729 C133.025793,51.137907 133.033271,50.811359 132.841257,50.6018748 C132.732276,50.4829872 132.593678,50.38542 132.443868,50.3064777 C132.264594,50.2119928 132.071877,50.1341849 131.876637,50.0672543 C131.658257,49.9923937 131.43978,49.9177739 131.221992,49.8416293 C130.794909,49.6923057 130.342592,49.5270857 129.991646,49.2650244 C129.82335,49.1393412 129.68447,48.992622 129.580618,48.8231525 C129.466572,48.6370169 129.424909,48.4277479 129.424909,48.2191429 C129.424909,48.0116248 129.476528,47.8114676 129.57274,47.6211008 C129.676217,47.4163549 129.835719,47.24338 130.03268,47.0984883 C130.561299,46.7096312 131.310627,46.5905576 131.988767,46.5905576 C132.386723,46.5905576 132.786126,46.6388232 133.177412,46.6975539 C133.251459,46.7086683 133.325136,46.7213438 133.398677,46.7346832 C133.500043,46.7530783 133.570868,46.82799 133.570868,46.9167663 L133.570868,47.2838688 C133.570868,47.3425886 133.541971,47.3936592 133.488155,47.4300226 C133.434449,47.4663167 133.369537,47.4785253 133.303019,47.4648467 C132.630357,47.3265098 131.401471,47.1826759 130.809339,47.5425488 C130.568851,47.6887135 130.444248,47.8850953 130.444248,48.1383694 C130.444248,48.283035 130.487686,48.4178227 130.592091,48.5325849 C130.824071,48.7875734 131.212581,48.9553066 131.556648,49.0732495 C131.775032,49.1481101 131.993518,49.2227227 132.21131,49.2988636 C132.433805,49.3766605 132.653368,49.4607752 132.86761,49.5541038 C133.283967,49.7354719 133.634696,49.9749434 133.852726,50.3357391 C133.979491,50.5455224 134.021359,50.8001607 134.008146,51.0341279 C133.995649,51.2552845 133.93229,51.4904007 133.808024,51.6856773 L133.808024,51.6856773 Z M96.596139,49.4083513 L99.5055509,49.4083513 C99.6131912,49.4083513 99.6803599,49.4766899 99.6803599,49.5662505 L99.6803599,49.9859118 C99.6803599,50.0751952 99.615809,50.1518359 99.5055509,50.1518359 L96.596139,50.1518359 C96.489814,50.1518359 96.4030863,50.2261566 96.4030863,50.3172711 L96.4030863,51.7245867 C96.4030863,51.8157012 96.489814,51.8900219 96.596139,51.8900219 L100.287203,51.8900219 C100.409877,51.8900219 100.490284,51.9478735 100.490284,52.055986 L100.490284,52.4594555 C100.490284,52.5730176 100.429181,52.6254306 100.296648,52.6254306 L95.7196974,52.6254306 C95.5995598,52.6254306 95.5354771,52.5705153 95.5354771,52.4675606 L95.5354771,46.7376087 C95.5354771,46.6313054 95.604025,46.5958722 95.7196974,46.5958722 L100.324882,46.5958722 C100.438724,46.5958722 100.499695,46.6481064 100.499695,46.7456627 L100.499695,47.1653569 C100.499695,47.2695591 100.440091,47.3312772 100.315484,47.3312772 L96.596139,47.3312772 C96.489814,47.3312772 96.4030863,47.4056016 96.4030863,47.4967161 C96.4030863,48.0787925 96.4030863,48.6608506 96.4030863,49.242916 C96.4030863,49.3340305 96.489814,49.4083513 96.596139,49.4083513 L96.596139,49.4083513 Z" id="path130"></path>
                </g>
                <rect id="Rectangle" fill="#CC9933" transform="translate(3.375000, 26.625000) rotate(-90.000000) translate(-3.375000, -26.625000) " x="-23.25" y="23.25" width="53.25" height="6.75"></rect>
            </g>
        </g>
    </g>
</svg>