<?xml version="1.0" encoding="UTF-8"?>
<svg width="46px" height="35px" viewBox="0 0 46 35" version="1.1" xmlns="http://www.w3.org/2000/svg" xmlns:xlink="http://www.w3.org/1999/xlink">
    <title>Testing</title>
    <g id="HS_Website" stroke="none" stroke-width="1" fill="none" fill-rule="evenodd">
        <g id="[desktop]-Services" transform="translate(-1154.000000, -4138.000000)" stroke-width="1.5">
            <g id="Group-6-Copy-5" transform="translate(832.000000, 3955.000000)">
                <g id="Group-7" transform="translate(322.000000, 173.399996)">
                    <g id="Testing" transform="translate(0.000000, 9.600004)">
                        <path d="M18.2724884,6.83173859 C17.6671016,6.97017801 17.1261339,7.27767206 16.701903,7.70190296 C16.1137686,8.29003728 15.75,9.10253728 15.75,10 L15.75,25 C15.75,25.8974627 16.1137686,26.7099627 16.701903,27.298097 C17.2900373,27.8862314 18.1025373,28.25 19,28.25 L28,28.25 C28.8974627,28.25 29.7099627,27.8862314 30.298097,27.298097 C30.8862314,26.7099627 31.25,25.8974627 31.25,25 L31.25,10 C31.25,9.09587546 30.8793674,8.27806119 30.2505534,7.69124821 C29.8439727,7.3118246 29.3317659,7.03015965 28.75,7.04545455 C28.75,7.817398 28.4371081,8.51626164 27.9312303,9.02213941 C27.4253525,9.52801718 26.7264889,9.84090909 25.9545455,9.84090909 L20.8668552,9.83527038 C20.1290123,9.7885291 19.4686552,9.45597353 18.995962,8.94655863 C18.5800999,8.49838975 18.2766893,7.92088411 18.2724884,6.83173859 Z" id="Combined-Shape" stroke="#E56940"></path>
                        <rect id="Rectangle" stroke="#E56940" x="18.25" y="4.34090909" width="10.5" height="5.5" rx="2.75"></rect>
                        <rect id="Rectangle" stroke="#E56940" fill="#E56940" x="19.2603938" y="14.1720632" width="8.5" height="1" rx="0.5"></rect>
                        <rect id="Rectangle" stroke="#E56940" fill="#E56940" x="19.2603938" y="18.6720632" width="8.5" height="1" rx="0.5"></rect>
                        <rect id="Rectangle" stroke="#E56940" fill="#E56940" x="19.2603938" y="23.1720632" width="8.5" height="1" rx="0.5"></rect>
                        <rect id="Rectangle" stroke="#4A4A4A" x="0.75" y="0.75" width="44.5" height="33.5" rx="16.75"></rect>
                    </g>
                </g>
            </g>
        </g>
    </g>
</svg>