<?xml version="1.0" encoding="UTF-8"?>
<svg width="46px" height="35px" viewBox="0 0 46 35" version="1.1" xmlns="http://www.w3.org/2000/svg" xmlns:xlink="http://www.w3.org/1999/xlink">
    <title>security_testing</title>
    <g id="HS_Website" stroke="none" stroke-width="1" fill="none" fill-rule="evenodd">
        <g id="[desktop]-Services" transform="translate(-1154.000000, -4236.000000)" stroke-width="1.5">
            <g id="Group-6-Copy-5" transform="translate(832.000000, 3955.000000)">
                <g id="Group-11" transform="translate(322.000000, 271.000000)">
                    <g id="security_testing" transform="translate(0.000000, 10.000000)">
                        <path d="M22.6269922,6.90922353 C21.5082502,7.6181433 20.3628058,8.16717715 19.1913383,8.55766632 C18.6266048,8.7459108 18.0092313,8.9127681 17.339049,9.0576319 C16.6176575,9.21356487 15.9941089,9.60278402 15.5426689,10.1373489 C15.0912288,10.6719137 14.8118973,11.3518243 14.7789401,12.0891401 L14.7587715,12.6650844 C14.6837105,15.6324941 15.0799044,18.2460523 15.9602918,20.4959313 C17.0477129,23.2748962 19.0332042,25.906712 21.8980766,28.4037274 C22.1258821,28.6022821 22.4084032,28.7051221 22.69297,28.7111346 C22.9775369,28.7171471 23.2641496,28.6263322 23.8808927,28.125409 C26.3288525,26.0685816 28.1480696,23.523214 29.3326584,20.4959313 C30.3915236,17.7899426 30.831245,14.9862811 30.6518506,12.0849512 C30.6065323,11.3520228 30.315734,10.679758 29.8023781,10.144368 C29.2831065,9.6028086 28.5440895,9.20383009 27.6018783,8.9933424 C27.0984129,8.86845478 26.5983221,8.72323634 26.101612,8.55766632 C24.7254077,8.09893155 23.5684167,7.5472759 22.6269922,6.90922353 Z" id="Rectangle" stroke="#E56940"></path>
                        <g id="Group-4-Copy-4" stroke="#4A4A4A">
                            <g id="Group-2-Copy-3">
                                <rect id="Rectangle" x="0.75" y="0.75" width="44.5" height="33.5" rx="16.75"></rect>
                            </g>
                        </g>
                        <polyline id="Path-37-Copy" stroke="#E56940" stroke-linecap="round" stroke-linejoin="round" points="19.0620273 17.5908154 21.5809426 20.1097307 27.6336885 14.0569848"></polyline>
                    </g>
                </g>
            </g>
        </g>
    </g>
</svg>