<?xml version="1.0" encoding="UTF-8"?>
<svg width="88px" height="78px" viewBox="0 0 88 78" version="1.1" xmlns="http://www.w3.org/2000/svg" xmlns:xlink="http://www.w3.org/1999/xlink">
    <!-- Generator: Sketch 57.1 (83088) - https://sketch.com -->
    <title>apps</title>
    <desc>Created with Sketch.</desc>
    <g id="HS_Website" stroke="none" stroke-width="1" fill="none" fill-rule="evenodd">
        <g id="[desktop]-mobile-app-development" transform="translate(-227.000000, -4373.000000)">
            <g id="apps" transform="translate(227.000000, 4373.000000)">
                <path d="M43.750487,47.6265613 C41.1762059,44.2926431 39.75,40.175624 39.75,35.8392857 C39.75,31.5031573 41.1760672,27.3863243 43.7501205,24.0524849 L43.75,8 C43.75,4.27207794 40.7279221,1.25 37,1.25 L8,1.25 C4.27207794,1.25 1.25,4.27207794 1.25,8 L1.25,70 C1.25,73.7279221 4.27207794,76.75 8,76.75 L37,76.75 C40.7279221,76.75 43.75,73.7279221 43.75,69.9999728 L43.750487,47.6265613 Z" id="Combined-Shape" stroke="#4A4A4A" stroke-width="2.5"></path>
                <path d="M69.6824324,51.1636393 L69.6824324,67 C69.6824324,70.4517797 66.8842121,73.25 63.4324324,73.25 L54.5135135,73.25 C51.0617338,73.25 48.2635135,70.4517797 48.2635135,67.0000426 L48.2629964,51.8350004 C43.0048232,48.3426058 39.75,42.3757104 39.75,35.8392857 C39.75,25.3018798 48.1392314,16.75 58.5,16.75 C68.8607686,16.75 77.25,25.3018798 77.25,35.8392857 C77.25,41.9589135 74.3990347,47.5926812 69.6824324,51.1636393 Z" id="Combined-Shape" stroke="#4A4A4A" stroke-width="2.5"></path>
                <path d="M12,0 L34,0 L34,2.5 C34,3.88071187 32.8807119,5 31.5,5 L14.5,5 C13.1192881,5 12,3.88071187 12,2.5 L12,0 L12,0 Z" id="Rectangle" fill="#4A4A4A"></path>
                <rect id="Rectangle-Copy-67" fill="#4A4A4A" opacity="0.299037388" x="6" y="62" width="17" height="6" rx="3"></rect>
                <rect id="Rectangle-Copy-68" fill="#4A4A4A" opacity="0.299037388" x="6" y="45" width="17" height="6" rx="3"></rect>
                <rect id="Rectangle-Copy-69" fill="#4A4A4A" opacity="0.299037388" x="6" y="28" width="17" height="6" rx="3"></rect>
                <rect id="Rectangle-Copy-70" fill="#4A4A4A" opacity="0.299037388" x="6" y="11" width="17" height="6" rx="3"></rect>
                <g id="Group-22" transform="translate(29.000000, 5.000000)" stroke-width="2.5">
                    <g id="Group-19">
                        <path d="M18.222973,52.0535714 C18.222973,52.1620559 18.310917,52.25 18.4194015,52.25 L18.4194015,54.75 C18.310917,54.75 18.222973,54.8379441 18.222973,54.9464286 C18.222973,55.0549131 18.310917,55.1428571 18.4194015,55.1428571 L18.4194015,57.6428571 C18.310917,57.6428571 18.222973,57.7308012 18.222973,57.8392857 C18.222973,57.9477702 18.310917,58.0357143 18.4194015,58.0357143 L18.4194015,60.5357143 C18.310917,60.5357143 18.222973,60.6236584 18.222973,60.7321429 C18.222973,60.8406274 18.310917,60.9285714 18.4194015,60.9285714 L41.5265444,60.9285714 C41.6350289,60.9285714 41.722973,60.8406274 41.722973,60.7321429 C41.722973,60.6236584 41.6350289,60.5357143 41.5265444,60.5357143 L41.5265444,58.0357143 C41.6350289,58.0357143 41.722973,57.9477702 41.722973,57.8392857 C41.722973,57.7308012 41.6350289,57.6428571 41.5265444,57.6428571 L41.5265444,55.1428571 C41.6350289,55.1428571 41.722973,55.0549131 41.722973,54.9464286 C41.722973,54.8379441 41.6350289,54.75 41.5265444,54.75 L41.5265444,52.25 C41.6350289,52.25 41.722973,52.1620559 41.722973,52.0535714 C41.722973,51.9450869 41.6350289,51.8571429 41.5265444,51.8571429 L18.4194015,51.8571429 C18.310917,51.8571429 18.222973,51.9450869 18.222973,52.0535714 Z M18.5997106,51.9258947 L42.0997106,51.9258947 L42.0997106,63.4258947 L18.5997106,63.4258947 L18.5997106,51.9258947 Z" id="Combined-Shape" stroke="#4A4A4A"></path>
                        <rect id="Rectangle-Copy-57" stroke="#4A4A4A" transform="translate(30.000000, 3.446429) rotate(-270.000000) translate(-30.000000, -3.446429) " x="28.25" y="3.25" width="3.5" height="1" rx="0.5"></rect>
                        <rect id="Rectangle-Copy-61" stroke="#4A4A4A" transform="translate(56.000000, 30.446429) rotate(-180.000000) translate(-56.000000, -30.446429) " x="54.25" y="30.25" width="3.5" height="1" rx="0.5"></rect>
                        <rect id="Rectangle-Copy-62" stroke="#4A4A4A" transform="translate(3.000000, 30.446429) rotate(-180.000000) translate(-3.000000, -30.446429) " x="1.25" y="30.25" width="3.5" height="1" rx="0.5"></rect>
                        <rect id="Rectangle-Copy-63" stroke="#4A4A4A" transform="translate(9.000000, 11.446429) rotate(-135.000000) translate(-9.000000, -11.446429) " x="7.25" y="11.25" width="3.5" height="1" rx="0.5"></rect>
                        <rect id="Rectangle-Copy-64" stroke="#4A4A4A" transform="translate(50.000000, 11.446429) rotate(-45.000000) translate(-50.000000, -11.446429) " x="48.25" y="11.25" width="3.5" height="1" rx="0.5"></rect>
                        <path d="M35.1905075,57.8740904 L38.1843712,57.8740904 L36.9343712,56.6240904 L36.9343712,59.1240904 L38.1843712,57.8740904 L35.1905075,57.8740904 Z" id="Rectangle-Copy-37" stroke="#C5C5C5"></path>
                    </g>
                    <path d="M40,27 C38.4594705,22.9512523 35.0979593,19.8988235 31,19" id="Oval" stroke="#C5C5C5" stroke-linecap="round"></path>
                </g>
            </g>
        </g>
    </g>
</svg>