<?xml version="1.0" encoding="UTF-8"?>
<svg width="90px" height="86px" viewBox="0 0 90 86" version="1.1" xmlns="http://www.w3.org/2000/svg" xmlns:xlink="http://www.w3.org/1999/xlink">
    <!-- Generator: Sketch 57.1 (83088) - https://sketch.com -->
    <title>team</title>
    <desc>Created with Sketch.</desc>
    <g id="HS_Website" stroke="none" stroke-width="1" fill="none" fill-rule="evenodd">
        <g id="[desktop]-mobile-app-development" transform="translate(-227.000000, -5011.000000)" stroke-width="2.5">
            <g id="team" transform="translate(229.000000, 5013.000000)">
                <path d="M79,39.78039 L79,48 C79,62.9116882 69.456596,75 57.6842105,75 L49,75" id="Rectangle" stroke="#C5C5C5"></path>
                <g id="Group-45" transform="translate(0.000000, 49.000000)" stroke="#4A4A4A">
                    <path d="M28.2142857,33 C35.1375695,33 35.2857143,33 40.4285714,33 C40.4285714,26.1981773 35.1375695,21 28.2142857,21 C21.2910019,21 16,26.1981773 16,33 C19.8571429,33 21.2910019,33 28.2142857,33 Z" id="Oval-Copy-17"></path>
                    <ellipse id="Oval" cx="28.2142857" cy="12" rx="4.82142857" ry="5"></ellipse>
                    <path d="M12.2142857,14 C15.5608451,14 18.5260156,15.2145737 20.6965707,17.2377441 C16.0372285,18.1369175 12.4669145,21.5077521 11.3592991,26.0000804 L-2.78888024e-13,26 C-2.78888024e-13,19.1981773 5.29100189,14 12.2142857,14 Z" id="Combined-Shape"></path>
                    <path d="M44.2142857,14 C51.1375695,14 56.4285714,19.1981773 56.4285714,26 L56.4285714,26 L45.0692723,26.0000804 C43.9616785,21.5078392 40.3914814,18.1370482 35.7328892,17.2378067 C37.9026438,15.2145377 40.867776,14 44.2142857,14 Z" id="Combined-Shape"></path>
                    <ellipse id="Oval" cx="12.2142857" cy="5" rx="4.82142857" ry="5"></ellipse>
                    <ellipse id="Oval-Copy-19" cx="44.2142857" cy="5" rx="4.82142857" ry="5"></ellipse>
                </g>
                <path d="M84.2020636,49.7175144 L75.9091703,50.4246212 C74.8046008,50.4246212 73.9091703,49.5291907 73.9091703,48.4246212 L74.6162771,40.131728" id="Rectangle" stroke="#C5C5C5" stroke-linecap="round" transform="translate(79.055617, 45.278175) rotate(-225.000000) translate(-79.055617, -45.278175) "></path>
                <path d="M37.3337915,5 L37.3337915,13.21961 C37.3337915,28.1312983 27.7903875,40.21961 16.0180021,40.21961 L7.33379155,40.21961" id="Rectangle" stroke="#C5C5C5" transform="translate(22.333792, 22.609805) rotate(-180.000000) translate(-22.333792, -22.609805) "></path>
                <path d="M12.4246212,39.1611652 L4.13172798,39.868272 C3.02715848,39.868272 2.13172798,38.9728415 2.13172798,37.868272 L2.83883476,29.5753788" id="Rectangle" stroke="#C5C5C5" stroke-linecap="round" transform="translate(7.278175, 34.721825) rotate(-45.000000) translate(-7.278175, -34.721825) "></path>
                <g id="Group-45" transform="translate(29.000000, 0.000000)" stroke="#4A4A4A">
                    <path d="M28.2142857,33 C35.1375695,33 35.2857143,33 40.4285714,33 C40.4285714,26.1981773 35.1375695,21 28.2142857,21 C21.2910019,21 16,26.1981773 16,33 C19.8571429,33 21.2910019,33 28.2142857,33 Z" id="Oval-Copy-17"></path>
                    <ellipse id="Oval" cx="28.2142857" cy="12" rx="4.82142857" ry="5"></ellipse>
                    <path d="M12.2142857,14 C15.5608451,14 18.5260156,15.2145737 20.6965707,17.2377441 C16.0372285,18.1369175 12.4669145,21.5077521 11.3592991,26.0000804 L-2.78888024e-13,26 C-2.78888024e-13,19.1981773 5.29100189,14 12.2142857,14 Z" id="Combined-Shape"></path>
                    <path d="M44.2142857,14 C51.1375695,14 56.4285714,19.1981773 56.4285714,26 L56.4285714,26 L45.0692723,26.0000804 C43.9616785,21.5078392 40.3914814,18.1370482 35.7328892,17.2378067 C37.9026438,15.2145377 40.867776,14 44.2142857,14 Z" id="Combined-Shape"></path>
                    <ellipse id="Oval" cx="12.2142857" cy="5" rx="4.82142857" ry="5"></ellipse>
                    <ellipse id="Oval-Copy-19" cx="44.2142857" cy="5" rx="4.82142857" ry="5"></ellipse>
                </g>
            </g>
        </g>
    </g>
</svg>