<?xml version="1.0" encoding="UTF-8"?>
<svg width="89px" height="85px" viewBox="0 0 89 85" version="1.1" xmlns="http://www.w3.org/2000/svg" xmlns:xlink="http://www.w3.org/1999/xlink">
    <!-- Generator: Sketch 57.1 (83088) - https://sketch.com -->
    <title>up_to_date</title>
    <desc>Created with Sketch.</desc>
    <g id="HS_Website" stroke="none" stroke-width="1" fill="none" fill-rule="evenodd">
        <g id="[desktop]-mobile-app-development" transform="translate(-227.000000, -4790.000000)">
            <g id="up_to_date" transform="translate(224.000000, 4791.000000)">
                <g id="Group-41" transform="translate(0.000000, 17.000000)">
                    <path d="M23.1716028,20.4471107 C23.1716028,21.3605067 23.9018649,20.8667442 24.8026889,20.8667442 C25.7035129,20.8667442 26.4337751,21.3605067 26.4337751,20.4471107 L26.4736842,3.65384964 C26.4736842,2.74045371 25.7434221,2 24.8425981,2 L15.1047704,2 C14.2039464,2 13.4736842,2.74045371 13.4736842,3.65384964 C13.4736842,4.56724558 14.2039464,5.30769928 15.1047704,5.30769928 L23.2115119,5.30769928 L23.1716028,20.4471107 Z" id="Path-25" fill="#C5C5C5" fill-rule="nonzero"></path>
                    <path d="M46.4736842,65 C46.4736842,62.2441844 46.4736842,58.110461 46.4736842,52.5988298 C46.4736842,51.7158205 45.7434221,51 44.8425981,51 L35.1047704,51 C34.2039464,51 33.4736842,51.7158205 33.4736842,52.5988298 C33.4736842,53.4818391 34.2039464,54.1976596 35.1047704,54.1976596 L43.2115119,54.1976596 C43.2115119,58.9986998 43.2115119,62.5994799 43.2115119,65 C45.2963649,65 45.2963649,65 46.4736842,65 Z" id="Path-25-Copy-2" fill="#C5C5C5" fill-rule="nonzero" transform="translate(39.973684, 58.000000) rotate(-180.000000) translate(-39.973684, -58.000000) "></path>
                    <path d="M46.4736842,18.7400621 C46.4736842,15.3952298 46.4736842,10.3779814 46.4736842,3.68831681 C46.4736842,2.75588518 45.7434221,2 44.8425981,2 L35.1047704,2 C34.2039464,2 33.4736842,2.75588518 33.4736842,3.68831681 C33.4736842,4.62074844 34.2039464,5.37663362 35.1047704,5.37663362 L43.2115119,5.37663362 C43.2115119,11.8759076 43.2115119,16.750363 43.2115119,20 C44.0791364,20 45.2963649,20 46.4736842,18.7400621 Z" id="Path-25-Copy" fill="#C5C5C5" fill-rule="nonzero" transform="translate(39.973684, 11.000000) scale(-1, 1) translate(-39.973684, -11.000000) "></path>
                    <path d="M26.4736842,65 C26.4736842,62.2441844 26.4736842,58.110461 26.4736842,52.5988298 C26.4736842,51.7158205 25.7434221,51 24.8425981,51 L15.1047704,51 C14.2039464,51 13.4736842,51.7158205 13.4736842,52.5988298 C13.4736842,53.4818391 14.2039464,54.1976596 15.1047704,54.1976596 L23.2115119,54.1976596 C23.2115119,58.9986998 23.2115119,62.5994799 23.2115119,65 C24.8026889,65 24.8026889,65 26.4736842,65 Z" id="Path-25-Copy-3" fill="#C5C5C5" fill-rule="nonzero" transform="translate(19.973684, 58.000000) scale(-1, 1) rotate(-180.000000) translate(-19.973684, -58.000000) "></path>
                    <path d="M22.872602,22.617898 L22.9199062,22.5690732 C25.0579222,20.4065885 28.5045293,20.386667 30.6182482,22.5245795 C31.0450626,22.9563309 31.3848839,23.4430616 31.6378363,23.962769 C36.5531901,21.4234664 42.689169,22.2044009 46.7625888,26.324445 C51.8352088,31.4557402 51.787941,39.8227777 46.6570186,45.0130569 C46.2663168,45.4082302 45.8574069,45.7735914 45.4330876,46.1091245 C48.2846392,49.5534852 48.0819482,54.7227285 44.8457628,57.9963516 C41.4249372,61.4563271 35.9103657,61.4882016 32.5284155,58.0675416 C32.4211289,57.9590139 32.3172776,57.8483151 32.216861,57.7355816 C32.2152758,57.7333524 32.2136768,57.7316872 32.2120806,57.7300191 L11.3115683,35.8874579 C11.3069645,35.8828221 11.3023646,35.87818 11.2977687,35.8735314 C7.91602204,32.452668 7.94753388,26.874643 11.3681488,23.4144569 C14.5269139,20.2195411 19.4709196,19.947609 22.872602,22.617898 Z" id="Combined-Shape" stroke="#4A4A4A" stroke-width="2.5" stroke-linejoin="round" transform="translate(29.659138, 40.705404) rotate(-46.000000) translate(-29.659138, -40.705404) "></path>
                    <circle id="Oval" fill="#4A4A4A" cx="14.9736842" cy="3.5" r="3.5"></circle>
                    <circle id="Oval-Copy-23" fill="#4A4A4A" cx="14.9736842" cy="63.5" r="3.5"></circle>
                    <circle id="Oval-Copy-22" fill="#4A4A4A" cx="44.9736842" cy="3.5" r="3.5"></circle>
                    <circle id="Oval-Copy-24" fill="#4A4A4A" cx="44.9736842" cy="63.5" r="3.5"></circle>
                </g>
                <path d="M83,2 L83,32 C83,46.9116882 73.456596,59 61.6842105,59 L53,59" id="Rectangle" stroke="#4A4A4A" stroke-width="2.5"></path>
                <path d="M88.2020636,11.9371245 L79.9091703,12.6442312 C78.8046008,12.6442312 77.9091703,11.7488007 77.9091703,10.6442312 L78.6162771,2.35133802" id="Rectangle" stroke="#4A4A4A" stroke-width="2.5" stroke-linecap="round" transform="translate(83.055617, 7.497785) rotate(-225.000000) translate(-83.055617, -7.497785) "></path>
            </g>
        </g>
    </g>
</svg>