<?xml version="1.0" encoding="UTF-8"?>
<svg width="108px" height="108px" viewBox="0 0 108 108" version="1.1" xmlns="http://www.w3.org/2000/svg" xmlns:xlink="http://www.w3.org/1999/xlink">
    <!-- Generator: Sketch 56.3 (81716) - https://sketch.com -->
    <title>Cloud</title>
    <desc>Created with Sketch.</desc>
    <g id="Symbols" stroke="none" stroke-width="1" fill="none" fill-rule="evenodd">
        <g id="cloud_icon" transform="translate(1.000000, 1.000000)" stroke-width="2">
            <g>
                <circle id="Oval-Copy-14" stroke="#74ABFC" fill="#FFFFFF" cx="53" cy="53" r="53"></circle>
                <g id="Group-25" transform="translate(20.418033, 30.278689)" stroke="#71A9FF">
                    <g id="Group-24" transform="translate(0.434426, 0.000000)">
                        <path d="M11.8479881,43.442623 C5.30452495,43.442623 -9.23705556e-14,37.996644 -9.23705556e-14,31.2786885 C-9.23705556e-14,25.0754778 4.52277858,19.9567879 10.3675141,19.2087959 C10.3671647,19.1774925 10.3669896,19.1461449 10.3669896,19.1147541 C10.3669896,14.7960684 13.6823177,11.295082 17.7719821,11.295082 C18.6951982,11.295082 19.5789539,11.473493 20.3940178,11.7994468 C22.9311384,4.90382498 29.4202504,6.75015599e-14 37.0249627,6.75015599e-14 C46.8401574,6.75015599e-14 54.7969449,8.16896842 54.7969449,18.2459016 C54.7969449,18.5678819 54.7888214,18.8879142 54.7727735,19.2057944 C60.6289524,19.9429878 65.1639344,25.0671146 65.1639344,31.2786885 C65.1639344,37.4817137 60.6414264,42.6002829 54.7969449,43.348514 L54.7969449,43.442623 L11.8479881,43.442623 Z"></path>
                    </g>
                </g>
            </g>
        </g>
    </g>
</svg>
