<?xml version="1.0" encoding="UTF-8"?>
<svg width="108px" height="108px" viewBox="0 0 108 108" version="1.1" xmlns="http://www.w3.org/2000/svg" xmlns:xlink="http://www.w3.org/1999/xlink">
    <!-- Generator: Sketch 56.3 (81716) - https://sketch.com -->
    <title>IOS</title>
    <desc>Created with Sketch.</desc>
    <g id="Symbols" stroke="none" stroke-width="1" fill="none" fill-rule="evenodd">
        <g id="ios_icon" transform="translate(1.000000, 1.000000)"  stroke-width="2">
            <g>
                <circle id="Oval"  cx="53" cy="53" r="53"></circle>
                <g id="Group-64" transform="translate(24.327869, 14.770492)">
                    <path d="M28.9058225,16.503288 C28.9058225,11.6730573 30.1102318,8.05038437 32.5190503,5.63526906 C36.1322781,2.01259609 40.1469757,-5.68434189e-14 43.3587337,-5.68434189e-14 C43.7602035,2.01259609 43.3587337,6.44030749 39.7455059,11.2705381 C37.3366874,14.4906919 33.7234596,16.2349418 28.9058225,16.503288 Z" id="Path-21"></path>
                    <path d="M29.708762,20.9309994 C33.3219898,20.9309994 36.1322781,16.1007687 44.1616733,17.3083264 C49.5146034,18.1133648 53.5293009,20.3943071 56.205766,24.1511531 C51.1204824,27.3713068 48.5778406,32.0673644 48.5778406,38.2393257 C48.5778406,44.4112871 51.7895986,49.1073446 58.2131148,52.3274984 C56.8748822,57.157729 55.0013567,61.0487481 52.5925382,64.0005557 C48.9793103,68.4282671 46.5704918,71.2459016 41.7528547,71.2459016 C36.9352176,71.2459016 36.1322781,68.0257479 30.5117015,68.0257479 C24.8911249,68.0257479 24.8911249,71.2459016 19.2705483,71.2459016 C13.6499717,71.2459016 10.4382137,66.415671 6.82498587,60.780402 C3.21175806,55.1451329 0,46.2897101 0,38.2393257 C0,30.1889414 3.61322781,23.7486339 7.62792538,20.9309994 C11.642623,18.1133648 14.0514415,17.3083264 17.6646693,17.3083264 C23.6867157,17.3083264 26.0955342,20.9309994 29.708762,20.9309994 Z" id="Path-22"></path>
                </g>
            </g>
        </g>
    </g>
</svg>
