<?xml version="1.0" encoding="UTF-8"?>
<svg width="108px" height="108px" viewBox="0 0 108 108" version="1.1" xmlns="http://www.w3.org/2000/svg" xmlns:xlink="http://www.w3.org/1999/xlink">
    <!-- Generator: Sketch 56.3 (81716) - https://sketch.com -->
    <title>Wearables</title>
    <desc>Created with Sketch.</desc>
    <g id="Symbols" stroke="none" stroke-width="1" fill="none" fill-rule="evenodd">
        <g id="wearables_icon" transform="translate(1.000000, 1.000000)" stroke="#74ABFC" stroke-width="2">
            <g>
                <circle id="Oval-Copy-15" fill="#FFFFFF" cx="53" cy="53" r="53"></circle>
                <g id="Group-65" transform="translate(35.622951, 16.508197)">
                    <path d="M1,39.2295082 L1,45.8688525 C1,49.7348457 4.13400675,52.8688525 8,52.8688525 L26.3971076,52.8688525 C29.964697,52.8688525 32.9513264,50.1856922 33.3517224,46.6711585 L33.4258202,46.020755 L34.0515525,45.8284677 C34.9004714,45.5675952 35.4918033,44.7795975 35.4918033,43.8770492 C35.4918033,42.9877309 34.9176815,42.2086236 34.0861905,41.9366174 L33.3971076,41.7111973 L33.3971076,40.0983607 L29.2375415,40.0983607 C28.3816009,40.0983607 27.638322,39.512003 27.4325629,38.6804246 L26.8684929,36.4007278 L23.9930066,41.7271653 C23.2748154,43.0575145 21.3631976,43.0230351 20.6927164,41.6681555 L19.4859175,39.2295082 L13.758843,39.2295082 C13.012322,39.2295082 12.3396392,38.7813402 12.0478388,38.0934062 L11.1289686,35.9271239 L8.57423455,41.6058702 C7.9910369,42.902221 6.2361046,43.0952525 5.38851992,41.9534107 L3.36657779,39.2295082 L1,39.2295082 Z M1,35.4918033 L4.29963845,35.4918033 C4.88742718,35.4918033 5.43986228,35.7708876 5.79054006,36.2433106 L6.48411513,37.1776751 L9.48424696,30.5088839 C10.1514032,29.0259071 12.2551127,29.0490081 12.8900643,30.5459381 L14.9879479,35.4918033 L20.6382646,35.4918033 C21.3452368,35.4918033 21.9897893,35.894293 22.3036682,36.5285658 L22.4298881,36.7836257 L25.8827994,30.3875888 C26.6928255,28.8871284 28.9134784,29.1740399 29.3226647,30.8277721 L30.6916773,36.3606557 L33.3971076,36.3606557 L33.3971076,35.4146987 L33.920095,35.1308523 C34.8812238,34.6092089 35.4918033,33.6047577 35.4918033,32.4918033 L35.4918033,31.8032787 C35.4918033,30.6903242 34.8812238,29.6858731 33.920095,29.1642296 L33.3971076,28.8803832 L33.3971076,27.9836066 C33.3971076,24.1176133 30.2631009,20.9836066 26.3971076,20.9836066 L8,20.9836066 C4.13400675,20.9836066 1,24.1176133 1,27.9836066 L1,35.4918033 Z" id="Combined-Shape"></path>
                    <path d="M5.3442623,16.3770492 L29.4098361,16.3770492 L29.4098361,8 C29.4098361,4.13400675 26.2758293,1 22.4098361,1 L12.3442623,1 C8.47826905,1 5.3442623,4.13400675 5.3442623,8 L5.3442623,16.3770492 Z" id="Rectangle"></path>
                    <path d="M5.3442623,72.852459 L29.4098361,72.852459 L29.4098361,64.4754098 C29.4098361,60.6094166 26.2758293,57.4754098 22.4098361,57.4754098 L12.3442623,57.4754098 C8.47826905,57.4754098 5.3442623,60.6094166 5.3442623,64.4754098 L5.3442623,72.852459 Z" id="Rectangle-Copy-58" transform="translate(17.377049, 65.163934) rotate(-180.000000) translate(-17.377049, -65.163934) "></path>
                </g>
            </g>
        </g>
    </g>
</svg>
