<?xml version="1.0" encoding="UTF-8"?>
<svg width="108px" height="108px" viewBox="0 0 108 108" version="1.1" xmlns="http://www.w3.org/2000/svg" xmlns:xlink="http://www.w3.org/1999/xlink">
    <!-- Generator: Sketch 56.3 (81716) - https://sketch.com -->
    <title>Web</title>
    <desc>Created with Sketch.</desc>
    <g id="Symbols" stroke="none" stroke-width="1" fill="none" fill-rule="evenodd">
        <g id="web_icon" transform="translate(1.000000, 1.000000)" stroke-width="2">
            <g>
                <circle id="Oval-Copy-14" stroke="#74ABFC" fill="#FFFFFF" cx="53" cy="53" r="53"></circle>
                <path d="M85.0163934,39.9314274 L85.0163934,38.4494082 C85.0163934,33.121998 80.6976741,28.8032787 75.3702639,28.8032787 L30.6297361,28.8032787 C25.3023259,28.8032787 20.9836066,33.121998 20.9836066,38.4494082 L20.9836066,39.9314274 L85.0163934,39.9314274 Z M85.0163934,45.9314274 L20.9836066,45.9314274 L20.9836066,68.4194442 C20.9836066,73.7468545 25.3023259,78.0655738 30.6297361,78.0655738 L75.3702639,78.0655738 C80.6976741,78.0655738 85.0163934,73.7468545 85.0163934,68.4194442 L85.0163934,45.9314274 Z M31.1885246,36.3196721 C30.0839551,36.3196721 29.1885246,35.4242416 29.1885246,34.3196721 C29.1885246,33.2151026 30.0839551,32.3196721 31.1885246,32.3196721 C32.2930941,32.3196721 33.1885246,33.2151026 33.1885246,34.3196721 C33.1885246,35.4242416 32.2930941,36.3196721 31.1885246,36.3196721 Z M40.1885246,36.3196721 C39.0839551,36.3196721 38.1885246,35.4242416 38.1885246,34.3196721 C38.1885246,33.2151026 39.0839551,32.3196721 40.1885246,32.3196721 C41.2930941,32.3196721 42.1885246,33.2151026 42.1885246,34.3196721 C42.1885246,35.4242416 41.2930941,36.3196721 40.1885246,36.3196721 Z M49.1885246,36.3196721 C48.0839551,36.3196721 47.1885246,35.4242416 47.1885246,34.3196721 C47.1885246,33.2151026 48.0839551,32.3196721 49.1885246,32.3196721 C50.2930941,32.3196721 51.1885246,33.2151026 51.1885246,34.3196721 C51.1885246,35.4242416 50.2930941,36.3196721 49.1885246,36.3196721 Z" id="Combined-Shape" ></path>
            </g>
        </g>
    </g>
</svg>
