<?xml version="1.0" encoding="UTF-8"?>
<svg width="62px" height="19px" viewBox="0 0 62 19" version="1.1" xmlns="http://www.w3.org/2000/svg" xmlns:xlink="http://www.w3.org/1999/xlink">
    <!-- Generator: Sketch 60 (88103) - https://sketch.com -->
    <title>logo</title>
    <desc>Created with Sketch.</desc>
    <g id="Symbols" stroke="none" stroke-width="1" fill="none" fill-rule="evenodd">
        <g id="Reviews" transform="translate(-188.000000, -559.000000)" fill-rule="nonzero">
            <g id="Group-19" transform="translate(0.000000, 177.393693)">
                <g id="Feedback-Copy-2" transform="translate(57.000000, 59.000000)">
                    <g id="logo" transform="translate(131.000000, 322.606307)">
                        <rect id="Rectangle" fill="#17313A" x="16" y="0.857142857" width="3" height="17"></rect>
                        <path d="M28.3503924,13.2345498 C28.3503924,15.945718 26.1947795,16.1613791 25.5361199,16.1613791 C23.8894712,16.1613791 23.6499586,14.5747295 23.6499586,13.6196589 L23.6499586,6.85714286 L21.000351,6.85714286 L21.000351,13.6042545 C20.9853815,15.2833303 21.4494371,16.6697231 22.3476091,17.593985 C23.1409944,18.4104163 24.24874,18.8571429 25.5361199,18.8571429 C26.4492615,18.8571429 27.5120985,18.5644599 28.3503924,17.9174766 L28.3503924,18.6260774 L31,18.6260774 L31,6.85714286 L28.3503924,6.85714286 L28.3503924,13.2345498 L28.3503924,13.2345498 Z" id="Path" fill="#17313A"></path>
                        <polygon id="Path" fill="#17313A" points="36.7242152 2.85714286 33.9461883 2.85714286 33.9461883 6.88456695 32 6.88456695 32 9.50160907 33.9461883 9.50160907 33.9461883 18.8571429 36.7242152 18.8571429 36.7242152 9.50160907 39 9.50160907 39 6.88456695 36.7242152 6.88456695"></polygon>
                        <path d="M48.5868946,15.3615565 C47.960114,15.9063232 47.1296296,16.2089714 46.2207977,16.2089714 C44.2150997,16.2089714 42.7421652,14.786525 42.7421652,12.8344442 C42.7421652,10.8823635 44.1680912,9.52044677 46.2207977,9.52044677 C47.1139601,9.52044677 47.960114,9.80796253 48.6025641,10.3527292 L49.0413105,10.715907 L50.9843305,8.83948838 L50.4985755,8.41578094 C49.3547009,7.41704197 47.8347578,6.85714286 46.2207977,6.85714286 C42.6168091,6.85714286 40,9.36912268 40,12.8193118 C40,16.2543686 42.6794872,18.8571429 46.2207977,18.8571429 C47.8660969,18.8571429 49.4017094,18.2972437 50.5299145,17.2833724 L51,16.8596649 L49.025641,14.9832463 L48.5868946,15.3615565 Z" id="Path" fill="#17313A"></path>
                        <path d="M60.6523909,7.41749528 C59.8590056,6.62366268 58.75126,6.18930145 57.4638801,6.18930145 C56.5507385,6.18930145 55.4879015,6.47388295 54.6496076,7.10295784 L54.6496076,0.857142857 L52,0.857142857 L52,17.8571429 L54.6496076,17.8571429 L54.6496076,11.6562618 C54.6496076,9.02013845 56.8052205,8.81044682 57.4638801,8.81044682 C59.1105288,8.81044682 59.3500414,10.3531781 59.3500414,11.2818125 L59.3500414,17.8571429 L61.999649,17.8571429 L61.999649,11.2967904 C62.0146185,9.66419132 61.5505629,8.31617369 60.6523909,7.41749528 Z" id="Path" fill="#17313A"></path>
                        <circle id="Oval" fill="#FF3D2D" cx="46" cy="12.8571429" r="2"></circle>
                        <path d="M11.762963,14.4852791 C10.7259259,15.5820533 9.31851852,16.1761393 7.83703704,16.1761393 C4.8,16.1761393 2.59259259,13.7236303 2.59259259,10.3571429 C2.59259259,6.97542243 4.8,4.52291347 7.83703704,4.52291347 C9.3037037,4.52291347 10.6962963,5.11699949 11.7481481,6.19854071 L12.162963,6.625064 L13.9851852,4.75140809 L13.5851852,4.32488479 C12.0740741,2.72542243 10.0296296,1.85714286 7.83703704,1.85714286 C3.36296296,1.85714286 0,5.51305684 0,10.3723758 C0,15.2164619 3.37777778,18.8571429 7.83703704,18.8571429 C10.0444444,18.8571429 12.0888889,17.9736303 13.6,16.3741679 L14,15.9476446 L12.1925926,14.0435228 L11.762963,14.4852791 Z" id="Path" fill="#17313A"></path>
                    </g>
                </g>
            </g>
        </g>
    </g>
</svg>