<?xml version="1.0" encoding="UTF-8"?>
<svg width="23px" height="22px" viewBox="0 0 23 22" version="1.1" xmlns="http://www.w3.org/2000/svg" xmlns:xlink="http://www.w3.org/1999/xlink">
    <!-- Generator: Sketch 56.2 (81672) - https://sketch.com -->
    <title>decoration_undifined headline</title>
    <desc>Created with Sketch.</desc>
    <g id="HS_Website" stroke="none" stroke-width="1" fill="none" fill-rule="evenodd">
        <g id="[desktop]-Homepage" transform="translate(-789.000000, -2601.000000)" fill="#74ABFC">
            <g id="Group-70" transform="translate(77.000000, 2593.000000)">
                <g id="Group-57">
                    <path d="M716.961762,9.97610116 L723.451613,14.0322581 L727.986122,11.0092521 C728.981767,10.3454885 730.326984,10.6145318 730.990748,11.6101773 C731.475936,12.3379594 731.475936,13.2860961 730.990748,14.0138782 L727.967742,18.5483871 L731.667257,24.4676113 C732.301463,25.4823405 731.992988,26.8190663 730.978258,27.453272 C730.256142,27.9045946 729.336613,27.891075 728.628077,27.418718 L723.451613,23.9677419 L717.532389,27.6672571 C716.51766,28.3014628 715.180934,27.9929876 714.546728,26.9782585 C714.095405,26.2561423 714.108925,25.3366126 714.581282,24.628077 L718.032258,19.4516129 L713.976101,12.9617619 C713.341895,11.9470327 713.650371,10.6103069 714.6651,9.97610116 C715.367685,9.53698515 716.259176,9.53698515 716.961762,9.97610116 Z" id="decoration_undifined-headline" transform="translate(723.000000, 19.000000) rotate(111.000000) translate(-723.000000, -19.000000) "></path>
                </g>
            </g>
        </g>
    </g>
</svg>