<?xml version="1.0" encoding="UTF-8"?>
<svg width="23px" height="22px" viewBox="0 0 23 22" version="1.1" xmlns="http://www.w3.org/2000/svg" xmlns:xlink="http://www.w3.org/1999/xlink">
    <!-- Generator: Sketch 63.1 (92452) - https://sketch.com -->
    <title>Rectangle Copy 46</title>
    <desc>Created with Sketch.</desc>
    <g id="HS_Website" stroke="none" stroke-width="1" fill="none" fill-rule="evenodd">
        <g id="[desktop]-mobile-app-development" transform="translate(-789.000000, -8878.000000)" fill="#FFFFFF">
            <path d="M793.961762,8880.06338 L800.451613,8884.11954 L800.451613,8884.11954 L804.986122,8881.09653 C805.981767,8880.43277 807.326984,8880.70181 807.990748,8881.69745 C808.475936,8882.42524 808.475936,8883.37337 807.990748,8884.10116 L804.967742,8888.63566 L804.967742,8888.63566 L808.667257,8894.55489 C809.301463,8895.56962 808.992988,8896.90634 807.978258,8897.54055 C807.256142,8897.99187 806.336613,8897.97835 805.628077,8897.506 L800.451613,8894.05502 L800.451613,8894.05502 L794.532389,8897.75453 C793.51766,8898.38874 792.180934,8898.08026 791.546728,8897.06554 C791.095405,8896.34342 791.108925,8895.42389 791.581282,8894.71535 L795.032258,8889.53889 L795.032258,8889.53889 L790.976101,8883.04904 C790.341895,8882.03431 790.650371,8880.69758 791.6651,8880.06338 C792.367685,8879.62426 793.259176,8879.62426 793.961762,8880.06338 Z" id="Rectangle-Copy-46" transform="translate(800.000000, 8889.087277) rotate(111.000000) translate(-800.000000, -8889.087277) "></path>
        </g>
    </g>
</svg>