<?xml version="1.0" encoding="UTF-8"?>
<svg width="71px" height="64px" viewBox="0 0 71 64" version="1.1" xmlns="http://www.w3.org/2000/svg" xmlns:xlink="http://www.w3.org/1999/xlink">
    <title>nodeAws5</title>
    <defs>
        <linearGradient x1="69.1338984%" y1="74.2669556%" x2="2.76354392%" y2="-21.8880782%" id="linearGradient-1">
            <stop stop-color="#FF6D6D" offset="0%"></stop>
            <stop stop-color="#FFC0C0" offset="100%"></stop>
        </linearGradient>
    </defs>
    <g id="All-Final" stroke="none" stroke-width="1" fill="none" fill-rule="evenodd">
        <g id="[desktop]-Node.js-Development-Services" transform="translate(-426.000000, -6758.000000)">
            <g id="Group-8" transform="translate(215.000000, 5931.000000)">
                <g id="Group-29" transform="translate(0.000000, 828.000000)">
                    <g id="Group-24" transform="translate(79.000000, 0.000000)">
                        <g id="nodeAws5" transform="translate(131.999992, 0.000000)">
                            <path d="M69.5999959,0.799999952 C69.5999959,5.91660842 69.5999959,13.5915211 69.5999959,23.8247381 C69.5999959,35.7540879 61.9652731,45.4247368 52.5473653,45.4247368 L6.64084334,45.5999973" id="Rectangle" stroke="#4A4A4A" stroke-width="1.99999988" stroke-linecap="round" transform="translate(38.120420, 23.199999) rotate(-180.000000) translate(-38.120420, -23.199999) "></path>
                            <path d="M10.7135068,44.928502 L4.07919265,45.4941874 C3.1955371,45.4941874 2.47919274,44.777843 2.47919274,43.8941875 L3.04487813,37.2598733" id="Rectangle" stroke="#4A4A4A" stroke-width="1.99999988" stroke-linecap="round" transform="translate(6.596350, 41.377030) rotate(-45.000000) translate(-6.596350, -41.377030) "></path>
                            <g id="Group-77-Copy-2" transform="translate(1.600000, 0.000000)">
                                <g id="Group-39" transform="translate(11.199999, 0.000000)">
                                    <rect id="Rectangle-Copy-85" fill="url(#linearGradient-1)" transform="translate(31.999998, 31.199998) rotate(-90.000000) translate(-31.999998, -31.199998) " x="27.9999983" y="27.9999983" width="7.99999952" height="6.39999962" rx="3.19999981"></rect>
                                    <rect id="Rectangle-Copy-93" fill="url(#linearGradient-1)" transform="translate(31.999998, 11.199999) rotate(-90.000000) translate(-31.999998, -11.199999) " x="27.9999983" y="7.99999952" width="7.99999952" height="6.39999962" rx="3.19999981"></rect>
                                    <rect id="Rectangle-Copy-103" fill="#4A4A4A" transform="translate(38.399998, 9.399999) rotate(-90.000000) translate(-38.399998, -9.399999) " x="29.5999982" y="8.3999995" width="17.599999" height="1.99999988" rx="0.99999994"></rect>
                                    <rect id="Rectangle-Copy-105" fill="#4A4A4A" transform="translate(38.399998, 52.999997) rotate(-90.000000) translate(-38.399998, -52.999997) " x="29.5999982" y="51.9999969" width="17.599999" height="1.99999988" rx="0.99999994"></rect>
                                    <rect id="Rectangle-Copy-99" fill="url(#linearGradient-1)" transform="translate(31.999998, 51.199997) rotate(-90.000000) translate(-31.999998, -51.199997) " x="27.9999983" y="47.9999971" width="7.99999952" height="6.39999962" rx="3.19999981"></rect>
                                    <rect id="Rectangle-Copy-94" fill="#4A4A4A" opacity="0.297874814" transform="translate(6.000000, 31.158154) rotate(-90.000000) translate(-6.000000, -31.158154) " x="4.79999971" y="29.958154" width="2.39999986" height="2.39999986" rx="1.19999993"></rect>
                                    <rect id="Rectangle-Copy-98" fill="#4A4A4A" opacity="0.297874814" transform="translate(6.000000, 11.599999) rotate(-90.000000) translate(-6.000000, -11.599999) " x="4.79999971" y="10.3999994" width="2.39999986" height="2.39999986" rx="1.19999993"></rect>
                                    <rect id="Rectangle-Copy-104" fill="#4A4A4A" opacity="0.297874814" transform="translate(6.000000, 51.599997) rotate(-90.000000) translate(-6.000000, -51.599997) " x="4.79999971" y="50.399997" width="2.39999986" height="2.39999986" rx="1.19999993"></rect>
                                    <rect id="Rectangle-Copy-95" fill="#4A4A4A" opacity="0.297874814" transform="translate(10.799999, 31.158154) rotate(-90.000000) translate(-10.799999, -31.158154) " x="9.59999943" y="29.958154" width="2.39999986" height="2.39999986" rx="1.19999993"></rect>
                                    <rect id="Rectangle-Copy-100" fill="#4A4A4A" transform="translate(10.799999, 11.599999) rotate(-90.000000) translate(-10.799999, -11.599999) " x="9.59999943" y="10.3999994" width="2.39999986" height="2.39999986" rx="1.19999993"></rect>
                                    <rect id="Rectangle-Copy-106" fill="#4A4A4A" transform="translate(10.799999, 51.599997) rotate(-90.000000) translate(-10.799999, -51.599997) " x="9.59999943" y="50.399997" width="2.39999986" height="2.39999986" rx="1.19999993"></rect>
                                    <rect id="Rectangle-Copy-92" fill="url(#linearGradient-1)" transform="translate(23.999999, 31.199998) rotate(-90.000000) translate(-23.999999, -31.199998) " x="19.9999988" y="27.9999983" width="7.99999952" height="6.39999962" rx="3.19999981"></rect>
                                    <rect id="Rectangle-Copy-97" fill="url(#linearGradient-1)" transform="translate(23.999999, 11.199999) rotate(-90.000000) translate(-23.999999, -11.199999) " x="19.9999988" y="7.99999952" width="7.99999952" height="6.39999962" rx="3.19999981"></rect>
                                    <rect id="Rectangle-Copy-101" fill="url(#linearGradient-1)" transform="translate(23.999999, 51.199997) rotate(-90.000000) translate(-23.999999, -51.199997) " x="19.9999988" y="47.9999971" width="7.99999952" height="6.39999962" rx="3.19999981"></rect>
                                    <rect id="Rectangle-Copy-96" fill="#4A4A4A" transform="translate(1.200000, 31.158154) rotate(-90.000000) translate(-1.200000, -31.158154) " x="-2.22044605e-16" y="29.958154" width="2.39999986" height="2.39999986" rx="1.19999993"></rect>
                                    <rect id="Rectangle-Copy-102" fill="#4A4A4A" opacity="0.297874814" transform="translate(1.200000, 11.599999) rotate(-90.000000) translate(-1.200000, -11.599999) " x="-2.22044605e-16" y="10.3999994" width="2.39999986" height="2.39999986" rx="1.19999993"></rect>
                                    <rect id="Rectangle-Copy-107" fill="#4A4A4A" opacity="0.297874814" transform="translate(1.200000, 51.599997) rotate(-90.000000) translate(-1.200000, -51.599997) " x="-2.22044605e-16" y="50.399997" width="2.39999986" height="2.39999986" rx="1.19999993"></rect>
                                    <path d="M2.39999986,21.5999987 L37.5999999,21.5999987 C38.0418277,21.5999987 38.3999999,21.9581709 38.3999999,22.3999987 L38.3999999,39.6760586 L38.3999999,39.6760586 C38.3999999,40.3203908 37.739838,40.8427252 36.9254898,40.8427252 C30.2919382,40.8142401 22.7834415,40.7999976 14.3999999,40.7999976" id="Rectangle-Copy-70" stroke="#4A4A4A" stroke-width="1.99999988" stroke-linecap="round"></path>
                                </g>
                                <path d="M62.3738068,15.9995715 L62.3738068,39.9995715 C62.3738068,51.92892 54.739084,61.5995688 45.3211762,61.5995688 L1.24344979e-13,61.5995688" id="Rectangle" stroke="#4A4A4A" stroke-width="1.99999988" stroke-linecap="round"></path>
                                <path d="M66.5354574,23.9492706 L59.9011432,24.514956 C59.0174877,24.514956 58.3011433,23.7986117 58.3011433,22.9149561 L58.8668287,16.2806419" id="Rectangle" stroke="#4A4A4A" stroke-width="1.99999988" stroke-linecap="round" transform="translate(62.418300, 20.397799) rotate(-225.000000) translate(-62.418300, -20.397799) "></path>
                            </g>
                        </g>
                    </g>
                </g>
            </g>
        </g>
    </g>
</svg>