<?xml version="1.0" encoding="UTF-8"?>
<svg width="46px" height="35px" viewBox="0 0 46 35" version="1.1" xmlns="http://www.w3.org/2000/svg" xmlns:xlink="http://www.w3.org/1999/xlink">
    <title>prototyping copy</title>
    <g id="HS_Website" stroke="none" stroke-width="1" fill="none" fill-rule="evenodd">
        <g id="[desktop]-Services" transform="translate(-537.000000, -2562.000000)">
            <g id="Group-6-Copy-2" transform="translate(215.000000, 2379.000000)">
                <g id="Group-7" transform="translate(322.000000, 182.399996)">
                    <g id="prototyping-copy" transform="translate(0.000000, 0.600004)">
                        <rect id="Rectangle" stroke="#4A4A4A" stroke-width="1.5" x="0.75" y="0.75" width="44.5" height="33.5" rx="6"></rect>
                        <line x1="1" y1="11" x2="45.5" y2="11" id="Path-9" stroke="#4A4A4A" stroke-width="1.5"></line>
                        <circle id="Oval" fill="#4A4A4A" cx="6" cy="6.5" r="1.5"></circle>
                        <circle id="Oval-Copy-5" fill="#4A4A4A" cx="12" cy="6.5" r="1.5"></circle>
                        <circle id="Oval-Copy-28" fill="#4A4A4A" cx="18.5" cy="6.5" r="1.5"></circle>
                        <rect id="Rectangle-Copy-6" stroke="#F66847" stroke-width="1.5" x="27.75" y="15.974645" width="12.5" height="12.5" rx="3"></rect>
                        <rect id="Rectangle-Copy-59" stroke="#F66847" stroke-width="1.5" x="5.75" y="15.974645" width="12.5" height="12.5" rx="3"></rect>
                        <g id="Group-8-Copy" transform="translate(7.742862, 19.275715)" fill="#F66847">
                            <rect id="Rectangle-Copy-25" x="0.772650297" y="3.72428516" width="7" height="1.5" rx="0.75"></rect>
                            <rect id="Rectangle-Copy-61" x="22.8593769" y="3.53935129" width="7" height="1.5" rx="0.75"></rect>
                            <rect id="Rectangle-Copy-63" x="10.2561516" y="2.09713359" width="8" height="1.5" rx="0.75"></rect>
                            <path d="M17.6277844,1.61494484 L19.1446892,4.14311952 C19.2867633,4.37990965 19.2099808,4.68703978 18.9731907,4.82911386 C18.895483,4.87573848 18.8065648,4.9003674 18.7159428,4.9003674 L15.6821332,4.9003674 C15.4059908,4.9003674 15.1821332,4.67650977 15.1821332,4.4003674 C15.1821332,4.30974543 15.2067621,4.22082722 15.2533867,4.14311952 L16.7702915,1.61494484 C16.9123656,1.3781547 17.2194957,1.30137217 17.4562858,1.44344625 C17.5266606,1.48567113 17.5855596,1.54457003 17.6277844,1.61494484 Z" id="Triangle" transform="translate(17.199038, 2.900367) rotate(-270.000000) translate(-17.199038, -2.900367) "></path>
                            <rect id="Rectangle-Copy-60" x="0.772650297" y="0.724285162" width="4" height="1.5" rx="0.75"></rect>
                            <rect id="Rectangle-Copy-62" x="22.8593769" y="0.539351286" width="4" height="1.5" rx="0.75"></rect>
                        </g>
                        <circle id="Oval-Copy-6" fill="#F66847" cx="18.1848044" cy="22.1347016" r="1.5"></circle>
                    </g>
                </g>
            </g>
        </g>
    </g>
</svg>