<?xml version="1.0" encoding="UTF-8"?>
<svg width="46px" height="35px" viewBox="0 0 46 35" version="1.1" xmlns="http://www.w3.org/2000/svg" xmlns:xlink="http://www.w3.org/1999/xlink">
    <title>UID Copy</title>
    <g id="HS_Website" stroke="none" stroke-width="1" fill="none" fill-rule="evenodd">
        <g id="[desktop]-Services" transform="translate(-537.000000, -2660.000000)">
            <g id="Group-6-Copy-2" transform="translate(215.000000, 2379.000000)">
                <g id="Group-11" transform="translate(323.000000, 281.000000)">
                    <g id="UID-Copy">
                        <rect id="Rectangle" stroke="#F66847" fill="#F66847" x="14.5" y="14.5" width="1" height="7" rx="0.5"></rect>
                        <path d="M0,29 C1.9561513,30.3041009 4.25455001,31 6.60555128,31 L12.3944487,31 C14.74545,31 17.0438487,30.3041009 19,29 L19,29 L19,29 C19,31.7614237 16.7614237,34 14,34 L5,34 C2.23857625,34 3.38176876e-16,31.7614237 0,29 L0,29 L0,29 Z" id="Rectangle" fill="#4A4A4A"></path>
                        <path d="M30.4122404,13.2613162 C29.44514,12.9389494 28.4138662,12.8580343 27.4083232,13.0256248 L18.7945013,14.4612618 C18.4931338,14.5114897 18.2320085,14.6669756 18.046225,14.8862856 C17.8604416,15.1055956 17.75,15.3887297 17.75,15.6942542 L17.75,20.3057458 C17.75,20.6112703 17.8604416,20.8944044 18.046225,21.1137144 C18.2320085,21.3330244 18.4931338,21.4885103 18.7945013,21.5387382 L20.3944498,21.8053963 L27.4083232,22.9743752 C28.4138662,23.1419657 29.44514,23.0610506 30.4122404,22.7386838 L43.9167793,17.7628292 L30.4122404,13.2613162 Z" id="Rectangle" stroke="#F66847" stroke-width="1.5"></path>
                        <circle id="Oval" stroke="#F66847" stroke-width="1.5" cx="28" cy="18" r="2"></circle>
                        <g id="Group-4-Copy-2">
                            <g id="Group-2-Copy-3">
                                <path d="M8.18545232e-12,9 C8.18545232e-12,8.14285714 8.18545232e-12,7.28571429 8.18545232e-12,6.42857143 C8.18508515e-12,3.43045422 2.43045422,1 5.42857143,1 L5.42857143,1 L5.42857143,1 L13.5714286,1 C16.5695458,1 19,3.53278913 19,6.65714286 L19,28.3428571 C19,31.4672109 16.5695458,34 13.5714286,34 L5.42857143,34 C2.43045422,34 8.18545232e-12,31.4672109 8.18545232e-12,28.3428571 L8.18545232e-12,25" id="Rectangle" stroke="#4A4A4A" stroke-width="1.5" stroke-linecap="round" transform="translate(9.500000, 17.500000) rotate(-180.000000) translate(-9.500000, -17.500000) "></path>
                                <path d="M9.78965293,3.99152016 C11.4465072,3.99152016 12.7896529,2.64837441 12.7896529,0.991520163 C10.7896529,0.991520163 11.4465072,0.991520163 9.78965293,0.991520163 C8.13279868,0.991520163 9.78965293,0.991520163 6.78965293,0.991520163 C6.78965293,2.64837441 8.13279868,3.99152016 9.78965293,3.99152016 Z" id="Oval" fill="#4A4A4A"></path>
                            </g>
                        </g>
                        <line x1="30" y1="18" x2="36" y2="18" id="Path-11" stroke="#F66847" stroke-width="1.5" stroke-linecap="round"></line>
                    </g>
                </g>
            </g>
        </g>
    </g>
</svg>