<?xml version="1.0" encoding="UTF-8"?>
<svg width="46px" height="35px" viewBox="0 0 46 35" version="1.1" xmlns="http://www.w3.org/2000/svg" xmlns:xlink="http://www.w3.org/1999/xlink">
    <title>pipe copy</title>
    <g id="HS_Website" stroke="none" stroke-width="1" fill="none" fill-rule="evenodd">
        <g id="[desktop]-Services" transform="translate(-832.000000, -3086.000000)" stroke-width="1.5">
            <g id="Group-6-Copy-3" transform="translate(832.000000, 2903.000000)">
                <g id="Group-2" transform="translate(0.000000, 173.399996)">
                    <g id="pipe-copy" transform="translate(0.000000, 9.600004)">
                        <g id="deploy" transform="translate(0.000000, 0.000000)" stroke="#4A4A4A">
                            <rect id="Rectangle" x="0.75" y="0.75" width="44.5" height="33.5" rx="16.75"></rect>
                        </g>
                        <g id="Group-26" transform="translate(12.000000, 7.000000)" stroke="#E56940">
                            <path d="M3.35607961,14.9055738 L5.76057087,16.809265 C6.4323015,17.3413322 7.36834967,17.3863423 8.08803223,16.9211815 L8.08803223,16.9211815 L10.5950796,15.3005738 L12.3966276,16.7272644 C12.8295562,17.0701802 12.9025259,17.6991264 12.55961,18.132055 C12.4917591,18.2177162 12.4103263,18.2916769 12.3185501,18.3509957 L8.06335402,21.1013057 C7.34367145,21.5664664 6.40762328,21.5214563 5.73589266,20.9893892 L1.53121547,17.6589311 C1.09828689,17.3160152 1.02531717,16.687069 1.36823303,16.2541404 C1.43608394,16.1684792 1.51751675,16.0945185 1.60929298,16.0351997 L3.35607961,14.9055738 Z" id="Combined-Shape"></path>
                            <path d="M3.79975782,10.4555738 L5.73589266,11.9893892 C6.40762328,12.5214563 7.34367145,12.5664664 8.06335402,12.1013057 L8.06335402,12.1013057 L10.1517578,10.7505738 L12.4213058,12.5471402 C12.8542344,12.8900561 12.9272041,13.5190023 12.5842882,13.9519309 C12.5164373,14.0375921 12.4350045,14.1115528 12.3432283,14.1708716 L8.08803223,16.9211815 C7.36834967,17.3863423 6.4323015,17.3413322 5.76057087,16.809265 L1.55589369,13.4788069 C1.12296511,13.1358911 1.04999538,12.5069449 1.39291124,12.0740163 C1.46076216,11.988355 1.54219497,11.9143944 1.6339712,11.8550756 L3.79975782,10.4555738 Z" id="Combined-Shape"></path>
                            <path d="M5.02500339,4.70590972 L10.3283292,3.90217046 C10.8743786,3.81941459 11.3841259,4.19498818 11.4668818,4.74103755 C11.4832562,4.8490814 11.4818106,4.95907864 11.4626024,5.06665485 L10.5720151,10.0544151 C10.4213898,10.8979965 9.75008813,11.551882 8.90283965,11.6802857 L3.59951385,12.484025 C3.05346448,12.5667808 2.54371712,12.1912072 2.46096126,11.6451579 C2.4445868,11.537114 2.44603243,11.4271168 2.46524065,11.3195406 L3.35582799,6.33178031 C3.50645329,5.48819894 4.17775491,4.83431346 5.02500339,4.70590972 Z" id="Rectangle" transform="translate(6.963922, 8.193098) rotate(47.000000) translate(-6.963922, -8.193098) "></path>
                            <path d="M22.5256341,7.49670541 L16.7816362,8.41441957 C16.2362682,8.5015526 15.7235248,8.13007975 15.6363917,7.58471173 C15.6191983,7.47709781 15.6197112,7.36739705 15.6379101,7.2599486 L16.6282358,1.4129449" id="Rectangle-Copy-32" stroke-linecap="round" transform="translate(19.074751, 4.920018) rotate(-225.000000) translate(-19.074751, -4.920018) "></path>
                        </g>
                        <path d="M19,28.4331399 L28,28.4331399 C29.6568542,28.4331399 31,27.0899942 31,25.4331399 L31,8.43313991 L31,8.43313991" id="Path-32" stroke="#E56940" stroke-linecap="round"></path>
                    </g>
                </g>
            </g>
        </g>
    </g>
</svg>