<?xml version="1.0" encoding="UTF-8"?>
<svg width="46px" height="35px" viewBox="0 0 46 35" version="1.1" xmlns="http://www.w3.org/2000/svg" xmlns:xlink="http://www.w3.org/1999/xlink">
    <title>scalable copy</title>
    <g id="HS_Website" stroke="none" stroke-width="1" fill="none" fill-rule="evenodd">
        <g id="[desktop]-Services" transform="translate(-832.000000, -3184.000000)" stroke-width="1.5">
            <g id="Group-6-Copy-3" transform="translate(832.000000, 2903.000000)">
                <g id="Group-8" transform="translate(0.000000, 271.000000)">
                    <g id="scalable-copy" transform="translate(0.000000, 10.000000)">
                        <path d="M33,6.75 L18,6.75 C17.654822,6.75 17.342322,6.88991102 17.1161165,7.11611652 C16.889911,7.34232203 16.75,7.65482203 16.75,8 L16.75,20.75 L13,20.75 C12.654822,20.75 12.342322,20.889911 12.1161165,21.1161165 C11.889911,21.342322 11.75,21.654822 11.75,22 L11.75,28 C11.75,28.345178 11.889911,28.657678 12.1161165,28.8838835 C12.342322,29.110089 12.654822,29.25 13,29.25 L19,29.25 C19.345178,29.25 19.657678,29.110089 19.8838835,28.8838835 C20.110089,28.657678 20.25,28.345178 20.25,28 L20.25,24.25 L33,24.25 C33.345178,24.25 33.657678,24.110089 33.8838835,23.8838835 C34.110089,23.657678 34.25,23.345178 34.25,23 L34.25,8 C34.25,7.65482203 34.110089,7.34232203 33.8838835,7.11611652 C33.657678,6.88991102 33.345178,6.75 33,6.75 Z" id="Combined-Shape" stroke="#E56940"></path>
                        <g id="Group-2">
                            <g id="Group-2-Copy-16" stroke="#4A4A4A">
                                <rect id="Rectangle" x="0.75" y="0.75" width="44.5" height="33.5" rx="16.75"></rect>
                            </g>
                            <line x1="15.9878376" y1="25.0121624" x2="29.4768805" y2="11.5231195" id="Path-33" stroke="#F66847" stroke-linecap="round"></line>
                            <path d="M30.4782081,13.9948343 L27.1492064,14.5181848 C26.8331319,14.5678747 26.5359655,14.3560326 26.4854665,14.0450222 C26.4755018,13.9836526 26.4757991,13.9210929 26.4863465,13.8598176 L27.0603014,10.5254112" id="Rectangle-Copy-32" stroke="#E56940" stroke-linecap="round" transform="translate(28.478208, 12.525411) rotate(-181.000000) translate(-28.478208, -12.525411) "></path>
                        </g>
                    </g>
                </g>
            </g>
        </g>
    </g>
</svg>