<?xml version="1.0" encoding="UTF-8"?>
<svg width="46px" height="35px" viewBox="0 0 46 35" version="1.1" xmlns="http://www.w3.org/2000/svg" xmlns:xlink="http://www.w3.org/1999/xlink">
    <title>disaster copy</title>
    <g id="HS_Website" stroke="none" stroke-width="1" fill="none" fill-rule="evenodd">
        <g id="[desktop]-Services" transform="translate(-832.000000, -3282.000000)">
            <g id="Group-6-Copy-3" transform="translate(832.000000, 2903.000000)">
                <g id="Group-12" transform="translate(0.000000, 369.000000)">
                    <g id="disaster-copy" transform="translate(0.000000, 10.000000)">
                        <path d="M24.0848045,9.51318064 C23.6426306,9.16674266 23.0999977,9.06772659 22.6064959,9.18161163 C22.1701011,9.28231812 21.7721245,9.54950362 21.516003,9.95929808 L13.3202506,23.0725019 C13.1464192,23.3506322 13.0542476,23.6720155 13.0542476,24 C13.0542476,24.4832492 13.2501231,24.9207492 13.5668108,25.2374369 C13.8834985,25.5541246 14.3209985,25.75 14.8042476,25.75 L31.1957524,25.75 C31.5237369,25.75 31.8451202,25.6578285 32.1232505,25.483997 C32.533045,25.2278755 32.8002305,24.8298989 32.900937,24.3935041 C33.0016434,23.9571093 32.9358709,23.4822963 32.6797494,23.0725019 L24.0848045,9.51318064 Z" id="Triangle" stroke="#E56940" stroke-width="1.5"></path>
                        <rect id="Rectangle" fill="#E56940" x="22" y="13" width="2" height="7" rx="1"></rect>
                        <circle id="Oval" fill="#E56940" cx="23" cy="22" r="1"></circle>
                        <rect id="Rectangle" stroke="#4A4A4A" stroke-width="1.5" x="0.75" y="0.75" width="44.5" height="33.5" rx="16.75"></rect>
                    </g>
                </g>
            </g>
        </g>
    </g>
</svg>