<?xml version="1.0" encoding="UTF-8"?>
<svg width="229px" height="229px" viewBox="0 0 229 229" version="1.1" xmlns="http://www.w3.org/2000/svg" xmlns:xlink="http://www.w3.org/1999/xlink">
    <!-- Generator: Sketch 60.1 (88133) - https://sketch.com -->
    <title>Automotive_inactive</title>
    <desc>Created with Sketch.</desc>
    <defs>
        <circle id="path-1-top" cx="81.5" cy="81.5" r="81.5"></circle>
        <filter x="-35.0%" y="-27.6%" width="169.9%" height="169.9%" filterUnits="objectBoundingBox" id="filter-2-top">
            <feOffset dx="0" dy="12" in="SourceAlpha" result="shadowOffsetOuter1"></feOffset>
            <feGaussianBlur stdDeviation="17" in="shadowOffsetOuter1" result="shadowBlurOuter1"></feGaussianBlur>
            <feColorMatrix values="0 0 0 0 0   0 0 0 0 0   0 0 0 0 0  0 0 0 0.0321514423 0" type="matrix" in="shadowBlurOuter1"></feColorMatrix>
        </filter>
    </defs>
    <g id="HS_Website" stroke="none" stroke-width="1" fill="none" fill-rule="evenodd">
        <g id="Automotive_inactive" transform="translate(33.000000, 21.000000)">
            <g id="Oval-Copy-6">
                <use fill="black" fill-opacity="1" filter="url(#filter-2-top)" xlink:href="#path-1-top"></use>
                <use fill="#FFFFFF" fill-rule="evenodd" xlink:href="#path-1-top"></use>
            </g>
            <g id="Group-2" transform="translate(49.686467, 48.000000)" fill="#74ABFC">
                <path d="M9.56372935,0.0975609756 C10.6144174,0.0975609756 11.4661684,0.949311939 11.4661684,2 C11.4661684,3.0006553 10.6936051,3.82086878 9.71240384,3.89671529 L9.56372935,3.90243902 L4.128,3.902 L3.90243902,16.5195268 L3.90243902,50.2255712 C3.90243902,57.0888278 9.42144611,62.6761573 16.2970658,62.8390062 L16.6058222,62.842659 L50.5121951,62.842659 C57.4273835,62.842659 63.0480845,57.3562598 63.2119038,50.5320147 L63.2155783,50.2255712 L63.2155783,16.5195268 C63.2155783,9.6562702 57.6965712,4.06894074 50.8209515,3.90609179 L50.5121951,3.90243902 L17.3882769,3.90243902 C16.3375889,3.90243902 15.4858379,3.05068806 15.4858379,2 C15.4858379,0.999344704 16.2584012,0.17913122 17.2396025,0.103284709 L17.3882769,0.0975609756 L50.5121951,0.0975609756 C59.5197084,0.0975609756 66.846253,7.27547367 67.0173956,16.2000582 L67.0204563,16.5195268 L67.0204563,50.2255712 C67.0204563,59.1909734 59.7998824,66.4743614 50.8331681,66.6444944 L50.5121951,66.6475371 L16.6058222,66.6475371 C7.59830893,66.6475371 0.271764282,59.4696244 0.100621711,50.5450399 L0.0975609756,50.2255712 L0.0975609756,16.4853583 L0.39224635,0.0975609756 L9.56372935,0.0975609756 Z" id="Combined-Shape" fill-rule="nonzero" transform="translate(33.559009, 33.372549) rotate(-180.000000) translate(-33.559009, -33.372549) "></path>
                <path d="M51.7102398,29.2921084 C54.7319946,29.2921084 57.2822431,31.5392719 57.6625345,34.5370012 L58.0754769,37.7921084 C58.600234,41.9286192 55.6723291,45.7073234 51.5358183,46.2320805 C51.2206776,46.2720592 50.9033279,46.2921084 50.5856615,46.2921084 L17.0414038,46.2921084 C12.8717405,46.2921084 9.49156058,42.9119284 9.49156058,38.7422651 C9.49156058,38.4245987 9.5116097,38.107249 9.55158839,37.7921084 L9.96453077,34.5370012 C10.3448222,31.5392719 12.8950707,29.2921084 15.9168255,29.2921084 L51.7102398,29.2921084 Z M51.7102398,33.0921084 L15.9168255,33.0921084 C14.8642476,33.0921084 13.967699,33.8357322 13.761123,34.8524933 L13.7343175,35.0152357 L13.3213751,38.2703429 C13.3015185,38.4268664 13.2915606,38.5844871 13.2915606,38.7422651 C13.2915606,40.7464405 14.8638559,42.3833866 16.8422535,42.4869106 L17.0414038,42.4921084 L50.5856615,42.4921084 C50.7434395,42.4921084 50.9010602,42.4821504 51.0575837,42.4622938 C53.0458242,42.210066 54.4718799,40.4442602 54.325597,38.4685639 L54.3056902,38.2703429 L53.8927478,35.0152357 C53.7602797,33.9710267 52.9097365,33.1751924 51.8750618,33.0982195 L51.7102398,33.0921084 Z" id="Combined-Shape" fill-rule="nonzero"></path>
                <path d="M24.6346798,43.1735932 L24.6346798,48.2428957 C24.6346798,51.5183295 21.9794161,54.1735932 18.7039824,54.1735932 C15.4285486,54.1735932 12.7732849,51.5183295 12.7732849,48.2428957 L12.7732849,43.1735932 L24.6346798,43.1735932 Z" id="Combined-Shape" fill-rule="nonzero"></path>
                <path d="M54.8273216,43.1735932 L54.8273216,48.2428957 C54.8273216,51.5183295 52.1720579,54.1735932 48.8966241,54.1735932 C45.6211903,54.1735932 42.9659266,51.5183295 42.9659266,48.2428957 L42.9659266,43.1735932 L54.8273216,43.1735932 Z" id="Combined-Shape" fill-rule="nonzero"></path>
                <path d="M44.2318028,14.2921084 C46.1102094,14.2921084 47.830136,15.3449056 48.6845775,17.01773 L56.9971683,33.2921084 L10.629897,33.2921084 L18.9424878,17.01773 C19.7969293,15.3449056 21.5168559,14.2921084 23.3952625,14.2921084 L44.2318028,14.2921084 Z M44.2318028,18.0921084 L23.3952625,18.0921084 C22.9895267,18.0921084 22.6145994,18.2967721 22.3941782,18.6303823 L22.3265966,18.7462575 L16.837,29.492 L50.789,29.492 L45.3004687,18.7462575 C45.1159093,18.3849275 44.7630997,18.1441307 44.3657373,18.0995846 L44.2318028,18.0921084 Z" id="Combined-Shape" fill-rule="nonzero"></path>
                <path d="M45.8135327,35.1243557 C47.1942445,35.1243557 48.3135327,36.2436438 48.3135327,37.6243557 C48.3135327,39.0050675 47.1942445,40.1243557 45.8135327,40.1243557 C44.4328208,40.1243557 43.3135327,39.0050675 43.3135327,37.6243557 C43.3135327,36.2436438 44.4328208,35.1243557 45.8135327,35.1243557 Z" id="Combined-Shape"></path>
                <path d="M21.8135327,35.1243557 C23.1942445,35.1243557 24.3135327,36.2436438 24.3135327,37.6243557 C24.3135327,39.0050675 23.1942445,40.1243557 21.8135327,40.1243557 C20.4328208,40.1243557 19.3135327,39.0050675 19.3135327,37.6243557 C19.3135327,36.2436438 20.4328208,35.1243557 21.8135327,35.1243557 Z" id="Combined-Shape"></path>
            </g>
        </g>
    </g>
</svg>
