<?xml version="1.0" encoding="UTF-8"?>
<svg width="229px" height="229px" viewBox="0 0 229 229" version="1.1" xmlns="http://www.w3.org/2000/svg" xmlns:xlink="http://www.w3.org/1999/xlink">
    <!-- Generator: Sketch 60.1 (88133) - https://sketch.com -->
    <title>Business_inactive</title>
    <desc>Created with Sketch.</desc>
    <defs>
        <circle id="path-1-top" cx="81.5" cy="81.5" r="81.5"></circle>
        <filter x="-35.0%" y="-27.6%" width="169.9%" height="169.9%" filterUnits="objectBoundingBox" id="filter-2-top">
            <feOffset dx="0" dy="12" in="SourceAlpha" result="shadowOffsetOuter1"></feOffset>
            <feGaussianBlur stdDeviation="17" in="shadowOffsetOuter1" result="shadowBlurOuter1"></feGaussianBlur>
            <feColorMatrix values="0 0 0 0 0   0 0 0 0 0   0 0 0 0 0  0 0 0 0.0321514423 0" type="matrix" in="shadowBlurOuter1"></feColorMatrix>
        </filter>
    </defs>
    <g id="HS_Website" stroke="none" stroke-width="1" fill="none" fill-rule="evenodd">
        <g id="Business_inactive" transform="translate(33.000000, 21.000000)">
            <g id="Oval-Copy-6">
                <use fill="black" fill-opacity="1" filter="url(#filter-2-top)" xlink:href="#path-1-top"></use>
                <use fill="#FFFFFF" fill-rule="evenodd" xlink:href="#path-1-top"></use>
            </g>
            <g id="Group-50" transform="translate(48.000000, 47.000000)" fill="#74ABFC" fill-rule="nonzero">
                <path d="M30.35,20.9740777 C24.6189886,20.9740777 19.9743846,25.6265551 19.9743846,31.3640777 C19.9743846,37.1016003 24.6189886,41.7540777 30.35,41.7540777 C36.0810114,41.7540777 40.7256154,37.1016003 40.7256154,31.3640777 C40.7256154,25.6265551 36.0810114,20.9740777 30.35,20.9740777 Z" id="Combined-Shape"></path>
                <path d="M33.9435714,43.6504854 C43.5119047,43.6504854 51.2685714,51.4071521 51.2685714,60.9754854 L51.2685714,67 L20.6047573,67 C14.1569669,67 8.93,61.7730331 8.93,55.3252427 C8.93,48.8774523 14.1569669,43.6504854 20.6047573,43.6504854 L33.9435714,43.6504854 Z M34.253976,47.4539773 L33.9435714,47.4504854 L20.6047573,47.4504854 C16.2556489,47.4504854 12.73,50.9761344 12.73,55.3252427 C12.73,59.5922924 16.1238607,63.0666635 20.3594789,63.1962528 L20.6047573,63.2 L47.468,63.2 L47.4685714,60.9754854 C47.4685714,53.7148066 41.7472945,47.7904035 34.5670662,47.4646018 L34.253976,47.4539773 Z" id="Combined-Shape"></path>
                <path d="M46.5,10.5617131 C47.549341,10.5617131 48.4,11.4123721 48.4,12.4617131 L48.4,15.9617131 C48.4,17.0110541 47.549341,17.8617131 46.5,17.8617131 C45.450659,17.8617131 44.6,17.0110541 44.6,15.9617131 L44.6,12.4617131 C44.6,11.4123721 45.450659,10.5617131 46.5,10.5617131 Z" id="Combined-Shape" transform="translate(46.500000, 14.211713) rotate(-90.000000) translate(-46.500000, -14.211713) "></path>
                <path d="M46.4426871,19.6345287 C47.4920282,19.6345287 48.3426871,20.4851876 48.3426871,21.5345287 L48.3426871,25.0345287 C48.3426871,26.0838697 47.4920282,26.9345287 46.4426871,26.9345287 C45.3933461,26.9345287 44.5426871,26.0838697 44.5426871,25.0345287 L44.5426871,21.5345287 C44.5426871,20.4851876 45.3933461,19.6345287 46.4426871,19.6345287 Z" id="Combined-Shape" transform="translate(46.442687, 23.284529) rotate(-90.000000) translate(-46.442687, -23.284529) "></path>
                <path d="M46.4426871,28.4694801 C47.4920282,28.4694801 48.3426871,29.3201391 48.3426871,30.3694801 L48.3426871,33.8694801 C48.3426871,34.9188211 47.4920282,35.7694801 46.4426871,35.7694801 C45.3933461,35.7694801 44.5426871,34.9188211 44.5426871,33.8694801 L44.5426871,30.3694801 C44.5426871,29.3201391 45.3933461,28.4694801 46.4426871,28.4694801 Z" id="Combined-Shape" transform="translate(46.442687, 32.119480) rotate(-90.000000) translate(-46.442687, -32.119480) "></path>
                <path d="M46.4426871,37.3044316 C47.4920282,37.3044316 48.3426871,38.1550905 48.3426871,39.2044316 L48.3426871,42.7044316 C48.3426871,43.7537726 47.4920282,44.6044316 46.4426871,44.6044316 C45.3933461,44.6044316 44.5426871,43.7537726 44.5426871,42.7044316 L44.5426871,39.2044316 C44.5426871,38.1550905 45.3933461,37.3044316 46.4426871,37.3044316 Z" id="Combined-Shape" transform="translate(46.442687, 40.954432) rotate(-90.000000) translate(-46.442687, -40.954432) "></path>
                <path d="M56.1873645,10.5044003 C57.2367056,10.5044003 58.0873645,11.3550592 58.0873645,12.4044003 L58.0873645,15.9044003 C58.0873645,16.9537413 57.2367056,17.8044003 56.1873645,17.8044003 C55.1380235,17.8044003 54.2873645,16.9537413 54.2873645,15.9044003 L54.2873645,12.4044003 C54.2873645,11.3550592 55.1380235,10.5044003 56.1873645,10.5044003 Z" id="Combined-Shape" transform="translate(56.187365, 14.154400) rotate(-90.000000) translate(-56.187365, -14.154400) "></path>
                <path d="M56.1873645,19.6345287 C57.2367056,19.6345287 58.0873645,20.4851876 58.0873645,21.5345287 L58.0873645,25.0345287 C58.0873645,26.0838697 57.2367056,26.9345287 56.1873645,26.9345287 C55.1380235,26.9345287 54.2873645,26.0838697 54.2873645,25.0345287 L54.2873645,21.5345287 C54.2873645,20.4851876 55.1380235,19.6345287 56.1873645,19.6345287 Z" id="Combined-Shape" transform="translate(56.187365, 23.284529) rotate(-90.000000) translate(-56.187365, -23.284529) "></path>
                <path d="M56.1873645,28.4694801 C57.2367056,28.4694801 58.0873645,29.3201391 58.0873645,30.3694801 L58.0873645,33.8694801 C58.0873645,34.9188211 57.2367056,35.7694801 56.1873645,35.7694801 C55.1380235,35.7694801 54.2873645,34.9188211 54.2873645,33.8694801 L54.2873645,30.3694801 C54.2873645,29.3201391 55.1380235,28.4694801 56.1873645,28.4694801 Z" id="Combined-Shape" transform="translate(56.187365, 32.119480) rotate(-90.000000) translate(-56.187365, -32.119480) "></path>
                <path d="M56.1873645,37.3044316 C57.2367056,37.3044316 58.0873645,38.1550905 58.0873645,39.2044316 L58.0873645,42.7044316 C58.0873645,43.7537726 57.2367056,44.6044316 56.1873645,44.6044316 C55.1380235,44.6044316 54.2873645,43.7537726 54.2873645,42.7044316 L54.2873645,39.2044316 C54.2873645,38.1550905 55.1380235,37.3044316 56.1873645,37.3044316 Z" id="Combined-Shape" transform="translate(56.187365, 40.954432) rotate(-90.000000) translate(-56.187365, -40.954432) "></path>
                <path d="M48.3176096,0.0799753192 L48.3176096,3.85997532 L36.9776096,3.85997532 L36.9776096,22.5779753 L37.1374234,22.7287269 C39.4368688,24.9560761 40.664743,27.6219501 40.7525423,30.6483107 L40.7576096,30.9991015 L36.9776096,30.9991015 C36.9776096,28.7315407 36.0604548,26.7996398 34.1335247,25.0978869 L33.8764519,24.8772157 L33.1976096,24.3105548 L33.1976096,0.0799753192 L48.3176096,0.0799753192 Z" id="Combined-Shape"></path>
                <path d="M9.51427419,0.11 C10.5580924,0.11 11.4042742,0.956181823 11.4042742,2 C11.4042742,2.99411255 10.6367623,3.8089631 9.66197658,3.88431369 L9.51427419,3.89 L4.115,3.889 L3.89,16.6032255 L3.89,50.5035706 C3.89,57.4242875 9.37797782,63.0491776 16.2038081,63.2131189 L16.5103226,63.2167961 L50.195,63.2167961 C57.0598417,63.2167961 62.648773,57.6936813 62.8116688,50.8125736 L62.8153226,50.5035706 L62.8153226,16.6032255 C62.8153226,9.68250858 57.3273448,4.0576185 50.5015145,3.89367725 L50.195,3.89 L17.2876613,3.89 C16.2438431,3.89 15.3976613,3.04381818 15.3976613,2 C15.3976613,1.00588745 16.1651731,0.1910369 17.1399589,0.115686309 L17.2876613,0.11 L50.195,0.11 C59.1487653,0.11 66.4223794,7.32417087 66.592284,16.282551 L66.5953226,16.6032255 L66.5953226,50.5035706 C66.5953226,59.5027043 59.4270469,66.8227473 50.5140538,66.9937381 L50.195,66.9967961 L16.5103226,66.9967961 C7.55655726,66.9967961 0.282943171,59.7826252 0.113038586,50.8242451 L0.11,50.5035706 L0.11,16.5696955 L0.402350698,0.11 L9.51427419,0.11 Z" id="Combined-Shape" transform="translate(33.352661, 33.553398) rotate(-180.000000) translate(-33.352661, -33.553398) "></path>
            </g>
        </g>
    </g>
</svg>
