<?xml version="1.0" encoding="UTF-8"?>
<svg width="229px" height="229px" viewBox="0 0 229 229" version="1.1" xmlns="http://www.w3.org/2000/svg" xmlns:xlink="http://www.w3.org/1999/xlink">
    <!-- Generator: Sketch 60.1 (88133) - https://sketch.com -->
    <title>Communication_inactive</title>
    <desc>Created with Sketch.</desc>
    <defs>
        <circle id="path-1-top" cx="81.5" cy="81.5" r="81.5"></circle>
        <filter x="-35.0%" y="-27.6%" width="169.9%" height="169.9%" filterUnits="objectBoundingBox" id="filter-2-top">
            <feOffset dx="0" dy="12" in="SourceAlpha" result="shadowOffsetOuter1"></feOffset>
            <feGaussianBlur stdDeviation="17" in="shadowOffsetOuter1" result="shadowBlurOuter1"></feGaussianBlur>
            <feColorMatrix values="0 0 0 0 0   0 0 0 0 0   0 0 0 0 0  0 0 0 0.0321514423 0" type="matrix" in="shadowBlurOuter1"></feColorMatrix>
        </filter>
    </defs>
    <g id="HS_Website" stroke="none" stroke-width="1" fill="none" fill-rule="evenodd">
        <g id="Communication_inactive" transform="translate(33.000000, 21.000000)">
            <g id="Oval">
                <use fill="black" fill-opacity="1" filter="url(#filter-2-top)" xlink:href="#path-1-top"></use>
                <use fill="#FFFFFF" fill-rule="evenodd" xlink:href="#path-1-top"></use>
            </g>
            <g id="Group-4" transform="translate(48.000000, 48.000000)" fill="#74ABFC">
                <path d="M9.56372935,0.0975609756 C10.6144174,0.0975609756 11.4661684,0.949311939 11.4661684,2 C11.4661684,3.0006553 10.6936051,3.82086878 9.71240384,3.89671529 L9.56372935,3.90243902 L4.128,3.902 L3.90243902,16.5195268 L3.90243902,50.2255712 C3.90243902,57.0888278 9.42144611,62.6761573 16.2970658,62.8390062 L16.6058222,62.842659 L50.5121951,62.842659 C57.4273835,62.842659 63.0480845,57.3562598 63.2119038,50.5320147 L63.2155783,50.2255712 L63.2155783,16.5195268 C63.2155783,9.6562702 57.6965712,4.06894074 50.8209515,3.90609179 L50.5121951,3.90243902 L17.3882769,3.90243902 C16.3375889,3.90243902 15.4858379,3.05068806 15.4858379,2 C15.4858379,0.999344704 16.2584012,0.17913122 17.2396025,0.103284709 L17.3882769,0.0975609756 L50.5121951,0.0975609756 C59.5197084,0.0975609756 66.846253,7.27547367 67.0173956,16.2000582 L67.0204563,16.5195268 L67.0204563,50.2255712 C67.0204563,59.1909734 59.7998824,66.4743614 50.8331681,66.6444944 L50.5121951,66.6475371 L16.6058222,66.6475371 C7.59830893,66.6475371 0.271764282,59.4696244 0.100621711,50.5450399 L0.0975609756,50.2255712 L0.0975609756,16.4853583 L0.39224635,0.0975609756 L9.56372935,0.0975609756 Z" id="Combined-Shape" fill-rule="nonzero" transform="translate(33.559009, 33.372549) rotate(-180.000000) translate(-33.559009, -33.372549) "></path>
                <path d="M36.2120397,14.6404663 C43.0704434,14.6799039 48.6590814,20.2697659 48.7985057,27.1623375 C52.5206791,28.3059317 55.2102552,31.7979942 55.2336707,35.8695785 C55.2622033,40.8843269 51.2513117,44.9418522 46.2715986,44.9135154 C46.0662546,44.9123347 45.8615832,44.9041809 45.6578381,44.8891129 C45.5787821,44.8921859 45.499616,44.892854 45.4204494,44.8911098 L44.9998047,44.8812627 L44.9998047,41.0792627 L45.5218078,41.0908546 L45.7296914,42.4198471 L45.8505321,41.0922396 C45.9971236,41.1055826 46.1448304,41.1127237 46.2933356,41.1135776 C49.1474428,41.1298187 51.4502837,38.8002033 51.4337329,35.8913154 C51.4179075,33.1395329 49.3226183,30.8410083 46.6498261,30.5903125 C45.8456308,30.5148826 45.2077311,29.9494415 44.9994293,29.2193019 L45,27.8584386 C44.998557,27.6976491 45.0019447,27.5355522 45.0010187,27.3728062 C44.9728001,22.4660365 41.0198531,18.4681753 36.1903027,18.4404041 C32.3962625,18.4188144 29.0875436,20.875399 27.9431627,24.4662499 C27.6353234,25.4321914 26.6292872,25.9773606 25.6645986,25.7308283 L25.3172955,25.6265777 C25.1195698,25.5759003 24.9152385,25.549391 24.7066891,25.5481917 C23.3214019,25.5403089 22.2023858,26.6723354 22.2102781,28.0764547 L22.2111519,28.1318048 C22.2265093,29.104596 21.5045395,29.9318104 20.5386093,30.0481608 C17.9730326,30.3571955 16.0307341,32.5693686 16.0458931,35.2336317 C16.0622938,38.0854589 18.3063294,40.4341686 21.0589224,40.5529268 L24.9998047,40.6392627 L24.9998047,44.4402627 L20.931602,44.3506224 C16.1111796,44.1432482 12.2739721,40.1270521 12.2459553,35.2553686 C12.2234085,31.2926559 14.735841,27.8844781 18.3078557,26.6774093 L18.5846911,26.588927 L18.6501452,26.3372855 C19.3777429,23.7583572 21.6818448,21.8539367 24.4582994,21.7524128 L24.7284261,21.7482539 L24.9364668,21.7528492 C26.970147,17.4525196 31.3103954,14.6125738 36.2120397,14.6404663 Z M45.7296914,42.4198471 L45.6783035,42.9844175 L45.9037711,44.8709923 L46.0409066,44.854603 L45.815439,42.9680282 L45.7296914,42.4198471 Z" id="Combined-Shape" fill-rule="nonzero"></path>
                <path d="M31.6377261,29.5599033 C31.6425153,29.5634889 31.6472933,29.5670894 31.6520601,29.5707048 L46.8471353,41.095184 C48.1140962,42.0560916 48.3675622,43.8596323 47.4145363,45.1325325 L42.4020597,51.8274002 C41.4448356,53.1059076 39.6324171,53.3663592 38.3539096,52.4091351 C38.3491205,52.4055495 38.3443425,52.401949 38.3395757,52.3983336 L23.1445004,40.8738544 C21.8775395,39.9129468 21.6240735,38.1094061 22.5770994,36.8365059 L27.5895761,30.1416382 C28.5468002,28.8631308 30.3592187,28.6026792 31.6377261,29.5599033 Z M43.1493469,44.6827082 C42.2806767,44.0323311 41.0492455,44.2092925 40.3988683,45.0779627 L40.3988683,45.0779627 C39.7390345,45.9592636 39.9134007,47.1999684 40.7849776,47.8610029 C40.7882164,47.8634593 40.7914628,47.8659057 40.7947167,47.8683419 C41.6633869,48.5187191 42.8948181,48.3417576 43.5451953,47.4730874 L43.5451953,47.4730874 C44.2050291,46.5917865 44.0306629,45.3510818 43.159086,44.6900472 L43.159086,44.6900472 Z M28.6414859,32.9691861 C28.2691987,32.690453 27.7414425,32.7662936 27.4627094,33.1385809 L27.4627094,33.1385809 L25.4259502,35.8589593 C25.1449735,36.2342433 25.2197018,36.7659739 25.5932348,37.0492744 C25.5946228,37.0503272 25.5960141,37.0513756 25.5974087,37.0524197 C25.9696959,37.3311528 26.4974521,37.2553121 26.7761852,36.8830249 L26.7761852,36.8830249 L28.8129444,34.1626465 C29.0939211,33.7873625 29.0191928,33.2556319 28.6456598,32.9723314 C28.6442718,32.9712786 28.6428805,32.9702302 28.6414859,32.9691861 Z" id="Combined-Shape" transform="translate(34.995818, 40.984519) rotate(53.000000) translate(-34.995818, -40.984519) "></path>
            </g>
        </g>
    </g>
</svg>
