<?xml version="1.0" encoding="UTF-8"?>
<svg width="229px" height="229px" viewBox="0 0 229 229" version="1.1" xmlns="http://www.w3.org/2000/svg" xmlns:xlink="http://www.w3.org/1999/xlink">
    <!-- Generator: Sketch 60 (88103) - https://sketch.com -->
    <title>Ecommerce_inactive 123123</title>
    <desc>Created with Sketch.</desc>
    <defs>
        <circle id="path-1-top" cx="81.5" cy="81.5" r="81.5"></circle>
        <filter x="-35.0%" y="-27.6%" width="169.9%" height="169.9%" filterUnits="objectBoundingBox" id="filter-2-top">
            <feOffset dx="0" dy="12" in="SourceAlpha" result="shadowOffsetOuter1"></feOffset>
            <feGaussianBlur stdDeviation="17" in="shadowOffsetOuter1" result="shadowBlurOuter1"></feGaussianBlur>
            <feColorMatrix values="0 0 0 0 0   0 0 0 0 0   0 0 0 0 0  0 0 0 0.0321514423 0" type="matrix" in="shadowBlurOuter1"></feColorMatrix>
        </filter>
    </defs>
    <g id="HS_Website" stroke="none" stroke-width="1" fill="none" fill-rule="evenodd">
        <g id="Ecommerce_inactive" transform="translate(33.000000, 21.000000)">
            <g id="Oval">
                <use fill="black" fill-opacity="1" filter="url(#filter-2-top)" xlink:href="#path-1-top"></use>
                <use fill="#FFFFFF" fill-rule="evenodd" xlink:href="#path-1-top"></use>
            </g>
            <g id="Group-7" transform="translate(40.000000, 48.000000)" fill="#74ABFC">
                <path d="M24.2922895,0.0975609756 L23.9323621,0.10142055 C18.1851601,0.224749273 13.0085251,3.29517636 10.1248653,8.08476688 L10.024,8.254 L9.60466058,8.25463457 L6.83320356,9.28454263 C2.74430501,10.8040284 0.031593303,14.7060696 0.031593303,19.068171 L0.0353911722,19.3519636 C0.15919841,23.9729818 3.29743091,27.8817986 7.60258753,29.1071455 L7.783,29.156 L7.78402832,50.2256094 C7.78402832,59.2977044 15.177544,66.6475371 24.2922895,66.6475371 L74.4122383,66.6475371 L74.7066168,50.2597397 L74.707,28.823 L74.7447117,28.809458 C77.5246637,27.7444456 79.7615025,25.5329905 80.8330582,22.6815 C82.878239,17.2391196 80.1242646,11.1692521 74.6818842,9.1240713 L72.493,8.301 L72.3660867,8.08476688 C69.4223507,3.19539322 64.0891036,0.0975609756 58.1986625,0.0975609756 L24.2922895,0.0975609756 Z M58.1986625,3.90243902 C63.1076049,3.90243902 67.5090737,6.69153478 69.6232013,10.9949603 L70.1450796,12.0572728 L71.675,12.059 L73.3434424,12.6857662 C76.8187529,13.9917459 78.577343,17.8677475 77.2713633,21.3430581 C76.4649263,23.4890479 74.6245869,25.0676206 72.402101,25.5486848 L70.9021364,25.8733569 L70.9020456,50.2255641 L70.675,62.842 L24.2922895,62.842659 C17.2738894,62.842659 11.5889064,57.1912645 11.5889064,50.2255712 L11.5884174,25.830351 L9.85831371,25.673012 C6.46176475,25.3641232 3.83647135,22.5043205 3.83647135,19.068171 L3.84149565,18.8091974 C3.94506322,16.142758 5.64147424,13.786508 8.15858728,12.8511173 L10.29,12.059 L12.3456017,12.0578237 L12.8677507,10.9949603 C14.9818783,6.69153478 19.3833471,3.90243902 24.2922895,3.90243902 L58.1986625,3.90243902 Z" id="Combined-Shape" fill-rule="nonzero"></path>
                <path d="M72.3676864,8.25442372 L9.60522796,8.25442372 L6.83320356,9.28454263 C2.74430501,10.8040284 0.031593303,14.7060696 0.031593303,19.068171 L0.0353450204,19.3507692 C0.180106365,24.796713 4.49640649,29.2028637 9.90558017,29.490556 L10.107,29.498 L9.78761713,29.3793202 C12.3896917,30.3773762 14.8782933,30.8828312 17.2501967,30.8828312 L17.7269141,30.8765142 C19.6268445,30.8259784 21.4432527,30.4722374 23.1670548,29.8155054 L23.4,29.723 L22.7753327,29.5693222 C26.2176638,30.4441158 29.5932009,30.8828312 32.8992919,30.8828312 L33.5261128,30.8770086 C36.2242474,30.8265347 38.6871296,30.4477478 40.9110903,29.7346028 L41.258,29.618 L41.7072468,29.7635587 C44.1120082,30.5091698 46.5683193,30.8828312 49.0700236,30.8828312 L49.6837515,30.8759302 C51.9299943,30.8253242 54.131102,30.4964095 56.2833269,29.8897207 L56.864,29.718 L57.3940637,29.8723734 C59.792042,30.5440361 62.0597404,30.8828312 64.1974823,30.8828312 L64.6995456,30.8760555 C66.8746607,30.8173433 69.0431862,30.3771976 71.1977773,29.560723 L71.358,29.497 L71.2925902,29.5006396 C75.5769539,29.3611882 79.3336167,26.6716269 80.8330582,22.6815 C82.878239,17.2391196 80.1242646,11.1692521 74.6818842,9.1240713 L72.3676864,8.25442372 Z M10.289,12.059 L71.677,12.059 L73.3434424,12.6857662 C76.8187529,13.9917459 78.577343,17.8677475 77.2713633,21.3430581 C76.3139108,23.8909114 73.9148786,25.6084848 71.1996003,25.6970246 L70.5922228,25.7066662 L70.2627738,25.8404937 C68.2254671,26.6680805 66.2074641,27.0779531 64.1974823,27.0779531 C62.1432578,27.0779531 59.8870196,26.6924104 57.4292644,25.9122191 L56.8408742,25.7254401 L56.2549197,25.9197255 C53.9250431,26.6922445 51.5326531,27.0779531 49.0700236,27.0779531 C46.6247164,27.0779531 44.2344984,26.6572103 41.8899124,25.8130954 L41.2280596,25.5748103 L40.5703964,25.8244259 C38.3785122,26.656354 35.8237575,27.0779531 32.8992919,27.0779531 C29.9156181,27.0779531 26.8542289,26.6800672 23.7124722,25.8816582 L23.0708481,25.7186033 L22.4666083,25.9890893 C20.8446848,26.715138 19.1117949,27.0779531 17.2501967,27.0779531 C15.3682672,27.0779531 13.3360192,26.6651872 11.1502271,25.8268012 L10.821259,25.7006217 L10.4689221,25.7006217 C6.8059207,25.7006217 3.83647135,22.7311724 3.83647135,19.068171 L3.84149565,18.8091974 C3.94506322,16.142758 5.64147424,13.786508 8.15858728,12.8511173 L10.289,12.059 Z" id="Combined-Shape" fill-rule="nonzero"></path>
                <path d="M57.7914339,35.4705882 C60.0005729,35.4705882 61.7914339,37.2614492 61.7914339,39.4705882 L61.7914339,45.4705882 C61.7914339,47.6797272 60.0005729,49.4705882 57.7914339,49.4705882 L51.8246164,49.4705882 C49.6154774,49.4705882 47.8246164,47.6797272 47.8246164,45.4705882 L47.8246164,39.4705882 C47.8246164,37.2614492 49.6154774,35.4705882 51.8246164,35.4705882 L57.7914339,35.4705882 Z" id="Combined-Shape" fill-rule="nonzero"></path>
                <rect id="Combined-Shape" x="31.3343824" y="46.5490196" width="3.12981904" height="6.2745098" rx="1.56490952"></rect>
                <path d="M33.4516129,34.627451 C36.6036771,34.627451 39.15893,37.1827039 39.15893,40.3347681 L39.15893,66 L24.0723839,66 C22.3212372,66 20.9016522,64.5804151 20.9016522,62.8292683 L20.9016522,40.3347681 C20.9016522,37.1827039 23.4569051,34.627451 26.6089693,34.627451 L33.4516129,34.627451 Z M33.4516129,38.432329 L26.6089693,38.432329 C25.608314,38.432329 24.7881005,39.2048923 24.712254,40.1860936 L24.7065303,40.3347681 L24.706,62.195 L35.3540519,62.195 L35.3540519,40.3347681 C35.3540519,39.3341128 34.5814887,38.5138993 33.6002874,38.4380528 L33.4516129,38.432329 Z" id="Combined-Shape" fill-rule="nonzero"></path>
                <path d="M18.7714957,8.58239631 C19.8143153,8.71074219 20.5556427,9.66015942 20.4272968,10.702979 L20.1411552,13.0591408 L20.0155167,14.0443417 C19.4485579,18.349174 18.8470639,20.9547471 17.6794047,23.3377002 C15.9488211,26.8694665 13.1434113,28.972482 9.08687893,29.3642181 C8.04105602,29.4652124 7.11137699,28.6992775 7.0103827,27.6534546 C6.90938841,26.6076317 7.67532334,25.6779526 8.72114625,25.5769583 C13.3416313,25.1307618 15.0743897,22.0156476 16.2027096,13.8358405 L16.650913,10.2381974 C16.7792589,9.19537784 17.7286761,8.45405042 18.7714957,8.58239631 Z" id="Combined-Shape" fill-rule="nonzero"></path>
                <path d="M29.6915997,10.240041 C29.8189274,9.19709655 30.7676204,8.45484258 31.8105648,8.58217033 C32.8535093,8.70949807 33.5957632,9.6581911 33.4684355,10.7011355 L33.3499877,11.6351192 C32.1416991,20.7983283 30.1769384,24.7253588 23.6628302,29.0549838 C22.7877927,29.6365805 21.6069573,29.3986998 21.0253606,28.5236623 C20.4437638,27.6486248 20.6816445,26.4677895 21.556682,25.8861927 C27.1952956,22.1384683 28.6124234,19.0795979 29.6915997,10.240041 Z" id="Combined-Shape" fill-rule="nonzero"></path>
                <path d="M70.6572443,11.2242429 C70.7932971,10.1824007 71.7481697,9.44811337 72.7900118,9.58416617 C73.8318539,9.72021897 74.5661413,10.6750915 74.4300885,11.7169336 L74.270936,13.0173009 L73.9834248,15.5329061 C73.4924354,19.6512698 73.0734337,21.6160777 72.0811977,23.7308112 C70.5241692,27.0492759 67.8441504,29.0015183 63.8482807,29.3651965 C62.8019175,29.4604297 61.8764707,28.6893864 61.7812375,27.6430232 C61.6860043,26.5966599 62.4570476,25.6712132 63.5034108,25.57598 C68.0872141,25.1587919 69.3325191,22.6508253 70.3061008,14.2134587 L70.5763282,11.8642486 C70.6032642,11.644201 70.6296643,11.4354404 70.6572443,11.2242429 Z" id="Combined-Shape" fill-rule="nonzero" transform="translate(68.109802, 19.470543) scale(-1, 1) translate(-68.109802, -19.470543) "></path>
                <path d="M56.2340571,11.2357905 C56.3637323,10.1931354 57.3140938,9.45301889 58.356749,9.5826941 C59.3994041,9.71236931 60.1395206,10.6627308 60.0098454,11.705386 C58.7751505,21.6329655 56.7131367,26.6997145 51.4484882,29.1902982 C50.4987186,29.6396123 49.3645372,29.2339129 48.9152232,28.2841433 C48.4659091,27.3343737 48.8716084,26.2001923 49.821378,25.7508783 C53.4949777,24.012983 55.1510527,19.9437006 56.2340571,11.2357905 Z" id="Combined-Shape" fill-rule="nonzero" transform="translate(54.378318, 19.470712) scale(-1, 1) translate(-54.378318, -19.470712) "></path>
                <path d="M41,8.22191663 C42.0006553,8.22191663 42.8208688,8.99447986 42.8967153,9.97568116 L42.902439,10.1243557 L42.902439,27.1243557 C42.902439,28.1750437 42.0506881,29.0267947 41,29.0267947 C39.9993447,29.0267947 39.1791312,28.2542314 39.1032847,27.2730301 L39.097561,27.1243557 L39.097561,10.1243557 C39.097561,9.07366759 39.9493119,8.22191663 41,8.22191663 Z" id="Combined-Shape" fill-rule="nonzero"></path>
            </g>
        </g>
    </g>
</svg>
