<?xml version="1.0" encoding="UTF-8"?>
<svg width="229px" height="229px" viewBox="0 0 229 229" version="1.1" xmlns="http://www.w3.org/2000/svg" xmlns:xlink="http://www.w3.org/1999/xlink">
    <!-- Generator: Sketch 60.1 (88133) - https://sketch.com -->
    <title>Education_inactive</title>
    <desc>Created with Sketch.</desc>
    <defs>
        <circle id="path-1-top-top" cx="81.5" cy="81.5" r="81.5"></circle>
        <filter x="-35.0%" y="-27.6%" width="169.9%" height="169.9%" filterUnits="objectBoundingBox" id="filter-2-top">
            <feOffset dx="0" dy="12" in="SourceAlpha" result="shadowOffsetOuter1"></feOffset>
            <feGaussianBlur stdDeviation="17" in="shadowOffsetOuter1" result="shadowBlurOuter1"></feGaussianBlur>
            <feColorMatrix values="0 0 0 0 0   0 0 0 0 0   0 0 0 0 0  0 0 0 0.0321514423 0" type="matrix" in="shadowBlurOuter1"></feColorMatrix>
        </filter>
    </defs>
    <g id="HS_Website" stroke="none" stroke-width="1" fill="none" fill-rule="evenodd">
        <g id="Education_inactive" transform="translate(33.000000, 21.000000)">
            <g id="Oval">
                <use fill="black" fill-opacity="1" filter="url(#filter-2-top)" xlink:href="#path-1-top-top"></use>
                <use fill="#FFFFFF" fill-rule="evenodd" xlink:href="#path-1-top-top"></use>
            </g>
            <g id="Group-14" transform="translate(48.000000, 45.124356)" fill="#74ABFC">
                <path d="M29.8992961,23.8544185 L51.8397681,10.9795609 C52.3160979,10.7000464 52.9288308,10.8595968 53.2083452,11.3359267 C53.3933229,11.6511533 53.3915903,12.0421859 53.2038265,12.355761 L40.2117863,34.0531244 C39.6947308,34.916633 38.9687605,35.6361984 38.1007039,36.1455815 L16.1602319,49.0204391 C15.6839021,49.2999536 15.0711692,49.1404032 14.7916548,48.6640733 C14.6066771,48.3488467 14.6084097,47.9578141 14.7961735,47.644239 L27.7882137,25.9468756 C28.3052692,25.083367 29.0312395,24.3638016 29.8992961,23.8544185 Z" id="Combined-Shape" transform="translate(34.000000, 30.000000) rotate(-315.000000) translate(-34.000000, -30.000000) "></path>
                <path d="M34.7543427,31.6743807 C39.7421813,31.6743807 44.70869,32.3643736 49.6538687,33.7443594 C50.0861512,33.8649462 50.3851242,34.2587724 50.3851242,34.7075589 L50.3851242,42.3341134 C50.3851242,42.8864007 49.9374115,43.334118 49.3851242,43.334118 C49.2933727,43.334118 49.2020576,43.3214908 49.1137492,43.2965919 C44.6181598,42.0290409 39.831691,41.3952653 34.7543427,41.3952653 C29.6065921,41.3952653 24.4387022,42.0467385 19.2506732,43.3496849 C18.7150182,43.4842283 18.1717245,43.1590474 18.0371966,42.6233886 C18.0171929,42.5437386 18.0070768,42.4619277 18.0070768,42.3798042 L18.0070768,34.7332447 C18.0070768,34.2731339 18.3210563,33.8724059 18.7678011,33.7623107 C24.4160758,32.3703573 29.744923,31.6743807 34.7543427,31.6743807 Z M34.7543427,35.4743807 C30.8454851,35.4743807 26.704019,35.9301925 22.3296422,36.8466977 L21.807,36.959 L21.807,38.883 L22.1971987,38.8055087 C26.067626,38.0611615 29.9326908,37.6597805 33.7901403,37.602434 L34.7543427,37.5952653 C38.6680291,37.5952653 42.4326334,37.9497886 46.0448473,38.660678 L46.585,38.771 L46.585,36.877 L46.1884188,36.7830049 C42.656891,35.9723323 39.1197575,35.5388399 35.5729983,35.4810486 L34.7543427,35.4743807 Z" id="Combined-Shape" fill-rule="nonzero" transform="translate(34.196101, 37.527214) rotate(-180.000000) translate(-34.196101, -37.527214) "></path>
                <path d="M34.7472659,28 C39.7351045,28 44.7016132,28.6899929 49.6467918,30.0699787 C50.0790743,30.1905656 50.3780473,30.5843918 50.3780473,31.0331783 L50.3780473,38.6597327 C50.3780473,39.21202 49.9303347,39.6597374 49.3780473,39.6597374 C49.2862958,39.6597374 49.1949808,39.6471102 49.1066723,39.6222112 C44.611083,38.3546602 39.8246141,37.7208847 34.7472659,37.7208847 C29.5995152,37.7208847 24.4316254,38.3723579 19.2435964,39.6753043 C18.7079414,39.8098476 18.1646477,39.4846667 18.0301198,38.9490079 C18.0101161,38.8693579 18,38.7875471 18,38.7054236 L18,31.058864 C18,30.5987533 18.3139794,30.1980252 18.7607243,30.08793 C24.408999,28.6959767 29.7378462,28 34.7472659,28 Z M34.7472659,31.8 C30.8384083,31.8 26.6969422,32.2558118 22.3225653,33.1723171 L21.8,33.284 L21.8,35.209 L22.1901219,35.131128 C26.0605491,34.3867809 29.925614,33.9853998 33.7830635,33.9280533 L34.7472659,33.9208847 C38.6609523,33.9208847 42.4255566,34.2754079 46.0377705,34.9862973 L46.578,35.097 L46.578,33.203 L46.181342,33.1086243 C42.6498142,32.2979516 39.1126807,31.8644593 35.5659215,31.8066679 L34.7472659,31.8 Z" id="Combined-Shape" fill-rule="nonzero"></path>
                <path d="M13,28.1 C13.9993724,28.1 14.8185343,28.8715728 14.8942836,29.8515161 L14.9,30 L14.9,45.8756443 C14.9,46.9249854 14.049341,47.7756443 13,47.7756443 C12.0006276,47.7756443 11.1814657,47.0040716 11.1057164,46.0241282 L11.1,45.8756443 L11.1,30 C11.1,28.950659 11.950659,28.1 13,28.1 Z" id="Combined-Shape" fill-rule="nonzero"></path>
                <path d="M15,45.0621778 L15.541355,45.8910404 C16.4245952,47.2433597 16.4078437,48.9941806 15.4988901,50.3293526 L15,51.0621778 C14.2480352,52.1667473 12.7430167,52.4525899 11.6384472,51.700625 C11.3874556,51.5297558 11.1708692,51.3131695 11,51.0621778 L10.5011099,50.3293526 C9.59215628,48.9941806 9.5754048,47.2433597 10.458645,45.8910404 L11,45.0621778 C11.7214274,43.9576083 13.2016904,43.6470103 14.3062599,44.3684377 C14.5830148,44.5491947 14.819243,44.7854229 15,45.0621778 Z" id="Combined-Shape"></path>
                <path d="M9.56372935,2.97320532 C10.6144174,2.97320532 11.4661684,3.82495629 11.4661684,4.87564435 C11.4661684,5.87629964 10.6936051,6.69651313 9.71240384,6.77235964 L9.56372935,6.77808337 L4.128,6.778 L3.90243902,19.3951712 L3.90243902,53.1012156 C3.90243902,59.9644722 9.42144611,65.5518016 16.2970658,65.7146506 L16.6058222,65.7183034 L50.5121951,65.7183034 C57.4273835,65.7183034 63.0480845,60.2319041 63.2119038,53.4076591 L63.2155783,53.1012156 L63.2155783,19.3951712 C63.2155783,12.5319145 57.6965712,6.94458509 50.8209515,6.78173614 L50.5121951,6.77808337 L17.3882769,6.77808337 C16.3375889,6.77808337 15.4858379,5.92633241 15.4858379,4.87564435 C15.4858379,3.87498905 16.2584012,3.05477557 17.2396025,2.97892906 L17.3882769,2.97320532 L50.5121951,2.97320532 C59.5197084,2.97320532 66.846253,10.151118 67.0173956,19.0757025 L67.0204563,19.3951712 L67.0204563,53.1012156 C67.0204563,62.0666178 59.7998824,69.3500058 50.8331681,69.5201387 L50.5121951,69.5231814 L16.6058222,69.5231814 C7.59830893,69.5231814 0.271764282,62.3452687 0.100621711,53.4206842 L0.0975609756,53.1012156 L0.0975609756,19.3610026 L0.39224635,2.97320532 L9.56372935,2.97320532 Z" id="Combined-Shape" fill-rule="nonzero" transform="translate(33.559009, 36.248193) rotate(-180.000000) translate(-33.559009, -36.248193) "></path>
            </g>
        </g>
    </g>
</svg>
