<?xml version="1.0" encoding="UTF-8"?>
<svg width="229px" height="229px" viewBox="0 0 229 229" version="1.1" xmlns="http://www.w3.org/2000/svg" xmlns:xlink="http://www.w3.org/1999/xlink">
    <!-- Generator: Sketch 60.1 (88133) - https://sketch.com -->
    <title>Financial_inactive</title>
    <desc>Created with Sketch.</desc>
    <defs>
        <circle id="path-1-top" cx="81.5" cy="81.5" r="81.5"></circle>
        <filter x="-35.0%" y="-27.6%" width="169.9%" height="169.9%" filterUnits="objectBoundingBox" id="filter-2-top">
            <feOffset dx="0" dy="12" in="SourceAlpha" result="shadowOffsetOuter1"></feOffset>
            <feGaussianBlur stdDeviation="17" in="shadowOffsetOuter1" result="shadowBlurOuter1"></feGaussianBlur>
            <feColorMatrix values="0 0 0 0 0   0 0 0 0 0   0 0 0 0 0  0 0 0 0.0321514423 0" type="matrix" in="shadowBlurOuter1"></feColorMatrix>
        </filter>
    </defs>
    <g id="HS_Website" stroke="none" stroke-width="1" fill="none" fill-rule="evenodd">
        <g id="Financial_inactive" transform="translate(33.000000, 21.000000)">
            <g id="Oval">
                <use fill="black" fill-opacity="1" filter="url(#filter-2-top)" xlink:href="#path-1-top"></use>
                <use fill="#FFFFFF" fill-rule="evenodd" xlink:href="#path-1-top"></use>
            </g>
            <g id="Group-18" transform="translate(48.000000, 48.000000)" fill="#74ABFC">
                <path d="M9.56372935,0.0975609756 C10.6144174,0.0975609756 11.4661684,0.949311939 11.4661684,2 C11.4661684,3.0006553 10.6936051,3.82086878 9.71240384,3.89671529 L9.56372935,3.90243902 L4.128,3.902 L3.90243902,16.5195268 L3.90243902,50.2255712 C3.90243902,57.0888278 9.42144611,62.6761573 16.2970658,62.8390062 L16.6058222,62.842659 L50.5121951,62.842659 C57.4273835,62.842659 63.0480845,57.3562598 63.2119038,50.5320147 L63.2155783,50.2255712 L63.2155783,16.5195268 C63.2155783,9.6562702 57.6965712,4.06894074 50.8209515,3.90609179 L50.5121951,3.90243902 L17.3882769,3.90243902 C16.3375889,3.90243902 15.4858379,3.05068806 15.4858379,2 C15.4858379,0.999344704 16.2584012,0.17913122 17.2396025,0.103284709 L17.3882769,0.0975609756 L50.5121951,0.0975609756 C59.5197084,0.0975609756 66.846253,7.27547367 67.0173956,16.2000582 L67.0204563,16.5195268 L67.0204563,50.2255712 C67.0204563,59.1909734 59.7998824,66.4743614 50.8331681,66.6444944 L50.5121951,66.6475371 L16.6058222,66.6475371 C7.59830893,66.6475371 0.271764282,59.4696244 0.100621711,50.5450399 L0.0975609756,50.2255712 L0.0975609756,16.4853583 L0.39224635,0.0975609756 L9.56372935,0.0975609756 Z" id="Combined-Shape" fill-rule="nonzero" transform="translate(33.559009, 33.372549) rotate(-180.000000) translate(-33.559009, -33.372549) "></path>
                <rect id="Combined-Shape" x="2" y="15" width="63" height="13" rx="1"></rect>
                <rect id="Combined-Shape" x="8" y="42" width="22" height="3.8" rx="1.9"></rect>
                <path d="M52.25,39 C55.1494949,39 57.5,41.3505051 57.5,44.25 C57.5,47.1494949 55.1494949,49.5 52.25,49.5 C50.6477952,49.5 49.213222,48.7822842 48.2502461,47.6508184 C47.286778,48.7822842 45.8522048,49.5 44.25,49.5 C41.3505051,49.5 39,47.1494949 39,44.25 C39,41.3505051 41.3505051,39 44.25,39 C45.8522048,39 47.286778,39.7177158 48.2497539,40.8491816 C49.213222,39.7177158 50.6477952,39 52.25,39 Z" id="Combined-Shape"></path>
            </g>
        </g>
    </g>
</svg>
