<?xml version="1.0" encoding="UTF-8"?>
<svg width="229px" height="229px" viewBox="0 0 229 229" version="1.1" xmlns="http://www.w3.org/2000/svg" xmlns:xlink="http://www.w3.org/1999/xlink">
    <!-- Generator: Sketch 60.1 (88133) - https://sketch.com -->
    <title>Games_inactive</title>
    <desc>Created with Sketch.</desc>
    <defs>
        <circle id="path-1-top" cx="81.5" cy="81.5" r="81.5"></circle>
        <filter x="-35.0%" y="-27.6%" width="169.9%" height="169.9%" filterUnits="objectBoundingBox" id="filter-2-top">
            <feOffset dx="0" dy="12" in="SourceAlpha" result="shadowOffsetOuter1"></feOffset>
            <feGaussianBlur stdDeviation="17" in="shadowOffsetOuter1" result="shadowBlurOuter1"></feGaussianBlur>
            <feColorMatrix values="0 0 0 0 0   0 0 0 0 0   0 0 0 0 0  0 0 0 0.0321514423 0" type="matrix" in="shadowBlurOuter1"></feColorMatrix>
        </filter>
    </defs>
    <g id="HS_Website" stroke="none" stroke-width="1" fill="none" fill-rule="evenodd">
        <g id="Games_inactive" transform="translate(33.000000, 21.000000)">
            <g id="Oval">
                <use fill="black" fill-opacity="1" filter="url(#filter-2-top)" xlink:href="#path-1-top"></use>
                <use fill="#FFFFFF" fill-rule="evenodd" xlink:href="#path-1-top"></use>
            </g>
            <g id="Group-17" transform="translate(48.000000, 48.000000)" fill="#74ABFC">
                <path d="M9.56372935,0.0975609756 C10.6144174,0.0975609756 11.4661684,0.949311939 11.4661684,2 C11.4661684,3.0006553 10.6936051,3.82086878 9.71240384,3.89671529 L9.56372935,3.90243902 L4.128,3.902 L3.90243902,16.5195268 L3.90243902,50.2255712 C3.90243902,57.0888278 9.42144611,62.6761573 16.2970658,62.8390062 L16.6058222,62.842659 L50.5121951,62.842659 C57.4273835,62.842659 63.0480845,57.3562598 63.2119038,50.5320147 L63.2155783,50.2255712 L63.2155783,16.5195268 C63.2155783,9.6562702 57.6965712,4.06894074 50.8209515,3.90609179 L50.5121951,3.90243902 L17.3882769,3.90243902 C16.3375889,3.90243902 15.4858379,3.05068806 15.4858379,2 C15.4858379,0.999344704 16.2584012,0.17913122 17.2396025,0.103284709 L17.3882769,0.0975609756 L50.5121951,0.0975609756 C59.5197084,0.0975609756 66.846253,7.27547367 67.0173956,16.2000582 L67.0204563,16.5195268 L67.0204563,50.2255712 C67.0204563,59.1909734 59.7998824,66.4743614 50.8331681,66.6444944 L50.5121951,66.6475371 L16.6058222,66.6475371 C7.59830893,66.6475371 0.271764282,59.4696244 0.100621711,50.5450399 L0.0975609756,50.2255712 L0.0975609756,16.4853583 L0.39224635,0.0975609756 L9.56372935,0.0975609756 Z" id="Combined-Shape" fill-rule="nonzero" transform="translate(33.559009, 33.372549) rotate(-180.000000) translate(-33.559009, -33.372549) "></path>
                <path d="M32.5,13.3243557 C35.4271092,13.3243557 37.8,15.6972465 37.8,18.6243557 L37.8,24.1243557 L36,24.1243557 C35.3050105,24.1243557 34.6336767,24.2256381 33.9999537,24.4142481 L34,18.6243557 C34,17.7959285 33.3284271,17.1243557 32.5,17.1243557 L18.5,17.1243557 C17.6715729,17.1243557 17,17.7959285 17,18.6243557 L17,48.6243557 C17,49.4527828 17.6715729,50.1243557 18.5,50.1243557 L32.5,50.1243557 C33.3284271,50.1243557 34,49.4527828 34,48.6243557 L34,41.5523557 L34.1954882,41.4971973 L37.8,40.3673557 L37.8,48.6243557 C37.8,51.5514648 35.4271092,53.9243557 32.5,53.9243557 L18.5,53.9243557 C15.5728908,53.9243557 13.2,51.5514648 13.2,48.6243557 L13.2,18.6243557 C13.2,15.6972465 15.5728908,13.3243557 18.5,13.3243557 L32.5,13.3243557 Z" id="Combined-Shape" fill-rule="nonzero"></path>
                <path d="M52,26.1243557 C55.8659932,26.1243557 59,29.2583624 59,33.1243557 L59,35.0961513 C59,37.3052903 57.209139,39.0961513 55,39.0961513 C54.6972771,39.0961513 54.3955325,39.0617862 54.100562,38.9937161 L46,37.1243557 L42,37.1243557 L33.899438,38.9937161 C31.7468724,39.490462 29.5991811,38.1481549 29.1024352,35.9955894 C29.0343651,35.7006188 29,35.3988743 29,35.0961513 L29,33.1243557 C29,29.2583624 32.1340068,26.1243557 36,26.1243557 L52,26.1243557 Z M53.5,30.1243557 C52.1192881,30.1243557 51,31.2436438 51,32.6243557 C51,34.0050675 52.1192881,35.1243557 53.5,35.1243557 C54.8807119,35.1243557 56,34.0050675 56,32.6243557 C56,31.2436438 54.8807119,30.1243557 53.5,30.1243557 Z M36.5,29.1243557 L35.5,29.1243557 C35.2545401,29.1243557 35.0503916,29.3012308 35.0080557,29.53448 L35,29.6243557 L35,31.1243557 L33.5,31.1243557 C33.2545401,31.1243557 33.0503916,31.3012308 33.0080557,31.53448 L33,31.6243557 L33,32.6243557 C33,32.8698155 33.1768752,33.073964 33.4101244,33.1163 L33.5,33.1243557 L35,33.1243557 L35,34.6243557 C35,34.8698155 35.1768752,35.073964 35.4101244,35.1163 L35.5,35.1243557 L36.5,35.1243557 C36.7454599,35.1243557 36.9496084,34.9474805 36.9919443,34.7142313 L37,34.6243557 L37,33.1243557 L38.5,33.1243557 C38.7454599,33.1243557 38.9496084,32.9474805 38.9919443,32.7142313 L39,32.6243557 L39,31.6243557 C39,31.3788958 38.8231248,31.1747473 38.5898756,31.1324113 L38.5,31.1243557 L37,31.1243557 L37,29.6243557 C37,29.3788958 36.8231248,29.1747473 36.5898756,29.1324113 L36.5,29.1243557 Z" id="Combined-Shape"></path>
                <rect id="Combined-Shape" x="21" y="19.1243557" width="9" height="3" rx="1.5"></rect>
                <rect id="Combined-Shape" x="22.5" y="42.1243557" width="6" height="6" rx="3"></rect>
            </g>
        </g>
    </g>
</svg>
