<?xml version="1.0" encoding="UTF-8"?>
<svg width="229px" height="229px" viewBox="0 0 229 229" version="1.1" xmlns="http://www.w3.org/2000/svg" xmlns:xlink="http://www.w3.org/1999/xlink">
    <!-- Generator: Sketch 60.1 (88133) - https://sketch.com -->
    <title>Health_inactive</title>
    <desc>Created with Sketch.</desc>
    <defs>
        <circle id="path-1-top" cx="81.5" cy="81.5" r="81.5"></circle>
        <filter x="-35.0%" y="-27.6%" width="169.9%" height="169.9%" filterUnits="objectBoundingBox" id="filter-2-top">
            <feOffset dx="0" dy="12" in="SourceAlpha" result="shadowOffsetOuter1"></feOffset>
            <feGaussianBlur stdDeviation="17" in="shadowOffsetOuter1" result="shadowBlurOuter1"></feGaussianBlur>
            <feColorMatrix values="0 0 0 0 0   0 0 0 0 0   0 0 0 0 0  0 0 0 0.0321514423 0" type="matrix" in="shadowBlurOuter1"></feColorMatrix>
        </filter>
    </defs>
    <g id="HS_Website" stroke="none" stroke-width="1" fill="none" fill-rule="evenodd">
        <g id="Health_inactive" transform="translate(33.000000, 21.000000)">
            <g id="Oval">
                <use fill="black" fill-opacity="1" filter="url(#filter-2-top)" xlink:href="#path-1-top"></use>
                <use fill="#FFFFFF" fill-rule="evenodd" xlink:href="#path-1-top"></use>
            </g>
            <g id="Group-8" transform="translate(47.000000, 48.000000)" fill="#74ABFC">
                <path d="M40.6348438,42.75547 L40.6353439,45.50597 C40.6353439,45.5471972 40.6357977,45.5883184 40.6367005,45.6293291 L33.5274109,52.986445 L20.2368558,39.2348135 C20.1445126,39.1392667 20.0567222,39.040959 19.9734847,38.9401627 L14.9535845,33.7443442 C10.3109421,28.9406391 10.3109421,21.3216708 14.9535845,16.5179656 C19.3968762,11.9205271 26.7258362,11.7955664 31.3232748,16.2388581 L31.6023823,16.5179656 L33.5386027,18.521445 L35.448426,16.5460288 C39.8917177,11.9485903 47.2206777,11.8236295 51.8181163,16.2669213 L52.0972238,16.5460288 C56.1328393,20.721648 56.6604973,27.0244661 53.6801977,31.7563491 L51.6353439,31.75547 L51.6353439,29.00547 C51.6353439,28.5030452 51.5679756,28.0163551 51.4417795,27.5539401 C52.2441816,24.7748607 51.6180323,21.6706657 49.5618098,19.3975235 L49.364801,19.1868366 L49.1773085,18.999344 C46.0889453,16.0145302 41.1656626,16.0984735 38.1804061,19.1872946 L33.5380848,23.9890566 L28.8699596,19.1587734 L28.682467,18.9712809 C25.5941039,15.986467 20.6708212,16.0704103 17.6860073,19.1587734 C14.4668012,22.4896604 14.4668012,27.7726495 17.6864563,31.1040011 L22.809255,36.4063242 L22.9354656,36.5576416 L33.5274109,47.5184212 L38.1296027,42.755445 L40.6348438,42.75547 Z M48.8846027,31.628445 L48.8853439,34.50547 L51.3876027,34.505445 L43.3846027,42.786445 L43.3843439,40.00547 L40.7876027,40.005445 L48.8846027,31.628445 Z" id="Combined-Shape" fill-rule="nonzero"></path>
                <path d="M46.1353439,26.25547 C47.6541269,26.25547 48.8853439,27.486687 48.8853439,29.00547 L48.8853439,34.50547 L54.3853439,34.50547 C55.9041269,34.50547 57.1353439,35.736687 57.1353439,37.25547 C57.1353439,38.7742531 55.9041269,40.00547 54.3853439,40.00547 L48.8843439,40.00547 L48.8853439,45.50547 C48.8853439,47.0242531 47.6541269,48.25547 46.1353439,48.25547 C44.6165608,48.25547 43.3853439,47.0242531 43.3853439,45.50547 L43.3843439,40.00547 L37.8853439,40.00547 C36.3665608,40.00547 35.1353439,38.7742531 35.1353439,37.25547 C35.1353439,35.736687 36.3665608,34.50547 37.8853439,34.50547 L43.3853439,34.50547 L43.3853439,29.00547 C43.3853439,27.486687 44.6165608,26.25547 46.1353439,26.25547 Z" id="Combined-Shape"></path>
                <path d="M9.56372935,0.0975609756 C10.6144174,0.0975609756 11.4661684,0.949311939 11.4661684,2 C11.4661684,3.0006553 10.6936051,3.82086878 9.71240384,3.89671529 L9.56372935,3.90243902 L4.128,3.902 L3.90243902,16.5195268 L3.90243902,50.2255712 C3.90243902,57.0888278 9.42144611,62.6761573 16.2970658,62.8390062 L16.6058222,62.842659 L50.5121951,62.842659 C57.4273835,62.842659 63.0480845,57.3562598 63.2119038,50.5320147 L63.2155783,50.2255712 L63.2155783,16.5195268 C63.2155783,9.6562702 57.6965712,4.06894074 50.8209515,3.90609179 L50.5121951,3.90243902 L17.3882769,3.90243902 C16.3375889,3.90243902 15.4858379,3.05068806 15.4858379,2 C15.4858379,0.999344704 16.2584012,0.17913122 17.2396025,0.103284709 L17.3882769,0.0975609756 L50.5121951,0.0975609756 C59.5197084,0.0975609756 66.846253,7.27547367 67.0173956,16.2000582 L67.0204563,16.5195268 L67.0204563,50.2255712 C67.0204563,59.1909734 59.7998824,66.4743614 50.8331681,66.6444944 L50.5121951,66.6475371 L16.6058222,66.6475371 C7.59830893,66.6475371 0.271764282,59.4696244 0.100621711,50.5450399 L0.0975609756,50.2255712 L0.0975609756,16.4853583 L0.39224635,0.0975609756 L9.56372935,0.0975609756 Z" id="Combined-Shape" fill-rule="nonzero" transform="translate(33.559009, 33.372549) rotate(-180.000000) translate(-33.559009, -33.372549) "></path>
            </g>
        </g>
    </g>
</svg>
