<?xml version="1.0" encoding="UTF-8"?>
<svg width="229px" height="229px" viewBox="0 0 229 229" version="1.1" xmlns="http://www.w3.org/2000/svg" xmlns:xlink="http://www.w3.org/1999/xlink">
    <!-- Generator: Sketch 60.1 (88133) - https://sketch.com -->
    <title>Image_inactive</title>
    <desc>Created with Sketch.</desc>
    <defs>
        <circle id="path-1-top" cx="81.5" cy="81.5" r="81.5"></circle>
        <filter x="-35.0%" y="-27.6%" width="169.9%" height="169.9%" filterUnits="objectBoundingBox" id="filter-2-top">
            <feOffset dx="0" dy="12" in="SourceAlpha" result="shadowOffsetOuter1"></feOffset>
            <feGaussianBlur stdDeviation="17" in="shadowOffsetOuter1" result="shadowBlurOuter1"></feGaussianBlur>
            <feColorMatrix values="0 0 0 0 0   0 0 0 0 0   0 0 0 0 0  0 0 0 0.0321514423 0" type="matrix" in="shadowBlurOuter1"></feColorMatrix>
        </filter>
    </defs>
    <g id="HS_Website" stroke="none" stroke-width="1" fill="none" fill-rule="evenodd">
        <g id="Image_inactive" transform="translate(33.000000, 21.124356)">
            <g id="Oval-Copy-6">
                <use fill="black" fill-opacity="1" filter="url(#filter-2-top)" xlink:href="#path-1-top"></use>
                <use fill="#FFFFFF" fill-rule="evenodd" xlink:href="#path-1-top"></use>
            </g>
            <g id="Group-12" transform="translate(47.000000, 47.875644)" fill="#74ABFC">
                <path d="M48,36 C53.5228475,36 58,40.4771525 58,46 C58,51.5228475 53.5228475,56 48,56 C42.4771525,56 38,51.5228475 38,46 C38,40.4771525 42.4771525,36 48,36 Z M46.3016247,41.6439571 C45.7493711,41.6380873 45.2969228,42.081019 45.2910531,42.6332725 L45.2910531,42.6332725 L45.2198349,49.3338299 C45.2177403,49.5309034 45.273926,49.7242019 45.3813348,49.8894463 C45.6823236,50.3525059 46.3017072,50.4838903 46.7647668,50.1829016 L46.7647668,50.1829016 L51.9190417,46.8326229 C52.0345038,46.7575725 52.1332204,46.6594833 52.2090054,46.5445021 C52.5129402,46.0833708 52.3855074,45.4631622 51.9243761,45.1592273 L51.9243761,45.1592273 L46.8413194,41.8089486 C46.680993,41.7032763 46.4936325,41.6459979 46.3016247,41.6439571 Z" id="Combined-Shape"></path>
                <path d="M50.3525818,14.3233091 C53.6110619,14.3233091 56.2525818,16.9648291 56.2525818,20.2233091 L56.2525818,38.2233091 C56.2525818,41.4817892 53.6110619,44.1233091 50.3525818,44.1233091 L50.3515818,44.1223091 L46.8413194,41.8089486 C46.7130582,41.7244108 46.5674954,41.670845 46.4160926,41.6517553 L46.3016247,41.6439571 C45.7493711,41.6380873 45.2969228,42.081019 45.2910531,42.6332725 L45.2910531,42.6332725 L45.2745818,44.1223091 L17.3525818,44.1233091 C14.0941018,44.1233091 11.4525818,41.4817892 11.4525818,38.2233091 L11.4525818,20.2233091 C11.4525818,16.9648291 14.0941018,14.3233091 17.3525818,14.3233091 L50.3525818,14.3233091 Z M50.3525818,18.1233091 L17.3525818,18.1233091 C16.1927839,18.1233091 15.2525818,19.0635112 15.2525818,20.2233091 L15.2525818,38.2233091 C15.2525818,39.3831071 16.1927839,40.3233091 17.3525818,40.3233091 L50.3525818,40.3233091 C51.5123798,40.3233091 52.4525818,39.3831071 52.4525818,38.2233091 L52.4525818,20.2233091 C52.4525818,19.0635112 51.5123798,18.1233091 50.3525818,18.1233091 Z" id="Combined-Shape" fill-rule="nonzero"></path>
                <path d="M24.9706158,36.2233091 C24.4183311,36.2233091 23.9706158,35.7755939 23.9706158,35.2233091 C23.9706158,35.068064 24.0067609,34.914951 24.0761886,34.7760955 L26.9581546,29.0121635 C27.2051439,28.518185 27.8058169,28.3179607 28.2997954,28.5649499 C28.4933228,28.6617136 28.6502453,28.8186361 28.747009,29.0121635 L29.8516158,31.2221581 L33.9581546,23.0121635 C34.2051439,22.518185 34.8058169,22.3179607 35.2997954,22.5649499 C35.4933228,22.6617136 35.6502453,22.8186361 35.747009,23.0121635 L41.628975,34.7760955 C41.8759643,35.270074 41.6757399,35.8707471 41.1817614,36.1177363 C41.042906,36.187164 40.8897929,36.2233091 40.7345478,36.2233091 L24.9706158,36.2233091 Z" id="Combined-Shape"></path>
                <path d="M9.56372935,0.0975609756 C10.6144174,0.0975609756 11.4661684,0.949311939 11.4661684,2 C11.4661684,3.0006553 10.6936051,3.82086878 9.71240384,3.89671529 L9.56372935,3.90243902 L4.128,3.902 L3.90243902,16.5195268 L3.90243902,50.2255712 C3.90243902,57.0888278 9.42144611,62.6761573 16.2970658,62.8390062 L16.6058222,62.842659 L50.5121951,62.842659 C57.4273835,62.842659 63.0480845,57.3562598 63.2119038,50.5320147 L63.2155783,50.2255712 L63.2155783,16.5195268 C63.2155783,9.6562702 57.6965712,4.06894074 50.8209515,3.90609179 L50.5121951,3.90243902 L17.3882769,3.90243902 C16.3375889,3.90243902 15.4858379,3.05068806 15.4858379,2 C15.4858379,0.999344704 16.2584012,0.17913122 17.2396025,0.103284709 L17.3882769,0.0975609756 L50.5121951,0.0975609756 C59.5197084,0.0975609756 66.846253,7.27547367 67.0173956,16.2000582 L67.0204563,16.5195268 L67.0204563,50.2255712 C67.0204563,59.1909734 59.7998824,66.4743614 50.8331681,66.6444944 L50.5121951,66.6475371 L16.6058222,66.6475371 C7.59830893,66.6475371 0.271764282,59.4696244 0.100621711,50.5450399 L0.0975609756,50.2255712 L0.0975609756,16.4853583 L0.39224635,0.0975609756 L9.56372935,0.0975609756 Z" id="Combined-Shape" fill-rule="nonzero" transform="translate(33.559009, 33.372549) rotate(-180.000000) translate(-33.559009, -33.372549) "></path>
            </g>
        </g>
    </g>
</svg>
