<?xml version="1.0" encoding="UTF-8"?>
<svg width="229px" height="229px" viewBox="0 0 229 229" version="1.1" xmlns="http://www.w3.org/2000/svg" xmlns:xlink="http://www.w3.org/1999/xlink">
    <!-- Generator: Sketch 63.1 (92452) - https://sketch.com -->
    <title>security</title>
    <desc>Created with Sketch.</desc>
    <defs>
        <circle id="path-1-security" cx="81.5" cy="81.5" r="81.5"></circle>
        <filter x="-35.0%" y="-27.6%" width="169.9%" height="169.9%" filterUnits="objectBoundingBox" id="filter-2-security">
            <feOffset dx="0" dy="12" in="SourceAlpha" result="shadowOffsetOuter1"></feOffset>
            <feGaussianBlur stdDeviation="17" in="shadowOffsetOuter1" result="shadowBlurOuter1"></feGaussianBlur>
            <feColorMatrix values="0 0 0 0 0   0 0 0 0 0   0 0 0 0 0  0 0 0 0.0321514423 0" type="matrix" in="shadowBlurOuter1"></feColorMatrix>
        </filter>
    </defs>
    <g id="HS_Website" stroke="none" stroke-width="1" fill="none" fill-rule="evenodd">
        <g id="security" transform="translate(33.000000, 21.000000)">
            <g id="Oval-Copy-6">
                <use fill="black" fill-opacity="1" filter="url(#filter-2-security)" xlink:href="#path-1-security"></use>
                <use fill="#FFFFFF" fill-rule="evenodd" xlink:href="#path-1-security"></use>
            </g>
            <g id="icon123" transform="translate(48.000000, 48.000000)" fill="#74ABFC" fill-rule="nonzero">
                <path d="M32.8813585,8.58856884 L30.201773,10.5403343 C26.9389589,12.9169137 23.4633493,14.9866548 19.819343,16.7231178 L17.232016,17.9560459 C14.6229454,19.1993354 13.2985923,22.1495924 14.1035128,24.9254022 L14.6968327,26.9437355 C21.0820791,48.3640662 27.1732326,59.0243557 34,59.0243557 C41.0320517,59.0243557 47.2826975,47.7142975 53.8787554,24.9865257 C54.695696,22.1716264 53.3223279,19.1838018 50.6540004,17.9709206 L48.2862256,16.8946593 C44.7555232,15.2897946 41.4094462,13.3064403 38.3067816,10.9794419 L35.14,8.60435565 C34.4723049,8.1035843 33.5559883,8.0971797 32.8813585,8.58856884 Z M32.439056,13.6119079 L33.983,12.487 L36.0267816,14.0194419 C39.3494271,16.511426 42.9327431,18.6354013 46.7137744,20.354052 L49.0815465,21.430312 C50.0312887,21.8620148 50.5201151,22.9254786 50.2293397,23.9273917 C44.1844141,44.7561492 38.3990282,55.2243557 34,55.2243557 C29.5962069,55.2243557 23.8045184,44.7355008 17.7531662,23.8670877 C17.466669,22.8790874 17.9380489,21.828996 18.8667012,21.3864693 L21.4540282,20.1535412 C25.3095332,18.3162936 28.9868677,16.1264244 32.439056,13.6119079 Z" id="Combined-Shape"></path>
                <path d="M28.0005,22.2448557 C27.0116473,22.2448557 26.2011081,23.0083066 26.1261562,23.9779348 L26.1235,24.0245 L26.1261562,24.0717765 C26.1973605,24.9929233 26.9324324,25.7279951 27.8535791,25.7991994 L28.0005,25.8048557 C28.9893527,25.8048557 29.7998919,25.0414047 29.8748438,24.0717765 L29.8765,24.0245 L29.8748438,23.9779348 C29.8036395,23.056788 29.0685676,22.3217162 28.1474209,22.2505119 L28.0005,22.2448557 Z" id="Combined-Shape" transform="translate(28.000000, 24.024856) rotate(-90.000000) translate(-28.000000, -24.024856) "></path>
                <path d="M28.0005,30.2448557 C27.0116473,30.2448557 26.2011081,31.0083066 26.1261562,31.9779348 L26.1235,32.0245 L26.1261562,32.0717765 C26.1973605,32.9929233 26.9324324,33.7279951 27.8535791,33.7991994 L28.0005,33.8048557 C28.9893527,33.8048557 29.7998919,33.0414047 29.8748438,32.0717765 L29.8765,32.0245 L29.8748438,31.9779348 C29.8036395,31.056788 29.0685676,30.3217162 28.1474209,30.2505119 L28.0005,30.2448557 Z" id="Combined-Shape" transform="translate(28.000000, 32.024856) rotate(-90.000000) translate(-28.000000, -32.024856) "></path>
                <path d="M28.0005,38.2448557 C27.0116473,38.2448557 26.2011081,39.0083066 26.1261562,39.9779348 L26.1235,40.0245 L26.1261562,40.0717765 C26.1973605,40.9929233 26.9324324,41.7279951 27.8535791,41.7991994 L28.0005,41.8048557 C28.9893527,41.8048557 29.7998919,41.0414047 29.8748438,40.0717765 L29.8765,40.0245 L29.8748438,39.9779348 C29.8036395,39.056788 29.0685676,38.3217162 28.1474209,38.2505119 L28.0005,38.2448557 Z" id="Combined-Shape" transform="translate(28.000000, 40.024856) rotate(-90.000000) translate(-28.000000, -40.024856) "></path>
                <path d="M37,19.0243557 C38.049341,19.0243557 38.9,19.8750146 38.9,20.9243557 L38.9,27.1243557 C38.9,28.1736967 38.049341,29.0243557 37,29.0243557 C35.950659,29.0243557 35.1,28.1736967 35.1,27.1243557 L35.1,20.9243557 C35.1,19.8750146 35.950659,19.0243557 37,19.0243557 Z" id="Combined-Shape" transform="translate(37.000000, 24.024356) rotate(-90.000000) translate(-37.000000, -24.024356) "></path>
                <path d="M37,27.0243557 C38.049341,27.0243557 38.9,27.8750146 38.9,28.9243557 L38.9,35.1243557 C38.9,36.1736967 38.049341,37.0243557 37,37.0243557 C35.950659,37.0243557 35.1,36.1736967 35.1,35.1243557 L35.1,28.9243557 C35.1,27.8750146 35.950659,27.0243557 37,27.0243557 Z" id="Combined-Shape" transform="translate(37.000000, 32.024356) rotate(-90.000000) translate(-37.000000, -32.024356) "></path>
                <path d="M37,35.0243557 C38.049341,35.0243557 38.9,35.8750146 38.9,36.9243557 L38.9,43.1243557 C38.9,44.1736967 38.049341,45.0243557 37,45.0243557 C35.950659,45.0243557 35.1,44.1736967 35.1,43.1243557 L35.1,36.9243557 C35.1,35.8750146 35.950659,35.0243557 37,35.0243557 Z" id="Combined-Shape" transform="translate(37.000000, 40.024356) rotate(-90.000000) translate(-37.000000, -40.024356) "></path>
                <path d="M9.56372935,0.0975609756 C10.6144174,0.0975609756 11.4661684,0.949311939 11.4661684,2 C11.4661684,3.0006553 10.6936051,3.82086878 9.71240384,3.89671529 L9.56372935,3.90243902 L4.128,3.902 L3.90243902,16.5195268 L3.90243902,50.2255712 C3.90243902,57.0888278 9.42144611,62.6761573 16.2970658,62.8390062 L16.6058222,62.842659 L50.5121951,62.842659 C57.4273835,62.842659 63.0480845,57.3562598 63.2119038,50.5320147 L63.2155783,50.2255712 L63.2155783,16.5195268 C63.2155783,9.6562702 57.6965712,4.06894074 50.8209515,3.90609179 L50.5121951,3.90243902 L17.3882769,3.90243902 C16.3375889,3.90243902 15.4858379,3.05068806 15.4858379,2 C15.4858379,0.999344704 16.2584012,0.17913122 17.2396025,0.103284709 L17.3882769,0.0975609756 L50.5121951,0.0975609756 C59.5197084,0.0975609756 66.846253,7.27547367 67.0173956,16.2000582 L67.0204563,16.5195268 L67.0204563,50.2255712 C67.0204563,59.1909734 59.7998824,66.4743614 50.8331681,66.6444944 L50.5121951,66.6475371 L16.6058222,66.6475371 C7.59830893,66.6475371 0.271764282,59.4696244 0.100621711,50.5450399 L0.0975609756,50.2255712 L0.0975609756,16.4853583 L0.39224635,0.0975609756 L9.56372935,0.0975609756 Z" id="Combined-Shape" transform="translate(33.559009, 33.372549) rotate(-180.000000) translate(-33.559009, -33.372549) "></path>
            </g>
        </g>
    </g>
</svg>
