<?xml version="1.0" encoding="UTF-8"?>
<svg width="229px" height="229px" viewBox="0 0 229 229" version="1.1" xmlns="http://www.w3.org/2000/svg" xmlns:xlink="http://www.w3.org/1999/xlink">
    <!-- Generator: Sketch 60.1 (88133) - https://sketch.com -->
    <title>Social_media_inactive</title>
    <desc>Created with Sketch.</desc>
    <defs>
        <circle id="path-1-top" cx="81.5" cy="81.5" r="81.5"></circle>
        <filter x="-35.0%" y="-27.6%" width="169.9%" height="169.9%" filterUnits="objectBoundingBox" id="filter-2-top">
            <feOffset dx="0" dy="12" in="SourceAlpha" result="shadowOffsetOuter1"></feOffset>
            <feGaussianBlur stdDeviation="17" in="shadowOffsetOuter1" result="shadowBlurOuter1"></feGaussianBlur>
            <feColorMatrix values="0 0 0 0 0   0 0 0 0 0   0 0 0 0 0  0 0 0 0.0321514423 0" type="matrix" in="shadowBlurOuter1"></feColorMatrix>
        </filter>
    </defs>
    <g id="HS_Website" stroke="none" stroke-width="1" fill="none" fill-rule="evenodd">
        <g id="Social_media_inactive" transform="translate(33.000000, 21.000000)">
            <g id="Oval-Copy-6">
                <use fill="black" fill-opacity="1" filter="url(#filter-2-top)" xlink:href="#path-1-top"></use>
                <use fill="#FFFFFF" fill-rule="evenodd" xlink:href="#path-1-top"></use>
            </g>
            <g id="Group-22" transform="translate(48.000000, 48.000000)" fill="#74ABFC" fill-rule="nonzero">
                <path d="M45,14.2243557 L14,14.2243557 C10.74152,14.2243557 8.1,16.8658756 8.1,20.1243557 L8.1,35.1243557 L8.1040695,35.3455449 C8.22038777,38.5015403 10.8155763,41.0243557 14,41.0243557 L16.196,41.024 L19.6360925,44.5714949 L19.7578654,44.6866184 C20.5111538,45.3389849 21.6567759,45.3006104 22.3639075,44.5714949 L25.803,41.024 L45,41.0243557 C48.25848,41.0243557 50.9,38.3828357 50.9,35.1243557 L50.9,20.1243557 C50.9,16.8658756 48.25848,14.2243557 45,14.2243557 Z M14,18.0243557 L45,18.0243557 C46.159798,18.0243557 47.1,18.9645577 47.1,20.1243557 L47.1,35.1243557 C47.1,36.2841536 46.159798,37.2243557 45,37.2243557 L25,37.2243557 L24.8296342,37.2320033 C24.378313,37.2726169 23.9541769,37.4735988 23.6360925,37.8015721 L21,40.519 L18.3639075,37.8015721 C18.0060625,37.4326021 17.513996,37.2243557 17,37.2243557 L14,37.2243557 C12.840202,37.2243557 11.9,36.2841536 11.9,35.1243557 L11.9,20.1243557 C11.9,18.9645577 12.840202,18.0243557 14,18.0243557 Z" id="Combined-Shape"></path>
                <path d="M18.9,24.1243557 C19.949341,24.1243557 20.8,24.9750146 20.8,26.0243557 L20.8,29.5243557 C20.8,30.5736967 19.949341,31.4243557 18.9,31.4243557 C17.850659,31.4243557 17,30.5736967 17,29.5243557 L17,26.0243557 C17,24.9750146 17.850659,24.1243557 18.9,24.1243557 Z" id="Combined-Shape" transform="translate(18.900000, 27.774356) rotate(-90.000000) translate(-18.900000, -27.774356) "></path>
                <path d="M33.75,18.2743557 C34.799341,18.2743557 35.65,19.1250146 35.65,20.1743557 L35.65,35.3743557 C35.65,36.4236967 34.799341,37.2743557 33.75,37.2743557 C32.700659,37.2743557 31.85,36.4236967 31.85,35.3743557 L31.85,20.1743557 C31.85,19.1250146 32.700659,18.2743557 33.75,18.2743557 Z" id="Combined-Shape" transform="translate(33.750000, 27.774356) rotate(-90.000000) translate(-33.750000, -27.774356) "></path>
                <path d="M53,33.2243557 L38,33.2243557 C34.74152,33.2243557 32.1,35.8658756 32.1,39.1243557 L32.1,45.5394446 L32.1040695,45.7606339 C32.2122725,48.6964436 34.4655229,51.0843419 37.3427387,51.4032469 L37.437,51.412 L39.4549979,54.2302348 L39.554614,54.3579629 C40.349457,55.2942494 41.8388268,55.2425279 42.5581752,54.2115953 L44.492,51.439 L53,51.4394446 C56.25848,51.4394446 58.9,48.7979246 58.9,45.5394446 L58.9,39.1243557 C58.9,35.8658756 56.25848,33.2243557 53,33.2243557 Z" id="Combined-Shape" transform="translate(45.500000, 44.124356) scale(-1, 1) translate(-45.500000, -44.124356) "></path>
                <path d="M9.56372935,0.0975609756 C10.6144174,0.0975609756 11.4661684,0.949311939 11.4661684,2 C11.4661684,3.0006553 10.6936051,3.82086878 9.71240384,3.89671529 L9.56372935,3.90243902 L4.128,3.902 L3.90243902,16.5195268 L3.90243902,50.2255712 C3.90243902,57.0888278 9.42144611,62.6761573 16.2970658,62.8390062 L16.6058222,62.842659 L50.5121951,62.842659 C57.4273835,62.842659 63.0480845,57.3562598 63.2119038,50.5320147 L63.2155783,50.2255712 L63.2155783,16.5195268 C63.2155783,9.6562702 57.6965712,4.06894074 50.8209515,3.90609179 L50.5121951,3.90243902 L17.3882769,3.90243902 C16.3375889,3.90243902 15.4858379,3.05068806 15.4858379,2 C15.4858379,0.999344704 16.2584012,0.17913122 17.2396025,0.103284709 L17.3882769,0.0975609756 L50.5121951,0.0975609756 C59.5197084,0.0975609756 66.846253,7.27547367 67.0173956,16.2000582 L67.0204563,16.5195268 L67.0204563,50.2255712 C67.0204563,59.1909734 59.7998824,66.4743614 50.8331681,66.6444944 L50.5121951,66.6475371 L16.6058222,66.6475371 C7.59830893,66.6475371 0.271764282,59.4696244 0.100621711,50.5450399 L0.0975609756,50.2255712 L0.0975609756,16.4853583 L0.39224635,0.0975609756 L9.56372935,0.0975609756 Z" id="Combined-Shape" transform="translate(33.559009, 33.372549) rotate(-180.000000) translate(-33.559009, -33.372549) "></path>
            </g>
        </g>
    </g>
</svg>
