<?xml version="1.0" encoding="UTF-8"?>
<svg width="46px" height="35px" viewBox="0 0 46 35" version="1.1" xmlns="http://www.w3.org/2000/svg" xmlns:xlink="http://www.w3.org/1999/xlink">
    <title>fintech copy</title>
    <g id="HS_Website" stroke="none" stroke-width="1" fill="none" fill-rule="evenodd">
        <g id="[desktop]-Services" transform="translate(-1154.000000, -2036.000000)">
            <g id="Group-6-Copy" transform="translate(832.000000, 1853.000000)">
                <g id="Group-7" transform="translate(322.000000, 173.399996)">
                    <g id="fintech-copy" transform="translate(0.000000, 9.600004)">
                        <rect id="Rectangle" stroke="#4A4A4A" stroke-width="1.5" x="0.75" y="0.75" width="44.5" height="33.5" rx="16.75"></rect>
                        <path d="M23.25,12.75 L16,12.75 C15.3786797,12.75 14.8161797,13.0018398 14.4090097,13.4090097 C14.0018398,13.8161797 13.75,14.3786797 13.75,15 L13.75,28 C13.75,28.6213203 14.0018398,29.1838203 14.4090097,29.5909903 C14.8161797,29.9981602 15.3786797,30.25 16,30.25 L23.25,30.25 L23.25,12.75 Z" id="Rectangle" stroke="#F66847" stroke-width="1.5"></path>
                        <rect id="Rectangle" stroke="#F66847" x="16.521898" y="17.010169" width="4" height="1" rx="0.5"></rect>
                        <rect id="Rectangle-Copy-28" stroke="#F66847" x="26.0782441" y="16.9890922" width="4" height="1" rx="0.5"></rect>
                        <rect id="Rectangle-Copy-23" stroke="#F66847" x="16.521898" y="21.010169" width="4" height="1" rx="0.5"></rect>
                        <rect id="Rectangle-Copy-30" stroke="#F66847" x="26.0782441" y="20.9890922" width="4" height="1" rx="0.5"></rect>
                        <rect id="Rectangle-Copy-37" stroke="#F66847" x="26.0759175" y="9.18247895" width="4" height="1" rx="0.5"></rect>
                        <rect id="Rectangle-Copy-27" stroke="#F66847" x="16.521898" y="25.010169" width="4" height="1" rx="0.5"></rect>
                        <rect id="Rectangle-Copy-31" stroke="#F66847" x="26.0782441" y="24.9890922" width="4" height="1" rx="0.5"></rect>
                        <rect id="Rectangle-Copy-38" stroke="#F66847" x="26.0759175" y="13.182479" width="4" height="1" rx="0.5"></rect>
                        <path d="M32.7946584,5.76957134 L25.5446584,5.76957134 C24.9233381,5.76957134 24.3608381,6.02141117 23.9536681,6.42858108 C23.5464982,6.835751 23.2946584,7.398251 23.2946584,8.01957134 L23.2946584,28.0195713 C23.2946584,28.6408917 23.5464982,29.2033917 23.9536681,29.6105616 C24.3608381,30.0177315 24.9233381,30.2695713 25.5446584,30.2695713 L30.5446584,30.2695713 C31.1659787,30.2695713 31.7284787,30.0177315 32.1356487,29.6105616 C32.5428186,29.2033917 32.7946584,28.6408917 32.7946584,28.0195713 L32.7946584,5.76957134 Z" id="Rectangle-Copy-7" stroke="#F66847" stroke-width="1.5" transform="translate(28.044658, 18.019571) rotate(-180.000000) translate(-28.044658, -18.019571) "></path>
                    </g>
                </g>
            </g>
        </g>
    </g>
</svg>