<?xml version="1.0" encoding="UTF-8"?>
<svg width="46px" height="35px" viewBox="0 0 46 35" version="1.1" xmlns="http://www.w3.org/2000/svg" xmlns:xlink="http://www.w3.org/1999/xlink">
    <title>dating copy</title>
    <g id="HS_Website" stroke="none" stroke-width="1" fill="none" fill-rule="evenodd">
        <g id="[desktop]-Services" transform="translate(-1154.000000, -2134.000000)" stroke-width="1.5">
            <g id="Group-6-Copy" transform="translate(832.000000, 1853.000000)">
                <g id="Group-11" transform="translate(322.000000, 271.000000)">
                    <g id="dating-copy" transform="translate(0.000000, 10.000000)">
                        <g id="Group-4-Copy" stroke="#4A4A4A">
                            <g id="Group-2-Copy-3">
                                <rect id="Rectangle" x="0.75" y="0.75" width="44.5" height="33.5" rx="16.75"></rect>
                            </g>
                        </g>
                        <path d="M22.0368421,11.5141672 C22.0671502,11.5437549 22.0971013,11.5737061 22.1266891,11.6040141 L23.005,12.505 L23.8733109,11.6166311 C25.9115462,9.52877476 29.2564044,9.48854893 31.3442608,11.5267842 L31.4341077,11.6166311 L31.4341077,11.6166311 C33.536511,13.7702177 33.536511,17.2079098 31.4341077,19.3614964 L23.0009113,28 L18.8498661,23.7478971 C18.7856066,23.6820732 18.7235246,23.6149192 18.6636202,23.5465253 L14.5658923,19.3488794 C12.463489,17.1952928 12.463489,13.7576007 14.5658923,11.6040141 C16.6041276,9.51615774 19.9489858,9.47593191 22.0368421,11.5141672 Z" id="Combined-Shape" stroke="#F66847" stroke-linejoin="round"></path>
                    </g>
                </g>
            </g>
        </g>
    </g>
</svg>