<?xml version="1.0" encoding="UTF-8"?>
<svg width="106px" height="21px" viewBox="0 0 106 21" version="1.1" xmlns="http://www.w3.org/2000/svg" xmlns:xlink="http://www.w3.org/1999/xlink">
    <!-- Generator: Sketch 59.1 (86144) - https://sketch.com -->
    <title>backlot</title>
    <desc>Created with Sketch.</desc>
    <g id="HS_Website" stroke="none" stroke-width="1" fill="none" fill-rule="evenodd" opacity="0.699544271">
        <g id="[desktop]-Homepage" transform="translate(-605.000000, -629.000000)">
            <g id="backlot" transform="translate(605.000000, 629.000000)">
                <path d="M2.67387648,16.1541329 C2.19238632,14.185817 1.09621874,15.8474058 1.04902486,16.9899113 C1.00166997,18.1363146 1.07893262,19.2844782 1.09388649,20.4317617" id="Path-75" stroke="#FFFFFF" stroke-width="0.5" stroke-linecap="round"></path>
                <path d="M2.89482645,16.9576297 C3.27721582,18.7991465 3.18377245,17.7829182 3.02886551,20.0162401" id="Path-77" stroke="#FFFFFF" stroke-width="0.5"></path>
                <path d="M0,18.5844455 C0.63769076,18.2941422 1.27538152,18.0038389 1.91307228,17.7135357" id="Path-76" stroke="#FFFFFF" stroke-width="0.5" stroke-linecap="round"></path>
                <path d="M94.9952476,2.26099998 C97.8966755,2.26099998 100.248748,4.37488752 100.248748,6.98249994 C100.248748,9.59011237 97.8966755,11.7039999 94.9952476,11.7039999 C92.0938197,11.7039999 89.7417476,9.59011237 89.7417476,6.98249994 C89.7417476,4.37488752 92.0938197,2.26099998 94.9952476,2.26099998 Z M94.9952476,3.72399997 C92.9752661,3.72399997 91.3377476,5.1828801 91.3377476,6.98249994 C91.3377476,8.78211978 92.9752661,10.2409999 94.9952476,10.2409999 C97.015229,10.2409999 98.6527475,8.78211978 98.6527475,6.98249994 C98.6527475,5.1828801 97.015229,3.72399997 94.9952476,3.72399997 Z" id="Combined-Shape" fill="#FFFFFF"></path>
                <path d="M76.0427477,2.26099998 C77.585279,2.26099998 78.9631576,2.93284316 79.8717794,3.98623578 C79.5659146,4.22963372 78.7011294,5.11310819 78.6584257,5.05399996 C78.0357305,4.19209733 77.2692228,3.72399997 76.0786596,3.72399997 C74.1673888,3.72399997 72.6179977,5.1828801 72.6179977,6.98249994 C72.6179977,8.78211978 74.1673888,10.2409999 76.0786596,10.2409999 C77.3665679,10.2409999 78.1883497,9.76075064 78.7842679,8.77799993 C78.9695525,8.89549392 79.6131491,9.40109822 80.1109525,9.67701099 C79.2165226,10.9021893 77.7278875,11.7039999 76.0427477,11.7039999 C73.306591,11.7039999 71.0884978,9.59011237 71.0884978,6.98249994 C71.0884978,4.37488752 73.306591,2.26099998 76.0427477,2.26099998 Z" id="Combined-Shape-Copy-5" fill="#FFFFFF"></path>
                <path d="M61.0434531,0 L61.0434531,11.7039999 L56.5214531,11.7039999 C55.0584531,11.5266666 54.0166198,10.9281666 53.3959532,9.90849992 C52.4649532,8.37899993 52.4649532,7.31499994 52.5979532,6.25099995 C52.7309532,5.18699996 53.5954532,3.98999997 54.1274531,3.52449997 C54.6594531,3.05899997 55.4574531,2.39399998 56.1889531,2.39399998 L59.7134531,2.39399998 L59.7134531,2.39399998 L59.7134531,0 L61.0434531,0 Z M59.7134531,3.85699997 L56.5214531,3.85699997 C55.4574531,3.85699997 54.5264531,4.92099996 54.2604531,5.45299995 C53.9944532,5.98499995 53.8614532,7.38149994 54.3934531,8.64499993 C54.7481198,9.48733325 55.4574531,9.97499992 56.5214531,10.1079999 L56.5214531,10.1079999 L59.7134531,10.1079999 L59.7134531,3.85699997 L59.7134531,3.85699997 Z" id="Combined-Shape" fill="#FFFFFF" transform="translate(56.789226, 5.852000) scale(-1, 1) translate(-56.789226, -5.852000) "></path>
                <path d="M9.17699827,2.39399998 L9.17699827,3.92349997 L2.46049833,3.92349997 C1.79549834,4.05649997 1.46299834,4.4333333 1.46299834,5.05399996 C1.46299834,5.67466662 1.79549834,6.07366662 2.46049833,6.25099995 L7.44799829,6.25099995 C8.11299828,6.33966661 8.60066495,6.60566661 8.91099828,7.04899994 C9.37649827,7.71399994 9.50949827,8.11299993 9.50949827,8.77799993 C9.50949827,9.44299992 9.37649827,10.1079999 8.91099828,10.7064999 C8.44549828,11.3049999 7.84699829,11.7039999 7.18199829,11.7039999 C6.73866496,11.7039999 4.52199831,11.7039999 0.531998346,11.7039999 L0.531998346,10.3739999 L7.04899829,10.3739999 C7.49233162,10.2853332 7.80266495,10.0858332 7.97999828,9.77549992 C8.24599828,9.30999992 8.17949828,9.04399993 8.17949828,8.77799993 C8.17949828,8.51199993 7.97999828,7.64749994 7.44799829,7.58099994 C7.09333162,7.5366666 5.43083164,7.5366666 2.46049833,7.58099994 C1.66249834,7.58099994 1.08616501,7.35933327 0.731498344,6.91599994 C0.199498349,6.25099995 0.0664983498,5.78549995 0.0664983498,5.05399996 C0.0664983498,4.32249996 0.265998348,3.72399997 0.731498344,3.19199997 C1.19699834,2.65999998 2.06149833,2.39399998 2.32749833,2.39399998 C2.50483166,2.39399998 4.78799831,2.39399998 9.17699827,2.39399998 Z" id="Path-66" fill="#FFFFFF"></path>
                <path d="M10.1079983,0.265999998 C10.1079983,5.27566662 10.1079983,8.11299993 10.1079983,8.77799993 C10.1079983,9.77549992 10.3074983,10.2409999 10.8394983,10.9059999 C11.3714983,11.5709999 12.0364983,11.7039999 12.4354982,11.7039999 C12.7014982,11.7039999 13.4773316,11.7039999 14.7629982,11.7039999 L14.7629982,10.3739999 L13.1669982,10.3739999 C12.7679982,10.3296666 12.4576649,10.1744999 12.2359982,9.90849992 C11.9034983,9.50949992 11.6374983,9.17699992 11.6374983,8.64499993 C11.6374983,8.29033326 11.6374983,6.64999994 11.6374983,3.72399997 L14.7629982,3.72399997 L14.7629982,2.39399998 L11.6374983,2.39399998 L11.6374983,0.265999998 L10.1079983,0.265999998 Z" id="Path-67" fill="#FFFFFF"></path>
                <path d="M100.946998,0.265999998 C100.946998,5.27566662 100.946998,8.11299993 100.946998,8.77799993 C100.946998,9.77549992 101.146498,10.2409999 101.678498,10.9059999 C102.210498,11.5709999 102.875497,11.7039999 103.274497,11.7039999 C103.540497,11.7039999 104.316331,11.7039999 105.601997,11.7039999 L105.601997,10.3739999 L104.005997,10.3739999 C103.606997,10.3296666 103.296664,10.1744999 103.074997,9.90849992 C102.742497,9.50949992 102.476498,9.17699992 102.476498,8.64499993 C102.476498,8.29033326 102.476498,6.64999994 102.476498,3.72399997 L105.601997,3.72399997 L105.601997,2.39399998 L102.476498,2.39399998 L102.476498,0.265999998 L100.946998,0.265999998 Z" id="Path-67-Copy" fill="#FFFFFF"></path>
                <path d="M15.4944982,2.39399998 L16.9574982,2.39399998 L16.9574982,8.04649993 C17.0018315,8.66716659 17.2234982,9.17699992 17.6224982,9.57599992 C18.2209982,10.1744999 19.0854982,10.2409999 19.6839982,10.2409999 C20.2824982,10.2409999 21.2134982,9.90849992 21.5459982,9.37649992 C21.8784982,8.84449993 22.2774982,8.17949993 22.2774982,7.71399994 C22.2774982,7.40366661 22.2774982,5.63033329 22.2774982,2.39399998 L23.6739982,2.39399998 L23.6739982,11.7039999 L22.2774982,11.7039999 L22.2774982,10.9724999 L21.8784982,10.9724999 C21.3908315,11.4601666 20.6371648,11.7039999 19.6174982,11.7039999 C18.0879982,11.7039999 16.9574982,11.3049999 16.2259982,10.2409999 C15.4944982,9.17699992 15.4944982,8.24599993 15.4944982,8.04649993 C15.4944982,7.91349993 15.4944982,6.02933328 15.4944982,2.39399998 Z" id="Path-68" fill="#FFFFFF"></path>
                <path d="M33.3164981,0 L33.3164981,11.7039999 L28.7944981,11.7039999 C27.3314981,11.5266666 26.2896648,10.9281666 25.6689981,9.90849992 C24.7379981,8.37899993 24.7379981,7.31499994 24.8709981,6.25099995 C25.0039981,5.18699996 25.8684981,3.98999997 26.4004981,3.52449997 C26.9324981,3.05899997 27.7304981,2.39399998 28.4619981,2.39399998 L31.9864981,2.39399998 L31.9864981,2.39399998 L31.9864981,0 L33.3164981,0 Z M35.9764981,2.39399998 L35.9764981,11.7039999 L34.4469981,11.7039999 L34.4469981,2.39399998 L35.9764981,2.39399998 Z M31.9864981,3.85699997 L28.7944981,3.85699997 C27.7304981,3.85699997 26.7994981,4.92099996 26.5334981,5.45299995 C26.2674981,5.98499995 26.1344981,7.38149994 26.6664981,8.64499993 C27.0211648,9.48733325 27.7304981,9.97499992 28.7944981,10.1079999 L28.7944981,10.1079999 L31.9864981,10.1079999 L31.9864981,3.85699997 L31.9864981,3.85699997 Z M35.2152928,1.52949999 C35.6376526,1.52949999 35.9800428,1.18710975 35.9800428,0.764749994 C35.9800428,0.342390235 35.6376526,0 35.2152928,0 C34.7929331,0 34.4505428,0.342390235 34.4505428,0.764749994 C34.4505428,1.18710975 34.7929331,1.52949999 35.2152928,1.52949999 Z M41.928248,11.7039999 C44.8296759,11.7039999 47.181748,9.59011237 47.181748,6.98249994 C47.181748,4.37488752 44.8296759,2.26099998 41.928248,2.26099998 C39.0268201,2.26099998 36.674748,4.37488752 36.674748,6.98249994 C36.674748,9.59011237 39.0268201,11.7039999 41.928248,11.7039999 Z M41.928248,10.2409999 C43.9482295,10.2409999 45.585748,8.78211978 45.585748,6.98249994 C45.585748,5.1828801 43.9482295,3.72399997 41.928248,3.72399997 C39.9082665,3.72399997 38.270748,5.1828801 38.270748,6.98249994 C38.270748,8.78211978 39.9082665,10.2409999 41.928248,10.2409999 Z" id="Combined-Shape" fill="#FFFFFF"></path>
                <path d="M70.5564978,2.39399998 L70.5564978,11.7039999 L69.2929978,11.7039999 L69.2929978,3.85699997 C68.0959978,3.81266664 67.2314978,3.81266664 66.6994978,3.85699997 C65.9014978,3.92349997 65.5689978,4.12299997 64.9704978,4.58849996 C64.3836427,5.04494282 63.7967876,6.01288506 63.7741731,6.99077943 C63.7737244,7.01018366 63.7734978,7.0295918 63.7734978,7.04899994 C63.7734978,8.04649993 64.1059978,8.71149993 64.7709978,9.30999992 C65.4359978,9.90849992 65.9014978,10.0414999 66.3004978,10.1079999 C66.6994978,10.1744999 67.5639978,10.2409999 67.9629978,10.1079999 C68.2289978,10.0193333 68.4728311,9.86416658 68.6944978,9.64249992 L68.6944978,11.5709999 C68.0738311,11.6596666 67.5639978,11.7039999 67.1649978,11.7039999 C66.5664978,11.7039999 65.3694978,11.7704999 64.3719978,11.2384999 C63.3744978,10.7064999 62.1774978,9.30999992 62.0444978,7.38149994 C61.9114978,5.45299995 63.0419978,4.05649997 63.4409978,3.65749997 C63.8399978,3.25849997 64.8374978,2.46049998 65.6354978,2.39399998 C66.1674978,2.34966665 67.8078311,2.34966665 70.5564978,2.39399998 Z" id="Path-72" fill="#FFFFFF"></path>
                <polygon id="Path-73" fill="#FFFFFF" points="82.1274977 11.7039999 80.7309977 11.7039999 80.7309977 0 82.1274977 0 82.1274977 5.98499995 82.4599977 5.98499995 84.7874976 2.39399998 86.5829976 2.39399998 83.9894977 6.71649994 83.9894977 6.98249994 86.5829976 11.7039999 84.7874976 11.7039999 82.4599977 7.78049994 82.1274977 7.78049994"></polygon>
                <polygon id="Path-74" fill="#FFFFFF" points="87.5139976 0 89.0434976 0 89.0434976 11.7039999 87.5139976 11.7039999"></polygon>
                <path d="M4.36678835,17.0541327 C3.38974137,17.0328925 3.28328722,17.699724 3.18108817,18.602076" id="Path-78" stroke="#FFFFFF" stroke-width="0.5" stroke-linecap="round"></path>
                <path d="M6.28126099,17.2090829 C5.67656371,17.9513299 5.24865786,18.4465509 5.33155788,19.4741092 C5.37324147,19.9907836 5.93197336,20.0011748 6.23632154,19.7456942 C6.86639481,19.2167885 7.96178194,16.5329833 6.37893287,17.2790897 L6.28126099,17.2090829 Z" id="Path-79" stroke="#FFFFFF" stroke-width="0.5" stroke-linecap="round"></path>
                <path d="M6.99639575,18.7197498 C8.50176095,16.6622872 7.86037227,16.9849383 8.00831274,20.0014334 C8.02728352,20.3882463 7.89190202,19.2061877 8.016885,18.8396317 C8.17660637,18.3711933 8.51722891,17.9811304 8.82839281,17.5962635 C8.92067768,17.4821199 9.06513301,17.3269729 9.20570238,17.3692284 C9.69787706,17.5171773 9.87329032,18.2190799 9.84199827,18.8194998 C9.81800204,19.2799304 9.62737236,19.7551116 9.68172288,19.7169901 C10.1079983,19.4179998 10.0964379,18.9589709 10.3739983,18.4869998 C10.5140528,18.2488473 10.7275322,17.78374 10.929507,17.5952245 C11.0422478,17.4899966 11.193118,17.3602096 11.3443527,17.3903993 C12.4661727,17.6143385 10.8842541,20.3314223 12.729423,19.271492" id="Path-80" stroke="#FFFFFF" stroke-width="0.5" stroke-linecap="round"></path>
                <path d="M18.160213,15.526451 C16.0501118,15.032613 14.1975452,18.5757707 15.8842765,19.9918221 C16.3303126,20.3662801 17.1035735,20.1494001 17.5245666,19.8634979 C18.6714345,19.0846439 20.2823541,16.9986788 19.6191867,15.5094364 C19.5933103,15.4513271 19.5122357,15.594855 19.498006,15.6568534 C19.4165018,16.0119656 19.3789043,16.3760459 19.3372111,16.7379979 C19.2891996,17.1548008 19.2403377,17.5726101 19.2290187,17.9920165 C19.219945,18.328225 19.2179194,18.6686582 19.2761662,18.9999071 C19.3310667,19.3121263 19.4031121,19.6336074 19.5655451,19.9058397 C19.6936076,20.1204683 19.9343257,20.2432752 20.118716,20.411993" id="Path-81" stroke="#FFFFFF" stroke-width="0.5" stroke-linecap="round"></path>
                <path d="M24.1570323,19.4209871 C23.2301279,19.7886032 22.826674,19.9002263 22.9241847,18.6635106 C22.9585317,18.2278918 23.3510479,17.7426089 23.1257628,17.3681893 L23.0743292,17.1134891 C23.0471923,17.068388 22.9820951,17.0304371 22.9317179,17.0456903 C20.7399099,17.709324 20.4497178,21.2739758 22.4942726,18.9882176 C22.6706628,18.7910181 22.8015753,18.5574396 22.9552267,18.3420506" id="Path-82" stroke="#FFFFFF" stroke-width="0.5" stroke-linecap="round"></path>
                <path d="M25.9686378,17.1210223 C25.3679505,17.0171388 23.5806379,17.7401224 24.1394982,18.4869998 C24.545592,19.0297157 25.7899634,18.0272201 25.9322706,18.946785 C26.10037,20.0330151 24.7514393,20.2944007 24.0797521,19.7986864" id="Path-83" stroke="#FFFFFF" stroke-width="0.5" stroke-linecap="round"></path>
                <path d="M28.602433,17.1210223 C28.0017457,17.0171388 26.2144331,17.7401224 26.7732934,18.4869998 C27.1793872,19.0297157 28.4237587,18.0272201 28.5660658,18.946785 C28.7341652,20.0330151 27.3852345,20.2944007 26.7135473,19.7986864" id="Path-83-Copy" stroke="#FFFFFF" stroke-width="0.5" stroke-linecap="round"></path>
                <path d="M33.2496084,16.9173661 C32.3131074,17.0569547 31.7923158,17.6985928 31.6159424,18.6402616 C31.5644078,18.9154079 31.6801333,20.1684062 32.3244532,19.892202 C33.0567902,19.578267 34.180456,17.6388496 33.3257198,17.0341307 L33.2496084,16.9173661 Z" id="Path-84" stroke="#FFFFFF" stroke-width="0.5"></path>
                <path d="M34.4138779,17.3268866 C34.4742302,17.8690174 34.6018718,19.4987149 34.5949346,18.9532791 L34.3806279,20.015201 C34.3756964,19.6274544 34.491191,19.2455127 34.5938955,18.8715829 C34.6735473,18.5815844 34.7837623,18.297799 34.9252266,18.03241 C35.0155294,17.8630006 35.1309407,17.6987037 35.2821445,17.5804178 C36.7247715,16.4518593 36.1132638,19.3246873 36.3134141,19.4783953 C36.5794584,19.6827077 36.9180618,19.7690731 37.2203857,19.9144119" id="Path-85" stroke="#FFFFFF" stroke-width="0.5" stroke-linecap="round" stroke-linejoin="round"></path>
                <path d="M40.8072295,16.2935389 C40.7220625,17.2102354 40.2316047,19.7828863 40.8973681,20.2932801 C41.7688881,20.9614129 43.9864265,19.7752828 44.16483,18.7357254 C44.2482673,18.2495363 44.3221761,17.7550883 44.3019863,17.2622049 C44.2450878,15.8731765 42.2625579,15.6470917 41.3357226,15.9868856 C40.5661595,16.2690208 39.9775061,16.7166758 39.4468369,17.3248085" id="Path-86" stroke="#FFFFFF" stroke-width="0.5" stroke-linecap="round"></path>
                <path d="M45.4522284,18.6424696 C46.0393731,18.4914479 46.4249152,18.5336222 46.7675517,17.9846131 C47.0074004,17.6003017 47.0789056,17.3345544 46.7740458,17.038287 C46.7337837,16.9991596 46.6631381,16.9819704 46.6100038,17.0001014 C45.7720713,17.2860288 45.2008768,18.2710957 45.0867382,19.123036 C45.0208366,19.6149311 45.1537069,20.5013196 45.9164296,20.0301375 C46.3618354,19.7549822 46.7470857,19.3899539 47.1288857,19.0317284 C47.2524134,18.9158279 47.3246623,18.7552511 47.4225507,18.6170125" id="Path-87" stroke="#FFFFFF" stroke-width="0.5" stroke-linecap="round"></path>
                <path d="M47.6402343,17.2548016 C47.6902392,18.1777922 47.7219127,19.1019586 47.7902489,20.0237733 C47.8015055,20.175617 47.7757463,19.7154546 47.8116796,19.567495 C47.8875005,19.2552932 47.9863571,18.9461473 48.122619,18.6551981 C48.2375606,18.4097727 48.3876809,18.1790286 48.5599345,17.9698065 C48.6985409,17.8014527 48.8554047,17.6373805 49.0467352,17.5327508 C49.1221817,17.4914927 49.2448562,17.5000549 49.3028642,17.5635331 C50.5537322,18.9323583 47.4274363,21.6947027 50.6150702,17.9496747 C50.7382145,17.8049972 50.9211562,17.7104674 51.1027802,17.6547108 C51.1939141,17.6267336 51.3031731,17.6612677 51.3825477,17.7140672 C51.4706407,17.7726662 51.5667271,17.8621329 51.5733456,17.9677284 C51.6498844,19.1888753 50.9432403,19.9883766 52.5778592,19.5038524" id="Path-88" stroke="#FFFFFF" stroke-width="0.5" stroke-linecap="round"></path>
                <path d="M55.7875233,19.6715311 C53.5271456,19.4829422 55.9633492,18.2469383 55.222533,17.1815477 C54.985121,16.8401181 54.4139091,17.2423008 54.2524383,17.4137782 C53.619214,18.0862444 53.1916189,18.5026879 52.9167235,19.3447459 C52.5724527,20.3993144 54.2487884,19.8279902 54.5771454,19.4061805 C54.7265695,19.2142292 54.8272997,18.9889103 54.9523768,18.7802752" id="Path-89" stroke="#FFFFFF" stroke-width="0.5" stroke-linecap="round"></path>
                <path d="M56.2302938,17.1560907 C56.1791632,18.1731597 56.0956722,19.1891173 56.0769022,20.2072977 C56.071013,20.5267558 56.111812,19.565039 56.1915887,19.2556463 C56.2506993,19.0264018 56.3575491,18.8076598 56.4886307,18.6105184 C56.7045726,18.2857507 56.9398981,17.9673916 57.2250662,17.7013387 C57.3905362,17.5469605 57.5920343,17.3852164 57.8178514,17.3703973 C57.9657318,17.3606928 58.2459098,17.8100269 58.2445164,17.9431805 C58.2394756,18.4249014 58.0458711,18.9015436 58.0955408,19.3807235 C58.1397138,19.8068745 58.5892654,20.0210011 58.8823709,20.214701" id="Path-90" stroke="#FFFFFF" stroke-width="0.5" stroke-linecap="round"></path>
                <path d="M62.1220379,15.2601913 C62.1037104,15.8793997 61.3140876,19.2897718 62.6526092,20.1319657" id="Path-91" stroke="#FFFFFF" stroke-width="0.5" stroke-linecap="round"></path>
                <path d="M61.8572068,17.1581688 C60.6834089,17.0964892 60.0614071,17.9556997 59.5545145,18.9648387 C59.2083321,19.6540303 59.495849,20.9883581 60.3949861,20.0480614 C60.8552996,19.5666762 61.291085,19.0568413 61.666409,18.5066122 C61.7946731,18.3185756 61.8136095,18.0758342 61.8872098,17.8604452" id="Path-92" stroke="#FFFFFF" stroke-width="0.5" stroke-linecap="round"></path>
            </g>
        </g>
    </g>
</svg>