<?xml version="1.0" encoding="UTF-8"?>
<svg width="75px" height="17px" viewBox="0 0 75 17" version="1.1" xmlns="http://www.w3.org/2000/svg" xmlns:xlink="http://www.w3.org/1999/xlink">
    <!-- Generator: Sketch 59.1 (86144) - https://sketch.com -->
    <title>Chillingo</title>
    <desc>Created with Sketch.</desc>
    <g id="HS_Website" stroke="none" stroke-width="1" fill="none" fill-rule="evenodd" opacity="0.699544271">
        <g id="[desktop]-Homepage" transform="translate(-215.000000, -630.000000)">
            <g id="Chillingo" transform="translate(215.000000, 630.000000)">
                <circle id="Oval" stroke="#FFFFFF" stroke-width="0.980000004" cx="8.36500004" cy="8.36500004" r="7.87500003"></circle>
                <path d="M2.66000001,8.75000004 L3.43000001,7.56000003 L8.26000004,7.56000003 L7.49000003,8.75000004 L5.25000002,8.75000004 L4.69000002,9.80000004 L7.77000003,9.80000004 L10.57,5.11000002 L10.78,5.11000002 L14.4200001,11.06 L12.95,11.06 L12.3200001,9.94000004 L10.22,9.94000004 L10.99,8.75000004 L11.69,8.75000004 L10.78,7.49000003 L10.57,7.49000003 L9.24000004,9.80000004 L8.48750004,10.99 L2.45000001,10.99 L3.99000002,8.75000004 L2.66000001,8.75000004 Z M9.87000004,5.11000002 L9.10000004,6.30000003 L4.27000002,6.30000003 L5.04000002,5.11000002 L9.87000004,5.11000002 Z" id="Combined-Shape" fill="#FFFFFF"></path>
                <path d="M26.7400001,7.42000003 L28.0000001,6.30000003 C27.5800001,5.27333336 26.7166668,4.76000002 25.4100001,4.76000002 C23.4500001,4.76000002 22.3300001,6.65000003 22.1200001,7.42000003 C21.9100001,8.19000003 21.8400001,9.38000004 22.4700001,10.78 C23.1000001,12.1800001 24.6400001,12.3900001 24.9900001,12.3900001 C25.3400001,12.3900001 26.3900001,12.2500001 27.0900001,11.9700001 C27.2300001,11.5966667 27.4400001,10.9433334 27.7200001,10.01 C26.9266668,10.5233334 26.2266668,10.78 25.6200001,10.78 C24.7100001,10.78 23.8700001,9.80000004 23.8700001,8.96000004 C23.8700001,8.12000003 23.8000001,7.56000003 24.1500001,6.93000003 C24.5000001,6.30000003 25.1300001,6.16000003 25.6200001,6.16000003 C25.9466668,6.16000003 26.3200001,6.58000003 26.7400001,7.42000003 Z" id="Path-41" fill="#FFFFFF"></path>
                <path d="M30.9400001,1.47000001 L30.9385815,5.73262654 C31.1804091,5.54434647 31.5416744,5.37400166 31.7800001,5.25000002 C32.5525656,4.84803173 33.7545977,4.85819919 34.0900001,4.97000002 C34.6500001,5.15666669 34.9766668,5.74000002 35.0700001,6.72000003 L35.0700001,12.0400001 L33.1100001,12.0400001 L33.1100001,7.63000003 C32.9729592,6.74333336 32.6229592,6.30000003 32.0600001,6.30000003 C31.6040791,6.30000003 31.2298189,6.41135574 30.9396371,6.53978112 L30.9400001,12.0400001 L28.9800001,12.0400001 L28.9800001,2.17000001 L30.9400001,1.47000001 Z" id="Combined-Shape" fill="#FFFFFF"></path>
                <path d="M54.1100002,4.83000002 L54.1085816,5.73262654 C54.3504092,5.54434647 54.7116745,5.37400166 54.9500002,5.25000002 C55.7225657,4.84803173 56.9245978,4.85819919 57.2600002,4.97000002 C57.8200002,5.15666669 58.1466669,5.74000002 58.2400002,6.72000003 L58.2400002,12.0400001 L56.2800002,12.0400001 L56.2800002,7.63000003 C56.1429593,6.74333336 55.7929593,6.30000003 55.2300002,6.30000003 C54.7740792,6.30000003 54.399819,6.41135574 54.1096372,6.53978112 L54.1100002,12.0400001 L52.1500002,12.0400001 L52.1500002,5.53000002 L54.1100002,4.83000002 Z" id="Combined-Shape-Copy-3" fill="#FFFFFF"></path>
                <ellipse id="Oval" fill="#FFFFFF" cx="37.8700002" cy="2.52000001" rx="1.12" ry="1.05"></ellipse>
                <ellipse id="Oval-Copy-21" fill="#FFFFFF" cx="49.3500002" cy="2.52000001" rx="1.12" ry="1.05"></ellipse>
                <polygon id="Path-42-Copy" fill="#FFFFFF" points="40.6700002 2.17000001 42.6300002 1.47000001 42.6300002 12.0400001 40.6700002 12.0400001"></polygon>
                <polygon id="Path-42-Copy-2" fill="#FFFFFF" points="44.5900002 2.17000001 46.5500002 1.47000001 46.5500002 12.0400001 44.5900002 12.0400001"></polygon>
                <polygon id="Path-42-Copy-3" fill="#FFFFFF" points="48.3700002 5.53000002 50.3300002 4.83000002 50.3300002 12.0400001 48.3700002 12.0400001"></polygon>
                <polygon id="Path-42-Copy-5" fill="#FFFFFF" points="36.7500002 5.53000002 38.7100002 4.83000002 38.7100002 12.0400001 36.7500002 12.0400001"></polygon>
                <path d="M62.3000003,4.76000002 C63.0466669,4.76000002 63.8633336,5.04000002 64.7500003,5.60000002 L66.9200003,5.60000002 L66.5700003,6.79000003 L65.6600003,6.79000003 C65.7066669,7.6766667 65.6133336,8.33000004 65.3800003,8.75000004 C65.0300003,9.38000004 63.9100003,10.01 63.5600003,10.01 C63.2100003,10.01 62.4400003,9.73000004 62.0900003,9.73000004 C61.7400003,9.73000004 61.2500003,9.87000004 61.2500003,10.29 C61.2500003,10.71 61.6000003,10.92 62.0900003,10.92 C62.5800003,10.92 64.2600003,10.78 64.8200003,10.92 C65.3800003,11.06 66.2900003,11.62 66.1500003,12.7400001 C66.0100003,13.8600001 65.5200003,14.2100001 64.8200003,14.7000001 C64.1200003,15.1900001 62.7200003,15.3300001 62.0900003,15.3300001 C61.4600003,15.3300001 60.2000003,15.1900001 59.6400003,14.7000001 C59.0800003,14.2100001 58.9400003,13.4400001 59.0800003,13.0900001 C59.2200003,12.7400001 59.7100003,12.1800001 60.3400003,12.1800001 L60.3400003,11.9000001 L60.3400003,11.9000001 C59.8733336,11.5733334 59.6400003,11.2 59.6400003,10.78 C59.6400003,10.36 60.0133336,9.96333338 60.7600003,9.59000004 L60.7600003,9.45000004 C59.9200003,9.21666671 59.4300003,8.82000003 59.2900003,8.26000002 C59.0800003,7.42000003 59.0800003,6.65000003 59.5700003,6.02000003 C60.0600003,5.39000002 61.1800003,4.76000002 62.3000003,4.76000002 Z M64.0500003,12.3200001 L60.9700003,12.3200001 C60.6900003,12.7400001 60.8300003,13.3000001 60.9000003,13.5800001 C60.9700003,13.8600001 61.3200003,14.1400001 61.8100003,14.3500001 C62.3000003,14.5600001 63.0700003,14.3500001 63.7000003,14.0700001 C64.3300003,13.7900001 64.3300003,13.1600001 64.3300003,12.7400001 C64.3300003,12.4600001 64.2366669,12.3200001 64.0500003,12.3200001 L64.0500003,12.3200001 Z M62.7174846,6.08305935 L62.5800003,6.09000003 C62.027069,6.13639121 61.481948,6.4828314 61.3200003,6.58000003 C60.9700003,6.79000003 60.8300003,7.49000003 60.9700003,8.05000003 C61.1100003,8.61000004 62.0200003,9.03000004 62.3000003,9.03000004 C62.5800003,9.03000004 63.1400003,8.96000004 63.4200003,8.75000004 C63.7000003,8.54000004 64.0500003,7.91000003 64.0500003,7.49000003 C64.0500003,7.07000003 63.9800003,6.51000003 63.9100003,6.37000003 C63.8723898,6.29477911 63.2220593,6.03613098 62.5800003,6.09000003 Z" id="Combined-Shape" fill="#FFFFFF"></path>
                <path d="M70.9800003,4.76000002 C71.7500003,4.76000002 72.6600003,5.11000002 73.1500003,5.67000002 C73.6400003,6.23000003 74.0600003,7.28000003 74.0600003,8.47000004 C74.0600003,9.66000004 73.3600003,11.2 72.5200003,11.8300001 C71.6800003,12.4600001 69.8600003,12.5300001 69.2300003,12.3200001 C68.6000003,12.1100001 67.2000003,11.27 67.0600003,9.66000004 C66.9200003,8.05000003 67.3400003,6.51000003 68.1100003,5.81000002 C68.8800003,5.11000002 70.2100003,4.76000002 70.9800003,4.76000002 Z M70.5600003,6.09000003 C70.2100003,6.09000003 69.9300003,6.23000003 69.5800003,6.58000003 C69.2300003,6.93000003 68.8800003,7.91000003 68.8800003,8.61000004 C68.8800003,9.31000004 68.9500003,9.73000004 69.1600003,10.22 C69.3700003,10.71 69.9300003,11.2 70.4900003,11.2 C71.0500003,11.2 71.5400003,10.78 71.8200003,10.36 C72.1000003,9.94000004 72.1000003,9.03000004 72.1000003,8.61000004 L72.0996162,8.45550072 C72.0965435,8.00765436 72.0688892,7.29555559 71.8200003,6.86000003 C71.5400003,6.37000003 70.9100003,6.09000003 70.5600003,6.09000003 Z" id="Combined-Shape" fill="#FFFFFF"></path>
            </g>
        </g>
    </g>
</svg>