<?xml version="1.0" encoding="UTF-8"?>
<svg width="70px" height="19px" viewBox="0 0 70 19" version="1.1" xmlns="http://www.w3.org/2000/svg" xmlns:xlink="http://www.w3.org/1999/xlink">
    <!-- Generator: Sketch 59.1 (86144) - https://sketch.com -->
    <title>Dealmatrix</title>
    <desc>Created with Sketch.</desc>
    <g id="HS_Website" stroke="none" stroke-width="1" fill="none" fill-rule="evenodd" opacity="0.699544271">
        <g id="[desktop]-Homepage" transform="translate(-305.000000, -629.000000)">
            <g id="Dealmatrix" transform="translate(306.000000, 630.000000)">
                <polyline id="Path-48" stroke="#FFFFFF" stroke-width="1.70100007" points="0 17.8290008 0 0.777000034 13.6710006 0.777000034 13.6710006 3.52800016 0.714000031 3.52800016"></polyline>
                <polyline id="Path-48-Copy" stroke="#FFFFFF" stroke-width="1.70100007" transform="translate(9.544500, 8.526000) rotate(-180.000000) translate(-9.544500, -8.526000) " points="2.70900012 17.0520008 2.70900012 0 16.3800007 0 16.3800007 2.75100012 3.42300015 2.75100012"></polyline>
                <polyline id="Path-49" stroke="#FFFFFF" stroke-width="1.70100007" points="14.5110006 6.27900028 2.73000012 6.27900028 2.73000012 8.9880004 13.6710006 8.9880004 13.6710006 11.6760005 1.86900008 11.6760005"></polyline>
                <path d="M20.0655009,8.07450036 L21.7643232,8.07450036 C22.5052045,7.78111451 22.858501,7.18666632 22.858501,6.18247734 C22.858501,5.1834985 22.5151726,4.64084383 21.7863615,4.42050019 L20.0655009,4.42050019 L20.0655009,8.07450036 Z" id="Path-50" stroke="#FFFFFF" stroke-width="1.07100005"></path>
                <polyline id="Path-51" stroke="#FFFFFF" stroke-width="1.07100005" points="27.8040012 4.43100019 25.7250011 4.43100019 25.7250011 8.08500036 27.8040012 8.08500036"></polyline>
                <line x1="27.8040012" y1="6.29750027" x2="26.1030011" y2="6.29750027" id="Path-52" stroke="#FFFFFF" stroke-width="1.07100005"></line>
                <path d="M29.7324062,8.07450036 L29.8470466,8.07450036 L30.2460466,7.00350031 L32.4599562,7.00350031 L32.8589562,8.07450036 L32.9735965,8.07450036 L31.7068765,4.42050019 L30.9991263,4.42050019 L29.7324062,8.07450036 Z" id="Path-53" stroke="#FFFFFF" stroke-width="1.07100005"></path>
                <path d="M46.784407,8.07450036 L46.8990473,8.07450036 L47.2980474,7.00350031 L49.5119569,7.00350031 L49.9109569,8.07450036 L50.0255973,8.07450036 L48.7588772,4.42050019 L48.051127,4.42050019 L46.784407,8.07450036 Z" id="Path-53-Copy" stroke="#FFFFFF" stroke-width="1.07100005"></path>
                <polyline id="Path-54" stroke="#FFFFFF" stroke-width="1.07100005" points="35.5530016 3.88500017 35.5530016 8.06400035 37.8420017 8.06400035"></polyline>
                <polyline id="Path-55" stroke="#FFFFFF" stroke-width="1.07100005" points="40.1310018 8.61000038 40.1310018 4.43100019 40.8030018 4.43100019 41.8950018 8.03511146 42.3360019 8.03511146 43.5960019 4.43100019 44.2050019 4.43100019 44.2050019 8.61000038"></polyline>
                <path d="M53.4845024,8.61000038 L53.4845024,3.88500017 M62.4515027,8.61000038 L62.4515027,3.88500017 M51.7020023,4.42850019 L55.2090024,4.42850019" id="Combined-Shape" stroke="#FFFFFF" stroke-width="1.07100005"></path>
                <path d="M58.2453802,3.85350017 C58.7798396,3.83684711 59.1897206,3.92570038 59.4788214,4.16661769 C59.837992,4.46592654 59.9865026,4.86195496 59.9865026,5.31300023 C59.9865026,5.68707824 59.9121961,6.00659646 59.7285656,6.28204223 C59.6255274,6.43659947 59.4816274,6.56990046 59.3152791,6.67348087 L60.3540027,8.61000038 L59.2620026,8.61000038 L58.4256838,6.91790093 C58.288025,6.92170291 58.1265337,6.91889426 57.9388306,6.9099987 L57.9388306,6.9099987 L57.8827438,6.90720096 L57.8445025,6.90514142 L57.8445025,8.61000038 L56.7735025,8.61000038 L56.7735025,3.85350017 Z M58.3925182,4.92273455 L58.2718427,4.92420296 L57.8445025,4.92450022 L57.8445025,5.83234653 L57.8898279,5.83497672 C58.2276346,5.85393881 58.4596915,5.85233222 58.5649669,5.83478631 L58.5649669,5.83478631 C58.6861176,5.81233522 58.8003486,5.74359484 58.8374397,5.6879583 C58.8878092,5.61240405 58.9155026,5.49332226 58.9155026,5.31300023 C58.9155026,5.15504548 58.8807405,5.06234661 58.7931838,4.98938271 L58.7931838,4.98938271 C58.782618,4.98312804 58.7773442,4.98050358 58.77096,4.97769839 C58.7479773,4.96759993 58.7167668,4.95782064 58.6772998,4.94936341 C58.5771037,4.92789282 58.4411178,4.91856046 58.2718427,4.92420296 Z" id="Combined-Shape" fill="#FFFFFF" fill-rule="nonzero"></path>
                <polygon id="Path-60" fill="#FFFFFF" points="64.4910028 8.61000038 65.5620029 8.61000038 68.796003 3.88500017 67.725003 3.88500017"></polygon>
                <polygon id="Path-60" fill="#FFFFFF" transform="translate(66.790503, 6.247500) scale(-1, 1) translate(-66.790503, -6.247500) " points="64.6380028 8.61000038 65.7090029 8.61000038 68.943003 3.88500017 67.872003 3.88500017"></polygon>
                <text id="Pitch.-screen.-deal." font-family="Lato-Medium, Lato" font-size="3.50700015" font-weight="400" letter-spacing="0.130394599" fill="#FFFFFF">
                    <tspan x="24.9690011" y="13.2270004">PITCH. SCREEN. DEAL.</tspan>
                </text>
            </g>
        </g>
    </g>
</svg>