<?xml version="1.0" encoding="UTF-8"?>
<svg width="86px" height="19px" viewBox="0 0 86 19" version="1.1" xmlns="http://www.w3.org/2000/svg" xmlns:xlink="http://www.w3.org/1999/xlink">
    <!-- Generator: Sketch 59.1 (86144) - https://sketch.com -->
    <title>playwing</title>
    <desc>Created with Sketch.</desc>
    <g id="HS_Website" stroke="none" stroke-width="1" fill="none" fill-rule="evenodd" opacity="0.699544271">
        <g id="[desktop]-Homepage" transform="translate(-733.000000, -630.000000)">
            <g id="playwing" transform="translate(733.000000, 631.000000)">
                <path d="M10.2664798,0 C11.0347198,0 12.0473998,0.419039992 13.0949997,1.36187997 C14.1425997,2.30471996 14.4219597,3.98087992 14.4219597,4.78403991 C14.4219597,5.58719989 14.0029197,6.63479987 13.0949997,7.82207985 C12.4897198,8.61359983 11.5468798,9.12575982 10.2664798,9.35855982 L10.2664798,9.35855982 L3.21263994,9.35855982 L3.21263994,13.9330797 L0,13.9330797 L0,0 L0,0 Z M8.83475983,3.07295994 L3.28247994,3.07295994 L3.28247994,3.07295994 L3.28247994,6.25067988 L8.83475983,6.25067988 C10.0918798,6.04115988 10.7204398,5.50571989 10.7204398,4.64435991 C10.7204398,3.35231994 9.46331982,3.07295994 8.83475983,3.07295994 Z" id="Combined-Shape" fill="#FFFFFF"></path>
                <polygon id="Path-95" fill="#FFFFFF" points="15.2949597 0 17.9837997 0 17.9837997 13.9330797 15.2949597 13.9330797"></polygon>
                <path d="M24.5836795,3.77135993 C25.7360395,3.77135993 27.2725195,4.08563992 27.9010795,4.64435991 C28.5296394,5.2030799 28.7042394,5.79671989 28.7042394,6.49511987 L28.7042394,11.3839198 L28.7042394,11.3839198 C29.0534394,11.6399998 29.3211594,11.7680398 29.5073994,11.7680398 L29.5073994,13.9330797 L29.5073994,13.9330797 L27.9010795,13.9330797 C27.2957995,13.7701197 26.9349595,13.4674797 26.8185595,13.0251597 C26.4344395,13.5489597 24.4439995,13.9330797 23.6757595,13.9330797 C22.9075196,13.9330797 20.7075596,13.7235597 20.1488396,13.0251597 C19.5901196,12.3267598 19.2409196,10.7204398 19.5901196,9.67283981 C19.9393196,8.62523983 20.9519996,8.10143984 21.9646796,7.75223985 C22.6397996,7.51943985 24.0831595,7.51943985 26.2947595,7.75223985 C26.4111595,6.96071987 26.0386795,6.46019988 25.1773195,6.25067988 C24.3159595,6.04115988 22.8376796,6.42527988 20.7424796,7.40303986 L19.5901196,5.44751989 C20.0324396,4.9353599 20.5911596,4.56287991 21.2662796,4.33007992 C22.2789596,3.98087992 23.4313195,3.77135993 24.5836795,3.77135993 Z M23.4313195,9.39347982 C22.4535596,9.60299981 22.0694396,10.2664798 22.0694396,10.9299598 C22.0694396,11.5934398 22.8725996,12.1521598 23.6757595,12.1521598 C24.4789195,12.1521598 25.3519195,11.8727998 25.7709595,11.5235998 C26.1899995,11.1743998 26.7487195,9.39347982 26.1899995,9.39347982 C25.6312795,9.39347982 24.4090795,9.18395982 23.4313195,9.39347982 Z" id="Combined-Shape" fill="#FFFFFF"></path>
                <path d="M29.5073994,3.77135993 L32.3359194,3.77135993 L34.8152393,10.1617198 L37.2945593,3.77135993 L40.0532392,3.77135993 C37.6088393,10.4294398 36.2469593,14.1193197 35.9675993,14.8409997 C35.5485593,15.9235197 34.7803193,17.5996797 33.5581194,17.5996797 C32.7433194,17.5996797 31.8237594,17.5996797 30.7994394,17.5996797 L30.7994394,15.2949597 C31.1719194,15.2949597 31.5793194,15.2949597 32.0216394,15.2949597 C32.6851194,15.2949597 33.3835194,14.6663997 33.3835194,13.9330797 C33.3835194,13.4441997 32.0914794,10.0569598 29.5073994,3.77135993 Z" id="Path-98" fill="#FFFFFF"></path>
                <path d="M40.5421192,3.77135993 L44.3483991,13.9404313 L47.1769191,13.9404313 L49.516559,8.03895142 L51.891119,13.9404313 L54.7545589,13.9404313 C57.0592789,7.81779143 58.3396789,4.43055149 58.5957589,3.77871151 C58.9798789,2.80095152 58.9100389,2.10255154 60.5861988,2.10255154 C61.7036388,2.10255154 68.0939987,2.10255154 79.7572785,2.10255154 C80.3858384,2.19567154 80.8630784,1.99779154 81.1889984,1.50891155 C81.6778784,0.775591564 82.2365984,0.00735157881 81.8175584,0.00735157881 C81.5381984,0.00735157881 74.0187586,0.00735157881 59.2592389,0.00735157881 C58.4909989,-0.0392084203 57.8042389,0.135391576 57.1989589,0.531151569 C56.5936789,0.926911561 56.2211989,1.52055155 56.0815189,2.31207153 L53.357759,10.1690714 L50.878439,3.77135993 L48.0149991,3.77135993 L45.7451991,10.1690714 L43.5452392,3.77135993 L40.5421192,3.77135993 Z" id="Path-99" fill="#FFFFFF"></path>
                <polygon id="Path-100" fill="#FFFFFF" points="59.2592389 3.77135993 62.1575988 3.77135993 62.1575988 13.9330797 59.2592389 13.9330797"></polygon>
                <path d="M62.9607588,3.77135993 L65.5099187,3.77135993 L65.5099187,5.0633999 C65.7659987,4.66763991 66.1501187,4.35335992 66.6622787,4.12055992 C67.4305187,3.77135993 68.7574787,3.77135993 69.6653987,3.77135993 C70.5733186,3.77135993 72.2494786,4.64435991 72.2494786,5.62211989 C72.2494786,6.27395988 72.2494786,9.04427983 72.2494786,13.9330797 L69.6653987,13.9330797 L69.6653987,7.89191985 C69.6421187,6.91415987 69.1997987,6.42527988 68.3384387,6.42527988 C67.0463987,6.42527988 65.7194387,6.94907987 65.7194387,7.89191985 C65.7194387,8.52047984 65.7194387,10.5341998 65.7194387,13.9330797 L62.9607588,13.9330797 L62.9607588,3.77135993 Z" id="Path-101" fill="#FFFFFF"></path>
                <path d="M78.8189784,14.1700261 C81.6250599,14.1700261 83.8998383,11.8248936 83.8998383,8.93202617 C83.8998383,6.03915871 81.6250599,3.69402627 78.8189784,3.69402627 C76.012897,3.69402627 73.7381185,6.03915871 73.7381185,8.93202617 C73.7381185,9.85895842 73.9716675,10.7296553 74.3814102,11.4849876 C74.7426618,12.15093 75.2408714,12.7271977 75.8367319,13.173268 C76.3491443,13.5496179 77.0232374,13.8419837 77.8590113,14.0503656 C77.9153307,13.8244807 78.3574381,12.0512847 79.1853335,8.73077758 L77.4573145,8.29993405 L76.7561378,11.1122003 C76.0217388,10.4972258 75.6374006,9.87356043 75.6031232,9.24120431 C75.5517072,8.29267013 76.0588551,6.69164301 77.4136177,6.16568661 C78.7683803,5.63973021 79.8188359,6.04559431 80.5728859,6.48552329 C81.326936,6.92545227 81.9034888,7.93293968 81.9801575,8.63584687 C82.0568263,9.33875405 81.8880502,10.3043662 81.4310432,10.8382241 C80.9740362,11.3720819 80.1443193,11.8130127 79.3990815,11.9151163 C79.2639149,12.4572399 79.0705472,13.2088765 78.8189784,14.1700261 Z" id="Oval" fill="#FFFFFF" transform="translate(78.818978, 8.932026) rotate(-104.000000) translate(-78.818978, -8.932026) "></path>
                <circle id="Oval" stroke="#FFFFFF" stroke-width="0.5" cx="84.0175184" cy="1.18727998" r="1.18727998"></circle>
                <path d="M84.0175184,1.78091997 C84.3453767,1.78091997 84.6111584,1.51513829 84.6111584,1.18727998 C84.6111584,0.859421665 84.3453767,0.593639989 84.0175184,0.593639989 C83.6896601,0.593639989 83.4238784,0.859421665 83.4238784,1.18727998" id="Oval" stroke="#FFFFFF" stroke-width="0.5" transform="translate(84.017518, 1.187280) rotate(-135.000000) translate(-84.017518, -1.187280) "></path>
            </g>
        </g>
    </g>
</svg>