<?xml version="1.0" encoding="UTF-8"?>
<svg width="88px" height="12px" viewBox="0 0 88 12" version="1.1" xmlns="http://www.w3.org/2000/svg" xmlns:xlink="http://www.w3.org/1999/xlink">
    <!-- Generator: Sketch 59.1 (86144) - https://sketch.com -->
    <title>srvr</title>
    <desc>Created with Sketch.</desc>
    <g id="HS_Website" stroke="none" stroke-width="1" fill="none" fill-rule="evenodd" opacity="0.699544271">
        <g id="[desktop]-Homepage" transform="translate(-392.000000, -633.000000)">
            <g id="srvr" transform="translate(392.000000, 633.000000)">
                <path d="M0,8.16713502 C0.976000017,8.77513503 1.77600003,9.18313504 2.40000004,9.39113504 C3.33600006,9.70313505 4.63200008,9.72713505 5.30400009,9.39113504 C5.9760001,9.05513504 5.8800001,8.04713502 5.06400009,7.78313502 C4.24800007,7.51913501 1.58400003,7.063135 0.792000014,6.12713499 C0,5.19113497 -0.168000003,3.24713494 0.312000005,2.43113492 C0.792000014,1.61513491 2.01600004,0.799134894 2.83200005,0.58313489 C3.64800006,0.367134887 5.7120001,0.247134885 6.69600012,0.415134888 C7.35200013,0.527134889 7.89600014,0.775134894 8.32800014,1.1591349 L8.32800014,3.70313494 C7.49600013,3.20713494 6.71200012,2.87113493 5.9760001,2.69513493 C4.87200008,2.43113492 4.17600007,2.52713492 3.50400006,2.98313493 C2.83200005,3.43913494 3.33600006,4.47113496 4.80000008,4.73513496 C6.26400011,4.99913497 7.70400013,5.35913497 8.32800014,6.12713499 C8.95200016,6.895135 9,8.55113503 8.78400015,9.39113504 C8.56800015,10.2311351 7.15200012,11.4551351 5.9760001,11.6711351 C4.80000008,11.8871351 3.02400005,11.9591351 2.01600004,11.6711351 C1.34400002,11.4791351 0.672000012,11.1991351 0,10.8311351 L0,8.16713502 Z" id="Path-61" fill="#FFFFFF"></path>
                <path d="M15.6240003,0.631134891 C16.7280003,0.631134891 18.0720003,1.78313491 18.3120003,2.43113492 C18.5520003,3.07913493 18.5280003,4.35113496 18.3120003,5.11913497 C18.1680003,5.63113498 17.5600003,6.24713499 16.4880003,6.967135 L16.4880003,6.967135 L20.1360004,11.8631351 L16.7280003,11.8631351 L13.3920002,7.54313501 L12.5280002,7.54313501 L12.5280002,11.8631351 L9.88800017,11.8631351 L9.88800017,0.631134891 L9.88800017,0.631134891 Z M14.0299206,2.86344147 L12.7440002,2.86313493 L12.7440002,2.86313493 L12.7440002,5.43113497 L13.7760002,5.43113497 C14.4480003,5.36713497 14.8640003,5.16713497 15.0240003,4.83113496 C15.2640003,4.32713496 15.2880003,3.67913494 15.0240003,3.27113494 C14.7840003,2.90022584 14.2663143,2.86650683 14.0299206,2.86344147 Z" id="Combined-Shape" fill="#FFFFFF"></path>
                <path d="M35.4480006,0.631134891 C36.5520006,0.631134891 37.8960007,1.78313491 38.1360007,2.43113492 C38.3760007,3.07913493 38.3520007,4.35113496 38.1360007,5.11913497 C37.9920007,5.63113498 37.3840006,6.24713499 36.3120006,6.967135 L36.3120006,6.967135 L39.9600007,11.8631351 L36.5520006,11.8631351 L33.2160006,7.54313501 L32.3520006,7.54313501 L32.3520006,11.8631351 L29.7120005,11.8631351 L29.7120005,0.631134891 L29.7120005,0.631134891 Z M33.8539209,2.86344147 L32.5680006,2.86313493 L32.5680006,2.86313493 L32.5680006,5.43113497 L33.6000006,5.43113497 C34.2720006,5.36713497 34.6880006,5.16713497 34.8480006,4.83113496 C35.0880006,4.32713496 35.1120006,3.67913494 34.8480006,3.27113494 C34.6080006,2.90022584 34.0903146,2.86650683 33.8539209,2.86344147 Z" id="Combined-Shape-Copy-4" fill="#FFFFFF"></path>
                <polygon id="Path-64" fill="#FFFFFF" points="18.7680003 0.631134891 21.9840004 0.631134891 24.0960004 7.159135 26.2560005 0.631134891 29.2800005 0.631134891 25.6800004 11.5751351 22.5600004 11.5751351"></polygon>
                <polyline id="Path-65" stroke="#FFFFFF" stroke-width="1.10400002" points="40.5360007 11.2151351 44.1360008 11.2151351 44.1360008 8.67113503"></polyline>
                <polyline id="Path-65-Copy" stroke="#FFFFFF" stroke-width="1.10400002" points="40.5360007 7.51913501 44.1360008 7.51913501 44.1360008 4.97513497"></polyline>
                <path d="M42.4920007,3.99113495 C43.3999569,3.99113495 44.1360008,3.25509107 44.1360008,2.34713492 C44.1360008,1.43917878 43.3999569,0.703134893 42.4920007,0.703134893 C41.5840446,0.703134893 40.8480007,1.43917878 40.8480007,2.34713492" id="Oval" stroke="#FFFFFF" stroke-width="1.10400002" transform="translate(42.492001, 2.347135) rotate(-225.000000) translate(-42.492001, -2.347135) "></path>
                <text id="the-world-is-calling" font-family="Lato-Medium, Lato" font-size="5.08800009" font-weight="400" letter-spacing="-0.12553663" fill="#FFFFFF">
                    <tspan x="48.1200008" y="8.00713493">the world is calling</tspan>
                </text>
            </g>
        </g>
    </g>
</svg>