<?xml version="1.0" encoding="UTF-8"?>
<svg width="61px" height="60px" viewBox="0 0 61 60" version="1.1" xmlns="http://www.w3.org/2000/svg" xmlns:xlink="http://www.w3.org/1999/xlink">
    <title>about2</title>
    <defs>
        <linearGradient x1="16.53625%" y1="4.56490742%" x2="52.7980511%" y2="83.7534347%" id="linearGradient-1-about3">
            <stop stop-color="#9BC8FE" offset="0%"></stop>
            <stop stop-color="#74ABFC" offset="100%"></stop>
        </linearGradient>
    </defs>
    <g id="All-Final" stroke="none" stroke-width="1" fill="none" fill-rule="evenodd">
        <g id="[desktop]-About-Us" transform="translate(-1104.000000, -4866.000000)">
            <g id="Group-31" transform="translate(885.000000, 4864.000000)">
                <g id="Group-26" transform="translate(151.000000, 0.000000)">
                    <g id="about2" transform="translate(68.000000, 0.000000)">
                        <path d="M4.89553626,61 L56.1871377,61 C57.843992,61 59.1871377,59.6568542 59.1871377,58 C59.1871377,57.5420125 59.082279,57.0901048 58.8805988,56.6789143 L33.7231526,5.38731281 C32.9935371,3.89975534 31.1961633,3.28532197 29.7086058,4.01493746 C29.1257676,4.30080728 28.6513824,4.7680203 28.3566673,5.34643617 L2.22251203,56.6380376 C1.47032099,58.1143082 2.05730339,59.9208332 3.53357391,60.6730242 C3.95540184,60.8879545 4.42210853,61 4.89553626,61 Z" id="Oval" stroke="#4A4A4A" stroke-width="2"></path>
                        <path d="M29.6108344,20.9415732 C31.0697174,20.1561903 32.8890544,20.70217 33.6744374,22.161053 L33.6744374,22.161053 L47.9912379,48.7551335 C48.2265303,49.1921994 48.3496965,49.6808191 48.3496965,50.1771951 C48.3496965,51.8340494 47.0065508,53.1771951 45.3496965,53.1771951 L45.3496965,53.1771951 L17.157424,53.1771951 C16.6741975,53.1771951 16.1981218,53.0604653 15.7697024,52.8369374 C14.3007673,52.0705199 13.7312643,50.2584086 14.4976817,48.7894736 L14.4976817,48.7894736 L28.3731537,22.195393 C28.6509294,21.6630012 29.0820858,21.2262226 29.6108344,20.9415732 Z M37.5966493,35.4765992 C37.0314376,34.8709366 36.0822564,34.8381447 35.4765938,35.4033564 L35.4765938,35.4033564 L27.9690001,42.4090056 L25.5664356,39.9800606 L25.4530771,39.8764699 C24.8665487,39.3927324 23.9973119,39.4223103 23.4451468,39.9684785 C22.8561708,40.5510579 22.8509853,41.5007912 23.4335647,42.0897672 L23.4335647,42.0897672 L26.8610234,45.5548589 L26.9720139,45.6564814 C27.5461064,46.1318425 28.3946949,46.1156797 28.9508652,45.5966548 L28.9508652,45.5966548 L37.5234065,37.5966548 L37.6302488,37.4863555 C38.1308322,36.9141373 38.1265353,36.0444079 37.5966493,35.4765992 Z" id="Combined-Shape" fill="url(#linearGradient-1-about3)"></path>
                    </g>
                </g>
            </g>
        </g>
    </g>
</svg>
