<?xml version="1.0" encoding="UTF-8"?>
<svg width="61px" height="61px" viewBox="0 0 61 61" version="1.1" xmlns="http://www.w3.org/2000/svg" xmlns:xlink="http://www.w3.org/1999/xlink">
    <title>about1</title>
    <defs>
        <linearGradient x1="16.53625%" y1="0%" x2="52.7980511%" y2="87.1446747%" id="linearGradient-1-about1">
            <stop stop-color="#9BC8FE" offset="0%"></stop>
            <stop stop-color="#74ABFC" offset="100%"></stop>
        </linearGradient>
        <linearGradient x1="16.53625%" y1="43.2132964%" x2="52.7980511%" y2="55.041798%" id="linearGradient-2-about2">
            <stop stop-color="#9BC8FE" offset="0%"></stop>
            <stop stop-color="#74ABFC" offset="100%"></stop>
        </linearGradient>
    </defs>
    <g id="All-Final" stroke="none" stroke-width="1" fill="none" fill-rule="evenodd">
        <g id="[desktop]-About-Us" transform="translate(-434.000000, -4864.000000)">
            <g id="Group-30" transform="translate(214.000000, 4864.000000)">
                <g id="Group-7" transform="translate(69.000000, 0.000000)">
                    <g id="about1" transform="translate(151.000000, 0.000000)">
                        <path d="M32.6213203,58.8786797 L58.8786797,32.6213203 C60.0502525,31.4497475 60.0502525,29.5502525 58.8786797,28.3786797 L32.6213203,2.12132034 C31.4497475,0.949747468 29.5502525,0.949747468 28.3786797,2.12132034 L2.12132034,28.3786797 C0.949747468,29.5502525 0.949747468,31.4497475 2.12132034,32.6213203 L28.3786797,58.8786797 C29.5502525,60.0502525 31.4497475,60.0502525 32.6213203,58.8786797 Z" id="Oval" stroke="#4A4A4A" stroke-width="2"></path>
                        <circle id="Oval" stroke="#4A4A4A" stroke-width="2" cx="30" cy="20.5" r="7.5"></circle>
                        <circle id="Oval" fill="url(#linearGradient-1-about1)" cx="29.9856662" cy="20.4902839" r="4"></circle>
                        <path d="M24.5,31 L36.5,31 C40.0898509,31 43,33.9101491 43,37.5 L43,41 C43,42.6568542 41.6568542,44 40,44 L21,44 C19.3431458,44 18,42.6568542 18,41 L18,37.5 C18,33.9101491 20.9101491,31 24.5,31 Z" id="Rectangle" stroke="#4A4A4A" stroke-width="2"></path>
                        <path d="M24.5,34 L36.5,34 C38.4329966,34 40,35.5670034 40,37.5 L40,40 C40,40.5522847 39.5522847,41 39,41 L22,41 C21.4477153,41 21,40.5522847 21,40 L21,37.5 C21,35.5670034 22.5670034,34 24.5,34 Z" id="Rectangle" fill="url(#linearGradient-2-about2)"></path>
                    </g>
                </g>
            </g>
        </g>
    </g>
</svg>
