<?xml version="1.0" encoding="UTF-8"?>
<svg width="61px" height="63px" viewBox="0 0 61 63" version="1.1" xmlns="http://www.w3.org/2000/svg" xmlns:xlink="http://www.w3.org/1999/xlink">
    <title>about4</title>
    <defs>
        <linearGradient x1="38.2486694%" y1="0%" x2="54.2783802%" y2="60.7659733%" id="linearGradient-1-about5">
            <stop stop-color="#9BC8FE" offset="0%"></stop>
            <stop stop-color="#74ABFC" offset="100%"></stop>
        </linearGradient>
    </defs>
    <g id="All-Final" stroke="none" stroke-width="1" fill="none" fill-rule="evenodd">
        <g id="[desktop]-About-Us" transform="translate(-1115.000000, -5152.000000)">
            <g id="Group-31-Copy" transform="translate(1115.000000, 5153.000000)">
                <g id="about4">
                    <path d="M32,0.866025404 L55.4137748,14.3839746 C56.341978,14.919873 56.9137748,15.910254 56.9137748,16.9820508 L56.9137748,44.0179492 C56.9137748,45.089746 56.341978,46.080127 55.4137748,46.6160254 L32,60.1339746 C31.0717968,60.669873 29.9282032,60.669873 29,60.1339746 L5.58622518,46.6160254 C4.65802195,46.080127 4.08622518,45.089746 4.08622518,44.0179492 L4.08622518,16.9820508 C4.08622518,15.910254 4.65802195,14.919873 5.58622518,14.3839746 L29,0.866025404 C29.9282032,0.330127019 31.0717968,0.330127019 32,0.866025404 Z" id="Polygon" stroke="#4A4A4A" stroke-width="2" stroke-linejoin="round"></path>
                    <path d="M34.0315194,49.2401056 C40.0105065,37.8385703 43,30.1569091 43,26.195122 C43,19.4599421 37.627417,14 31,14 C24.372583,14 19,19.4599421 19,26.195122 C19,30.1672825 22.2556,37.8788227 28.7668,49.3297425 L28.7668087,49.3297376 C29.5857825,50.7700257 31.4172761,51.2737004 32.8575642,50.4547265 C33.3571452,50.1706557 33.7646192,49.7490669 34.0315194,49.2401056 Z" id="Oval" stroke="#4A4A4A" stroke-width="2"></path>
                    <path d="M33.8931714,40.0800802 C37.2977238,33.3193096 39,28.7031853 39,26.2317073 C39,21.6854609 35.418278,18 31,18 C26.581722,18 23,21.6854609 23,26.2317073 C23,28.7140393 24.8603658,33.3598961 28.5810975,40.169278 L28.5810891,40.1692826 C29.3755531,41.6232464 31.1982639,42.1578765 32.6522277,41.3634125 C33.1865173,41.0714699 33.6193323,40.6238707 33.8931714,40.0800802 Z" id="Oval" fill="url(#linearGradient-1-about5)"></path>
                </g>
            </g>
        </g>
    </g>
</svg>
