<?xml version="1.0" encoding="UTF-8"?>
<svg width="33px" height="25px" viewBox="0 0 33 25" version="1.1" xmlns="http://www.w3.org/2000/svg" xmlns:xlink="http://www.w3.org/1999/xlink">
    <!-- Generator: Sketch 61.2 (89653) - https://sketch.com -->
    <title>About_Company</title>
    <desc>Created with Sketch.</desc>
    <g id="HS_Website" stroke="none" stroke-width="1" fill="none" fill-rule="evenodd">
        <g id="[mobile]-Menu_White" transform="translate(-174.000000, -165.000000)" fill="#555E6B" fill-rule="nonzero">
            <g id="About_Company" transform="translate(174.000000, 165.000000)">
                <path d="M28,0 C30.3195954,0 32.1999995,1.88040402 32.1999995,4.19999993 L32.1999995,20.3000001 C32.1999995,22.619596 30.3195954,24.5 28,24.5 L4.19999993,24.5 C1.88040402,24.5 0,22.619596 0,20.3000001 L0,4.19999993 C0,1.88040402 1.88040402,0 4.19999993,0 L28,0 Z M27.9999995,1.04999998 L4.19999993,1.04999998 C2.52029255,1.04999998 1.14765393,2.36471766 1.05498647,4.02125061 L1.04999998,4.19999993 L1.04999998,20.3000001 C1.04999998,21.9797075 2.36471766,23.3523461 4.02125061,23.4450135 L4.19999993,23.45 L27.9999995,23.45 C29.6797069,23.45 31.0523455,22.1352823 31.145013,20.4787494 L31.1499995,20.3000001 L31.1499995,4.19999993 C31.1499995,2.52029255 29.8352818,1.14765393 28.1787488,1.05498647 L27.9999995,1.04999998 Z" id="menu_shape"></path>
                <path d="M10.1248296,4.61744972 C12.725826,4.61744972 14.8343502,6.72597388 14.8343502,9.32697026 C14.8343502,11.195971 13.7354207,12.8648842 12.0616888,13.6209042 C11.7974457,13.740262 11.4864757,13.6228093 11.3671178,13.3585662 C11.24776,13.0943231 11.3652126,12.7833531 11.6294557,12.6639953 C12.9304584,12.0763361 13.7843502,10.7795548 13.7843502,9.32697026 C13.7843502,7.30587287 12.145927,5.66744972 10.1248296,5.66744972 C9.3879429,5.66744972 8.68484598,5.88512745 8.08683458,6.28693162 C7.84616496,6.44863766 7.51997504,6.38462504 7.358269,6.14395542 C7.19656296,5.9032858 7.26057559,5.57709588 7.5012452,5.41538984 C8.27106956,4.89814445 9.17771077,4.61744972 10.1248296,4.61744972 Z" id="menu_shape" transform="translate(11.051668, 9.142514) scale(-1, 1) translate(-11.051668, -9.142514) "></path>
                <path d="M4.0239482,12.6793452 L4.11780903,12.6922788 C7.95706908,13.5763475 10.7224918,17.0082065 10.7224918,21 C10.7224918,21.2577329 10.5367729,21.4720888 10.2918612,21.5165415 L10.1974918,21.525 L8.19749179,21.525 C7.9075423,21.525 7.67249179,21.2899495 7.67249179,21 C7.67249179,20.7422671 7.85821071,20.5279112 8.10312238,20.4834585 L8.19749179,20.475 L9.654,20.4744497 L9.63412116,20.2402638 C9.32102119,17.1549066 7.12138811,14.5728972 4.12672238,13.7761637 L3.88219097,13.7155012 C3.5996359,13.6504371 3.42332466,13.368636 3.48838879,13.0860809 C3.54622357,12.8349209 3.77530727,12.6677066 4.0239482,12.6793452 Z" id="menu_shape" transform="translate(7.098688, 17.101887) scale(-1, 1) translate(-7.098688, -17.101887) "></path>
                <path d="M20.0495222,4.65654051 C22.6505186,4.65654051 24.7590428,6.76506468 24.7590428,9.36606105 C24.7590428,11.2350618 23.6601133,12.903975 21.9863814,13.659995 C21.7221383,13.7793528 21.4111683,13.6619001 21.2918104,13.397657 C21.1724526,13.1334139 21.2899052,12.8224439 21.5541483,12.7030861 C22.855151,12.1154269 23.7090428,10.8186455 23.7090428,9.36606105 C23.7090428,7.34496367 22.0706196,5.70654051 20.0495222,5.70654051 C19.3126355,5.70654051 18.6095386,5.92421824 18.0115272,6.32602242 C17.7708576,6.48772846 17.4446676,6.42371583 17.2829616,6.18304621 C17.1212556,5.9423766 17.1852682,5.61618668 17.4259378,5.45448063 C18.1957622,4.93723525 19.1024034,4.65654051 20.0495222,4.65654051 Z" id="menu_shape"></path>
                <path d="M21.8546011,12.718436 L21.948462,12.7313695 C25.787722,13.6154383 28.5531447,17.0472973 28.5531447,21.0390908 C28.5531447,21.2968237 28.3674258,21.5111796 28.1225141,21.5556323 L28.0281447,21.5640908 L26.0281447,21.5640908 C25.7381952,21.5640908 25.5031447,21.3290403 25.5031447,21.0390908 C25.5031447,20.7813579 25.6888636,20.567002 25.9337753,20.5225492 L26.0281447,20.5140908 L27.4846529,20.5135405 L27.4647741,20.2793546 C27.1516741,17.1939973 24.952041,14.611988 21.9573753,13.8152545 L21.7128439,13.754592 C21.4302888,13.6895278 21.2539776,13.4077268 21.3190417,13.1251717 C21.3768765,12.8740117 21.6059602,12.7067973 21.8546011,12.718436 Z" id="menu_shape"></path>
                <path d="M16,7.475 C18.4990885,7.475 20.525,9.50091151 20.525,12 C20.525,13.609107 19.685101,15.022045 18.4197865,15.8243309 C21.7773306,16.8164379 24.2783082,19.8226006 24.5079694,23.4616491 L24.5211319,23.7428009 L24.5330819,24.525 L7.475,24.525 L7.475,24 C7.475,20.1325792 10.0502788,16.8666471 13.5795304,15.8235094 C12.3144553,15.0212986 11.475,13.608682 11.475,12 C11.475,9.50091151 13.5009115,7.475 16,7.475 Z M16,16.525 C12.1989814,16.525 9.0605877,19.3620342 8.58683254,23.0340889 L8.55921845,23.2801076 L8.543,23.475 L23.455,23.475 L23.4406006,23.2777586 C23.0926582,19.6442202 20.1467307,16.7809142 16.4964538,16.5412475 L16.2465021,16.5289939 L16,16.525 Z M16,8.525 C14.0808105,8.525 12.525,10.0808105 12.525,12 C12.525,13.9191895 14.0808105,15.475 16,15.475 C17.9191895,15.475 19.475,13.9191895 19.475,12 C19.475,10.0808105 17.9191895,8.525 16,8.525 Z" id="menu_shape"></path>
            </g>
        </g>
    </g>
</svg>
