<?xml version="1.0" encoding="UTF-8"?>
<svg width="33px" height="25px" viewBox="0 0 33 25" version="1.1" xmlns="http://www.w3.org/2000/svg" xmlns:xlink="http://www.w3.org/1999/xlink">
    <!-- Generator: Sketch 61.2 (89653) - https://sketch.com -->
    <title>Testimonials</title>
    <desc>Created with Sketch.</desc>
    <g id="HS_Website" stroke="none" stroke-width="1" fill="none" fill-rule="evenodd">
        <g id="[mobile]-Menu_White" transform="translate(-234.000000, -166.000000)" fill="#555E6B" fill-rule="nonzero">
            <g id="Testimonials" transform="translate(234.000000, 166.000000)">
                <path d="M24.5570761,21 C24.3207883,20.5 24.1593273,19.9786211 24.0726885,19.4358553 C23.9860496,18.8930894 23.9768608,18.3569105 24.0451217,17.8273026 C24.1133826,17.2976947 24.2564659,16.7911208 24.4743758,16.3075658 C24.6922857,15.8240107 24.9823903,15.3881598 25.3446983,15 L25.8724052,15.4046053 C25.9669203,15.476974 26.0089264,15.5690784 25.9984247,15.6809211 C25.987923,15.7927637 25.9564185,15.8848681 25.9039101,15.9572368 C25.7831407,16.1414483 25.6728747,16.3749986 25.5731087,16.6578947 C25.4733428,16.9407909 25.4063956,17.2532878 25.3722651,17.5953947 C25.3381346,17.9375017 25.3473235,18.2960508 25.3998319,18.6710526 C25.4523403,19.0460545 25.5652317,19.4144719 25.7385094,19.7763158 C25.8225229,19.9407903 25.847464,20.0871704 25.8133335,20.2154605 C25.779203,20.3437506 25.7017543,20.4342103 25.580985,20.4868421 L24.5570761,21 Z" id="menu_shape" transform="translate(25.000000, 18.000000) rotate(-180.000000) translate(-25.000000, -18.000000) "></path>
                <path d="M20.5570761,21 C20.3207883,20.5 20.1593273,19.9786211 20.0726885,19.4358553 C19.9860496,18.8930894 19.9768608,18.3569105 20.0451217,17.8273026 C20.1133826,17.2976947 20.2564659,16.7911208 20.4743758,16.3075658 C20.6922857,15.8240107 20.9823903,15.3881598 21.3446983,15 L21.8724052,15.4046053 C21.9669203,15.476974 22.0089264,15.5690784 21.9984247,15.6809211 C21.987923,15.7927637 21.9564185,15.8848681 21.9039101,15.9572368 C21.7831407,16.1414483 21.6728747,16.3749986 21.5731087,16.6578947 C21.4733428,16.9407909 21.4063956,17.2532878 21.3722651,17.5953947 C21.3381346,17.9375017 21.3473235,18.2960508 21.3998319,18.6710526 C21.4523403,19.0460545 21.5652317,19.4144719 21.7385094,19.7763158 C21.8225229,19.9407903 21.847464,20.0871704 21.8133335,20.2154605 C21.779203,20.3437506 21.7017543,20.4342103 21.580985,20.4868421 L20.5570761,21 Z" id="menu_shape" transform="translate(21.000000, 18.000000) rotate(-180.000000) translate(-21.000000, -18.000000) "></path>
                <path d="M28,0 C30.3195954,0 32.1999995,1.88040402 32.1999995,4.19999993 L32.1999995,20.3000001 C32.1999995,22.619596 30.3195954,24.5 28,24.5 L4.19999993,24.5 C1.88040402,24.5 0,22.619596 0,20.3000001 L0,4.19999993 C0,1.88040402 1.88040402,0 4.19999993,0 L28,0 Z M27.9999995,1.04999998 L4.19999993,1.04999998 C2.52029255,1.04999998 1.14765393,2.36471766 1.05498647,4.02125061 L1.04999998,4.19999993 L1.04999998,20.3000001 C1.04999998,21.9797075 2.36471766,23.3523461 4.02125061,23.4450135 L4.19999993,23.45 L27.9999995,23.45 C29.6797069,23.45 31.0523455,22.1352823 31.145013,20.4787494 L31.1499995,20.3000001 L31.1499995,4.19999993 C31.1499995,2.52029255 29.8352818,1.14765393 28.1787488,1.05498647 L27.9999995,1.04999998 Z" id="menu_shape"></path>
                <path d="M26,5.475 C26.2899495,5.475 26.525,5.71005051 26.525,6 C26.525,6.25773288 26.3392811,6.47208879 26.0943694,6.51654155 L26,6.525 L7,6.525 C6.71005051,6.525 6.475,6.28994949 6.475,6 C6.475,5.74226712 6.66071892,5.52791121 6.90563059,5.48345845 L7,5.475 L26,5.475 Z" id="menu_shape"></path>
                <path d="M26,10.475 C26.2899495,10.475 26.525,10.7100505 26.525,11 C26.525,11.2577329 26.3392811,11.4720888 26.0943694,11.5165415 L26,11.525 L7,11.525 C6.71005051,11.525 6.475,11.2899495 6.475,11 C6.475,10.7422671 6.66071892,10.5279112 6.90563059,10.4834585 L7,10.475 L26,10.475 Z" id="menu_shape"></path>
                <path d="M17,15.475 C17.2899495,15.475 17.525,15.7100505 17.525,16 C17.525,16.2577329 17.3392811,16.4720888 17.0943694,16.5165415 L17,16.525 L7,16.525 C6.71005051,16.525 6.475,16.2899495 6.475,16 C6.475,15.7422671 6.66071892,15.5279112 6.90563059,15.4834585 L7,15.475 L17,15.475 Z" id="menu_shape"></path>
            </g>
        </g>
    </g>
</svg>
