<svg width="65" height="64" viewBox="0 0 65 64" fill="none" xmlns="http://www.w3.org/2000/svg">
<path d="M0.333496 16C0.333496 7.16344 7.49694 0 16.3335 0H48.3335C57.1701 0 64.3335 7.16344 64.3335 16V48C64.3335 56.8366 57.1701 64 48.3335 64H16.3335C7.49694 64 0.333496 56.8366 0.333496 48V16Z" fill="#D4D6DE"/>
<path d="M31.2417 18.9506C31.5752 18.7641 31.9509 18.6661 32.333 18.6661C32.7151 18.6661 33.0908 18.7641 33.4243 18.9506L43.3963 24.5839C43.7088 24.7618 43.969 25.0186 44.1511 25.3286C44.3331 25.6386 44.4306 25.991 44.4337 26.3506V37.6506C44.4275 38.0239 44.3208 38.3887 44.1246 38.7065C43.9284 39.0242 43.6501 39.2831 43.319 39.4559L33.383 45.0612C33.0432 45.249 32.6594 45.3424 32.2713 45.3316C31.8832 45.3208 31.5051 45.2063 31.1763 44.9999L28.195 43.2772C27.9768 43.1797 27.7807 43.0386 27.619 42.8626C27.7457 42.6919 27.9723 42.6706 28.1563 42.5959C28.565 42.4499 28.9592 42.266 29.3337 42.0466C29.3808 42.0187 29.4352 42.0057 29.4898 42.009C29.5445 42.0123 29.5969 42.0319 29.6403 42.0652C30.4883 42.5519 31.3297 43.0532 32.183 43.5359C32.3643 43.6412 32.5483 43.5012 32.703 43.4159C35.9546 41.5777 39.2066 39.7421 42.459 37.9092C42.517 37.8803 42.565 37.8345 42.5966 37.7779C42.6282 37.7213 42.6421 37.6565 42.6363 37.5919C42.639 33.8648 42.6394 30.1372 42.6377 26.4092C42.6435 26.3368 42.6266 26.2643 42.5893 26.202C42.552 26.1396 42.4962 26.0904 42.4297 26.0612C39.1283 24.2017 35.8279 22.3412 32.5283 20.4799C32.471 20.4406 32.4032 20.4195 32.3337 20.4195C32.2642 20.4195 32.1963 20.4406 32.139 20.4799C28.8386 22.3394 25.539 24.2003 22.2403 26.0626C22.1734 26.0909 22.1171 26.1397 22.0795 26.202C22.0419 26.2642 22.0249 26.3368 22.031 26.4092V37.5919C22.0254 37.6563 22.0396 37.7208 22.0718 37.7768C22.104 37.8328 22.1526 37.8777 22.211 37.9052C23.091 38.4048 23.9723 38.9026 24.855 39.3986C25.0995 39.5497 25.3731 39.6475 25.658 39.6857C25.9429 39.7238 26.2327 39.7014 26.5083 39.6199C26.7476 39.5299 26.9536 39.3688 27.0987 39.1584C27.2439 38.948 27.3212 38.6982 27.3203 38.4426C27.3243 34.7359 27.3177 31.0292 27.323 27.3252C27.3221 27.2859 27.3295 27.2468 27.3447 27.2105C27.3599 27.1743 27.3826 27.1416 27.4113 27.1147C27.44 27.0878 27.474 27.0672 27.5112 27.0543C27.5483 27.0414 27.5878 27.0365 27.627 27.0399C28.051 27.0372 28.4737 27.0346 28.8977 27.0412C28.9388 27.0432 28.9791 27.0537 29.016 27.0723C29.0528 27.0909 29.0852 27.117 29.1113 27.1489C29.1373 27.1809 29.1563 27.218 29.1671 27.2578C29.1778 27.2976 29.1801 27.3392 29.1737 27.3799C29.1723 31.1092 29.1777 34.8386 29.171 38.5666C29.1994 39.0733 29.0913 39.5785 28.858 40.0292C28.6246 40.48 28.2746 40.8599 27.8443 41.1292C27.2698 41.3969 26.6408 41.5272 26.0072 41.5099C25.3736 41.4925 24.7527 41.3279 24.1937 41.0292C23.2243 40.5452 22.3003 39.9759 21.3497 39.4559C21.0186 39.2833 20.7403 39.0244 20.5443 38.7066C20.3483 38.3888 20.2419 38.0239 20.2363 37.6506V26.3506C20.2392 25.9838 20.3401 25.6245 20.5286 25.3098C20.7171 24.9952 20.9863 24.7367 21.3083 24.5612C24.6203 22.6919 27.9319 20.8217 31.243 18.9506H31.2417Z" fill="#21232B"/>
<path d="M34.1307 26.7774C35.5943 26.5883 37.0816 26.8162 38.4214 27.4347C38.9069 27.7244 39.3084 28.1358 39.586 28.6283C39.8636 29.1209 40.0077 29.6774 40.0041 30.2427C39.9853 30.3134 39.9417 30.375 39.8812 30.4162C39.8207 30.4573 39.7474 30.4753 39.6747 30.4667C39.2547 30.4667 38.8361 30.4721 38.4174 30.4641C38.3366 30.4591 38.2605 30.424 38.2043 30.3658C38.148 30.3075 38.1156 30.2303 38.1134 30.1494C38.0658 29.8757 37.9592 29.6156 37.8011 29.3872C37.6429 29.1588 37.4369 28.9675 37.1974 28.8267C36.4003 28.5099 35.5394 28.3866 34.6854 28.4667C34.056 28.4471 33.4334 28.6022 32.8867 28.9147C32.6985 29.0608 32.5607 29.2621 32.4928 29.4905C32.4248 29.7189 32.4302 29.9629 32.5081 30.1881C32.6427 30.5081 33.0121 30.6107 33.3147 30.7054C35.0561 31.1614 36.9014 31.1161 38.6081 31.7147C38.9747 31.8168 39.3132 32.0014 39.5974 32.2545C39.8817 32.5075 40.1043 32.8223 40.2481 33.1747C40.4192 33.6745 40.4605 34.2095 40.3681 34.7296C40.2758 35.2497 40.0528 35.7378 39.7201 36.1481C39.1181 36.7734 38.336 37.1953 37.4827 37.3547C36.3716 37.5805 35.2317 37.6291 34.1054 37.4987C33.0244 37.4367 31.9881 37.0464 31.1347 36.3801C30.7967 36.0695 30.5314 35.688 30.3578 35.263C30.1843 34.838 30.1067 34.3799 30.1307 33.9214C30.1391 33.8478 30.1762 33.7806 30.2338 33.7341C30.2915 33.6877 30.3651 33.6659 30.4387 33.6734C30.8614 33.6694 31.2827 33.6681 31.7054 33.6734C31.7445 33.6727 31.7833 33.6797 31.8197 33.6941C31.8561 33.7085 31.8892 33.73 31.9172 33.7572C31.9452 33.7845 31.9676 33.8171 31.9829 33.853C31.9983 33.889 32.0064 33.9276 32.0067 33.9667C32.0275 34.2281 32.1017 34.4825 32.2246 34.7141C32.3475 34.9457 32.5166 35.1497 32.7214 35.3134C33.6251 35.7581 34.635 35.9419 35.6374 35.8441C36.4767 35.9081 37.3145 35.7031 38.0294 35.2587C38.1941 35.0981 38.314 34.8972 38.3772 34.6759C38.4403 34.4547 38.4445 34.2208 38.3894 33.9974C38.2854 33.6241 37.8961 33.4507 37.5614 33.3374C35.8414 32.7934 33.9774 32.9907 32.2747 32.3774C31.9177 32.2726 31.5876 32.0916 31.3072 31.847C31.0268 31.6023 30.8029 31.2997 30.6507 30.9601C30.4552 30.4536 30.4058 29.9024 30.5081 29.3692C30.6104 28.836 30.8603 28.3422 31.2294 27.9441C32.0339 27.2336 33.0584 26.8217 34.1307 26.7774Z" fill="#21232B"/>
</svg>
