<svg width="64" height="64" viewBox="0 0 64 64" fill="none" xmlns="http://www.w3.org/2000/svg">
<path d="M0 16C0 7.16344 7.16344 0 16 0H48C56.8366 0 64 7.16344 64 16V48C64 56.8366 56.8366 64 48 64H16C7.16344 64 0 56.8366 0 48V16Z" fill="#D4D6DE"/>
<path opacity="0.25" d="M36 18.6666C33.8178 18.6677 31.705 19.4336 30.029 20.8312C28.353 22.2287 27.2199 24.1695 26.8267 26.316C28.3439 25.4863 30.0892 25.1706 31.801 25.4162C33.5128 25.6618 35.0989 26.4554 36.3217 27.6782C37.5445 28.901 38.3382 30.4872 38.5838 32.1989C38.8294 33.9107 38.5137 35.656 37.684 37.1733C39.9752 36.7546 42.0268 35.494 43.4357 33.6393C44.8446 31.7847 45.5088 29.4701 45.2978 27.1505C45.0867 24.831 44.0156 22.6743 42.2951 21.1044C40.5746 19.5345 38.3291 18.6649 36 18.6666Z" fill="#21232B"/>
<path d="M25.3334 45.3333C29.0153 45.3333 32.0001 42.3486 32.0001 38.6667C32.0001 34.9848 29.0153 32 25.3334 32C21.6515 32 18.6667 34.9848 18.6667 38.6667C18.6667 42.3486 21.6515 45.3333 25.3334 45.3333Z" fill="#21232B"/>
<path opacity="0.5" d="M30.6668 25.3334C28.6823 25.3335 26.7687 26.0713 25.2977 27.4033C23.8267 28.7354 22.9033 30.5666 22.7068 32.5414C23.9312 32.0152 25.2853 31.8683 26.5941 32.1196C27.903 32.371 29.1063 33.0091 30.0487 33.9515C30.991 34.8939 31.6292 36.0972 31.8805 37.406C32.1319 38.7148 31.985 40.0689 31.4588 41.2934C33.5004 41.0884 35.3852 40.1069 36.7236 38.5516C38.062 36.9963 38.7517 34.9862 38.65 32.9369C38.5483 30.8875 37.663 28.9556 36.1772 27.5404C34.6914 26.1253 32.7187 25.3352 30.6668 25.3334Z" fill="#21232B"/>
</svg>
