<svg width="64" height="64" viewBox="0 0 64 64" fill="none" xmlns="http://www.w3.org/2000/svg">
<path d="M0 16C0 7.16344 7.16344 0 16 0H48C56.8366 0 64 7.16344 64 16V48C64 56.8366 56.8366 64 48 64H16C7.16344 64 0 56.8366 0 48V16Z" fill="url(#paint0_linear)"/>
<g opacity="0.5">
<path d="M41.3334 24H22.6667C21.6059 24 20.5885 24.4214 19.8383 25.1716C19.0882 25.9217 18.6667 26.9391 18.6667 28V31.6267L27.7827 34.6667H36.2174L45.3334 31.6267V28C45.3334 26.9391 44.912 25.9217 44.1618 25.1716C43.4117 24.4214 42.3943 24 41.3334 24Z" fill="#110026"/>
<path d="M41.3334 24H22.6667C21.6059 24 20.5885 24.4214 19.8383 25.1716C19.0882 25.9217 18.6667 26.9391 18.6667 28V31.6267L27.7827 34.6667H36.2174L45.3334 31.6267V28C45.3334 26.9391 44.912 25.9217 44.1618 25.1716C43.4117 24.4214 42.3943 24 41.3334 24Z" fill="url(#paint1_radial)" style="mix-blend-mode:overlay"/>
</g>
<path d="M29.3334 24V22.6667H34.6667V24H37.3334V22.6667C37.3327 21.9596 37.0515 21.2818 36.5516 20.7818C36.0516 20.2819 35.3738 20.0007 34.6667 20H29.3334C28.6264 20.0007 27.9485 20.2819 27.4486 20.7818C26.9486 21.2818 26.6675 21.9596 26.6667 22.6667V24H29.3334ZM27.7827 34.6667L18.6667 31.6267V40C18.6678 41.0605 19.0896 42.0773 19.8395 42.8273C20.5894 43.5772 21.6062 43.9989 22.6667 44H41.3334C42.394 43.9989 43.4108 43.5772 44.1607 42.8273C44.9106 42.0773 45.3324 41.0605 45.3334 40V31.6267L36.2174 34.6667H27.7827Z" fill="#110026"/>
<path d="M29.3334 24V22.6667H34.6667V24H37.3334V22.6667C37.3327 21.9596 37.0515 21.2818 36.5516 20.7818C36.0516 20.2819 35.3738 20.0007 34.6667 20H29.3334C28.6264 20.0007 27.9485 20.2819 27.4486 20.7818C26.9486 21.2818 26.6675 21.9596 26.6667 22.6667V24H29.3334ZM27.7827 34.6667L18.6667 31.6267V40C18.6678 41.0605 19.0896 42.0773 19.8395 42.8273C20.5894 43.5772 21.6062 43.9989 22.6667 44H41.3334C42.394 43.9989 43.4108 43.5772 44.1607 42.8273C44.9106 42.0773 45.3324 41.0605 45.3334 40V31.6267L36.2174 34.6667H27.7827Z" fill="url(#paint2_radial)" style="mix-blend-mode:overlay"/>
<defs>
<linearGradient id="paint0_linear" x1="-17.3031" y1="11.6038" x2="5.90446" y2="67.3764" gradientUnits="userSpaceOnUse">
<stop class="changeOnHover" stop-color="#D4D6DE"/>
<stop offset="1" class="changeOnHoverEnd" stop-color="#D4D6DE"/>
</linearGradient>
<radialGradient id="paint1_radial" cx="0" cy="0" r="1" gradientUnits="userSpaceOnUse" gradientTransform="translate(28.3612 26.642) rotate(31.8404) scale(15.4826 24.8981)">
<stop stop-color="white"/>
<stop offset="1" stop-color="white" stop-opacity="0"/>
</radialGradient>
<radialGradient id="paint2_radial" cx="0" cy="0" r="1" gradientUnits="userSpaceOnUse" gradientTransform="translate(28.3612 25.9444) rotate(54.4091) scale(22.5995 38.379)">
<stop stop-color="white"/>
<stop offset="1" stop-color="white" stop-opacity="0"/>
</radialGradient>
</defs>
</svg>
