<svg width="65" height="64" viewBox="0 0 65 64" fill="none" xmlns="http://www.w3.org/2000/svg">
<path d="M0.666748 16C0.666748 7.16344 7.83019 0 16.6667 0H48.6667C57.5033 0 64.6667 7.16344 64.6667 16V48C64.6667 56.8366 57.5033 64 48.6667 64H16.6667C7.83019 64 0.666748 56.8366 0.666748 48V16Z" fill="#D4D6DE"/>
<path d="M44.6668 29.3333C43.8668 29.3333 43.3335 28.8 43.3335 28V21.3333H36.6668C35.8668 21.3333 35.3335 20.8 35.3335 20C35.3335 19.2 35.8668 18.6666 36.6668 18.6666H44.6668C45.4668 18.6666 46.0002 19.2 46.0002 20V28C46.0002 28.8 45.4668 29.3333 44.6668 29.3333ZM20.6668 29.3333C19.8668 29.3333 19.3335 28.8 19.3335 28V20C19.3335 19.2 19.8668 18.6666 20.6668 18.6666H28.6668C29.4668 18.6666 30.0002 19.2 30.0002 20C30.0002 20.8 29.4668 21.3333 28.6668 21.3333H22.0002V28C22.0002 28.8 21.4668 29.3333 20.6668 29.3333ZM28.6668 45.3333H20.6668C19.8668 45.3333 19.3335 44.8 19.3335 44V36C19.3335 35.2 19.8668 34.6666 20.6668 34.6666C21.4668 34.6666 22.0002 35.2 22.0002 36V42.6666H28.6668C29.4668 42.6666 30.0002 43.2 30.0002 44C30.0002 44.8 29.4668 45.3333 28.6668 45.3333ZM44.6668 45.3333H36.6668C35.8668 45.3333 35.3335 44.8 35.3335 44C35.3335 43.2 35.8668 42.6666 36.6668 42.6666H43.3335V36C43.3335 35.2 43.8668 34.6666 44.6668 34.6666C45.4668 34.6666 46.0002 35.2 46.0002 36V44C46.0002 44.8 45.4668 45.3333 44.6668 45.3333Z" fill="#373B48"/>
<path opacity="0.5" d="M28.6667 29.3333H36.6667C38.1333 29.3333 39.3333 30.5333 39.3333 32V37.3333C39.3333 38.8 38.1333 40 36.6667 40H28.6667C27.2 40 26 38.8 26 37.3333V32C26 30.5333 27.2 29.3333 28.6667 29.3333ZM31.3333 28C31.3333 27.2 31.8667 26.6667 32.6667 26.6667C33.4667 26.6667 34 27.2 34 28V29.3333H36.6667V28C36.6667 25.7333 34.9333 24 32.6667 24C30.4 24 28.6667 25.7333 28.6667 28V29.3333H31.3333V28Z" fill="#373B48"/>
</svg>
