<svg width="65" height="64" viewBox="0 0 65 64" fill="none" xmlns="http://www.w3.org/2000/svg">
<path d="M0.333496 16C0.333496 7.16344 7.49694 0 16.3335 0H48.3335C57.1701 0 64.3335 7.16344 64.3335 16V48C64.3335 56.8366 57.1701 64 48.3335 64H16.3335C7.49694 64 0.333496 56.8366 0.333496 48V16Z" fill="#D4D6DE"/>
<path opacity="0.25" d="M24.3337 46.6667H19.0003C18.6467 46.6667 18.3076 46.5262 18.0575 46.2762C17.8075 46.0261 17.667 45.687 17.667 45.3334V34.6667C17.667 34.3131 17.8075 33.9739 18.0575 33.7239C18.3076 33.4739 18.6467 33.3334 19.0003 33.3334H24.3337C24.6873 33.3334 25.0264 33.4739 25.2765 33.7239C25.5265 33.9739 25.667 34.3131 25.667 34.6667V45.3334C25.667 45.687 25.5265 46.0261 25.2765 46.2762C25.0264 46.5262 24.6873 46.6667 24.3337 46.6667Z" fill="#373B48"/>
<path d="M35.0002 46.6667H29.6668C29.3132 46.6667 28.9741 46.5262 28.724 46.2762C28.474 46.0261 28.3335 45.687 28.3335 45.3334V18.6667C28.3335 18.3131 28.474 17.9739 28.724 17.7239C28.9741 17.4738 29.3132 17.3334 29.6668 17.3334H35.0002C35.3538 17.3334 35.6929 17.4738 35.943 17.7239C36.193 17.9739 36.3335 18.3131 36.3335 18.6667V45.3334C36.3335 45.687 36.193 46.0261 35.943 46.2762C35.6929 46.5262 35.3538 46.6667 35.0002 46.6667Z" fill="#373B48"/>
<path opacity="0.5" d="M45.6667 46.6667H40.3333C39.9797 46.6667 39.6406 46.5262 39.3905 46.2761C39.1405 46.0261 39 45.687 39 45.3333V29.3333C39 28.9797 39.1405 28.6406 39.3905 28.3905C39.6406 28.1405 39.9797 28 40.3333 28H45.6667C46.0203 28 46.3594 28.1405 46.6095 28.3905C46.8595 28.6406 47 28.9797 47 29.3333V45.3333C47 45.687 46.8595 46.0261 46.6095 46.2761C46.3594 46.5262 46.0203 46.6667 45.6667 46.6667Z" fill="#373B48"/>
</svg>
