<svg width="33" height="32" viewBox="0 0 33 32" fill="none" xmlns="http://www.w3.org/2000/svg">
<path d="M28.6663 13.3333C27.8663 13.3333 27.333 12.8 27.333 12V5.33329H20.6663C19.8663 5.33329 19.333 4.79996 19.333 3.99996C19.333 3.19996 19.8663 2.66663 20.6663 2.66663H28.6663C29.4663 2.66663 29.9997 3.19996 29.9997 3.99996V12C29.9997 12.8 29.4663 13.3333 28.6663 13.3333ZM4.66634 13.3333C3.86634 13.3333 3.33301 12.8 3.33301 12V3.99996C3.33301 3.19996 3.86634 2.66663 4.66634 2.66663H12.6663C13.4663 2.66663 13.9997 3.19996 13.9997 3.99996C13.9997 4.79996 13.4663 5.33329 12.6663 5.33329H5.99967V12C5.99967 12.8 5.46634 13.3333 4.66634 13.3333ZM12.6663 29.3333H4.66634C3.86634 29.3333 3.33301 28.8 3.33301 28V20C3.33301 19.2 3.86634 18.6666 4.66634 18.6666C5.46634 18.6666 5.99967 19.2 5.99967 20V26.6666H12.6663C13.4663 26.6666 13.9997 27.2 13.9997 28C13.9997 28.8 13.4663 29.3333 12.6663 29.3333ZM28.6663 29.3333H20.6663C19.8663 29.3333 19.333 28.8 19.333 28C19.333 27.2 19.8663 26.6666 20.6663 26.6666H27.333V20C27.333 19.2 27.8663 18.6666 28.6663 18.6666C29.4663 18.6666 29.9997 19.2 29.9997 20V28C29.9997 28.8 29.4663 29.3333 28.6663 29.3333Z" fill="#4D5265"/>
<path opacity="0.5" d="M12.6667 13.3333H20.6667C22.1333 13.3333 23.3333 14.5333 23.3333 16V21.3333C23.3333 22.8 22.1333 24 20.6667 24H12.6667C11.2 24 10 22.8 10 21.3333V16C10 14.5333 11.2 13.3333 12.6667 13.3333ZM15.3333 12C15.3333 11.2 15.8667 10.6667 16.6667 10.6667C17.4667 10.6667 18 11.2 18 12V13.3333H20.6667V12C20.6667 9.73333 18.9333 8 16.6667 8C14.4 8 12.6667 9.73333 12.6667 12V13.3333H15.3333V12Z" fill="#4D5265"/>
</svg>
