<svg width="33" height="32" viewBox="0 0 33 32" fill="none" xmlns="http://www.w3.org/2000/svg">
<path opacity="0.25" d="M8.33268 30.6667H2.99935C2.64573 30.6667 2.30659 30.5262 2.05654 30.2762C1.80649 30.0261 1.66602 29.687 1.66602 29.3334V18.6667C1.66602 18.3131 1.80649 17.9739 2.05654 17.7239C2.30659 17.4739 2.64573 17.3334 2.99935 17.3334H8.33268C8.6863 17.3334 9.02544 17.4739 9.27549 17.7239C9.52554 17.9739 9.66602 18.3131 9.66602 18.6667V29.3334C9.66602 29.687 9.52554 30.0261 9.27549 30.2762C9.02544 30.5262 8.6863 30.6667 8.33268 30.6667Z" fill="#4D5265"/>
<path d="M18.9997 30.6667H13.6663C13.3127 30.6667 12.9736 30.5262 12.7235 30.2762C12.4735 30.0261 12.333 29.687 12.333 29.3334V2.66671C12.333 2.31309 12.4735 1.97395 12.7235 1.7239C12.9736 1.47385 13.3127 1.33337 13.6663 1.33337H18.9997C19.3533 1.33337 19.6924 1.47385 19.9425 1.7239C20.1925 1.97395 20.333 2.31309 20.333 2.66671V29.3334C20.333 29.687 20.1925 30.0261 19.9425 30.2762C19.6924 30.5262 19.3533 30.6667 18.9997 30.6667Z" fill="#4D5265"/>
<path opacity="0.5" d="M29.6667 30.6667H24.3333C23.9797 30.6667 23.6406 30.5262 23.3905 30.2761C23.1405 30.0261 23 29.687 23 29.3333V13.3333C23 12.9797 23.1405 12.6406 23.3905 12.3905C23.6406 12.1405 23.9797 12 24.3333 12H29.6667C30.0203 12 30.3594 12.1405 30.6095 12.3905C30.8595 12.6406 31 12.9797 31 13.3333V29.3333C31 29.687 30.8595 30.0261 30.6095 30.2761C30.3594 30.5262 30.0203 30.6667 29.6667 30.6667Z" fill="#4D5265"/>
</svg>
