<svg width="33" height="32" viewBox="0 0 33 32" fill="none" xmlns="http://www.w3.org/2000/svg">
<path d="M15.2407 2.95055C15.5742 2.76406 15.9499 2.66614 16.332 2.66614C16.7141 2.66614 17.0899 2.76406 17.4234 2.95055L27.3954 8.58389C27.7078 8.76177 27.968 9.01857 28.1501 9.3286C28.3321 9.63864 28.4296 9.99104 28.4327 10.3506V21.6506C28.4266 22.0239 28.3198 22.3887 28.1236 22.7065C27.9274 23.0242 27.6491 23.2831 27.318 23.4559L17.382 29.0612C17.0422 29.249 16.6584 29.3424 16.2703 29.3316C15.8823 29.3208 15.5042 29.2063 15.1754 28.9999L12.194 27.2772C11.9758 27.1797 11.7798 27.0386 11.618 26.8626C11.7447 26.6919 11.9714 26.6706 12.1554 26.5959C12.5641 26.4499 12.9582 26.266 13.3327 26.0466C13.3798 26.0187 13.4342 26.0057 13.4889 26.009C13.5435 26.0123 13.5959 26.0319 13.6394 26.0652C14.4874 26.5519 15.3287 27.0532 16.182 27.5359C16.3634 27.6412 16.5474 27.5012 16.702 27.4159C19.9536 25.5777 23.2056 23.7421 26.458 21.9092C26.516 21.8803 26.564 21.8345 26.5956 21.7779C26.6273 21.7213 26.6411 21.6565 26.6354 21.5919C26.638 17.8648 26.6385 14.1372 26.6367 10.4092C26.6425 10.3368 26.6256 10.2643 26.5883 10.202C26.5511 10.1396 26.4952 10.0904 26.4287 10.0612C23.1274 8.20166 19.8269 6.34122 16.5274 4.47988C16.4701 4.44056 16.4022 4.41951 16.3327 4.41951C16.2632 4.41951 16.1953 4.44056 16.138 4.47988C12.8376 6.33944 9.53802 8.20033 6.23935 10.0626C6.1724 10.0909 6.11612 10.1397 6.07854 10.202C6.04095 10.2642 6.02397 10.3368 6.03002 10.4092V21.5919C6.02439 21.6563 6.03863 21.7208 6.07081 21.7768C6.103 21.8328 6.15158 21.8777 6.21002 21.9052C7.09002 22.4048 7.97135 22.9026 8.85402 23.3986C9.09852 23.5497 9.37216 23.6475 9.65706 23.6857C9.94196 23.7238 10.2317 23.7014 10.5074 23.6199C10.7466 23.5299 10.9526 23.3688 11.0978 23.1584C11.2429 22.948 11.3202 22.6982 11.3194 22.4426C11.3234 18.7359 11.3167 15.0292 11.322 11.3252C11.3211 11.2859 11.3285 11.2468 11.3437 11.2105C11.359 11.1743 11.3816 11.1416 11.4103 11.1147C11.439 11.0878 11.473 11.0672 11.5102 11.0543C11.5474 11.0414 11.5868 11.0365 11.626 11.0399C12.05 11.0372 12.4727 11.0346 12.8967 11.0412C12.9379 11.0432 12.9782 11.0537 13.015 11.0723C13.0518 11.0909 13.0843 11.117 13.1103 11.1489C13.1364 11.1809 13.1554 11.218 13.1661 11.2578C13.1769 11.2976 13.1791 11.3392 13.1727 11.3799C13.1714 15.1092 13.1767 18.8386 13.17 22.5666C13.1985 23.0733 13.0904 23.5785 12.857 24.0292C12.6236 24.48 12.2736 24.8599 11.8434 25.1292C11.2688 25.3969 10.6398 25.5272 10.0062 25.5099C9.37261 25.4925 8.75173 25.3279 8.19268 25.0292C7.22335 24.5452 6.29935 23.9759 5.34869 23.4559C5.01758 23.2833 4.73931 23.0244 4.54332 22.7066C4.34733 22.3888 4.24092 22.0239 4.23535 21.6506V10.3506C4.23819 9.98379 4.33909 9.62447 4.52759 9.30985C4.71608 8.99522 4.98531 8.73674 5.30735 8.56122C8.61935 6.69188 11.9309 4.82166 15.242 2.95055H15.2407Z" fill="#4D5265"/>
<path d="M18.1302 10.7774C19.5938 10.5883 21.0811 10.8162 22.4209 11.4347C22.9065 11.7244 23.3079 12.1358 23.5855 12.6283C23.8631 13.1209 24.0072 13.6774 24.0036 14.2427C23.9848 14.3134 23.9412 14.375 23.8807 14.4162C23.8202 14.4573 23.7469 14.4753 23.6742 14.4667C23.2542 14.4667 22.8356 14.4721 22.4169 14.4641C22.3361 14.4591 22.26 14.424 22.2038 14.3658C22.1475 14.3075 22.1151 14.2303 22.1129 14.1494C22.0653 13.8757 21.9588 13.6156 21.8006 13.3872C21.6424 13.1588 21.4364 12.9675 21.1969 12.8267C20.3998 12.5099 19.5389 12.3866 18.6849 12.4667C18.0555 12.4471 17.4329 12.6022 16.8862 12.9147C16.698 13.0608 16.5602 13.2621 16.4923 13.4905C16.4244 13.7189 16.4297 13.9629 16.5076 14.1881C16.6422 14.5081 17.0116 14.6107 17.3142 14.7054C19.0556 15.1614 20.9009 15.1161 22.6076 15.7147C22.9742 15.8168 23.3127 16.0014 23.5969 16.2545C23.8812 16.5075 24.1038 16.8223 24.2476 17.1747C24.4187 17.6745 24.46 18.2095 24.3677 18.7296C24.2753 19.2497 24.0523 19.7378 23.7196 20.1481C23.1176 20.7734 22.3355 21.1953 21.4822 21.3547C20.3711 21.5805 19.2312 21.6291 18.1049 21.4987C17.024 21.4367 15.9876 21.0464 15.1342 20.3801C14.7962 20.0695 14.5309 19.688 14.3573 19.263C14.1838 18.838 14.1062 18.3799 14.1302 17.9214C14.1386 17.8478 14.1757 17.7806 14.2333 17.7341C14.291 17.6877 14.3646 17.6659 14.4382 17.6734C14.8609 17.6694 15.2822 17.6681 15.7049 17.6734C15.744 17.6727 15.7829 17.6797 15.8192 17.6941C15.8556 17.7085 15.8887 17.73 15.9167 17.7572C15.9447 17.7845 15.9671 17.8171 15.9824 17.853C15.9978 17.889 16.0059 17.9276 16.0062 17.9667C16.027 18.2281 16.1012 18.4825 16.2241 18.7141C16.347 18.9457 16.5161 19.1497 16.7209 19.3134C17.6246 19.7581 18.6345 19.9419 19.6369 19.8441C20.4762 19.9081 21.3141 19.7031 22.0289 19.2587C22.1936 19.0981 22.3135 18.8972 22.3767 18.6759C22.4398 18.4547 22.444 18.2208 22.3889 17.9974C22.2849 17.6241 21.8956 17.4507 21.5609 17.3374C19.8409 16.7934 17.9769 16.9907 16.2742 16.3774C15.9172 16.2726 15.5871 16.0916 15.3067 15.847C15.0263 15.6023 14.8024 15.2997 14.6502 14.9601C14.4547 14.4536 14.4053 13.9024 14.5076 13.3692C14.6099 12.836 14.8598 12.3422 15.2289 11.9441C16.0334 11.2336 17.0579 10.8217 18.1302 10.7774Z" fill="#4D5265"/>
</svg>
