<svg width="32" height="32" viewBox="0 0 32 32" fill="none" xmlns="http://www.w3.org/2000/svg">
<path opacity="0.25" d="M20 2.66663C17.8178 2.6677 15.705 3.43361 14.029 4.83116C12.353 6.2287 11.2199 8.16947 10.8267 10.316C12.3439 9.48628 14.0892 9.17059 15.801 9.41618C17.5128 9.66177 19.0989 10.4554 20.3217 11.6782C21.5445 12.901 22.3382 14.4872 22.5838 16.1989C22.8294 17.9107 22.5137 19.656 21.684 21.1733C23.9752 20.7546 26.0268 19.494 27.4357 17.6393C28.8446 15.7847 29.5088 13.4701 29.2978 11.1505C29.0867 8.83101 28.0156 6.67432 26.2951 5.10441C24.5746 3.5345 22.3291 2.66493 20 2.66663Z" fill="#4D5265"/>
<path d="M9.33317 29.3333C13.0151 29.3333 15.9998 26.3486 15.9998 22.6667C15.9998 18.9848 13.0151 16 9.33317 16C5.65127 16 2.6665 18.9848 2.6665 22.6667C2.6665 26.3486 5.65127 29.3333 9.33317 29.3333Z" fill="#4D5265"/>
<path opacity="0.5" d="M14.6665 9.33337C12.682 9.33355 10.7685 10.0713 9.29744 11.4033C7.82643 12.7354 6.90301 14.5666 6.70654 16.5414C7.93099 16.0152 9.2851 15.8683 10.5939 16.1196C11.9027 16.371 13.106 17.0091 14.0484 17.9515C14.9908 18.8939 15.6289 20.0972 15.8803 21.406C16.1317 22.7148 15.9848 24.0689 15.4585 25.2934C17.5002 25.0884 19.385 24.1069 20.7234 22.5516C22.0618 20.9963 22.7514 18.9862 22.6497 16.9369C22.548 14.8875 21.6628 12.9556 20.177 11.5404C18.6912 10.1253 16.7184 9.33516 14.6665 9.33337Z" fill="#4D5265"/>
</svg>
