<svg width="33" height="32" viewBox="0 0 33 32" fill="none" xmlns="http://www.w3.org/2000/svg">
<path d="M16.6665 20C18.8756 20 20.6665 18.2091 20.6665 16C20.6665 13.7909 18.8756 12 16.6665 12C14.4574 12 12.6665 13.7909 12.6665 16C12.6665 18.2091 14.4574 20 16.6665 20Z" fill="#4D5265"/>
<path opacity="0.5" d="M16.6664 2.66663C13.1733 2.67546 9.82273 4.05254 7.33302 6.50263V3.99996C7.33302 3.64634 7.19255 3.3072 6.9425 3.05715C6.69245 2.8071 6.35331 2.66663 5.99969 2.66663C5.64607 2.66663 5.30693 2.8071 5.05688 3.05715C4.80683 3.3072 4.66635 3.64634 4.66635 3.99996V9.99996C4.66635 10.3536 4.80683 10.6927 5.05688 10.9428C5.30693 11.1928 5.64607 11.3333 5.99969 11.3333H11.9997C12.3533 11.3333 12.6924 11.1928 12.9425 10.9428C13.1925 10.6927 13.333 10.3536 13.333 9.99996C13.333 9.64634 13.1925 9.3072 12.9425 9.05715C12.6924 8.8071 12.3533 8.66663 11.9997 8.66663H8.95702C10.4213 7.11595 12.3178 6.04111 14.4005 5.58157C16.4832 5.12203 18.6559 5.29899 20.6367 6.08949C22.6176 6.88 24.3152 8.24756 25.5092 10.0148C26.7033 11.7819 27.3387 13.8672 27.333 16C27.333 16.3536 27.4735 16.6927 27.7235 16.9428C27.9736 17.1928 28.3127 17.3333 28.6664 17.3333C29.02 17.3333 29.3591 17.1928 29.6092 16.9428C29.8592 16.6927 29.9997 16.3536 29.9997 16C29.9955 12.465 28.5893 9.07611 26.0898 6.57655C23.5902 4.07698 20.2013 2.67086 16.6664 2.66663ZM27.3184 20.6666H21.3184C20.9647 20.6666 20.6256 20.8071 20.3755 21.0572C20.1255 21.3072 19.985 21.6463 19.985 22C19.985 22.3536 20.1255 22.6927 20.3755 22.9428C20.6256 23.1928 20.9647 23.3333 21.3184 23.3333H24.3757C22.9114 24.884 21.0149 25.9588 18.9322 26.4184C16.8495 26.8779 14.6768 26.7009 12.696 25.9104C10.7151 25.1199 9.01752 23.7524 7.82347 21.9852C6.62942 20.218 5.99401 18.1327 5.99969 16C5.99969 15.6463 5.85921 15.3072 5.60916 15.0572C5.35912 14.8071 5.01998 14.6666 4.66635 14.6666C4.31273 14.6666 3.97359 14.8071 3.72355 15.0572C3.4735 15.3072 3.33302 15.6463 3.33302 16C3.3293 18.6257 4.102 21.1938 5.55396 23.3816C7.00591 25.5693 9.0723 27.2789 11.4933 28.2953C13.9142 29.3118 16.5817 29.5898 19.1602 29.0943C21.7387 28.5988 24.1132 27.352 25.985 25.5106V28C25.985 28.3536 26.1255 28.6927 26.3755 28.9428C26.6256 29.1928 26.9647 29.3333 27.3184 29.3333C27.672 29.3333 28.0111 29.1928 28.2612 28.9428C28.5112 28.6927 28.6517 28.3536 28.6517 28V22C28.6517 21.6463 28.5112 21.3072 28.2612 21.0572C28.0111 20.8071 27.672 20.6666 27.3184 20.6666Z" fill="#4D5265"/>
</svg>
