<svg width="65" height="64" viewBox="0 0 65 64" fill="none" xmlns="http://www.w3.org/2000/svg">
<path d="M0.666748 16C0.666748 7.16344 7.83019 0 16.6667 0H48.6667C57.5033 0 64.6667 7.16344 64.6667 16V48C64.6667 56.8366 57.5033 64 48.6667 64H16.6667C7.83019 64 0.666748 56.8366 0.666748 48V16Z" fill="#D4D6DE"/>
<path d="M32.6667 36C34.8759 36 36.6667 34.2091 36.6667 32C36.6667 29.7909 34.8759 28 32.6667 28C30.4576 28 28.6667 29.7909 28.6667 32C28.6667 34.2091 30.4576 36 32.6667 36Z" fill="#21232B"/>
<path opacity="0.5" d="M32.6668 18.6666C29.1738 18.6755 25.8232 20.0525 23.3335 22.5026V20C23.3335 19.6463 23.193 19.3072 22.943 19.0572C22.6929 18.8071 22.3538 18.6666 22.0002 18.6666C21.6466 18.6666 21.3074 18.8071 21.0574 19.0572C20.8073 19.3072 20.6668 19.6463 20.6668 20V26C20.6668 26.3536 20.8073 26.6927 21.0574 26.9428C21.3074 27.1928 21.6466 27.3333 22.0002 27.3333H28.0002C28.3538 27.3333 28.6929 27.1928 28.943 26.9428C29.193 26.6927 29.3335 26.3536 29.3335 26C29.3335 25.6463 29.193 25.3072 28.943 25.0572C28.6929 24.8071 28.3538 24.6666 28.0002 24.6666H24.9575C26.4218 23.1159 28.3183 22.0411 30.401 21.5816C32.4837 21.122 34.6564 21.299 36.6372 22.0895C38.6181 22.88 40.3157 24.2476 41.5097 26.0148C42.7038 27.7819 43.3392 29.8672 43.3335 32C43.3335 32.3536 43.474 32.6927 43.724 32.9428C43.9741 33.1928 44.3132 33.3333 44.6668 33.3333C45.0205 33.3333 45.3596 33.1928 45.6097 32.9428C45.8597 32.6927 46.0002 32.3536 46.0002 32C45.9959 28.465 44.5898 25.0761 42.0903 22.5765C39.5907 20.077 36.2018 18.6709 32.6668 18.6666ZM43.3188 36.6666H37.3188C36.9652 36.6666 36.6261 36.8071 36.376 37.0572C36.126 37.3072 35.9855 37.6463 35.9855 38C35.9855 38.3536 36.126 38.6927 36.376 38.9428C36.6261 39.1928 36.9652 39.3333 37.3188 39.3333H40.3762C38.9119 40.884 37.0154 41.9588 34.9327 42.4184C32.85 42.8779 30.6773 42.7009 28.6965 41.9104C26.7156 41.1199 25.018 39.7524 23.824 37.9852C22.6299 36.218 21.9945 34.1327 22.0002 32C22.0002 31.6463 21.8597 31.3072 21.6097 31.0572C21.3596 30.8071 21.0205 30.6666 20.6668 30.6666C20.3132 30.6666 19.9741 30.8071 19.724 31.0572C19.474 31.3072 19.3335 31.6463 19.3335 32C19.3298 34.6257 20.1025 37.1938 21.5544 39.3816C23.0064 41.5693 25.0728 43.2789 27.4938 44.2953C29.9147 45.3118 32.5822 45.5898 35.1607 45.0943C37.7392 44.5988 40.1137 43.352 41.9855 41.5106V44C41.9855 44.3536 42.126 44.6927 42.376 44.9428C42.6261 45.1928 42.9652 45.3333 43.3188 45.3333C43.6725 45.3333 44.0116 45.1928 44.2617 44.9428C44.5117 44.6927 44.6522 44.3536 44.6522 44V38C44.6522 37.6463 44.5117 37.3072 44.2617 37.0572C44.0116 36.8071 43.6725 36.6666 43.3188 36.6666Z" fill="#21232B"/>
</svg>
