<?xml version="1.0" encoding="UTF-8"?>
<svg width="46px" height="35px" viewBox="0 0 46 35" version="1.1" xmlns="http://www.w3.org/2000/svg" xmlns:xlink="http://www.w3.org/1999/xlink">
    <!-- Generator: Sketch 57.1 (83088) - https://sketch.com -->
    <title>amazon</title>
    <desc>Created with Sketch.</desc>
    <g id="HS_Website" stroke="none" stroke-width="1" fill="none" fill-rule="evenodd">
        <g id="[desktop]-Services" transform="translate(-515.000000, -2877.000000)" stroke="#1B1B1B" stroke-width="1.5">
            <g id="amazon" transform="translate(515.000000, 2877.000000)">
                <g id="Group-6">
                    <g id="Group-4-Copy-3">
                        <g id="Group-2-Copy-3">
                            <rect id="Rectangle" x="0.75" y="0.75" width="44.5" height="33.5" rx="16.75"></rect>
                        </g>
                    </g>
                    <path d="M22.0499539,13.54275 L22.0631978,13.5278346 C22.6776344,12.8815994 23.6681728,12.8756462 24.2756271,13.5145378 C24.3985893,13.6438637 24.4964294,13.7896986 24.5691831,13.9454199 C25.9801511,13.1853206 27.7443742,13.4184417 28.9154074,14.6500787 C30.3732979,16.1834185 30.3597133,18.6837412 28.8850655,20.2347056 C28.7833972,20.3416354 28.6774385,20.441261 28.5677862,20.5335787 L28.5330074,20.4938744 C29.5049344,21.516101 29.4958781,23.1829827 28.5127795,24.216959 C27.529681,25.2509353 25.9448196,25.2604604 24.9728926,24.2382338 C24.872567,24.132716 24.7826937,24.0203294 24.7032653,23.902479 L24.7569138,23.9405771 C24.6277214,23.8539292 24.5090791,23.7525046 24.403393,23.6383601 L18.725973,17.5065608 C18.7250127,17.5056073 18.7240369,17.5045827 18.7230617,17.5035571 C17.7511348,16.4813305 17.7601911,14.8144488 18.7432897,13.7804725 C19.6511972,12.8255785 21.0723377,12.7444209 22.0499539,13.54275 Z" id="Combined-Shape" stroke-linejoin="round" transform="translate(24.000000, 18.998716) rotate(-46.000000) translate(-24.000000, -18.998716) "></path>
                    <path d="M23.5,29.5 C30.127417,29.5 35.5,24.127417 35.5,17.5 C35.5,10.872583 30.127417,5.5 23.5,5.5 C16.872583,5.5 11.5,10.872583 11.5,17.5" id="Oval" stroke-linecap="round" transform="translate(23.500000, 17.500000) rotate(-315.000000) translate(-23.500000, -17.500000) "></path>
                </g>
                <path d="M18,9.46942317 L14.6709983,9.99277362 C14.3549238,10.0424635 14.0577573,9.83062141 14.0072583,9.51961107 C13.9972937,9.45824142 13.997591,9.39568171 14.0081383,9.33440642 L14.5820932,6" id="Rectangle-Copy-32" stroke-linecap="round"></path>
            </g>
        </g>
    </g>
</svg>