<?xml version="1.0" encoding="UTF-8"?>
<svg width="46px" height="35px" viewBox="0 0 46 35" version="1.1" xmlns="http://www.w3.org/2000/svg" xmlns:xlink="http://www.w3.org/1999/xlink">
    <!-- Generator: Sketch 57.1 (83088) - https://sketch.com -->
    <title>analytics_custom</title>
    <desc>Created with Sketch.</desc>
    <g id="HS_Website" stroke="none" stroke-width="1" fill="none" fill-rule="evenodd">
        <g id="[desktop]-Services" transform="translate(-815.000000, -3377.000000)">
            <g id="analytics_custom" transform="translate(815.000000, 3377.000000)">
                <rect id="Rectangle" stroke="#1B1B1B" stroke-width="1.5" x="0.75" y="0.75" width="44.5" height="33.5" rx="16.75"></rect>
                <rect id="Rectangle" fill="#1B1B1B" transform="translate(10.750000, 21.500000) rotate(-90.000000) translate(-10.750000, -21.500000) " x="6.25" y="20.75" width="9" height="1.5" rx="0.75"></rect>
                <rect id="Rectangle-Copy-8" fill="#1B1B1B" transform="translate(15.750000, 22.500000) rotate(-90.000000) translate(-15.750000, -22.500000) " x="12.25" y="21.75" width="7" height="1.5" rx="0.75"></rect>
                <rect id="Rectangle-Copy-9" fill="#1B1B1B" transform="translate(20.750000, 20.500000) rotate(-90.000000) translate(-20.750000, -20.500000) " x="15.25" y="19.75" width="11" height="1.5" rx="0.75"></rect>
                <rect id="Rectangle-Copy-10" fill="#1B1B1B" transform="translate(25.750000, 19.000000) rotate(-90.000000) translate(-25.750000, -19.000000) " x="18.75" y="18.25" width="14" height="1.5" rx="0.75"></rect>
                <rect id="Rectangle-Copy-11" fill="#1B1B1B" transform="translate(30.750000, 17.500000) rotate(-90.000000) translate(-30.750000, -17.500000) " x="22.25" y="16.75" width="17" height="1.5" rx="0.75"></rect>
                <rect id="Rectangle-Copy-22" fill="#1B1B1B" transform="translate(35.750000, 18.500000) rotate(-90.000000) translate(-35.750000, -18.500000) " x="28.25" y="17.75" width="15" height="1.5" rx="0.75"></rect>
            </g>
        </g>
    </g>
</svg>