<?xml version="1.0" encoding="UTF-8"?>
<svg width="46px" height="35px" viewBox="0 0 46 35" version="1.1" xmlns="http://www.w3.org/2000/svg" xmlns:xlink="http://www.w3.org/1999/xlink">
    <!-- Generator: Sketch 57.1 (83088) - https://sketch.com -->
    <title>analysis</title>
    <desc>Created with Sketch.</desc>
    <g id="HS_Website" stroke="none" stroke-width="1" fill="none" fill-rule="evenodd">
        <g id="[desktop]-Services" transform="translate(-815.000000, -2299.000000)">
            <g id="analysis" transform="translate(815.000000, 2299.000000)">
                <g id="Group-2-Copy-9" stroke="#1B1B1B" stroke-width="1.5">
                    <rect id="Rectangle" x="0.75" y="0.75" width="44.5" height="33.5" rx="16.75"></rect>
                </g>
                <rect id="Rectangle-Copy-25" fill="#1B1B1B" x="16.0729477" y="14.0360872" width="11.5279955" height="1.5" rx="0.75"></rect>
                <rect id="Rectangle-Copy-43" fill="#1B1B1B" transform="translate(12.537118, 23.444970) rotate(-90.000000) translate(-12.537118, -23.444970) " x="8.03711768" y="22.6949695" width="9" height="1.5" rx="0.75"></rect>
                <rect id="Rectangle-Copy-44" fill="#1B1B1B" transform="translate(17.273120, 22.444970) rotate(-90.000000) translate(-17.273120, -22.444970) " x="11.7731199" y="21.6949695" width="11" height="1.5" rx="0.75"></rect>
                <rect id="Rectangle-Copy-45" fill="#1B1B1B" transform="translate(22.273120, 22.444970) rotate(-90.000000) translate(-22.273120, -22.444970) " x="16.7731199" y="21.6949695" width="11" height="1.5" rx="0.75"></rect>
                <rect id="Rectangle-Copy-46" fill="#1B1B1B" transform="translate(27.273120, 22.444970) rotate(-90.000000) translate(-27.273120, -22.444970) " x="21.7731199" y="21.6949695" width="11" height="1.5" rx="0.75"></rect>
                <rect id="Rectangle-Copy-57" fill="#1B1B1B" transform="translate(32.273120, 20.944970) rotate(-90.000000) translate(-32.273120, -20.944970) " x="25.2731199" y="20.1949695" width="14" height="1.5" rx="0.75"></rect>
                <rect id="Rectangle-Copy-41" fill="#1B1B1B" transform="translate(31.218960, 12.265025) rotate(-30.000000) translate(-31.218960, -12.265025) " x="25.4549618" y="11.5150245" width="11.5279955" height="1.5" rx="0.75"></rect>
                <rect id="Rectangle-Copy-42" fill="#1B1B1B" transform="translate(12.301930, 17.333608) rotate(-30.000000) translate(-12.301930, -17.333608) " x="6.53793179" y="16.5836083" width="11.5279955" height="1.5" rx="0.75"></rect>
                <path d="M31.0555299,7.42754688 L36.0477671,8.67798237 C36.5991944,8.81610166 36.9430118,9.41305533 36.8157048,10.0113157 L35.663156,15.4275469" id="Rectangle" stroke="#1B1B1B" stroke-width="1.5" stroke-linecap="round" transform="translate(33.948863, 11.427547) rotate(-4.000000) translate(-33.948863, -11.427547) "></path>
            </g>
        </g>
    </g>
</svg>