<?xml version="1.0" encoding="UTF-8"?>
<svg width="46px" height="35px" viewBox="0 0 46 35" version="1.1" xmlns="http://www.w3.org/2000/svg" xmlns:xlink="http://www.w3.org/1999/xlink">
    <!-- Generator: Sketch 57.1 (83088) - https://sketch.com -->
    <title>custom</title>
    <desc>Created with Sketch.</desc>
    <g id="HS_Websitecustom" stroke="none" stroke-width="1" fill="none" fill-rule="evenodd">
        <g id="[desktop]-Servicescustom" transform="translate(-815.000000, -1480.000000)">
            <g id="custom" transform="translate(815.000000, 1480.000000)">
                <rect id="Rectanglecustom" stroke="#1B1B1B" stroke-width="1.5" x="0.75" y="0.75" width="44.5" height="33.5" rx="6"></rect>
                <path d="M1,11 L45.5,11" id="Path-9-custom" stroke="#1B1B1B" stroke-width="1.5"></path>
                <path d="M7.19401075,18.6288086 C9.43789304,19.449308 10.65,20.7430904 10.65,22.5 C10.65,24.2568402 9.43798872,25.5505899 7.19427642,26.3710942 C7.10075085,26.5527118 7.05127056,26.7549031 7.05127056,26.9611592 C7.05127056,27.6729663 7.62830425,28.25 8.34011138,28.25 L11.1376991,28.25 C12.1159751,28.25 13.0305292,27.7646949 13.5789179,26.9545752 L14.3814552,25.7690088 C14.7069976,25.2880938 15.2499084,25 15.8306467,25 L30.1693533,25 C30.7500916,25 31.2930024,25.2880938 31.6185448,25.7690088 L32.4210821,26.9545752 C32.9694708,27.7646949 33.8840249,28.25 34.8623009,28.25 L37.6598886,28.25 C37.9354822,28.25 38.2038189,28.1616601 38.4255155,27.9979456 C38.9416456,27.6168034 39.0911847,26.9235675 38.8059893,26.3711914 C36.562107,25.550692 35.35,24.2569096 35.35,22.5 C35.35,20.7431598 36.5620113,19.4494101 38.8057236,18.6289058 C38.8992492,18.4472882 38.9487294,18.2450969 38.9487294,18.0388408 C38.9487294,17.3270337 38.3716957,16.75 37.6598886,16.75 L34.8623009,16.75 C33.8840249,16.75 32.9694708,17.2353051 32.4210821,18.0454248 L31.6185448,19.2309912 C31.2930024,19.7119062 30.7500916,20 30.1693533,20 L15.8306467,20 C15.2499084,20 14.7069976,19.7119062 14.3814552,19.2309912 L13.5789179,18.0454248 C13.0305292,17.2353051 12.1159751,16.75 11.1376991,16.75 L8.34011138,16.75 C8.06451779,16.75 7.79618114,16.8383399 7.57448448,17.0020544 C7.0583544,17.3831966 6.90881535,18.0764325 7.19401075,18.6288086 Z" id="Rectangle-custom" stroke="#1B1B1B" stroke-width="1.5"></path>
                <circle id="Ovalcustom" fill="#1B1B1B" cx="6" cy="6.5" r="1.5"></circle>
                <circle id="Oval-Copy-5custom" fill="#1B1B1B" cx="12" cy="6.5" r="1.5"></circle>
                <circle id="Oval-Copy-6custom" fill="#1B1B1B" cx="18" cy="6.5" r="1.5"></circle>
            </g>
        </g>
    </g>
</svg>
