<?xml version="1.0" encoding="UTF-8"?>
<svg width="46px" height="35px" viewBox="0 0 46 35" version="1.1" xmlns="http://www.w3.org/2000/svg" xmlns:xlink="http://www.w3.org/1999/xlink">
    <!-- Generator: Sketch 57.1 (83088) - https://sketch.com -->
    <title>data_storage</title>
    <desc>Created with Sketch.</desc>
    <g id="HS_Website" stroke="none" stroke-width="1" fill="none" fill-rule="evenodd">
        <g id="[desktop]-Services" transform="translate(-815.000000, -3462.000000)">
            <g id="data_storage" transform="translate(815.000000, 3462.000000)">
                <ellipse id="Oval" fill="#1B1B1B" cx="23.1669711" cy="16.3700269" rx="4.5" ry="1.5"></ellipse>
                <path d="M22.5425381,23.3191254 L23.4421513,23.3191254 C23.8683385,23.3191525 24.2476914,23.5892717 24.3871072,23.9920108 C24.8864118,25.4343823 25.1360641,26.8767538 25.1360641,28.3191254 C25.1360641,29.7615036 24.8864094,31.2038819 24.3871002,32.6462602 C24.2476721,33.0490022 23.8683131,33.3191254 23.4421191,33.3191254 L22.5424931,33.3191254 C21.9902345,33.3190779 21.5425405,32.8713839 21.5425405,32.3191254 C21.5425405,32.2226639 21.556498,32.1267099 21.5839793,32.0342458 C21.9520358,30.7958723 22.1360641,29.5574989 22.1360641,28.3191254 C22.1360641,27.0807514 21.9520357,25.8423775 21.5839789,24.6040036 C21.4266534,24.0746096 21.7282595,23.5179053 22.2576492,23.3605655 C22.3501163,23.3330833 22.4460735,23.3191254 22.5425381,23.3191254 Z" id="Rectangle" fill="#1B1B1B" transform="translate(23.136064, 28.319125) rotate(-270.000000) translate(-23.136064, -28.319125) "></path>
                <path d="M22.5425381,19.3191254 L23.4421513,19.3191254 C23.8683385,19.3191525 24.2476914,19.5892717 24.3871072,19.9920108 C24.8864118,21.4343823 25.1360641,22.8767538 25.1360641,24.3191254 C25.1360641,25.7615036 24.8864094,27.2038819 24.3871002,28.6462602 C24.2476721,29.0490022 23.8683131,29.3191254 23.4421191,29.3191254 L22.5424931,29.3191254 C21.9902345,29.3190779 21.5425405,28.8713839 21.5425405,28.3191254 C21.5425405,28.2226639 21.556498,28.1267099 21.5839793,28.0342458 C21.9520358,26.7958723 22.1360641,25.5574989 22.1360641,24.3191254 C22.1360641,23.0807514 21.9520357,21.8423775 21.5839789,20.6040036 C21.4266534,20.0746096 21.7282595,19.5179053 22.2576492,19.3605655 C22.3501163,19.3330833 22.4460735,19.3191254 22.5425381,19.3191254 Z" id="Rectangle" fill="#1B1B1B" transform="translate(23.136064, 24.319125) rotate(-270.000000) translate(-23.136064, -24.319125) "></path>
                <path d="M22.5425381,15.3191254 L23.4421513,15.3191254 C23.8683385,15.3191525 24.2476914,15.5892717 24.3871072,15.9920108 C24.8864118,17.4343823 25.1360641,18.8767538 25.1360641,20.3191254 C25.1360641,21.7615036 24.8864094,23.2038819 24.3871002,24.6462602 C24.2476721,25.0490022 23.8683131,25.3191254 23.4421191,25.3191254 L22.5424931,25.3191254 C21.9902345,25.3190779 21.5425405,24.8713839 21.5425405,24.3191254 C21.5425405,24.2226639 21.556498,24.1267099 21.5839793,24.0342458 C21.9520358,22.7958723 22.1360641,21.5574989 22.1360641,20.3191254 C22.1360641,19.0807514 21.9520357,17.8423775 21.5839789,16.6040036 C21.4266534,16.0746096 21.7282595,15.5179053 22.2576492,15.3605655 C22.3501163,15.3330833 22.4460735,15.3191254 22.5425381,15.3191254 Z" id="Rectangle" fill="#1B1B1B" transform="translate(23.136064, 20.319125) rotate(-270.000000) translate(-23.136064, -20.319125) "></path>
                <g id="Group-2-Copy-17">
                    <rect id="Rectangle" stroke="#1B1B1B" stroke-width="1.5" x="0.75" y="0.75" width="44.5" height="33.5" rx="6"></rect>
                    <path d="M1,11 L45.5,11" id="Path-9" stroke="#1B1B1B" stroke-width="1.5"></path>
                    <circle id="Oval" fill="#1B1B1B" cx="6" cy="6.5" r="1.5"></circle>
                    <circle id="Oval-Copy-5" fill="#1B1B1B" cx="12" cy="6.5" r="1.5"></circle>
                    <circle id="Oval-Copy-6" fill="#1B1B1B" cx="18" cy="6.5" r="1.5"></circle>
                </g>
            </g>
        </g>
    </g>
</svg>