<?xml version="1.0" encoding="UTF-8"?>
<svg width="33px" height="25px" viewBox="0 0 33 25" version="1.1" xmlns="http://www.w3.org/2000/svg" xmlns:xlink="http://www.w3.org/1999/xlink">
    <!-- Generator: Sketch 61.2 (89653) - https://sketch.com -->
    <title>Custom</title>
    <desc>Created with Sketch.</desc>
    <g id="HS_Website" stroke="none" stroke-width="1" fill="none" fill-rule="evenodd">
        <g id="[mobile]-Menu_White" transform="translate(-31.000000, -323.000000)" fill="#555E6B">
            <g id="Custom" transform="translate(31.000000, 323.000000)">
                <path d="M28,0 C30.3195954,0 32.1999995,1.88040402 32.1999995,4.19999993 L32.1999995,20.3000001 C32.1999995,22.619596 30.3195954,24.5 28,24.5 L4.19999993,24.5 C1.88040402,24.5 0,22.619596 0,20.3000001 L0,4.19999993 C0,1.88040402 1.88040402,0 4.19999993,0 L28,0 Z M27.9999995,1.04999998 L4.19999993,1.04999998 C2.52029255,1.04999998 1.14765393,2.36471766 1.05498647,4.02125061 L1.04999998,4.19999993 L1.04999998,20.3000001 C1.04999998,21.9797075 2.36471766,23.3523461 4.02125061,23.4450135 L4.19999993,23.45 L27.9999995,23.45 C29.6797069,23.45 31.0523455,22.1352823 31.145013,20.4787494 L31.1499995,20.3000001 L31.1499995,4.19999993 C31.1499995,2.52029255 29.8352818,1.14765393 28.1787488,1.05498647 L27.9999995,1.04999998 Z" id="menu_shape" fill-rule="nonzero"></path>
                <path d="M16.9906303,13.9999998 L16.9906303,21.6999996 L12.0906302,21.6999996 C10.9308323,21.6999996 9.99063027,20.7597976 9.99063027,19.5999997 L9.99063027,16.0999997 C9.99063027,14.9402018 10.9308323,13.9999998 12.0906302,13.9999998 L16.9906303,13.9999998 Z M15.94,20.649 L15.94,15.049 L12.0906302,15.0499997 C11.5493912,15.0499997 11.1037984,15.45951 11.0467915,15.9855907 L11.0406303,16.0999997 L11.0406303,19.5999997 C11.0406303,20.1412387 11.4501405,20.5868315 11.9762212,20.6438384 L12.0906302,20.6499996 L15.94,20.649 Z" id="menu_shape" fill-rule="nonzero"></path>
                <rect id="menu_shape" x="12.0906302" y="16.7999997" width="2.79999995" height="1" rx="0.5"></rect>
                <rect id="menu_shape" x="18.160675" y="16.7054274" width="2.79999995" height="1" rx="0.5"></rect>
                <rect id="menu_shape" x="18.2061361" y="11.4886639" width="2.79999995" height="1" rx="0.5"></rect>
                <rect id="menu_shape" x="12.0906302" y="18.8999997" width="2.79999995" height="1" rx="0.5"></rect>
                <rect id="menu_shape" x="18.2061361" y="19.1886638" width="2.79999995" height="1" rx="0.5"></rect>
                <rect id="menu_shape" x="18.1806863" y="14.1402877" width="2.79999995" height="1" rx="0.5"></rect>
                <path d="M23.0999997,9.79999983 L23.0999997,19.5999997 C23.0999997,20.7597976 22.1597977,21.6999996 20.9999998,21.6999996 L18.1999997,21.6999996 C17.0402017,21.6999996 16.0999997,20.7597976 16.0999997,19.5999997 L16.0999997,11.8999998 C16.0999997,10.7402018 17.0402017,9.79999983 18.1999997,9.79999983 L23.0999997,9.79999983 Z M22.049,10.849 L18.1999997,10.8499998 C17.6587606,10.8499998 17.2131678,11.25951 17.156161,11.7855907 L17.1499997,11.8999998 L17.1499997,19.5999997 C17.1499997,20.1412387 17.5595099,20.5868315 18.0855906,20.6438384 L18.1999997,20.6499996 L20.9999998,20.6499996 C21.5412388,20.6499996 21.9868316,20.2404894 22.0438385,19.7144087 L22.0499997,19.5999997 L22.049,10.849 Z" id="menu_shape" fill-rule="nonzero" transform="translate(19.600000, 15.750000) rotate(-180.000000) translate(-19.600000, -15.750000) "></path>
                <polygon id="menu_shape" fill-rule="nonzero" points="31.8499995 7.17499988 31.8499995 8.22499986 0.699999988 8.22499986 0.699999988 7.17499988"></polygon>
                <circle id="menu_shape" cx="4.19999993" cy="4.54999992" r="1.04999998"></circle>
                <circle id="menu_shape" cx="8.39999986" cy="4.54999992" r="1.04999998"></circle>
                <circle id="menu_shape" cx="12.5999998" cy="4.54999992" r="1.04999998"></circle>
            </g>
        </g>
    </g>
</svg>
