<svg width="33" height="25" viewBox="0 0 33 25" fill="none" xmlns="http://www.w3.org/2000/svg">
<rect x="0.516129" y="0.516129" width="31.9677" height="23.9677" rx="11.9839" stroke="#555E6B" stroke-width="1.03226"/>
<path d="M23.7515 8.00049L18.7515 13.0005L20.293 14.542L26.833 8.00049H23.7515ZM23.7485 12.5995L21.061 15.31L23.747 18H26.8415L24.148 15.3L26.8425 12.6H23.7485V12.5995Z" fill="#555E6B"/>
<path d="M14.5 6H7.5C7.23478 6 6.98043 6.10536 6.79289 6.29289C6.60536 6.48043 6.5 6.73478 6.5 7V19C6.5 19.2652 6.60536 19.5196 6.79289 19.7071C6.98043 19.8946 7.23478 20 7.5 20H14.5C14.7652 20 15.0196 19.8946 15.2071 19.7071C15.3946 19.5196 15.5 19.2652 15.5 19V7C15.5 6.73478 15.3946 6.48043 15.2071 6.29289C15.0196 6.10536 14.7652 6 14.5 6ZM7.5 7H14.5V16H7.5V7ZM7.5 19V17H14.5V19H7.5Z" fill="#555E6B"/>
<path d="M10.5 17.5H11.5V18.5H10.5V17.5Z" fill="#555E6B"/>
</svg>
