<?xml version="1.0" encoding="UTF-8"?>
<svg width="46px" height="35px" viewBox="0 0 46 35" version="1.1" xmlns="http://www.w3.org/2000/svg" xmlns:xlink="http://www.w3.org/1999/xlink">
    <!-- Generator: Sketch 57.1 (83088) - https://sketch.com -->
    <title>Group 2 Copy 21</title>
    <desc>Created with Sketch.</desc>
    <g id="HS_Website" stroke="none" stroke-width="1" fill="none" fill-rule="evenodd">
        <g id="[desktop]-Services" transform="translate(-215.000000, -3955.000000)">
            <g id="Group-2-Copy-21" transform="translate(215.000000, 3955.000000)">
                <g id="migration_testing">
                    <rect id="Rectangle" stroke="#1B1B1B" stroke-width="1.5" x="0.75" y="0.75" width="44.5" height="33.5" rx="16.75"></rect>
                    <ellipse id="Oval" fill="#1B1B1B" cx="15.0309071" cy="11.5" rx="4.5" ry="1.5"></ellipse>
                    <ellipse id="Oval-Copy-18" fill="#1B1B1B" cx="32.0309071" cy="11.5" rx="4.5" ry="1.5"></ellipse>
                    <path d="M14.4064741,18.4490985 L15.3060872,18.4490985 C15.7322744,18.4491256 16.1116273,18.7192448 16.2510432,19.1219839 C16.7503477,20.5643554 17,22.0067269 17,23.4490985 C17,24.8914767 16.7503454,26.333855 16.2510362,27.7762333 C16.1116081,28.1789753 15.732249,28.4490985 15.306055,28.4490985 L14.406429,28.4490985 C13.8541705,28.449051 13.4064765,28.001357 13.4064765,27.4490985 C13.4064765,27.352637 13.420434,27.256683 13.4479152,27.1642189 C13.8159717,25.9258454 14,24.687472 14,23.4490985 C14,22.2107245 13.8159716,20.9723506 13.4479148,19.7339767 C13.2905893,19.2045827 13.5921954,18.6478784 14.1215852,18.4905386 C14.2140523,18.4630564 14.3100094,18.4490985 14.4064741,18.4490985 Z" id="Rectangle" fill="#1B1B1B" transform="translate(15.000000, 23.449098) rotate(-270.000000) translate(-15.000000, -23.449098) "></path>
                    <path d="M31.4064741,18.4490985 L32.3060872,18.4490985 C32.7322744,18.4491256 33.1116273,18.7192448 33.2510432,19.1219839 C33.7503477,20.5643554 34,22.0067269 34,23.4490985 C34,24.8914767 33.7503454,26.333855 33.2510362,27.7762333 C33.1116081,28.1789753 32.732249,28.4490985 32.306055,28.4490985 L31.406429,28.4490985 C30.8541705,28.449051 30.4064765,28.001357 30.4064765,27.4490985 C30.4064765,27.352637 30.420434,27.256683 30.4479152,27.1642189 C30.8159717,25.9258454 31,24.687472 31,23.4490985 C31,22.2107245 30.8159716,20.9723506 30.4479148,19.7339767 C30.2905893,19.2045827 30.5921954,18.6478784 31.1215852,18.4905386 C31.2140523,18.4630564 31.3100094,18.4490985 31.4064741,18.4490985 Z" id="Rectangle-Copy-69" fill="#1B1B1B" transform="translate(32.000000, 23.449098) rotate(-270.000000) translate(-32.000000, -23.449098) "></path>
                    <path d="M14.4064741,14.4490985 L15.3060872,14.4490985 C15.7322744,14.4491256 16.1116273,14.7192448 16.2510432,15.1219839 C16.7503477,16.5643554 17,18.0067269 17,19.4490985 C17,20.8914767 16.7503454,22.333855 16.2510362,23.7762333 C16.1116081,24.1789753 15.732249,24.4490985 15.306055,24.4490985 L14.406429,24.4490985 C13.8541705,24.449051 13.4064765,24.001357 13.4064765,23.4490985 C13.4064765,23.352637 13.420434,23.256683 13.4479152,23.1642189 C13.8159717,21.9258454 14,20.687472 14,19.4490985 C14,18.2107245 13.8159716,16.9723506 13.4479148,15.7339767 C13.2905893,15.2045827 13.5921954,14.6478784 14.1215852,14.4905386 C14.2140523,14.4630564 14.3100094,14.4490985 14.4064741,14.4490985 Z" id="Rectangle" fill="#1B1B1B" transform="translate(15.000000, 19.449098) rotate(-270.000000) translate(-15.000000, -19.449098) "></path>
                    <path d="M31.4064741,14.4490985 L32.3060872,14.4490985 C32.7322744,14.4491256 33.1116273,14.7192448 33.2510432,15.1219839 C33.7503477,16.5643554 34,18.0067269 34,19.4490985 C34,20.8914767 33.7503454,22.333855 33.2510362,23.7762333 C33.1116081,24.1789753 32.732249,24.4490985 32.306055,24.4490985 L31.406429,24.4490985 C30.8541705,24.449051 30.4064765,24.001357 30.4064765,23.4490985 C30.4064765,23.352637 30.420434,23.256683 30.4479152,23.1642189 C30.8159717,21.9258454 31,20.687472 31,19.4490985 C31,18.2107245 30.8159716,16.9723506 30.4479148,15.7339767 C30.2905893,15.2045827 30.5921954,14.6478784 31.1215852,14.4905386 C31.2140523,14.4630564 31.3100094,14.4490985 31.4064741,14.4490985 Z" id="Rectangle-Copy-71" fill="#1B1B1B" transform="translate(32.000000, 19.449098) rotate(-270.000000) translate(-32.000000, -19.449098) "></path>
                    <path d="M14.4064741,10.4490985 L15.3060872,10.4490985 C15.7322744,10.4491256 16.1116273,10.7192448 16.2510432,11.1219839 C16.7503477,12.5643554 17,14.0067269 17,15.4490985 C17,16.8914767 16.7503454,18.333855 16.2510362,19.7762333 C16.1116081,20.1789753 15.732249,20.4490985 15.306055,20.4490985 L14.406429,20.4490985 C13.8541705,20.449051 13.4064765,20.001357 13.4064765,19.4490985 C13.4064765,19.352637 13.420434,19.256683 13.4479152,19.1642189 C13.8159717,17.9258454 14,16.687472 14,15.4490985 C14,14.2107245 13.8159716,12.9723506 13.4479148,11.7339767 C13.2905893,11.2045827 13.5921954,10.6478784 14.1215852,10.4905386 C14.2140523,10.4630564 14.3100094,10.4490985 14.4064741,10.4490985 Z" id="Rectangle" fill="#1B1B1B" transform="translate(15.000000, 15.449098) rotate(-270.000000) translate(-15.000000, -15.449098) "></path>
                    <path d="M31.4064741,10.4490985 L32.3060872,10.4490985 C32.7322744,10.4491256 33.1116273,10.7192448 33.2510432,11.1219839 C33.7503477,12.5643554 34,14.0067269 34,15.4490985 C34,16.8914767 33.7503454,18.333855 33.2510362,19.7762333 C33.1116081,20.1789753 32.732249,20.4490985 32.306055,20.4490985 L31.406429,20.4490985 C30.8541705,20.449051 30.4064765,20.001357 30.4064765,19.4490985 C30.4064765,19.352637 30.420434,19.256683 30.4479152,19.1642189 C30.8159717,17.9258454 31,16.687472 31,15.4490985 C31,14.2107245 30.8159716,12.9723506 30.4479148,11.7339767 C30.2905893,11.2045827 30.5921954,10.6478784 31.1215852,10.4905386 C31.2140523,10.4630564 31.3100094,10.4490985 31.4064741,10.4490985 Z" id="Rectangle-Copy-72" fill="#1B1B1B" transform="translate(32.000000, 15.449098) rotate(-270.000000) translate(-32.000000, -15.449098) "></path>
                    <g id="Group-33" transform="translate(20.500000, 9.000000) scale(-1, 1) translate(-20.500000, -9.000000) translate(14.000000, 5.000000)" stroke="#1B1B1B" stroke-width="1.5">
                        <path d="M8.8656896,-1 L8.8656896,6.47398469 C8.8656896,8.8704766 7.59323574,10.8132171 6.02358434,10.8132171 L3.8656896,10.8132171" id="Rectangle" transform="translate(6.365690, 4.906609) rotate(-90.000000) translate(-6.365690, -4.906609) "></path>
                        <path d="M3,1.41222669 L1.41728449,3.24364893 C1.18682463,3.46841928 0.81317537,3.46841928 0.582715511,3.24364893 L-1,1.41222669" id="Rectangle" stroke-linecap="round" transform="translate(1.000000, 2.412227) rotate(-270.000000) translate(-1.000000, -2.412227) "></path>
                    </g>
                    <path d="M23.4066086,20.5933914 L23.4066086,28.0673761 C23.4066086,30.463868 22.1341547,32.4066086 20.5645033,32.4066086 L18.4066086,32.4066086" id="Rectangle-Copy-74" stroke="#1B1B1B" stroke-width="1.5" transform="translate(20.906609, 26.500000) rotate(-270.000000) translate(-20.906609, -26.500000) "></path>
                    <path d="M28.2722982,27.9943819 L26.6895827,29.8258041 C26.4591228,30.0505745 26.0854735,30.0505745 25.8550137,29.8258041 L24.2722982,27.9943819" id="Rectangle-Copy-75" stroke="#1B1B1B" stroke-width="1.5" stroke-linecap="round" transform="translate(26.272298, 28.994382) rotate(-90.000000) translate(-26.272298, -28.994382) "></path>
                </g>
            </g>
        </g>
    </g>
</svg>