<?xml version="1.0" encoding="UTF-8"?>
<svg width="46px" height="35px" viewBox="0 0 46 35" version="1.1" xmlns="http://www.w3.org/2000/svg" xmlns:xlink="http://www.w3.org/1999/xlink">
    <!-- Generator: Sketch 57.1 (83088) - https://sketch.com -->
    <title>intelligence</title>
    <desc>Created with Sketch.</desc>
    <g id="HS_Website" stroke="none" stroke-width="1" fill="none" fill-rule="evenodd">
        <g id="[desktop]-Services" transform="translate(-1115.000000, -3377.000000)">
            <g id="intelligence" transform="translate(1115.000000, 3377.000000)">
                <rect id="Rectangle-Copy-70" stroke="#1B1B1B" stroke-width="1.5" x="0.75" y="0.75" width="44.5" height="33.5" rx="16.75"></rect>
                <rect id="Rectangle" fill="#1B1B1B" x="18.8194866" y="23.3028928" width="2" height="2" rx="1"></rect>
                <rect id="Rectangle-Copy-34" fill="#1B1B1B" x="18.8194866" y="25" width="2" height="2" rx="1"></rect>
                <rect id="Rectangle-Copy-67" fill="#1B1B1B" x="18.8266384" y="26.7434962" width="2" height="2" rx="1"></rect>
                <rect id="Rectangle" fill="#1B1B1B" x="25.3474672" y="23.3028928" width="2" height="2" rx="1"></rect>
                <rect id="Rectangle-Copy-36" fill="#1B1B1B" x="25.3474672" y="25" width="2" height="2" rx="1"></rect>
                <rect id="Rectangle-Copy-68" fill="#1B1B1B" x="25.354619" y="26.7434962" width="2" height="2" rx="1"></rect>
                <path d="M23.0812986,10 C26.6711495,10 29.5812986,12.9101491 29.5812986,16.5 C29.5812986,19.0072927 28.1616773,21.1830151 26.0823722,22.2672297 L26.0812986,27 C26.0812986,28.6568542 24.7381529,30 23.0812986,30 C21.4244444,30 20.0812986,28.6568542 20.0812986,27 L20.0812208,22.2677488 C18.0013732,21.1837097 16.5812986,19.0076929 16.5812986,16.5 C16.5812986,12.9101491 19.4914478,10 23.0812986,10 Z" id="Combined-Shape" stroke="#1B1B1B" stroke-width="1.5"></path>
                <rect id="Rectangle-Copy-57" stroke="#1B1B1B" stroke-width="0.3" fill="#1B1B1B" transform="translate(23.269117, 6.000000) rotate(-270.000000) translate(-23.269117, -6.000000) " x="22.1191173" y="5.30666756" width="2.3" height="1.38666488" rx="0.693332439"></rect>
                <rect id="Rectangle-Copy-61" stroke="#1B1B1B" stroke-width="0.3" fill="#1B1B1B" transform="translate(32.908774, 16.500000) rotate(-180.000000) translate(-32.908774, -16.500000) " x="31.7587738" y="15.85" width="2.3" height="1.3" rx="0.65"></rect>
                <rect id="Rectangle-Copy-62" stroke="#1B1B1B" stroke-width="0.3" fill="#1B1B1B" transform="translate(13.000000, 16.500000) rotate(-180.000000) translate(-13.000000, -16.500000) " x="11.85" y="15.85" width="2.3" height="1.3" rx="0.65"></rect>
                <path d="M15.1177246,9.78076481 L14.4189294,9.08196963 C14.1806919,8.84373209 14.1806919,8.45747273 14.4189294,8.21923519 C14.6571669,7.98099765 15.0434263,7.98099765 15.2816638,8.21923519 L15.980459,8.91803037 C16.2186966,9.15626791 16.2186966,9.54252727 15.980459,9.78076481 C15.7422215,10.0190024 15.3559621,10.0190024 15.1177246,9.78076481 Z" id="Rectangle-Copy-63" stroke="#1B1B1B" stroke-width="0.3" fill="#1B1B1B"></path>
                <path d="M29.8200563,8.91803037 L30.5188515,8.21923519 C30.757089,7.98099765 31.1433484,7.98099765 31.3815859,8.21923519 C31.6198235,8.45747273 31.6198235,8.84373209 31.3815859,9.08196963 L30.6827907,9.78076481 C30.4445532,10.0190024 30.0582938,10.0190024 29.8200563,9.78076481 C29.5818188,9.54252727 29.5818188,9.15626791 29.8200563,8.91803037 Z" id="Rectangle-Copy-64" stroke="#1B1B1B" stroke-width="0.3" fill="#1B1B1B"></path>
                <g id="Group-30" transform="translate(20.353172, 16.003352)" stroke="#1B1B1B" stroke-linecap="round" stroke-linejoin="round" stroke-width="1.5">
                    <polyline id="Path-34" points="4.83869952 0.0422532515 2.83869952 2.04225325 2.83869952 8.04225325"></polyline>
                    <polyline id="Path-34" transform="translate(1.838700, 4.042253) scale(-1, 1) translate(-1.838700, -4.042253) " points="2.83869952 0.0422532515 0.838699519 2.04225325 0.838699519 8.04225325"></polyline>
                </g>
            </g>
        </g>
    </g>
</svg>