<?xml version="1.0" encoding="UTF-8"?>
<svg width="33px" height="25px" viewBox="0 0 33 25" version="1.1" xmlns="http://www.w3.org/2000/svg" xmlns:xlink="http://www.w3.org/1999/xlink">
    <!-- Generator: Sketch 61.2 (89653) - https://sketch.com -->
    <title>Native</title>
    <desc>Created with Sketch.</desc>
    <g id="HS_Website" stroke="none" stroke-width="1" fill="none" fill-rule="evenodd">
        <g id="[mobile]-Menu_White" transform="translate(-31.000000, -266.000000)" fill="#555E6B">
            <g id="Native" transform="translate(31.000000, 266.000000)">
                <path d="M19.8333332,3.49999994 C20.8642647,3.49999994 21.6999998,4.33573506 21.6999998,5.36666658 L21.6999998,19.833333 C21.6999998,20.8642645 20.8642647,21.6999996 19.8333332,21.6999996 L13.0666664,21.6999996 C12.0357349,21.6999996 11.1999998,20.8642645 11.1999998,19.833333 L11.1999998,5.36666658 C11.1999998,4.33573506 12.0357349,3.49999994 13.0666664,3.49999994 L19.8333332,3.49999994 Z M19.8333332,4.54999992 L13.0666664,4.54999992 C12.6503287,4.54999992 12.3067565,4.86154615 12.2563628,5.26422565 L12.2499998,5.36666658 L12.2499998,19.833333 C12.2499998,20.2496707 12.561546,20.5932429 12.9642255,20.6436367 L13.0666664,20.6499996 L19.8333332,20.6499996 C20.2496709,20.6499996 20.5932431,20.3384534 20.6436368,19.9357739 L20.6499998,19.833333 L20.6499998,5.36666658 C20.6499998,4.95032885 20.3384536,4.60675664 19.9357741,4.55636292 L19.8333332,4.54999992 Z" id="menu_shape" fill-rule="nonzero"></path>
                <path d="M14.0630258,3.70770827 L18.9630257,3.70770827 L18.9630257,4.52437493 C18.9630257,4.84654102 18.7018585,5.10770825 18.3796924,5.10770825 L14.6463591,5.10770825 C14.324193,5.10770825 14.0630258,4.84654102 14.0630258,4.52437493 L14.0630258,3.70770827 L14.0630258,3.70770827 Z" id="menu_shape"></path>
                <rect id="menu_shape" x="13.9999998" y="8.39999986" width="4.89999992" height="1.04999998" rx="0.524999991"></rect>
                <rect id="menu_shape" x="13.9999998" y="11.1999998" width="4.89999992" height="1.04999998" rx="0.524999991"></rect>
                <rect id="menu_shape" x="13.9999998" y="13.9999998" width="4.89999992" height="1.04999998" rx="0.524999991"></rect>
                <rect id="menu_shape" x="15.0775215" y="16.8933697" width="2.79999995" height="2.79999995" rx="1.39999998"></rect>
                <path d="M19.9499997,0 C26.6129803,0 32.0335081,5.31957347 32.1962369,11.9433744 L32.1999995,12.2500002 C32.1999995,19.0154883 26.7154877,24.5 19.9499997,24.5 L12.2499998,24.5 C5.58701912,24.5 0.166491397,19.1804265 0.00376259073,12.5566256 L0,12.2499998 C0,5.48451172 5.48451172,0 12.2499998,0 L19.9499997,0 Z M19.9499997,1.04999998 L12.2499998,1.04999998 C6.0644107,1.04999998 1.04999998,6.0644107 1.04999998,12.2499998 C1.04999998,18.3389394 5.90893453,23.2930137 11.9609228,23.446342 L12.2499998,23.45 L19.9499997,23.45 C26.1355888,23.45 31.1499995,18.4355893 31.1499995,12.2500002 C31.1499995,6.16106059 26.2910649,1.20698625 20.2390767,1.05365799 L19.9499997,1.04999998 Z" id="menu_shape" fill-rule="nonzero"></path>
            </g>
        </g>
    </g>
</svg>


