<?xml version="1.0" encoding="UTF-8"?>
<svg width="33px" height="25px" viewBox="0 0 33 25" version="1.1" xmlns="http://www.w3.org/2000/svg" xmlns:xlink="http://www.w3.org/1999/xlink">
    <!-- Generator: Sketch 61.2 (89653) - https://sketch.com -->
    <title>NodeJS</title>
    <desc>Created with Sketch.</desc>
    <g id="HS_Website" stroke="none" stroke-width="1" fill="none" fill-rule="evenodd">
        <g id="[mobile]-Menu_White" transform="translate(-31.000000, -211.000000)" fill="#555E6B">
            <g id="NodeJS" transform="translate(31.000000, 211.000000)">
                <path d="M28,0 C30.3195954,0 32.1999995,1.88040402 32.1999995,4.19999993 L32.1999995,20.3000001 C32.1999995,22.619596 30.3195954,24.5 28,24.5 L4.19999993,24.5 C1.88040402,24.5 0,22.619596 0,20.3000001 L0,4.19999993 C0,1.88040402 1.88040402,0 4.19999993,0 L28,0 Z M27.9999995,1.04999998 L4.19999993,1.04999998 C2.52029255,1.04999998 1.14765393,2.36471766 1.05498647,4.02125061 L1.04999998,4.19999993 L1.04999998,20.3000001 C1.04999998,21.9797075 2.36471766,23.3523461 4.02125061,23.4450135 L4.19999993,23.45 L27.9999995,23.45 C29.6797069,23.45 31.0523455,22.1352823 31.145013,20.4787494 L31.1499995,20.3000001 L31.1499995,4.19999993 C31.1499995,2.52029255 29.8352818,1.14765393 28.1787488,1.05498647 L27.9999995,1.04999998 Z" id="menu_shape" fill-rule="nonzero"></path>
                <polygon id="menu_shape" fill-rule="nonzero" points="31.8499995 7.17499988 31.8499995 8.22499986 0.699999988 8.22499986 0.699999988 7.17499988"></polygon>
                <circle id="menu_shape" cx="4.19999993" cy="4.54999992" r="1.04999998"></circle>
                <circle id="menu_shape" cx="8.39999986" cy="4.54999992" r="1.04999998"></circle>
                <circle id="menu_shape" cx="12.5999998" cy="4.54999992" r="1.04999998"></circle>
                <rect id="menu_shape" x="2.79999995" y="13.2999998" width="7.69999987" height="1.04999998" rx="0.524999991"></rect>
                <path d="M13.1249998,13.2999998 L16.0999998,13.2999998 L16.0999998,13.2999998 L16.0999998,14.3499998 L13.1249998,14.3499998 C12.8350503,14.3499998 12.5999998,14.1149493 12.5999998,13.8249998 C12.5999998,13.5350503 12.8350503,13.2999998 13.1249998,13.2999998 Z" id="menu_shape"></path>
                <rect id="menu_shape" x="2.79999995" y="16.0999997" width="13.2999998" height="1.04999998" rx="0.524999991"></rect>
                <path d="M32.1999995,11.1999998 L32.1999995,20.2999997 C32.1999995,22.6195956 30.3195954,24.4999996 27.9999995,24.4999996 L15.3999997,24.4999996 L15.3999997,15.3999997 C15.3999997,13.0804038 17.2804038,11.1999998 19.5999997,11.1999998 L32.1999995,11.1999998 Z M31.149,12.249 L19.5999997,12.2499998 C17.9202923,12.2499998 16.5476537,13.5647175 16.4549862,15.2212504 L16.4499997,15.3999997 L16.449,23.449 L27.9999995,23.4499996 C29.6797069,23.4499996 31.0523455,22.1352819 31.145013,20.478749 L31.1499995,20.2999997 L31.149,12.249 Z" id="menu_shape" fill-rule="nonzero"></path>
                <rect id="menu_shape" x="21.3556732" y="17.9858201" width="3.49999994" height="1.04999998" rx="0.524999991"></rect>
                <path d="M24.5087455,15.8540493 C24.7664784,15.8540493 24.9808343,16.0397682 25.0252871,16.2846799 L25.0337455,16.3790493 L25.033,18.654 L27.3087455,18.6540492 C27.5664784,18.6540492 27.7808343,18.8397682 27.825287,19.0846798 L27.8337455,19.1790492 C27.8337455,19.4367821 27.6480266,19.651138 27.4031149,19.6955908 L27.3087455,19.7040492 L24.9754122,19.7040492 C24.46685,19.7040492 24.0477009,19.321226 23.9904172,18.8280319 L23.9837455,18.7123826 L23.9837455,16.3790493 C23.9837455,16.0890998 24.218796,15.8540493 24.5087455,15.8540493 Z" id="menu_shape" fill-rule="nonzero" transform="translate(25.908746, 17.779049) rotate(-167.000000) translate(-25.908746, -17.779049) "></path>
                <rect id="menu_shape" transform="translate(20.697606, 19.088260) rotate(-27.000000) translate(-20.697606, -19.088260) " x="18.9476061" y="18.56326" width="3.49999994" height="1.04999998" rx="0.524999991"></rect>
                <rect id="menu_shape" transform="translate(25.535314, 17.919017) rotate(-27.000000) translate(-25.535314, -17.919017) " x="23.7853142" y="17.3940174" width="3.49999994" height="1.04999998" rx="0.524999991"></rect>
            </g>
        </g>
    </g>
</svg>
