<?xml version="1.0" encoding="UTF-8"?>
<svg width="46px" height="35px" viewBox="0 0 46 35" version="1.1" xmlns="http://www.w3.org/2000/svg" xmlns:xlink="http://www.w3.org/1999/xlink">
    <!-- Generator: Sketch 57.1 (83088) - https://sketch.com -->
    <title>saas</title>
    <desc>Created with Sketch.</desc>
    <g id="HS_Website-saas" stroke="none" stroke-width="1" fill="none" fill-rule="evenodd">
        <g id="[desktop]-Services-saas" transform="translate(-815.000000, -1395.000000)">
            <g id="saas" transform="translate(815.000000, 1395.000000)">
                <rect id="Rectangle" stroke="#1B1B1B" stroke-width="1.5" x="0.75" y="0.75" width="44.5" height="33.5" rx="6"></rect>
                <path d="M1,11 L45.5,11" id="Path-9" stroke="#1B1B1B" stroke-width="1.5"></path>
                <circle id="Oval-saas" fill="#1B1B1B" cx="6" cy="6.5" r="1.5"></circle>
                <circle id="Oval-Copy-5-saas" fill="#1B1B1B" cx="12" cy="6.5" r="1.5"></circle>
                <circle id="Oval-Copy-6-saas" fill="#1B1B1B" cx="18" cy="6.5" r="1.5"></circle>
                <rect id="Rectangle-saas" fill="#1B1B1B" transform="translate(10.750000, 26.500000) rotate(-90.000000) translate(-10.750000, -26.500000) " x="6.25" y="25.75" width="9" height="1.5" rx="0.75"></rect>
                <rect id="Rectangle-Copy-8-saas" fill="#1B1B1B" transform="translate(15.750000, 27.500000) rotate(-90.000000) translate(-15.750000, -27.500000) " x="12.25" y="26.75" width="7" height="1.5" rx="0.75"></rect>
                <rect id="Rectangle-Copy-9-saas" fill="#1B1B1B" transform="translate(20.750000, 25.500000) rotate(-90.000000) translate(-20.750000, -25.500000) " x="15.25" y="24.75" width="11" height="1.5" rx="0.75"></rect>
                <rect id="Rectangle-Copy-10-saas" fill="#1B1B1B" transform="translate(25.750000, 24.000000) rotate(-90.000000) translate(-25.750000, -24.000000) " x="18.75" y="23.25" width="14" height="1.5" rx="0.75"></rect>
                <rect id="Rectangle-Copy-11-saas" fill="#1B1B1B" transform="translate(30.750000, 22.500000) rotate(-90.000000) translate(-30.750000, -22.500000) " x="22.25" y="21.75" width="17" height="1.5" rx="0.75"></rect>
                <rect id="Rectangle-Copy-22-saas" fill="#1B1B1B" transform="translate(35.750000, 23.500000) rotate(-90.000000) translate(-35.750000, -23.500000) " x="28.25" y="22.75" width="15" height="1.5" rx="0.75"></rect>
            </g>
        </g>
    </g>
</svg>
