<?xml version="1.0" encoding="UTF-8"?>
<svg width="46px" height="35px" viewBox="0 0 46 35" version="1.1" xmlns="http://www.w3.org/2000/svg" xmlns:xlink="http://www.w3.org/1999/xlink">
    <!-- Generator: Sketch 57.1 (83088) - https://sketch.com -->
    <title>UID</title>
    <desc>Created with Sketch.</desc>
    <g id="HS_Website" stroke="none" stroke-width="1" fill="none" fill-rule="evenodd">
        <g id="[desktop]-Services" transform="translate(-1115.000000, -2384.000000)">
            <g id="UID" transform="translate(1116.000000, 2384.000000)">
                <rect id="Rectangle" stroke="#1B1B1B" fill="#D8D8D8" x="14.5" y="14.5" width="1" height="7" rx="0.5"></rect>
                <path d="M0.600490393,29.9501264 C1.03658846,31.9791169 2.84068359,33.5 5,33.5 L14,33.5 C16.1593164,33.5 17.9634115,31.9791169 18.3995096,29.9501264 C16.5662013,30.9640184 14.5005822,31.5 12.3944487,31.5 L6.60555128,31.5 C4.49941775,31.5 2.43379873,30.9640184 0.600490393,29.9501264 Z" id="Rectangle" stroke="#1B1B1B" fill="#1B1B1B"></path>
                <path d="M18.7945013,14.4612618 C18.1917663,14.5617176 17.75,15.0832052 17.75,15.6942542 L17.75,20.3057458 C17.75,20.9167948 18.1917663,21.4382824 18.7945013,21.5387382 L27.4083232,22.9743752 C28.4138662,23.1419657 29.44514,23.0610506 30.4122404,22.7386838 L43.9167793,18.2371708 C43.9914305,18.2122871 44.0500094,18.1537082 44.0748932,18.0790569 C44.1185551,17.9480711 44.0477651,17.8064911 43.9167793,17.7628292 L30.4122404,13.2613162 C29.44514,12.9389494 28.4138662,12.8580343 27.4083232,13.0256248 L18.7945013,14.4612618 Z" id="Rectangle" stroke="#1B1B1B" stroke-width="1.5"></path>
                <circle id="Oval" stroke="#1B1B1B" stroke-width="1.5" cx="28" cy="18" r="2"></circle>
                <g id="Group-4-Copy-2">
                    <g id="Group-2-Copy-3">
                        <path d="M8.18545232e-12,9 C8.18545232e-12,8.14285714 8.18545232e-12,7.28571429 8.18545232e-12,6.42857143 C8.18508515e-12,3.43045422 2.43045422,1 5.42857143,1 L5.42857143,1 L5.42857143,1 L13.5714286,1 C16.5695458,1 19,3.53278913 19,6.65714286 L19,28.3428571 C19,31.4672109 16.5695458,34 13.5714286,34 L5.42857143,34 C2.43045422,34 8.18545232e-12,31.4672109 8.18545232e-12,28.3428571 L8.18545232e-12,25" id="Rectangle" stroke="#1B1B1B" stroke-width="1.5" stroke-linecap="round" transform="translate(9.500000, 17.500000) rotate(-180.000000) translate(-9.500000, -17.500000) "></path>
                        <path d="M9.78965293,3.99152016 C11.4465072,3.99152016 12.7896529,2.64837441 12.7896529,0.991520163 C10.7896529,0.991520163 11.4465072,0.991520163 9.78965293,0.991520163 C8.13279868,0.991520163 9.78965293,0.991520163 6.78965293,0.991520163 C6.78965293,2.64837441 8.13279868,3.99152016 9.78965293,3.99152016 Z" id="Oval" fill="#1B1B1B"></path>
                    </g>
                </g>
                <path d="M30,18 L36,18" id="Path-11" stroke="#1B1B1B" stroke-width="1.5" stroke-linecap="round"></path>
            </g>
        </g>
    </g>
</svg>