<svg xmlns="http://www.w3.org/2000/svg" viewBox="0 0 108 108"><g id="f957bc5e-0b10-42d4-8bfb-1f7d2b5eaf06" data-name="Layer 2"><g id="adda979d-4a80-416d-abd6-653d2659e5a4" data-name="Layer 1"><circle cx="54" cy="54" r="53" fill="#fff" stroke="#74abfc" stroke-width="2"/><path d="M34.23,71.5a4,4,0,0,0,1.17,2.83,4,4,0,0,0,2.83,1.17h4V85a4.5,4.5,0,0,0,9,0V75.5h6V85a4.5,4.5,0,0,0,9,0V75.5h4a4,4,0,0,0,2.83-1.17,4,4,0,0,0,1.17-2.83v-32h-40Zm2-30h36v30a2,2,0,0,1-2,2h-6V85a2.49,2.49,0,0,1-.73,1.77,2.57,2.57,0,0,1-3.54,0A2.49,2.49,0,0,1,59.23,85V73.5h-10V85a2.49,2.49,0,0,1-.73,1.77,2.57,2.57,0,0,1-3.54,0A2.49,2.49,0,0,1,44.23,85V73.5h-6a2,2,0,0,1-2-2Z" fill="#74abfc" fill-rule="evenodd"/><path d="M80.73,40a4.51,4.51,0,0,0-4.5,4.5v18a4.5,4.5,0,1,0,9,0v-18A4.51,4.51,0,0,0,80.73,40Zm2.5,22.5a2.5,2.5,0,1,1-5,0v-18a2.5,2.5,0,0,1,5,0Z" fill="#74abfc" fill-rule="evenodd"/><path d="M27.73,40a4.51,4.51,0,0,0-4.5,4.5v18a4.5,4.5,0,1,0,9,0v-18A4.51,4.51,0,0,0,27.73,40Zm2.5,22.5a2.5,2.5,0,0,1-5,0v-18a2.5,2.5,0,0,1,5,0Z" fill="#74abfc" fill-rule="evenodd"/><path d="M74,36.41a14.9,14.9,0,0,0-5.89-10.19,20.68,20.68,0,0,0-4.33-2.63l2.94-4.36a.5.5,0,0,0-.14-.69.49.49,0,0,0-.69.13l-3.05,4.52a23.7,23.7,0,0,0-17.58,0l-3.05-4.52a.49.49,0,0,0-.69-.13.5.5,0,0,0-.14.69l2.94,4.36a20.68,20.68,0,0,0-4.33,2.63,14.9,14.9,0,0,0-5.89,10.19L34,37.5h40.1ZM36.19,35.5a13.42,13.42,0,0,1,5-7.72,19,19,0,0,1,4.3-2.56.51.51,0,0,0,.45,0A.55.55,0,0,0,46.1,25a21.69,21.69,0,0,1,15.8,0,.55.55,0,0,0,.16.18.51.51,0,0,0,.45,0,19,19,0,0,1,4.3,2.56,13.42,13.42,0,0,1,5,7.72Z" fill="#74abfc" fill-rule="evenodd"/><path d="M47.5,27A3.5,3.5,0,1,0,51,30.5,3.5,3.5,0,0,0,47.5,27Zm0,5A1.5,1.5,0,1,1,49,30.5,1.5,1.5,0,0,1,47.5,32Z" fill="#74abfc" fill-rule="evenodd"/><path d="M60.5,27A3.5,3.5,0,1,0,64,30.5,3.5,3.5,0,0,0,60.5,27Zm0,5A1.5,1.5,0,1,1,62,30.5,1.5,1.5,0,0,1,60.5,32Z" fill="#74abfc" fill-rule="evenodd"/></g></g></svg>