<svg xmlns="http://www.w3.org/2000/svg" viewBox="0 0 106 106"><g id="a9e831c2-aae5-4608-84d9-409899f745a3" data-name="Layer 2"><g id="b05823c1-679a-4a82-9a13-4f2446a45eef" data-name="Layer 1"><circle cx="53" cy="53" r="53" fill="#fff"/><path d="M65.38,31.23h-22A10.72,10.72,0,0,0,32.66,41.94V64A10.73,10.73,0,0,0,43.38,74.67H65.11a1.24,1.24,0,0,0,0-2.48H43.38A8.25,8.25,0,0,1,35.13,64v-22a8.26,8.26,0,0,1,8.25-8.24h22a8.26,8.26,0,0,1,8.25,8.24v22l-.15,8.26H69.66a1.24,1.24,0,0,0,0,2.48h6.25L76.1,64v-22A10.72,10.72,0,0,0,65.38,31.23Z" fill="#74abfc" fill-rule="evenodd"/><path d="M68.88,59.13a4.86,4.86,0,0,0,1-3.58l-.27-2.09a3.82,3.82,0,0,0-1-2.14l-4.72-9.23a3.19,3.19,0,0,0-1.19-1.28A3.24,3.24,0,0,0,61,40.33H47.61a3.24,3.24,0,0,0-1.68.48,3.19,3.19,0,0,0-1.19,1.28L40,51.33a3.89,3.89,0,0,0-1,2.13l-.27,2.08c0,.21,0,.41,0,.62a4.82,4.82,0,0,0,1.42,3.43c.1.1.22.18.33.28v2.62a3.84,3.84,0,1,0,7.68,0V61H60v1.48a3.84,3.84,0,1,0,7.68,0V60.24A5,5,0,0,0,68.88,59.13Zm-2.2-6.23a1.38,1.38,0,0,1,.46.87l.27,2.09a2.37,2.37,0,0,1-2.07,2.66l-.3,0H43.56a2.37,2.37,0,0,1-2.38-2.38,1.51,1.51,0,0,1,0-.3l.26-2.09a1.43,1.43,0,0,1,.46-.87,1.39,1.39,0,0,1,.92-.34H65.76A1.39,1.39,0,0,1,66.68,52.9ZM46.94,43.21a.89.89,0,0,1,.28-.3.79.79,0,0,1,.39-.11H61a.77.77,0,0,1,.39.11.89.89,0,0,1,.28.3l3.51,6.88H43.43Z" fill="#74abfc" fill-rule="evenodd"/><path d="M45.42,57.27a1.71,1.71,0,0,0,1.48-1.74V55.4a1.71,1.71,0,0,0-1.48-1.74,1.63,1.63,0,0,0-1.77,1.62v.37A1.63,1.63,0,0,0,45.42,57.27Z" fill="#74abfc" fill-rule="evenodd"/><path d="M62.1,57.31a1.63,1.63,0,1,0-1.62-1.63A1.63,1.63,0,0,0,62.1,57.31Z" fill="#74abfc" fill-rule="evenodd"/></g></g></svg>