<svg xmlns="http://www.w3.org/2000/svg" viewBox="0 0 106 106"><g id="bf4c29a5-98be-4183-9fde-59eed9bcdfcf" data-name="Layer 2"><g id="bd6ed020-4d30-42a7-aee3-e59e415eeb77" data-name="Layer 1"><circle cx="53" cy="53" r="53" fill="#fff"/><path d="M63.66,30.48h-22A10.73,10.73,0,0,0,30.94,41.19v22A10.72,10.72,0,0,0,41.65,73.91H63.39a1.24,1.24,0,0,0,1.23-1.23,1.22,1.22,0,0,0-1-1.18V69.59a11.51,11.51,0,0,0-11.5-11.5H43.25a7.73,7.73,0,0,0-6.72,11.57A8.24,8.24,0,0,1,33.4,63.2v-22a8.26,8.26,0,0,1,8.25-8.25h10.4V44.3a6.62,6.62,0,0,0-1.1-.1,6.78,6.78,0,1,0,3.88,1.24c-.1-.11-.2-.22-.32-.33V32.94h9.15a8.26,8.26,0,0,1,8.25,8.25v22l-.15,8.27H67.94a1.23,1.23,0,0,0,0,2.46h6.24l.19-10.71v-22A10.72,10.72,0,0,0,63.66,30.48ZM39.52,62.1a5.27,5.27,0,0,1,3.73-1.54h8.87a9,9,0,0,1,9,9V71.1H43.25a5.28,5.28,0,0,1-3.73-9Z" fill="#74abfc"/><rect x="65.13" y="51.13" width="4.75" height="2.75" rx="0.38" fill="#74abfc"/><rect x="59.09" y="39.09" width="4.82" height="2.82" rx="0.41" fill="#74abfc"/><rect x="65.09" y="39.09" width="4.82" height="2.82" rx="0.41" fill="#74abfc"/><rect x="59.09" y="45.09" width="4.82" height="2.82" rx="0.41" fill="#74abfc"/><rect x="65.09" y="45.09" width="4.82" height="2.82" rx="0.41" fill="#74abfc"/><rect x="59.13" y="51.13" width="4.75" height="2.75" rx="0.38" fill="#74abfc"/></g></g></svg>