<svg xmlns="http://www.w3.org/2000/svg" viewBox="0 0 108 108"><g id="a475f466-cf9a-44a2-9e3f-e25fe3c8ae18" data-name="Layer 2"><g id="ba809197-83a2-4886-a89f-375627a0af9a" data-name="Layer 1"><circle cx="54" cy="54" r="53" fill="#fff" stroke="#74abfc" stroke-width="2"/><path d="M74,72H36.17C27.43,71.13,23,67.43,23,61c0-6.07,3.45-9.76,10.26-11-.86-3.61,0-6.37,2.41-8.21,1.71-1.29,4.47-2.31,8.11-.27C48.06,34,54.14,30.91,61.86,32.33c7.9,1.45,12.28,6.86,13,16.07,5.85,2.52,8.81,6.58,8.81,12.08,0,5.73-3.18,9.59-9.47,11.48A.92.92,0,0,1,74,72ZM36.32,70H73.8c5.33-1.64,7.91-4.75,7.91-9.52S79.05,52.21,73.58,50a1,1,0,0,1-.63-.86c-.55-8.69-4.3-13.54-11.45-14.86S48.94,36,45,43.42a1,1,0,0,1-.64.51,1,1,0,0,1-.81-.15c-2.55-1.73-4.75-1.85-6.72-.36s-2.44,3.81-1.4,7.13a1,1,0,0,1-.11.83,1,1,0,0,1-.71.46C28.16,52.71,25,55.71,25,61S28.7,69.23,36.32,70Z" fill="#74abfc"/></g></g></svg>