<svg xmlns="http://www.w3.org/2000/svg" viewBox="0 0 106 106"><g id="a5ebe9ac-7802-49f7-b0fb-09c17078e4c4" data-name="Layer 2"><g id="bddb3653-8f8b-41ed-ae12-29199a92b6c4" data-name="Layer 1"><circle cx="53" cy="53" r="53" fill="#fff"/><path d="M64.84,31h-22A10.73,10.73,0,0,0,32.11,41.72v22A10.73,10.73,0,0,0,42.83,74.44H64.56a1.24,1.24,0,1,0,0-2.47H42.83a8.26,8.26,0,0,1-8.25-8.25v-22a8.26,8.26,0,0,1,8.25-8.25h22a8.26,8.26,0,0,1,8.24,8.25v22L72.93,72H69.11a1.24,1.24,0,0,0,0,2.47h6.25l.19-10.72v-22A10.72,10.72,0,0,0,64.84,31Z" fill="#74abfc"/><path d="M53.48,41.21a13,13,0,0,0-11,6.5l-.18.33A13,13,0,0,0,53.55,67.55a13.11,13.11,0,0,0,3.39-.45A12.9,12.9,0,0,0,64.83,61l.19-.32a13,13,0,0,0,1.74-6.66,13.15,13.15,0,0,0-1.23-5.38l-.61-1.3L54,54.58l.8-13.4Zm10.33,9.86a10.53,10.53,0,0,1-.93,8.41l-.19.33A10.53,10.53,0,1,1,44.45,49.27l.18-.32a10.5,10.5,0,0,1,7.56-5.15l-.94,15.57Z" fill="#74abfc"/><path d="M58.37,37.24,57,37.05,57,38.39q-.28,4.55-.46,7.54L56.25,50l2-1.22c2-1.19,4.6-2.84,8.06-5L67.48,43,66.64,42A13.14,13.14,0,0,0,58.37,37.24Z" fill="#74abfc"/></g></g></svg>