<svg xmlns="http://www.w3.org/2000/svg" viewBox="0 0 106 106"><g id="eac5b263-f6a2-4b18-9e9d-e55e90462790" data-name="Layer 2"><g id="f67128d1-b400-4317-b52e-23e67836a1e8" data-name="Layer 1"><circle cx="53" cy="53" r="53" fill="#fff"/><path d="M63.84,31.21h-22A10.72,10.72,0,0,0,31.12,41.93v22A10.72,10.72,0,0,0,41.83,74.65H63.57a1.24,1.24,0,1,0,0-2.47H41.83a8.25,8.25,0,0,1-8.24-8.24v-22a8.25,8.25,0,0,1,8.24-8.24h22a8.25,8.25,0,0,1,8.25,8.24v22l-.15,8.26H68.12a1.24,1.24,0,1,0,0,2.47h6.25l.19-10.71v-22A10.73,10.73,0,0,0,63.84,31.21Z" fill="#74abfc" fill-rule="evenodd"/><path d="M61.17,58.05l-.29,0-.08.86L60.66,58h-.34V60.5h.43l.4,0A5.84,5.84,0,0,0,67,54.63,6,6,0,0,0,62.81,49a8.33,8.33,0,0,0-8.26-8.14,8.13,8.13,0,0,0-7.4,4.62h-.22a4.35,4.35,0,0,0-4.06,3l0,.16-.2.06a5.88,5.88,0,0,0-4.24,5.58,6.16,6.16,0,0,0,6.08,5.91l2.84.06V57.74l-2.75-.06a3.59,3.59,0,0,1-3.51-3.46,3.45,3.45,0,0,1,3.2-3.38,1.19,1.19,0,0,0,1.11-1.19v-.08A1.64,1.64,0,0,1,47,47.92a1.75,1.75,0,0,1,.4,0l.23.07a1.24,1.24,0,0,0,1.49-.82,5.65,5.65,0,0,1,5.42-3.92,5.85,5.85,0,0,1,5.78,5.81v1.2a1.22,1.22,0,0,0,1.08.89,3.48,3.48,0,0,1,3.14,3.45A3.36,3.36,0,0,1,61.17,58.05Z" fill="#74abfc" fill-rule="evenodd"/><path d="M51.18,50a1.88,1.88,0,0,0-1.88,1.87l0,12.5v0a1.88,1.88,0,0,0,1.88,1.87l5.31,0a1.88,1.88,0,0,0,1.88-1.87l0-12.5v0A1.88,1.88,0,0,0,56.49,50Zm3.94,13.55a1.31,1.31,0,0,1-2.61,0h0a1.33,1.33,0,0,1,1.31-1.31,1.31,1.31,0,0,1,1.3,1.29Zm.65-12.13a.71.71,0,0,1-.67.53H52.89c-.31,0-.55-.21-.38-.51h0c-.17-.3.07-.55.38-.78H55.1a1.88,1.88,0,0,1,.67.77Z" fill="#74abfc" fill-rule="evenodd"/></g></g></svg>