<svg xmlns="http://www.w3.org/2000/svg" viewBox="0 0 106 106"><g id="a8b801f4-0562-4e83-8734-9dc04e6c3b33" data-name="Layer 2"><g id="b4381f0a-c61a-4b5a-901c-e63887ce158c" data-name="Layer 1"><circle cx="53" cy="53" r="53" fill="#fff"/><path d="M79.07,43.35a6.94,6.94,0,0,0-4.58-6.59l-1.36-.52h-.64A10.48,10.48,0,0,0,63.38,31H41.75a10.48,10.48,0,0,0-9.11,5.2h-.26l-1.77.66a6.69,6.69,0,0,0-4.13,4.63,5.73,5.73,0,0,0-.34,1.16,6.8,6.8,0,0,0,5.06,7.82V63.73A10.74,10.74,0,0,0,41.47,74.46l.22,0H74.45l.19-10.75V50.25A6.87,6.87,0,0,0,79,44.33c0-.12,0-.23,0-.34S79.06,43.57,79.07,43.35ZM33.39,47.43l-.84-.08a4.18,4.18,0,0,1-3.82-4.19,4.14,4.14,0,0,1,.1-.87,4.52,4.52,0,0,1,2.62-2.46l1.25-.47h4v.09C36.19,43.68,35.72,46.4,33.39,47.43Zm5.77-7.69,0-.38h5.51c-.55,4.53-.77,6.09-4.68,8.69a1.22,1.22,0,0,0-.52.76,8.62,8.62,0,0,1-3.87.16C38.27,47,38.74,43.2,39.16,39.74Zm8-.2,0-.18h4.55l-.39,9.12c0,.05,0,.1,0,.15a19.06,19.06,0,0,1-8.14.11C46.37,46.1,46.67,43.71,47.18,39.54Zm7-.18h3.56c.47,3.6,1.2,7.15,3.45,9.39a14.16,14.16,0,0,1-7.39-.26ZM65,48.8a1.26,1.26,0,0,0-.66-.84c-2.49-1.18-3.44-4.17-4.05-8.6h6c0,.36.08.73.13,1.09.33,3,.74,6.59,3.11,8.51A11.29,11.29,0,0,1,65,48.8Zm7.62-9.44.94.35a4.52,4.52,0,0,1,3,4.11,4.41,4.41,0,0,1-3.4,3.75l-.64.14c-2.73-.66-3.19-3.36-3.66-7.54l-.09-.81ZM41.75,33.51H63.38A8,8,0,0,1,70,36.89H35.17A8,8,0,0,1,41.75,33.51ZM42.13,72V57.55a1.37,1.37,0,0,1,.36-.93,1.13,1.13,0,0,1,.8-.35H47.6a1.13,1.13,0,0,1,.8.35,1.37,1.37,0,0,1,.36.93V60.6a2.26,2.26,0,0,0-1-.27,2.22,2.22,0,0,0-2.21,2.22v2a2.21,2.21,0,0,0,2.21,2.21,2.26,2.26,0,0,0,1-.27V72ZM72,72H51.23V57.55a3.79,3.79,0,0,0-1-2.63A3.53,3.53,0,0,0,47.6,53.8H43.29a3.53,3.53,0,0,0-2.59,1.12,3.76,3.76,0,0,0-1.05,2.63V71.68a8.29,8.29,0,0,1-6-8V51.06a11.43,11.43,0,0,0,7.56-.21,21.75,21.75,0,0,0,11.61-.07A16.83,16.83,0,0,0,63,50.85a16.9,16.9,0,0,0,4.77.75,12.91,12.91,0,0,0,4.41-.81V63.71Z" fill="#74abfc"/><path d="M63.65,53.15h-3.9A3.84,3.84,0,0,0,55.91,57v3.9a3.85,3.85,0,0,0,3.84,3.84h3.9a3.85,3.85,0,0,0,3.84-3.84V57A3.84,3.84,0,0,0,63.65,53.15ZM65,60.89a1.37,1.37,0,0,1-1.37,1.36h-3.9a1.36,1.36,0,0,1-1.36-1.36V57a1.36,1.36,0,0,1,1.36-1.37h3.9A1.37,1.37,0,0,1,65,57Z" fill="#74abfc"/></g></g></svg>