<svg xmlns="http://www.w3.org/2000/svg" viewBox="0 0 106 106"><g id="af08687e-7166-4aec-8491-da09e866c309" data-name="Layer 2"><g id="a235a426-1748-4d24-b485-1fe145018087" data-name="Layer 1"><circle cx="53" cy="53" r="53" fill="#fff"/><path d="M70.27,49.57a.65.65,0,0,0,0-1.26l-16-4.17a4,4,0,0,0-1.94,0l-15.95,4a.63.63,0,0,0-.47.46.66.66,0,0,0,.47.8l2,.53v8.64l-.06.08-.35.54a2.58,2.58,0,0,0,0,2.88l.33.48a1.81,1.81,0,0,0,.41.42A1.59,1.59,0,0,0,41,62.55l.32-.48a2.58,2.58,0,0,0,0-2.88L41,58.65s0,0-.07-.07v-8l2.07.53,0,2.73V56.3l.91.24a36.38,36.38,0,0,0,9.39,1.24,43.92,43.92,0,0,0,10.09-1.26l.95-.23,0-4.83v-.39Zm-23.77,5A41.74,41.74,0,0,1,54,53.9a36.45,36.45,0,0,1,6.83.63,40,40,0,0,1-7.55.78A34,34,0,0,1,46.5,54.6Z" fill="#74abfc"/><path d="M64,31H42A10.73,10.73,0,0,0,31.28,41.74v22A10.73,10.73,0,0,0,42,74.47H63.73a1.24,1.24,0,0,0,0-2.48H42a8.26,8.26,0,0,1-8.25-8.24v-22A8.26,8.26,0,0,1,42,33.5H64a8.26,8.26,0,0,1,8.25,8.24v22L72.1,72H68.28a1.24,1.24,0,0,0,0,2.48h6.25l.19-10.72v-22A10.73,10.73,0,0,0,64,31Z" fill="#74abfc"/></g></g></svg>