<svg xmlns="http://www.w3.org/2000/svg" viewBox="0 0 106 106"><g id="b96ba943-b188-454b-9d6c-e4c2bbed854d" data-name="Layer 2"><g id="e5c1f9c1-3a5c-49c6-848b-1f8c89d50753" data-name="Layer 1"><circle cx="53" cy="53" r="53" fill="#fff"/><path d="M63.9,31.19h-22A10.73,10.73,0,0,0,31.17,41.91v22A10.73,10.73,0,0,0,41.89,74.64H63.62a1.24,1.24,0,0,0,0-2.48H41.89a8.26,8.26,0,0,1-8.25-8.24v-22a8.26,8.26,0,0,1,8.25-8.24h22a8.25,8.25,0,0,1,8.24,8.24v22L72,72.16H68.17a1.24,1.24,0,0,0,0,2.48h6.25l.19-10.72v-22A10.72,10.72,0,0,0,63.9,31.19Z" fill="#74abfc"/><path d="M44.51,51.88a5.79,5.79,0,0,0,0-11.58h-.17a5.79,5.79,0,0,0,0,11.58ZM41,46.09a3.32,3.32,0,0,1,3.31-3.32h.17a3.32,3.32,0,0,1,0,6.63h-.17A3.31,3.31,0,0,1,41,46.09Z" fill="#74abfc"/><path d="M61.9,51.88h.17a5.79,5.79,0,0,0,0-11.58H61.9a5.79,5.79,0,0,0,0,11.58Zm0-9.11h.17a3.32,3.32,0,0,1,0,6.63H61.9a3.32,3.32,0,1,1,0-6.63Z" fill="#74abfc"/><path d="M53.45,67.48h.16a5.79,5.79,0,1,0,0-11.57h-.16a5.79,5.79,0,1,0,0,11.57Z" fill="#74abfc"/><path d="M66.88,56.23l-2.16-2a1.22,1.22,0,0,0-1.1-.7,1,1,0,0,0-.17,0,1.83,1.83,0,0,0-1.5.5l-2.28,2.16A1.24,1.24,0,0,0,61.38,58l1-1v4.21a.72.72,0,0,1-.72.72,1.24,1.24,0,0,0,0,2.47,3.19,3.19,0,0,0,3.19-3.19V57.73l.35.32A1.22,1.22,0,0,0,67,58,1.24,1.24,0,0,0,66.88,56.23Z" fill="#74abfc"/><path d="M45.84,58a1.23,1.23,0,1,0,1.7-1.79l-2.27-2.17a2,2,0,0,0-.58-.37,1.29,1.29,0,0,0-.58-.16l-.1,0a1.85,1.85,0,0,0-1.32.5l-2.35,2.16A1.24,1.24,0,1,0,42,58.05l.87-.8v4a3.19,3.19,0,0,0,3.18,3.19,1.24,1.24,0,1,0,0-2.47.72.72,0,0,1-.71-.72V57.57Z" fill="#74abfc"/></g></g></svg>