<svg xmlns="http://www.w3.org/2000/svg" viewBox="0 0 106 106"><g id="e442ba7a-19c0-42df-8566-00c8e701cc38" data-name="Layer 2"><g id="f6f18e6c-7a7e-46d5-9a53-083455c2e787" data-name="Layer 1"><circle cx="53" cy="53" r="53" fill="#fff"/><path d="M64.14,31.22h-22A10.73,10.73,0,0,0,31.41,41.94V64A10.73,10.73,0,0,0,42.13,74.67H63.86a1.24,1.24,0,0,0,0-2.48H42.13A8.26,8.26,0,0,1,33.88,64V49.37h38.5V63.92l-.15,8.27H68.41a1.24,1.24,0,0,0,0,2.48h6.25L74.85,64v-22A10.72,10.72,0,0,0,64.14,31.22Zm-22,2.48h22a8.25,8.25,0,0,1,8.17,7.21H34A8.24,8.24,0,0,1,42.13,33.7Z" fill="#74abfc" fill-rule="evenodd"/><path d="M37.34,58.47a1.3,1.3,0,0,0,0,2.6H49.8a1.3,1.3,0,1,0,0-2.6Z" fill="#74abfc" fill-rule="evenodd"/><path d="M68.61,60a3.42,3.42,0,0,0-6-2.21,3.41,3.41,0,1,0,0,4.42,3.42,3.42,0,0,0,6-2.21Z" fill="#74abfc" fill-rule="evenodd"/></g></g></svg>