<svg xmlns="http://www.w3.org/2000/svg" viewBox="0 0 106 106"><g id="f70535da-6353-4eca-a33e-8957a831c046" data-name="Layer 2"><g id="a66d98f5-ff7b-4466-a1d1-1326a005addd" data-name="Layer 1"><circle cx="53" cy="53" r="53" fill="#fff"/><path d="M65.68,51.73a8.06,8.06,0,0,0-1-9.9l-.18-.18a7.52,7.52,0,0,0-10.64.18l-1.25,1.29-1.26-1.3-.18-.19a7.54,7.54,0,0,0-11.91,1.92,8.29,8.29,0,0,0,1.46,9.67l3.07,3.18.17.19,8.65,8.94,4.62-4.78V58.88H55.57l-3,3.1-6.89-7.13-.08-.1-3.18-3.29a5.77,5.77,0,0,1-1.25-6.25,5.08,5.08,0,0,1,8.25-1.8l.12.12,3,3.15,3-3.13a5.06,5.06,0,0,1,7.15-.12l.13.12.12.14A5.59,5.59,0,0,1,64.23,49a3.69,3.69,0,0,1,.12.95v1.79Z" fill="#74abfc" fill-rule="evenodd"/><path d="M63.33,31h-22A10.73,10.73,0,0,0,30.6,41.7v22A10.72,10.72,0,0,0,41.32,74.42H63.05a1.24,1.24,0,1,0,0-2.47H41.32a8.26,8.26,0,0,1-8.25-8.24v-22a8.25,8.25,0,0,1,8.25-8.24h22a8.25,8.25,0,0,1,8.24,8.24v22L71.42,72H67.6a1.24,1.24,0,0,0,0,2.47h6.25L74,63.71v-22A10.72,10.72,0,0,0,63.33,31Z" fill="#74abfc" fill-rule="evenodd"/><path d="M67.22,55.1a1.86,1.86,0,0,0-1.83-1.42h-3v-3.9c0-1.28-1-2.27-2.14-1.86a1.81,1.81,0,0,0-1.11,1.72v4H55.9a1.91,1.91,0,0,0-1.57,2.47,1.86,1.86,0,0,0,1.84,1.43h3v3.9c0,1.28,1,2.27,2.14,1.86a1.81,1.81,0,0,0,1.11-1.73v-4h3.25A1.91,1.91,0,0,0,67.22,55.1Z" fill="#74abfc" fill-rule="evenodd"/></g></g></svg>