<svg xmlns="http://www.w3.org/2000/svg" viewBox="0 0 91.8 91.8"><g id="f6199c43-78f0-4a2a-be8a-1ab11f571bd6" data-name="Layer 2"><g id="b15a0ee6-bf27-4860-85d0-dd82c3574690" data-name="Layer 1"><circle cx="45.9" cy="45.9" r="45.05" fill="#fff" stroke="#74abfc" stroke-width="1.7"/><path d="M54,22.49c3.07-4.1,3.66-8.09,3.23-10.25l-.14-.69h-.7c-3,0-6.62,1.84-9.81,5-2.2,2.21-3.32,5.52-3.32,9.84v.9l.9,0C48.48,27,51.8,25.43,54,22.49ZM47.77,17.8c2.57-2.58,5.44-4.21,7.86-4.5a13.28,13.28,0,0,1-3,8.18,10.39,10.39,0,0,1-7.66,4C45.11,22.11,46.05,19.52,47.77,17.8Z" fill="#74abfc"/><path d="M69.39,56.12c-5.19-2.6-7.72-6.27-7.72-11.21a12.42,12.42,0,0,1,6.09-11.26l.76-.48L68,32.44c-2.41-3.37-6-5.45-10.81-6.16a13.6,13.6,0,0,0-9.4,1.94,6.8,6.8,0,0,1-3,1.13,7.71,7.71,0,0,1-3.39-1.16,14,14,0,0,0-6.85-1.92c-3.34,0-5.53.78-9,3.23-3.15,2.22-6.84,7.58-6.84,15.41a39.37,39.37,0,0,0,5.93,19.62c2.93,4.56,6,9.28,11.3,9.28a9.19,9.19,0,0,0,5.2-1.48,7.53,7.53,0,0,1,4.35-1.25,8.91,8.91,0,0,1,4.78,1.34A9.12,9.12,0,0,0,55,73.81c4.59,0,6.92-2.85,9.87-6.47a28,28,0,0,0,4.94-10.23l.19-.67ZM63.57,66.27c-3.13,3.84-4.94,5.84-8.55,5.84a7.57,7.57,0,0,1-4-1.18,10.56,10.56,0,0,0-5.59-1.55,9.22,9.22,0,0,0-5.2,1.48,7.5,7.5,0,0,1-4.35,1.25c-4.41,0-7.06-4.13-9.86-8.5a37.41,37.41,0,0,1-5.67-18.7c0-6.72,3.07-11.88,6.12-14s5.07-2.92,8-2.92a12.45,12.45,0,0,1,6.08,1.73,9,9,0,0,0,4.16,1.35,8.11,8.11,0,0,0,3.82-1.34A11.88,11.88,0,0,1,56.94,28a14.07,14.07,0,0,1,9.14,4.77A14.11,14.11,0,0,0,60,44.91c0,5.36,2.7,9.53,8,12.41A25.48,25.48,0,0,1,63.57,66.27Z" fill="#74abfc"/></g></g></svg>