<svg xmlns="http://www.w3.org/2000/svg" viewBox="0 0 108 108"><g id="e558c922-23d8-4397-a69f-47e7d67f16af" data-name="Layer 2"><g id="a88a3379-fa50-4526-829f-2498a24fb282" data-name="Layer 1"><circle cx="54" cy="54" r="53" fill="#fff" stroke="#74abfc" stroke-width="2"/><path d="M75.52,49.3c-.8-9.2-5.1-14.6-12.9-16V22.9a1,1,0,0,1,1-1h.7a3.47,3.47,0,1,0,3.93-4.35,3.41,3.41,0,0,0-3.93,2.35h-.7a3,3,0,0,0-3,3V33c-6.7-.6-12.1,2.4-16,9.1V22.9a3,3,0,0,0-3-3h-.8a3.48,3.48,0,0,0-6.69,1.87,3.5,3.5,0,0,0,6.69.13h.8a1,1,0,0,1,1,1V41.7a6.77,6.77,0,0,0-6.3,1c-2.5,1.8-3.3,4.6-2.4,8.2-6.9,1.3-10.3,4.9-10.3,11,0,6.4,4.4,10.1,13.2,11h5.8v12a1,1,0,0,1-1,1h-.8a3.48,3.48,0,0,0-6.69,1.87,3.5,3.5,0,0,0,6.69.13h.8a3,3,0,0,0,3-3v-12h16V85a2.86,2.86,0,0,0,2.86,2.86h.74a3.47,3.47,0,1,0,6.54-2.34,3.24,3.24,0,0,0-2.12-1.9,3.46,3.46,0,0,0-4.42,2.24h-.65a1,1,0,0,1-1-1v-12h12.3c6.3-1.9,9.5-5.7,9.5-11.5C84.32,55.9,81.42,51.8,75.52,49.3ZM68.1,19.6A1.4,1.4,0,1,1,66.6,21,1.39,1.39,0,0,1,68.1,19.6ZM37.9,22.4A1.4,1.4,0,1,1,39.4,21,1.45,1.45,0,0,1,37.9,22.4Zm0,66A1.4,1.4,0,1,1,39.4,87,1.52,1.52,0,0,1,37.9,88.4ZM68,85.6A1.4,1.4,0,1,1,66.5,87,1.45,1.45,0,0,1,68,85.6Zm6.8-14.7H37.3c-7.6-.8-11.3-3.7-11.3-9s3.2-8.3,9.6-9.2a.75.75,0,0,0,.7-.5.78.78,0,0,0,.1-.8c-1-3.3-.6-5.6,1.4-7.1s4.2-1.4,6.7.4a.75.75,0,0,0,.8.1,1,1,0,0,0,.6-.5c3.9-7.5,9.3-10.4,16.5-9.1s10.9,6.2,11.5,14.9a1.15,1.15,0,0,0,.6.9c5.5,2.2,8.1,5.6,8.1,10.5C82.7,66.1,80.1,69.3,74.8,70.9Z" fill="#74abfc"/></g></g></svg>