<svg xmlns="http://www.w3.org/2000/svg" viewBox="0 0 106 106"><g id="a1419d3c-2cde-4c69-8469-a62273b5d69c" data-name="Layer 2"><g id="b62ba880-4981-4d14-8d9d-9ca433eb6b9b" data-name="Layer 1"><circle cx="53" cy="53" r="53" fill="#fff"/><path d="M64,31.19H42A10.73,10.73,0,0,0,31.28,41.91v22A10.73,10.73,0,0,0,42,74.64H63.73a1.24,1.24,0,0,0,0-2.48H42a8.26,8.26,0,0,1-8.25-8.24v-22A8.25,8.25,0,0,1,42,33.67H64a8.25,8.25,0,0,1,8.25,8.24v22l-.15,8.26H68.28a1.24,1.24,0,0,0,0,2.48h6.25l.19-10.72v-22A10.73,10.73,0,0,0,64,31.19Z" fill="#74abfc" fill-rule="evenodd"/><path d="M54.69,46.74h1.24V43a3.46,3.46,0,0,0-3.45-3.45H43.12A3.45,3.45,0,0,0,39.67,43V62.8a3.44,3.44,0,0,0,3.45,3.44h9.36a3.45,3.45,0,0,0,3.45-3.44V57.3L53.46,58l-.13,0v4.6a1,1,0,0,1-1,1h-9.1a1,1,0,0,1-1-1V43.16a1,1,0,0,1,1-1h9.1a1,1,0,0,1,1,1v3.76A5.07,5.07,0,0,1,54.69,46.74Z" fill="#74abfc" fill-rule="evenodd"/><path d="M69.41,54.94a1.54,1.54,0,0,0,.17-.76V50.92A2.88,2.88,0,0,0,66.7,48H53a2.89,2.89,0,0,0-2.89,2.88v2.95A2.71,2.71,0,0,0,52,56.43a1.92,1.92,0,0,0,1,0l5.55-1.28h2.6l5.27,1.22A2.71,2.71,0,0,0,69.41,54.94ZM56.58,52.26v.06a.33.33,0,0,1-.32.27h-1v1a.33.33,0,0,1-.32.27h-.71a.32.32,0,0,1-.26-.32v-1h-1a.32.32,0,0,1-.27-.32v-.71a.32.32,0,0,1,.32-.26h1v-1A.32.32,0,0,1,54.3,50H55a.33.33,0,0,1,.27.32v1h1a.33.33,0,0,1,.27.32ZM66,54.06a1.63,1.63,0,1,1,1.62-1.63A1.63,1.63,0,0,1,66,54.06Z" fill="#74abfc" fill-rule="evenodd"/><path d="M50.72,44.46a1,1,0,0,0-1-1h-3.9a1,1,0,1,0,0,2h3.9A1,1,0,0,0,50.72,44.46Z" fill="#74abfc" fill-rule="evenodd"/><path d="M49.75,60.56a1.89,1.89,0,0,1-.44,1.23,1.95,1.95,0,0,1-3.46-1.23,1.95,1.95,0,1,1,3.9,0Z" fill="#74abfc" fill-rule="evenodd"/></g></g></svg>