<svg xmlns="http://www.w3.org/2000/svg" viewBox="0 0 106 106"><g id="ac28d971-b83b-4722-82db-f92b1055d899" data-name="Layer 2"><g id="a277823f-8424-4035-b60a-32fd272a458c" data-name="Layer 1"><circle cx="53" cy="53" r="53" fill="#fff"/><path d="M64.16,42.9l-1.54-.7a34,34,0,0,1-6.49-3.85l-2.06-1.54a1.23,1.23,0,0,0-1.47,0l-1.75,1.27a42.49,42.49,0,0,1-6.75,4l-1.68.8h0a3.82,3.82,0,0,0-2,4.53C44.77,62.55,48.88,69.6,53.33,69.6s8.54-7,12.92-22.14A3.85,3.85,0,0,0,64.16,42.9Zm-.28,3.87c-5.33,18.37-9.16,20.36-10.55,20.36s-5.23-2-10.57-20.39a1.37,1.37,0,0,1,.72-1.62l1.69-.8a45.13,45.13,0,0,0,7.14-4.25l1-.74,1.33,1a37.2,37.2,0,0,0,7,4.12l1.54.7A1.36,1.36,0,0,1,63.88,46.77Z" fill="#74abfc"/><path d="M64,31.06H42A10.73,10.73,0,0,0,31.28,41.78v22A10.73,10.73,0,0,0,42,74.51H63.73a1.24,1.24,0,1,0,0-2.48H42a8.26,8.26,0,0,1-8.25-8.24v-22A8.26,8.26,0,0,1,42,33.54H64a8.26,8.26,0,0,1,8.25,8.24v22L72.1,72H68.28a1.24,1.24,0,1,0,0,2.48h6.25l.19-10.72v-22A10.73,10.73,0,0,0,64,31.06Z" fill="#74abfc"/></g></g></svg>