<svg xmlns="http://www.w3.org/2000/svg" viewBox="0 0 106 106"><g id="b2a26be1-bb08-4535-93dd-80158950873f" data-name="Layer 2"><g id="a125d1b4-bd13-4e38-a7cc-8d0a25cc6841" data-name="Layer 1"><circle cx="53" cy="53" r="53" fill="#fff"/><path d="M56.11,64.45h5.55l1.25,1.75a1.23,1.23,0,0,0,1,.51h0a1.24,1.24,0,0,0,1-.5l1.31-1.78a3.84,3.84,0,0,0,3.48-3.82v-3.9a3.84,3.84,0,0,0-3.83-3.84H64.5V44.35a3.84,3.84,0,0,0-3.84-3.83H40.5a3.84,3.84,0,0,0-3.83,3.83v9.76a3.84,3.84,0,0,0,3.83,3.83h1.43l2.24,2.31a1.24,1.24,0,0,0,1.77,0l2.24-2.31h4.1v2.67A3.84,3.84,0,0,0,56.11,64.45Zm-8.45-9a1.23,1.23,0,0,0-.89.38l-1.71,1.77-1.72-1.77a1.23,1.23,0,0,0-.88-.38h-2a1.36,1.36,0,0,1-1.36-1.36V44.35A1.36,1.36,0,0,1,40.5,43H60.66A1.36,1.36,0,0,1,62,44.35v8.52H56.11a3.81,3.81,0,0,0-3.61,2.6Z" fill="#74abfc"/><path d="M64.19,31.41h-22A10.73,10.73,0,0,0,31.46,42.13v22A10.73,10.73,0,0,0,42.18,74.85H63.92a1.24,1.24,0,0,0,0-2.47H42.18a8.26,8.26,0,0,1-8.24-8.25v-22a8.26,8.26,0,0,1,8.24-8.25h22a8.25,8.25,0,0,1,8.24,8.25v22l-.14,8.27H68.47a1.24,1.24,0,1,0,0,2.47h6.25l.19-10.72v-22A10.73,10.73,0,0,0,64.19,31.41Z" fill="#74abfc"/></g></g></svg>