<svg xmlns="http://www.w3.org/2000/svg" viewBox="0 0 106 106"><g id="be0552d6-2422-4939-8452-8176f870d167" data-name="Layer 2"><g id="bae6d557-b21e-4a58-9f79-688982b80ef4" data-name="Layer 1"><circle cx="53" cy="53" r="53" fill="#fff"/><path d="M61.78,67.55a6.5,6.5,0,0,0,5.27-10.3V44a3.84,3.84,0,0,0-3.83-3.84H41.63A3.84,3.84,0,0,0,37.79,44V55.81a3.83,3.83,0,0,0,3.84,3.83h13.8a6.62,6.62,0,0,0-.15,1.41A6.5,6.5,0,0,0,61.78,67.55ZM64.4,61.4a.69.69,0,0,1-.19.19l-3.35,2.18a.66.66,0,0,1-.9-.19.69.69,0,0,1-.11-.36l0-4.36a.66.66,0,0,1,1-.54l3.3,2.18A.65.65,0,0,1,64.4,61.4ZM41.76,57a1.36,1.36,0,0,1-1.37-1.36V44.1a1.37,1.37,0,0,1,1.37-1.37H63.09a1.37,1.37,0,0,1,1.36,1.37v11a6.59,6.59,0,0,0-2.67-.57A6.48,6.48,0,0,0,56.66,57Z" fill="#74abfc"/><path d="M57.64,53.5l-3.83-7.65a.58.58,0,0,0-.29-.29.65.65,0,0,0-.87.29L50,51.19l-.72-1.44a.63.63,0,0,0-.29-.29.65.65,0,0,0-.87.29L46.22,53.5a.73.73,0,0,0-.07.29.65.65,0,0,0,.65.65H57.05a.63.63,0,0,0,.3-.07A.65.65,0,0,0,57.64,53.5Z" fill="#74abfc"/><path d="M63.42,31.09h-22A10.73,10.73,0,0,0,30.7,41.81v22A10.73,10.73,0,0,0,41.42,74.54H63.15a1.24,1.24,0,1,0,0-2.48H41.42a8.26,8.26,0,0,1-8.25-8.24v-22a8.25,8.25,0,0,1,8.25-8.24h22a8.25,8.25,0,0,1,8.25,8.24v22l-.15,8.26H67.7a1.24,1.24,0,0,0,0,2.48H74l.19-10.72v-22A10.73,10.73,0,0,0,63.42,31.09Z" fill="#74abfc"/></g></g></svg>