<svg xmlns="http://www.w3.org/2000/svg" viewBox="0 0 108 108"><g id="fb773339-a92c-4389-a1de-9565f2d9e732" data-name="Layer 2"><g id="b646a50d-20f7-4a29-a533-0ca6de651993" data-name="Layer 1"><circle cx="54" cy="54" r="53" fill="#fff" stroke="#74abfc" stroke-width="2"/><path d="M40.62,35h24a1,1,0,0,0,1-1V25.83a7.65,7.65,0,0,0-2.35-5.54A8,8,0,0,0,57.64,18h-10A8,8,0,0,0,42,20.29a7.69,7.69,0,0,0-2.34,5.54V34A1,1,0,0,0,40.62,35Zm1-9.17a5.77,5.77,0,0,1,1.74-4.12A6,6,0,0,1,47.6,20h10a6,6,0,0,1,4.23,1.71,5.72,5.72,0,0,1,1.75,4.12V33h-22Z" fill="#74abfc"/><path d="M64.62,74h-24a1,1,0,0,0-1,1v8.17A7.69,7.69,0,0,0,42,88.71,8,8,0,0,0,47.6,91h10a8,8,0,0,0,5.63-2.29,7.65,7.65,0,0,0,2.35-5.54V75A1,1,0,0,0,64.62,74Zm-1,9.17a5.72,5.72,0,0,1-1.75,4.12A6,6,0,0,1,57.64,89h-10a6,6,0,0,1-4.24-1.71,5.77,5.77,0,0,1-1.74-4.12V76h22Z" fill="#74abfc"/><path d="M37.62,54h2l1.06,1.06a1,1,0,0,0,.71.3h.14a1,1,0,0,0,.73-.51l3.37-6.06a1.05,1.05,0,0,1,.48-.43,1,1,0,0,1,.76,0,1,1,0,0,1,.55.53l1.94,4.52a1,1,0,0,0,.92.61h6.34l.15.3a1,1,0,0,0,.87.56,1.07,1.07,0,0,0,.9-.52l3-5.45a1,1,0,0,1,.52-.45,1,1,0,0,1,1.29.59l2,5.32a1,1,0,0,0,.93.65h1.31a2,2,0,0,0,2-2,3.3,3.3,0,0,0,1.5-1.5,5.59,5.59,0,0,0,.5-2.5,4.73,4.73,0,0,0-2-4.24h0a7,7,0,0,0-7-6.76h-20a7,7,0,0,0-7,7v7a2,2,0,0,0,2,2Zm0-9a5,5,0,0,1,5-5h20a5,5,0,0,1,5,4.83c0,.15,0,.29,0,.44a1,1,0,0,0,.56.95l.32.19A2.78,2.78,0,0,1,69.62,49a3.74,3.74,0,0,1-.29,1.61,1.41,1.41,0,0,1-1.06.74,1,1,0,0,0-.83.63,1,1,0,0,0,.18,1H67l-1.75-4.68a3,3,0,0,0-3.86-1.75,3,3,0,0,0-1.57,1.35L57.53,52a1.35,1.35,0,0,0-.29,0h-6.3l-1.68-3.91a3,3,0,0,0-1.64-1.61,3,3,0,0,0-3.74,1.33l-2.72,4.9-.42-.42A1,1,0,0,0,40,52H37.62Z" fill="#74abfc"/><path d="M66.14,57A.47.47,0,0,0,66,57h-.35l-2.2-5.13a1,1,0,0,0-.87-.6,1,1,0,0,0-.92.51l-4,7.22-.77-2.32a1,1,0,0,0-1-.68H49.62l-2.15-4.3a1,1,0,0,0-.88-.56,1,1,0,0,0-.89.52L41.62,59l-1.7-2.55a1,1,0,0,0-.84-.45H37.62a2,2,0,0,0-2,2v6a7,7,0,0,0,7,7h20a6.88,6.88,0,0,0,4.89-2,7.33,7.33,0,0,0,2.11-5,3.85,3.85,0,0,0,1.5-1.25,3.31,3.31,0,0,0,0-3.5C70.27,58,68.51,57.43,66.14,57Zm3.31,4.62a1.8,1.8,0,0,1-.73.57,2.37,2.37,0,0,1-.41.17,1,1,0,0,0-.7,1c0,.17,0,.35,0,.53a5.33,5.33,0,0,1-1.53,3.63A4.85,4.85,0,0,1,62.62,69h-20a5,5,0,0,1-5-5V58h.93l2.31,3.47a1,1,0,0,0,1.71-.06l4-7.12,1.58,3.16A1,1,0,0,0,49,58h6.18l1.26,3.79a1,1,0,0,0,.86.68,1,1,0,0,0,1-.51l4.13-7.42L64,58.39A1,1,0,0,0,65,59h.92c1.43.25,3.09.64,3.57,1.36a1.29,1.29,0,0,1,0,1.28Z" fill="#74abfc"/></g></g></svg>