<svg xmlns="http://www.w3.org/2000/svg" viewBox="0 0 108 108"><g id="a51c7fdd-f9b2-4513-ac33-2f35c5d6933c" data-name="Layer 2"><g id="ab5f3142-bb0c-4efd-94a6-3cdc02473c45" data-name="Layer 1"><circle cx="54" cy="54" r="53" fill="#fff" stroke="#74abfc" stroke-width="2"/><path d="M31,33a3,3,0,1,0,3,3A3,3,0,0,0,31,33Zm0,4a1,1,0,1,1,1-1A1,1,0,0,1,31,37Z" fill="#71a9ff"/><path d="M40,33a3,3,0,1,0,3,3A3,3,0,0,0,40,33Zm0,4a1,1,0,1,1,1-1A1,1,0,0,1,40,37Z" fill="#71a9ff"/><path d="M49,33a3,3,0,1,0,3,3A3,3,0,0,0,49,33Zm0,4a1,1,0,1,1,1-1A1,1,0,0,1,49,37Z" fill="#71a9ff"/><path d="M84.45,31.93A9.93,9.93,0,0,0,77.38,29h-46a10,10,0,0,0-10,10v3h66V39A10,10,0,0,0,84.45,31.93ZM85.38,40h-62V39a8,8,0,0,1,8-8h46a8,8,0,0,1,8,8Z" fill="#71a9ff"/><path d="M21.38,70a10,10,0,0,0,10,10h46a10,10,0,0,0,10-10V46h-66Zm2-22h62V70a8,8,0,0,1-8,8h-46a8,8,0,0,1-8-8Z" fill="#71a9ff"/></g></g></svg>