<?xml version="1.0" encoding="UTF-8"?>
<svg width="36px" height="36px" viewBox="0 0 36 36" version="1.1" xmlns="http://www.w3.org/2000/svg" xmlns:xlink="http://www.w3.org/1999/xlink">
    <!-- Generator: Sketch 57.1 (83088) - https://sketch.com -->
    <title>maintainable_icon</title>
    <desc>Created with Sketch.</desc>
    <g id="HS_Website" stroke="none" stroke-width="1" fill="none" fill-rule="evenodd">
        <g id="[desktop]-Services" transform="translate(-718.000000, -4561.000000)" stroke="#74ABFC" stroke-width="2">
            <g id="maintainable_icon" transform="translate(736.000000, 4579.000000) rotate(-315.000000) translate(-736.000000, -4579.000000) translate(719.000000, 4559.000000)">
                <path d="M25.0335887,34.985802 C30.3710052,32.1185139 34,26.4830555 34,20 C34,13.5115969 30.365016,7.87218985 25.0203775,5.00710842" id="Oval" stroke-linecap="round"></path>
                <path d="M0.0132111454,34.985802 C5.35062764,32.1185139 8.97962247,26.4830555 8.97962247,20 C8.97962247,13.5115969 5.34463844,7.87218985 -6.21724894e-15,5.00710842" id="Oval" stroke-linecap="round" transform="translate(4.489811, 19.996455) scale(-1, 1) translate(-4.489811, -19.996455) "></path>
                <g id="Group-17" transform="translate(14.000000, 0.000000)">
                    <path d="M2.18046042,1 L2.82199494,4.84920709 C2.83649758,4.93622293 2.91178388,5 3,5 C3.08821612,5 3.16350242,4.93622293 3.17800506,4.84920709 L3.81953958,1 L2.18046042,1 Z" id="Rectangle"></path>
                    <path d="M1,24 L1,37 C1,38.1045695 1.8954305,39 3,39 C4.1045695,39 5,38.1045695 5,37 L5,24 L1,24 Z" id="Rectangle-Copy-20"></path>
                    <path d="M3,20 L3,26" id="Path-27" stroke-linecap="round" transform="translate(3.000000, 23.000000) rotate(-270.000000) translate(-3.000000, -23.000000) "></path>
                    <path d="M3,3 L3,23" id="Path-27"></path>
                </g>
            </g>
        </g>
    </g>
</svg>