<?xml version="1.0" encoding="UTF-8"?>
<svg width="34px" height="38px" viewBox="0 0 34 38" version="1.1" xmlns="http://www.w3.org/2000/svg" xmlns:xlink="http://www.w3.org/1999/xlink">
    <!-- Generator: Sketch 57.1 (83088) - https://sketch.com -->
    <title>Secure_icon</title>
    <desc>Created with Sketch.</desc>
    <g id="HS_Website" stroke="none" stroke-width="1" fill="none" fill-rule="evenodd">
        <g id="[desktop]-Services" transform="translate(-1043.000000, -4301.000000)" stroke="#74ABFC" stroke-width="2">
            <g id="Secure_icon" transform="translate(1044.000000, 4302.000000)">
                <path d="M16,36 C21,36 32,20.3888407 32,11 C32,5.19615238 30.4388938,9.0672768 26,6 C23.2581286,4.10536614 19.5849931,0 16,0 C12.3287575,0 8.77887077,4.02129916 6,6 C1.67218279,9.08163145 0,5.28240178 0,11 C0,20.3888407 11,36 16,36 Z" id="Oval-Copy-25"></path>
                <rect id="Rectangle" x="10.8235294" y="14" width="10.3529412" height="9" rx="4"></rect>
                <path d="M13.4705882,14 L18.5294118,14 L18.5294118,11.5294118 C18.5294118,10.1324562 17.3969555,9 16,9 C14.6030445,9 13.4705882,10.1324562 13.4705882,11.5294118 L13.4705882,14 Z" id="Rectangle-Copy"></path>
            </g>
        </g>
    </g>
</svg>