<?xml version="1.0" encoding="UTF-8"?>
<svg width="129px" height="129px" viewBox="0 0 129 129" version="1.1" xmlns="http://www.w3.org/2000/svg" xmlns:xlink="http://www.w3.org/1999/xlink">
    <title>Group 9</title>
    <defs>
        <radialGradient cx="50%" cy="50%" fx="50%" fy="50%" r="84.6419009%" id="radialGradient-1">
            <stop stop-color="#FFFFFF" offset="0%"></stop>
            <stop stop-color="#F66847" offset="100%"></stop>
        </radialGradient>
        <radialGradient cx="50%" cy="50%" fx="50%" fy="50%" r="50%" id="radialGradient-2">
            <stop stop-color="#FFFFFF" offset="0%"></stop>
            <stop stop-color="#F66847" offset="100%"></stop>
        </radialGradient>
        <path d="M0.852633379,9.30980659 C0.86443456,9.31374031 0.874247289,9.32210259 0.880002893,9.33313051 C2.70114676,12.8225012 5.20944489,16.291049 8.40489727,19.7387739 C13.2440805,24.959998 16.4277538,27.1248957 17.2555088,27.4432631 C17.4617988,27.5226054 17.6759982,27.5584462 17.8882513,27.5468433 C16.6657971,27.8937712 15.3746457,28.0799977 14.0399988,28.0799977 C6.2859216,28.0799977 0,21.7940761 0,14.0399988 C0,12.3820866 0.287363628,10.7912917 0.814999661,9.31470542 C0.825392463,9.30709566 0.839298886,9.30536176 0.852633379,9.30980659 Z M14.3758124,15.0484531 L19.5479008,16.0336128 C19.5891141,16.0414629 19.6266218,16.0625962 19.6546878,16.0937805 L25.2864162,22.3512565 C25.3021376,22.3687248 25.3103646,22.3905739 25.3110178,22.4126314 C23.6274811,24.675805 21.2782924,26.4143315 18.5532928,27.3388323 C18.9346749,27.1113254 19.2687966,26.688297 19.48408,26.0424468 C19.9297943,24.7053041 19.8024474,23.9412225 18.5289781,21.7126513 C17.6891185,20.242897 16.2884434,18.0461597 14.3269529,15.1224394 C14.312077,15.1004342 14.3179619,15.070557 14.3400193,15.055759 C14.350525,15.0487108 14.3633848,15.0460859 14.3758124,15.0484531 Z M28.0193148,14.977513 C28.0285544,14.9847058 28.0348763,14.9950015 28.0371113,15.0064954 L28.0448134,15.0417192 C27.9676627,16.1361472 27.7650766,17.1959495 27.4513432,18.2068379 C27.440386,18.2161422 27.4247823,18.2199119 27.4094804,18.2157208 C27.3995926,18.2130126 27.3908426,18.207186 27.384531,18.1991072 L25.8937096,16.2908558 C25.8781862,16.2698381 25.8818362,16.2401168 25.9024189,16.2240366 C25.9068714,16.2205581 25.9119111,16.2179057 25.9172992,16.2162049 C26.4388381,16.0515838 26.8625948,15.8674062 27.1885692,15.6636722 C27.4946735,15.472357 27.749043,15.246552 27.9516776,14.986257 C27.9677604,14.9648679 27.998201,14.9610763 28.0193148,14.977513 Z M14.0399988,0 C21.5496908,0 27.6823126,5.89593874 28.0614167,13.3113689 C28.0543707,13.3244454 28.0410044,13.3326836 28.0254401,13.3337319 C28.0105236,13.3347365 27.9959699,13.3288465 27.9859507,13.3177503 C27.7882905,13.0988412 27.5437211,12.9893867 27.2522427,12.9893867 L26.9948321,12.9892358 C26.3296849,12.9882547 25.0236714,12.9808969 24.1959164,12.9257132 C23.9168033,12.9071057 23.6743951,12.8925765 23.4686916,12.8821256 L23.3212945,12.8750893 C23.0147969,12.8613281 22.7278479,12.7206477 22.5292585,12.4867836 C22.2146071,12.1162419 21.8999557,11.7107151 21.5853044,11.2702032 C20.9485697,10.3787747 18.7836719,7.19510145 17.701223,5.8579587 C16.6187741,4.52081596 15.7273456,3.69306092 14.8995906,3.69306092 C14.0718356,3.69306092 13.4987744,4.96653021 13.2440805,5.60326485 C12.9893867,6.23999949 12.6073459,7.95918302 12.4163255,9.35999923 C12.3203378,10.0639094 12.2484669,10.7316441 12.200713,11.3632035 L12.1693485,11.830086 C12.1678109,11.8565117 12.1451422,11.8766875 12.1187165,11.8751499 C12.1039326,11.8742897 12.0903766,11.8666438 12.0819926,11.8544368 C11.0048656,10.2861529 9.92773855,8.83916358 8.85061152,7.51346877 C7.19510145,5.47591792 6.11265256,4.39346903 5.66693831,3.94775478 C5.38929548,3.67011195 5.20430355,3.44805966 5.11196251,3.2815979 L5.11219251,3.28147032 C5.10125413,3.26175187 5.10560522,3.23706874 5.12262663,3.22227898 C5.37189849,3.00568878 5.64372386,2.78909858 5.93810276,2.57250838 L6.12965218,2.43887945 C8.38224463,0.899956635 11.1060237,0 14.0399988,0 Z M14.1358227,8.95288089 C14.1589911,8.9403097 14.1879636,8.94890037 14.2005348,8.97206868 L14.2005348,8.97206868 C14.5186111,9.55770183 14.8364478,10.0690961 15.1542845,10.5061216 C15.4738401,10.9455106 15.8685711,11.4412811 16.3384776,11.9934332 C16.3480082,12.004632 16.3519465,12.0195484 16.3491861,12.0339923 C16.3441554,12.060316 16.3187376,12.0775773 16.2924139,12.0725465 L16.2924139,12.0725465 L16.0420871,12.024476 C15.1491875,11.8560707 14.5348859,11.7532178 14.1991825,11.7159174 C14.0818622,11.7028818 13.9825558,11.6878447 13.9012632,11.670806 C13.8968333,11.6698775 13.8924259,11.6688447 13.8880447,11.6677085 C13.7340938,11.6277819 13.6416589,11.4706132 13.6815854,11.3166623 L13.6815854,11.3166623 L13.7360325,11.0998382 C13.8037878,10.820495 13.8520486,10.5801405 13.8808152,10.3787747 C13.920547,10.100652 13.9974673,9.63658665 14.1115763,8.98657847 C14.1140942,8.97223511 14.1230229,8.95982612 14.1358227,8.95288089 Z" id="path-3"></path>
    </defs>
    <g id="HS_Website" stroke="none" stroke-width="1" fill="none" fill-rule="evenodd">
        <g id="[desktop]-Contact-Us" transform="translate(-850.000000, -895.000000)">
            <g id="Screenshot-2020-08-14-at-16.27.04-(2)" transform="translate(469.000000, 857.000000)">
                <g id="Group-9" transform="translate(381.397802, 38.268684)">
                    <circle id="Oval" stroke="url(#radialGradient-1)" stroke-width="16" opacity="0.287318638" cx="64" cy="64" r="22"></circle>
                    <circle id="Oval" stroke="url(#radialGradient-2)" stroke-width="34" opacity="0.108816964" cx="64" cy="64" r="47"></circle>
                    <g id="Combined-Shape" transform="translate(50.000000, 50.000000)">
                        <mask id="mask-4" fill="white">
                            <use xlink:href="#path-3"></use>
                        </mask>
                        <use fill="#97A7B5" fill-rule="evenodd" xlink:href="#path-3"></use>
                        <polygon id="Rectangle" fill="#F66847" fill-rule="evenodd" mask="url(#mask-4)" points="3.33599973 -1.29599989 29.5439976 -1.29599989 30.3119975 22.1759982 20.9519983 12.383999 3.33599973 12.383999"></polygon>
                    </g>
                </g>
            </g>
        </g>
    </g>
</svg>