<?xml version="1.0" encoding="UTF-8"?>
<svg width="49px" height="34px" viewBox="0 0 49 34" version="1.1" xmlns="http://www.w3.org/2000/svg" xmlns:xlink="http://www.w3.org/1999/xlink">
    <title>Group 66 Copy 3</title>
    <g id="HS_Website" stroke="none" stroke-width="1" fill="none" fill-rule="evenodd">
        <g id="[desktop]-Homepage" transform="translate(-1013.000000, -7878.000000)" stroke="#4A4A4A" stroke-width="2">
            <g id="Group-41" transform="translate(0.000000, 7318.000000)">
                <g id="Group-2" transform="translate(915.000000, 537.000000)">
                    <g id="Group-66-Copy-3" transform="translate(98.999993, 24.799999)">
                        <g id="Group-25" transform="translate(0.284263, 0.589509)">
                            <g id="Group-24" transform="translate(0.295410, 0.000000)">
                                <path d="M8.47696582,29.5409827 C4.02741103,29.5409827 0.420334181,25.8377171 0.420334181,21.2695075 C0.420334181,17.0510582 3.49621169,13.5701761 7.47099596,13.0618845 L7.46988687,12.9980324 C7.46988687,10.0613262 9.7243099,7.6806555 12.5052816,7.6806555 C13.1331583,7.6806555 13.7341942,7.80200969 14.2885034,8.02371857 C16.0132391,3.33480395 20.4259464,7.28306304e-14 25.5973081,7.28306304e-14 C32.2716402,7.28306304e-14 37.6822555,5.55489835 37.6822555,12.4072127 C37.6822555,12.6260187 37.6767387,12.8435019 37.66584,13.0595235 C41.6481505,13.5613782 44.7318082,17.0457264 44.7318082,21.2695075 C44.7318082,25.4876015 41.656449,28.9682524 37.6821511,29.477002 L37.6822555,29.5409827 Z" id="Combined-Shape"></path>
                            </g>
                        </g>
                    </g>
                </g>
            </g>
        </g>
    </g>
</svg>