<?xml version="1.0" encoding="UTF-8"?>
<svg width="46px" height="35px" viewBox="0 0 46 35" version="1.1" xmlns="http://www.w3.org/2000/svg" xmlns:xlink="http://www.w3.org/1999/xlink">
    <title>app copy</title>
    <g id="HS_Website" stroke="none" stroke-width="1" fill="none" fill-rule="evenodd">
        <g id="[desktop]-Services" transform="translate(-537.000000, -1510.000000)">
            <g id="Group-6" transform="translate(215.000000, 1327.000000)">
                <g id="Group-7" transform="translate(322.000000, 173.399996)">
                    <g id="app-copy" transform="translate(0.000000, 9.600004)">
                        <rect id="Rectangle" stroke="#4A4A4A" stroke-width="1.5" x="0.75" y="0.75" width="44.5" height="33.5" rx="6"></rect>
                        <line x1="1" y1="11" x2="45.5" y2="11" id="Path-9" stroke="#4A4A4A" stroke-width="1.5"></line>
                        <circle id="Oval" fill="#4A4A4A" cx="6" cy="6.5" r="1.5"></circle>
                        <circle id="Oval-Copy-5" fill="#4A4A4A" cx="12" cy="6.5" r="1.5"></circle>
                        <circle id="Oval-Copy-6" fill="#4A4A4A" cx="18" cy="6.5" r="1.5"></circle>
                        <rect id="Rectangle" fill="#F66847" x="4" y="19" width="11" height="1.5" rx="0.75"></rect>
                        <path d="M18.75,19 L23,19 L23,19 L23,20.5 L18.75,20.5 C18.3357864,20.5 18,20.1642136 18,19.75 C18,19.3357864 18.3357864,19 18.75,19 Z" id="Rectangle-Copy-3" fill="#F66847"></path>
                        <rect id="Rectangle-Copy-5" fill="#F66847" x="4" y="23" width="19" height="1.5" rx="0.75"></rect>
                        <path d="M45.25,16.75 L28,16.75 C26.5502525,16.75 25.2377525,17.3376263 24.2876894,18.2876894 C23.3376263,19.2377525 22.75,20.5502525 22.75,22 L22.75,34.25 L40,34.25 C41.4497475,34.25 42.7622475,33.6623737 43.7123106,32.7123106 C44.6623737,31.7622475 45.25,30.4497475 45.25,29 L45.25,16.75 Z" id="Rectangle-Copy-6" stroke="#4A4A4A" stroke-width="1.5"></path>
                        <rect id="Rectangle-Copy-25" fill="#F66847" x="30.5081051" y="25.6940292" width="5" height="1.5" rx="0.75"></rect>
                        <path d="M39.0124942,27.3986422 L35.6791609,27.3986422 C35.310971,27.3986422 35.0124942,27.1001654 35.0124942,26.7319756 L35.0124942,23.3986422" id="Rectangle" stroke="#F66847" stroke-width="1.5" stroke-linecap="round" transform="translate(37.012494, 25.398642) rotate(-167.000000) translate(-37.012494, -25.398642) "></path>
                        <rect id="Rectangle-Copy-24" fill="#F66847" transform="translate(29.568009, 27.268943) rotate(-27.000000) translate(-29.568009, -27.268943) " x="27.0680092" y="26.5189433" width="5" height="1.5" rx="0.75"></rect>
                        <rect id="Rectangle-Copy-26" fill="#F66847" transform="translate(36.479021, 25.598597) rotate(-27.000000) translate(-36.479021, -25.598597) " x="33.9790208" y="24.8485967" width="5" height="1.5" rx="0.75"></rect>
                    </g>
                </g>
            </g>
        </g>
    </g>
</svg>