<?xml version="1.0" encoding="UTF-8"?>
<svg width="46px" height="35px" viewBox="0 0 46 35" version="1.1" xmlns="http://www.w3.org/2000/svg" xmlns:xlink="http://www.w3.org/1999/xlink">
    <title>saas copy</title>
    <g id="HS_Website" stroke="none" stroke-width="1" fill="none" fill-rule="evenodd">
        <g id="[desktop]-Services" transform="translate(-215.000000, -1608.000000)">
            <g id="Group-6" transform="translate(215.000000, 1327.000000)">
                <g id="Group-8" transform="translate(0.000000, 271.000000)">
                    <g id="saas-copy" transform="translate(0.000000, 10.000000)">
                        <rect id="Rectangle" stroke="#4A4A4A" stroke-width="1.5" x="0.75" y="0.75" width="44.5" height="33.5" rx="6"></rect>
                        <line x1="1" y1="11" x2="45.5" y2="11" id="Path-9" stroke="#4A4A4A" stroke-width="1.5"></line>
                        <circle id="Oval" fill="#4A4A4A" cx="6" cy="6.5" r="1.5"></circle>
                        <circle id="Oval-Copy-5" fill="#4A4A4A" cx="12" cy="6.5" r="1.5"></circle>
                        <circle id="Oval-Copy-6" fill="#4A4A4A" cx="18" cy="6.5" r="1.5"></circle>
                        <rect id="Rectangle" fill="#F66847" transform="translate(10.750000, 26.500000) rotate(-90.000000) translate(-10.750000, -26.500000) " x="6.25" y="25.75" width="9" height="1.5" rx="0.75"></rect>
                        <rect id="Rectangle-Copy-8" fill="#F66847" transform="translate(15.750000, 27.500000) rotate(-90.000000) translate(-15.750000, -27.500000) " x="12.25" y="26.75" width="7" height="1.5" rx="0.75"></rect>
                        <rect id="Rectangle-Copy-9" fill="#F66847" transform="translate(20.750000, 25.500000) rotate(-90.000000) translate(-20.750000, -25.500000) " x="15.25" y="24.75" width="11" height="1.5" rx="0.75"></rect>
                        <rect id="Rectangle-Copy-10" fill="#F66847" transform="translate(25.750000, 24.000000) rotate(-90.000000) translate(-25.750000, -24.000000) " x="18.75" y="23.25" width="14" height="1.5" rx="0.75"></rect>
                        <rect id="Rectangle-Copy-11" fill="#F66847" transform="translate(30.750000, 22.500000) rotate(-90.000000) translate(-30.750000, -22.500000) " x="22.25" y="21.75" width="17" height="1.5" rx="0.75"></rect>
                        <rect id="Rectangle-Copy-22" fill="#F66847" transform="translate(35.750000, 23.500000) rotate(-90.000000) translate(-35.750000, -23.500000) " x="28.25" y="22.75" width="15" height="1.5" rx="0.75"></rect>
                    </g>
                </g>
            </g>
        </g>
    </g>
</svg>