<?xml version="1.0" encoding="UTF-8"?>
<svg width="46px" height="35px" viewBox="0 0 46 35" version="1.1" xmlns="http://www.w3.org/2000/svg" xmlns:xlink="http://www.w3.org/1999/xlink">
    <title>enterprise copy 2</title>
    <g id="HS_Website" stroke="none" stroke-width="1" fill="none" fill-rule="evenodd">
        <g id="[desktop]-Services" transform="translate(-537.000000, -1608.000000)">
            <g id="Group-6" transform="translate(215.000000, 1327.000000)">
                <g id="Group-11" transform="translate(322.000000, 271.000000)">
                    <g id="enterprise-copy-2" transform="translate(0.000000, 10.000000)">
                        <g id="Group-2-Copy-3">
                            <rect id="Rectangle" stroke="#4A4A4A" stroke-width="1.5" x="0.75" y="0.75" width="44.5" height="33.5" rx="6"></rect>
                            <path d="M23.5223292,20.75 L17.2723292,20.75 C16.6510089,20.75 16.0885089,21.0018398 15.6813389,21.4090097 C15.274169,21.8161797 15.0223292,22.3786797 15.0223292,23 L15.0223292,28 C15.0223292,28.6213203 15.274169,29.1838203 15.6813389,29.5909903 C16.0885089,29.9981602 16.6510089,30.25 17.2723292,30.25 L23.5223292,30.25 L23.5223292,20.75 Z" id="Rectangle" stroke="#F66847" stroke-width="1.5"></path>
                            <rect id="Rectangle-Copy-23" stroke="#F66847" fill="#D8D8D8" x="17.7723292" y="24.5" width="3" height="1" rx="0.5"></rect>
                            <rect id="Rectangle-Copy-30" stroke="#F66847" fill="#D8D8D8" x="26.4438219" y="24.3648966" width="3" height="1" rx="0.5"></rect>
                            <rect id="Rectangle-Copy-37" stroke="#F66847" fill="#D8D8D8" x="26.5087663" y="16.9123773" width="3" height="1" rx="0.5"></rect>
                            <rect id="Rectangle-Copy-27" stroke="#F66847" fill="#D8D8D8" x="17.7723292" y="27.5" width="3" height="1" rx="0.5"></rect>
                            <rect id="Rectangle-Copy-31" stroke="#F66847" fill="#D8D8D8" x="26.5087663" y="27.9123773" width="3" height="1" rx="0.5"></rect>
                            <rect id="Rectangle-Copy-38" stroke="#F66847" fill="#D8D8D8" x="26.4724094" y="20.7004114" width="3" height="1" rx="0.5"></rect>
                            <path d="M32.25,14.75 L26,14.75 C25.3786797,14.75 24.8161797,15.0018398 24.4090097,15.4090097 C24.0018398,15.8161797 23.75,16.3786797 23.75,17 L23.75,28 C23.75,28.6213203 24.0018398,29.1838203 24.4090097,29.5909903 C24.8161797,29.9981602 25.3786797,30.25 26,30.25 L30,30.25 C30.6213203,30.25 31.1838203,29.9981602 31.5909903,29.5909903 C31.9981602,29.1838203 32.25,28.6213203 32.25,28 L32.25,14.75 Z" id="Rectangle-Copy-7" stroke="#F66847" stroke-width="1.5" transform="translate(28.000000, 22.500000) rotate(-180.000000) translate(-28.000000, -22.500000) "></path>
                            <line x1="1" y1="11" x2="45.5" y2="11" id="Path-9" stroke="#4A4A4A" stroke-width="1.5"></line>
                            <circle id="Oval" fill="#4A4A4A" cx="6" cy="6.5" r="1.5"></circle>
                            <circle id="Oval-Copy-5" fill="#4A4A4A" cx="12" cy="6.5" r="1.5"></circle>
                            <circle id="Oval-Copy-6" fill="#4A4A4A" cx="18" cy="6.5" r="1.5"></circle>
                        </g>
                    </g>
                </g>
            </g>
        </g>
    </g>
</svg>