<?xml version="1.0" encoding="UTF-8"?>
<svg width="46px" height="35px" viewBox="0 0 46 35" version="1.1" xmlns="http://www.w3.org/2000/svg" xmlns:xlink="http://www.w3.org/1999/xlink">
    <title>custom copy</title>
    <g id="HS_Website" stroke="none" stroke-width="1" fill="none" fill-rule="evenodd">
        <g id="[desktop]-Services" transform="translate(-215.000000, -1706.000000)">
            <g id="Group-6" transform="translate(215.000000, 1327.000000)">
                <g id="Group-12" transform="translate(0.000000, 369.000000)">
                    <g id="custom-copy" transform="translate(0.000000, 10.000000)">
                        <rect id="Rectangle" stroke="#4A4A4A" stroke-width="1.5" x="0.75" y="0.75" width="44.5" height="33.5" rx="6"></rect>
                        <line x1="1" y1="11" x2="45.5" y2="11" id="Path-9" stroke="#4A4A4A" stroke-width="1.5"></line>
                        <path d="M11.1376991,16.75 L8.34011138,16.75 C8.06451779,16.75 7.79618114,16.8383399 7.57448448,17.0020544 C7.28818381,17.2134764 7.11468291,17.5209294 7.06561269,17.8471021 C7.02622832,18.1088923 7.06700052,18.3827414 7.19394283,18.6286771 C8.26912212,19.0218587 9.07752205,19.5123588 9.63442511,20.0779635 C10.3157892,20.7699739 10.65,21.5790343 10.65,22.5 C10.65,23.4147093 10.3215708,24.2198986 9.6298416,24.9327768 C9.06891034,25.510858 8.24744033,26.0323777 7.05127056,26.9611592 C7.05127056,27.3170627 7.19552898,27.6392729 7.4287633,27.8725073 C7.66199761,28.1057416 7.98420782,28.25 8.34011138,28.25 L11.1376991,28.25 C12.1159751,28.25 13.0305292,27.7646949 13.5789179,26.9545752 L14.3814552,25.7690088 C14.7069976,25.2880938 15.2499084,25 15.8306467,25 L30.1693533,25 C30.7500916,25 31.2930024,25.2880938 31.6185448,25.7690088 L32.4210821,26.9545752 C32.9694708,27.7646949 33.8840249,28.25 34.8623009,28.25 L37.6598886,28.25 C37.9354822,28.25 38.2038189,28.1616601 38.4255155,27.9979456 C38.7118162,27.7865236 38.8853171,27.4790706 38.9343873,27.1528979 C38.9737717,26.8911077 38.9329995,26.6172586 38.8060572,26.3713229 C37.7308779,25.9781413 36.9224779,25.4876412 36.3655749,24.9220365 C35.6842108,24.2300261 35.35,23.4209657 35.35,22.5 C35.35,21.5852907 35.6784292,20.7801014 36.3701584,20.0672232 C36.9310897,19.489142 37.7525597,18.9676223 38.9487294,18.0388408 C38.9487294,17.6829373 38.804471,17.3607271 38.5712367,17.1274927 C38.3380024,16.8942584 38.0157922,16.75 37.6598886,16.75 L34.8623009,16.75 C33.8840249,16.75 32.9694708,17.2353051 32.4210821,18.0454248 L31.6185448,19.2309912 C31.2930024,19.7119062 30.7500916,20 30.1693533,20 L15.8306467,20 C15.2499084,20 14.7069976,19.7119062 14.3814552,19.2309912 L13.5789179,18.0454248 C13.0305292,17.2353051 12.1159751,16.75 11.1376991,16.75 Z" id="Rectangle" stroke="#F66847" stroke-width="1.5"></path>
                        <circle id="Oval" fill="#4A4A4A" cx="6" cy="6.5" r="1.5"></circle>
                        <circle id="Oval-Copy-5" fill="#4A4A4A" cx="12" cy="6.5" r="1.5"></circle>
                        <circle id="Oval-Copy-6" fill="#4A4A4A" cx="18" cy="6.5" r="1.5"></circle>
                    </g>
                </g>
            </g>
        </g>
    </g>
</svg>