<?xml version="1.0" encoding="UTF-8"?>
<svg width="46px" height="37px" viewBox="0 0 46 37" version="1.1" xmlns="http://www.w3.org/2000/svg" xmlns:xlink="http://www.w3.org/1999/xlink">
    <title>ETL</title>
    <g id="HS_Website" stroke="none" stroke-width="1" fill="none" fill-rule="evenodd">
        <g id="[desktop]-Services" transform="translate(-215.000000, -3611.000000)" stroke-width="1.5">
            <g id="Group-6-Copy-4" transform="translate(215.000000, 3429.000000)">
                <g id="Group-2" transform="translate(0.000000, 182.399996)">
                    <g id="ETL" transform="translate(0.000000, 0.600004)">
                        <g id="Group-7-Copy">
                            <g id="Group-2-Copy-9">
                                <rect id="Rectangle" stroke="#4A4A4A" x="0.75" y="0.75" width="44.5" height="33.5" rx="16.75"></rect>
                                <path d="M30.9186062,21.2509637 L33.3230974,23.1546549 C33.994828,23.6867221 34.9308762,23.7317322 35.6505588,23.2665714 L35.6505588,23.2665714 L38.1576062,21.6459637 L39.9591541,23.0726543 C40.3920827,23.4155701 40.4650524,24.0445163 40.1221366,24.4774449 C40.0542856,24.5631061 39.9728528,24.6370668 39.8810766,24.6963856 L35.6258806,27.4466956 C34.906198,27.9118563 33.9701498,27.8668462 33.2984192,27.334779 L29.093742,24.0043209 C28.6608134,23.6614051 28.5878437,23.0324589 28.9307596,22.5995303 C28.9986105,22.5138691 29.0800433,22.4399084 29.1718195,22.3805896 L30.9186062,21.2509637 Z" id="Combined-Shape" stroke="#E56940"></path>
                                <path d="M8.91860615,19.2509637 L11.3230974,21.1546549 C11.994828,21.6867221 12.9308762,21.7317322 13.6505588,21.2665714 L13.6505588,21.2665714 L16.1576062,19.6459637 L17.9591541,21.0726543 C18.3920827,21.4155701 18.4650524,22.0445163 18.1221366,22.4774449 C18.0542856,22.5631061 17.9728528,22.6370668 17.8810766,22.6963856 L13.6258806,25.4466956 C12.906198,25.9118563 11.9701498,25.8668462 11.2984192,25.334779 L7.09374202,22.0043209 C6.66081344,21.6614051 6.58784371,21.0324589 6.93075957,20.5995303 C6.99861049,20.5138691 7.0800433,20.4399084 7.17181953,20.3805896 L8.91860615,19.2509637 Z" id="Combined-Shape-Copy" stroke="#E56940"></path>
                                <path d="M31.3622844,16.8009637 L33.2984192,18.334779 C33.9701498,18.8668462 34.906198,18.9118563 35.6258806,18.4466956 L35.6258806,18.4466956 L37.7142844,17.0959637 L39.9838323,18.8925301 C40.4167609,19.235446 40.4897306,19.8643922 40.1468148,20.2973207 C40.0789639,20.382982 39.9975311,20.4569427 39.9057548,20.5162615 L35.6505588,23.2665714 C34.9308762,23.7317322 33.994828,23.6867221 33.3230974,23.1546549 L29.1184202,19.8241968 C28.6854917,19.4812809 28.6125219,18.8523347 28.9554378,18.4194062 C29.0232887,18.3337449 29.1047215,18.2597842 29.1964977,18.2004655 L31.3622844,16.8009637 Z" id="Combined-Shape" stroke="#E56940"></path>
                                <path d="M9.36228437,14.8009637 L11.2984192,16.334779 C11.9701498,16.8668462 12.906198,16.9118563 13.6258806,16.4466956 L13.6258806,16.4466956 L15.7142844,15.0959637 L17.9838323,16.8925301 C18.4167609,17.235446 18.4897306,17.8643922 18.1468148,18.2973207 C18.0789639,18.382982 17.9975311,18.4569427 17.9057548,18.5162615 L13.6505588,21.2665714 C12.9308762,21.7317322 11.994828,21.6867221 11.3230974,21.1546549 L7.11842023,17.8241968 C6.68549165,17.4812809 6.61252193,16.8523347 6.95543779,16.4194062 C7.0232887,16.3337449 7.10472151,16.2597842 7.19649774,16.2004655 L9.36228437,14.8009637 Z" id="Combined-Shape-Copy-2" stroke="#E56940"></path>
                                <path d="M32.5875299,11.0512996 L37.8908557,10.2475603 C38.4369051,10.1648045 38.9466525,10.5403781 39.0294083,11.0864274 C39.0457828,11.1944713 39.0443372,11.3044685 39.0251289,11.4120447 L38.1345416,16.399805 C37.9839163,17.2433864 37.3126147,17.8972719 36.4653662,18.0256756 L31.1620404,18.8294149 C30.615991,18.9121707 30.1062437,18.5365971 30.0234878,17.9905478 C30.0071133,17.8825039 30.008559,17.7725067 30.0277672,17.6649305 L30.9183545,12.6771702 C31.0689798,11.8335888 31.7402815,11.1797033 32.5875299,11.0512996 Z" id="Rectangle" stroke="#E56940" transform="translate(34.526448, 14.538488) rotate(47.000000) translate(-34.526448, -14.538488) "></path>
                                <path d="M10.5875299,9.0512996 L15.8908557,8.24756035 C16.4369051,8.16480448 16.9466525,8.54037807 17.0294083,9.08642744 C17.0457828,9.19447128 17.0443372,9.30446853 17.0251289,9.41204473 L16.1345416,14.399805 C15.9839163,15.2433864 15.3126147,15.8972719 14.4653662,16.0256756 L9.16204039,16.8294149 C8.61599103,16.9121707 8.10624367,16.5365971 8.0234878,15.9905478 C8.00711335,15.8825039 8.00855897,15.7725067 8.0277672,15.6649305 L8.91835454,10.6771702 C9.06897984,9.83358882 9.74028146,9.17970334 10.5875299,9.0512996 Z" id="Rectangle-Copy-33" stroke="#E56940" transform="translate(12.526448, 12.538488) rotate(47.000000) translate(-12.526448, -12.538488) "></path>
                            </g>
                        </g>
                        <g id="Group-27" transform="translate(18.540919, 4.500000)" stroke="#E56940">
                            <path d="M8.8656896,-1 L8.8656896,6.47398469 C8.8656896,8.8704766 7.59323574,10.8132171 6.02358434,10.8132171 L3.8656896,10.8132171" id="Rectangle" transform="translate(6.365690, 4.906609) rotate(-90.000000) translate(-6.365690, -4.906609) "></path>
                            <path d="M3,1.41222669 L1.41728449,3.24364893 C1.18682463,3.46841928 0.81317537,3.46841928 0.582715511,3.24364893 L-1,1.41222669" id="Rectangle" stroke-linecap="round" transform="translate(1.000000, 2.412227) rotate(-270.000000) translate(-1.000000, -2.412227) "></path>
                        </g>
                        <g id="Group-27" transform="translate(21.500000, 27.000000) rotate(-180.000000) translate(-21.500000, -27.000000) translate(15.000000, 23.000000)" stroke="#E56940">
                            <path d="M8.8656896,-1 L8.8656896,6.47398469 C8.8656896,8.8704766 7.59323574,10.8132171 6.02358434,10.8132171 L3.8656896,10.8132171" id="Rectangle" transform="translate(6.365690, 4.906609) rotate(-90.000000) translate(-6.365690, -4.906609) "></path>
                            <path d="M3,1.41222669 L1.41728449,3.24364893 C1.18682463,3.46841928 0.81317537,3.46841928 0.582715511,3.24364893 L-1,1.41222669" id="Rectangle" stroke-linecap="round" transform="translate(1.000000, 2.412227) rotate(-270.000000) translate(-1.000000, -2.412227) "></path>
                        </g>
                    </g>
                </g>
            </g>
        </g>
    </g>
</svg>