<?xml version="1.0" encoding="UTF-8"?>
<svg width="46px" height="35px" viewBox="0 0 46 35" version="1.1" xmlns="http://www.w3.org/2000/svg" xmlns:xlink="http://www.w3.org/1999/xlink">
    <title>intelligence</title>
    <g id="HS_Website" stroke="none" stroke-width="1" fill="none" fill-rule="evenodd">
        <g id="[desktop]-Services" transform="translate(-537.000000, -3710.000000)">
            <g id="Group-6-Copy-4" transform="translate(215.000000, 3429.000000)">
                <g id="Group-11" transform="translate(322.000000, 272.000000)">
                    <g id="intelligence" transform="translate(0.000000, 9.000000)">
                        <rect id="Rectangle-Copy-70" stroke="#4A4A4A" stroke-width="1.5" x="0.75" y="0.75" width="44.5" height="33.5" rx="16.75"></rect>
                        <rect id="Rectangle" fill="#E56940" x="18.8194866" y="23.3028928" width="2" height="2" rx="1"></rect>
                        <rect id="Rectangle-Copy-34" fill="#E56940" x="18.8194866" y="25" width="2" height="2" rx="1"></rect>
                        <rect id="Rectangle-Copy-67" fill="#E56940" x="18.8266384" y="26.7434962" width="2" height="2" rx="1"></rect>
                        <rect id="Rectangle" fill="#E56940" x="25.3474672" y="23.3028928" width="2" height="2" rx="1"></rect>
                        <rect id="Rectangle-Copy-36" fill="#E56940" x="25.3474672" y="25" width="2" height="2" rx="1"></rect>
                        <rect id="Rectangle-Copy-68" fill="#E56940" x="25.354619" y="26.7434962" width="2" height="2" rx="1"></rect>
                        <path d="M23.0812986,10 C26.6711495,10 29.5812986,12.9101491 29.5812986,16.5 C29.5812986,19.0072927 28.1616773,21.1830151 26.0823722,22.2672297 L26.0812986,27 C26.0812986,28.6568542 24.7381529,30 23.0812986,30 C21.4244444,30 20.0812986,28.6568542 20.0812986,27 L20.0812208,22.2677488 C18.0013732,21.1837097 16.5812986,19.0076929 16.5812986,16.5 C16.5812986,12.9101491 19.4914478,10 23.0812986,10 Z" id="Combined-Shape" stroke="#E56940" stroke-width="1.5"></path>
                        <rect id="Rectangle-Copy-57" stroke="#E56940" stroke-width="0.3" fill="#E56940" transform="translate(23.269117, 6.000000) rotate(-270.000000) translate(-23.269117, -6.000000) " x="22.1191173" y="5.30666756" width="2.3" height="1.38666488" rx="0.693332439"></rect>
                        <rect id="Rectangle-Copy-61" stroke="#E56940" stroke-width="0.3" fill="#E56940" transform="translate(32.908774, 16.500000) rotate(-180.000000) translate(-32.908774, -16.500000) " x="31.7587738" y="15.85" width="2.3" height="1.3" rx="0.65"></rect>
                        <rect id="Rectangle-Copy-62" stroke="#E56940" stroke-width="0.3" fill="#E56940" transform="translate(13.000000, 16.500000) rotate(-180.000000) translate(-13.000000, -16.500000) " x="11.85" y="15.85" width="2.3" height="1.3" rx="0.65"></rect>
                        <path d="M14.906831,8.04316629 C14.7324459,8.02703208 14.5524429,8.08572171 14.4189294,9.08196963 L15.9746238,8.9122713 L14.906831,8.04316629 Z" id="Rectangle-Copy-63" stroke="#E56940" stroke-width="0.3" fill="#E56940"></path>
                        <path d="M30.5188515,8.21923519 L29.8200563,8.91803037 C29.7009375,9.03714914 29.6413781,9.19327336 29.6413781,9.34939759 C29.6413781,9.50552182 29.7009375,9.66164604 29.8200563,9.78076481 C29.9391751,9.89988358 30.0952993,9.95944297 30.2514235,9.95944297 C30.4075477,9.95944297 30.563672,9.89988358 30.6827907,9.78076481 L31.3815859,9.08196963 C31.5007047,8.96285086 31.5602641,8.80672664 31.5602641,8.65060241 C31.5602641,8.50795474 31.5557724,8.34760185 31.0215902,8.05862482 L30.9903626,8.04191555 C30.9769382,8.04099315 30.9635785,8.04055703 30.5188515,8.21923519 Z" id="Rectangle-Copy-64" stroke="#E56940" stroke-width="0.3" fill="#E56940"></path>
                        <g id="Group-30" transform="translate(20.353172, 16.003352)" stroke="#D66A38" stroke-linecap="round" stroke-linejoin="round" stroke-width="1.5">
                            <polyline id="Path-34" points="4.83869952 0.0422532515 2.83869952 2.04225325 2.83869952 8.04225325"></polyline>
                            <polyline id="Path-34" transform="translate(1.838700, 4.042253) scale(-1, 1) translate(-1.838700, -4.042253) " points="2.83869952 0.0422532515 0.838699519 2.04225325 0.838699519 8.04225325"></polyline>
                        </g>
                    </g>
                </g>
            </g>
        </g>
    </g>
</svg>