<?xml version="1.0" encoding="UTF-8"?>
<svg width="264px" height="73px" viewBox="0 0 264 73" version="1.1" xmlns="http://www.w3.org/2000/svg" xmlns:xlink="http://www.w3.org/1999/xlink">
    <!-- Generator: Sketch 57.1 (83088) - https://sketch.com -->
    <title>ocean</title>
    <desc>Created with Sketch.</desc>
    <defs>
        <linearGradient x1="0%" y1="50%" x2="100%" y2="50%" id="linearGradient-1">
            <stop stop-color="#79F0EE" offset="0.720544764%"></stop>
            <stop stop-color="#29CCCA" offset="100%"></stop>
        </linearGradient>
    </defs>
    <g id="HS_Website" stroke="none" stroke-width="1" fill="none" fill-rule="evenodd">
        <g id="[desktop]-Node.js-Development-Services" transform="translate(-1121.000000, -7745.000000)">
            <g id="Group-64" transform="translate(-16.000000, 6872.000000)">
                <g id="ocean" transform="translate(1137.000000, 873.000000)">
                    <g id="Group-8">
                        <rect id="Rectangle" fill="url(#linearGradient-1)" x="0" y="0" width="264" height="73" rx="16"></rect>
                        <path d="M225,61 C228.850622,52.4341085 233.402081,49.7614161 242.534374,53.680708 C251.666667,57.6 253.983055,49.3763296 257,44" id="Path-3-Copy-5" stroke="#FFFFFF" stroke-width="7.43583664" opacity="0.257952009" stroke-linecap="round" transform="translate(241.000000, 52.500000) rotate(55.000000) translate(-241.000000, -52.500000) "></path>
                        <path d="M19.0324081,42.770255 L23.8387097,45.7741935 L23.8387097,45.7741935 L27.1704323,43.5530451 C27.9248055,43.0501296 28.9440394,43.2539764 29.4469549,44.0083496 C29.8145685,44.5597701 29.8145685,45.2781472 29.4469549,45.8295677 L27.2258065,49.1612903 L27.2258065,49.1612903 L29.9595273,53.5352437 C30.4400475,54.3040761 30.2063244,55.3168765 29.437492,55.7973967 C28.8903644,56.1393514 28.193662,56.129108 27.6568241,55.7712161 L23.8387097,53.2258065 L23.8387097,53.2258065 L19.4647563,55.9595273 C18.6959239,56.4400475 17.6831235,56.2063244 17.2026033,55.437492 C16.8606486,54.8903644 16.870892,54.193662 17.2287839,53.6568241 L19.7741935,49.8387097 L19.7741935,49.8387097 L16.770255,45.0324081 C16.2897348,44.2635757 16.523458,43.2507753 17.2922903,42.770255 C17.8246201,42.4375489 18.5000782,42.4375489 19.0324081,42.770255 Z" id="Rectangle-Copy-58" fill="#FFFFFF" opacity="0.257952009" transform="translate(23.500000, 49.500000) rotate(77.000000) translate(-23.500000, -49.500000) "></path>
                        <path d="M182.159833,12.9748955 L184.677419,14.5483871 L184.677419,14.5483871 L186.422607,13.3849284 C186.817755,13.1214965 187.35164,13.2282734 187.615072,13.6234212 C187.807631,13.9122605 187.807631,14.2885533 187.615072,14.5773926 L186.451613,16.3225806 L186.451613,16.3225806 L187.883562,18.6136991 C188.135263,19.0164208 188.012837,19.5469353 187.610115,19.7986364 C187.323524,19.9777555 186.958585,19.9723899 186.677384,19.7849227 L184.677419,18.4516129 L184.677419,18.4516129 L182.386301,19.8835619 C181.983579,20.135263 181.453065,20.0128366 181.201364,19.6101149 C181.022244,19.3235242 181.02761,18.9585849 181.215077,18.6773841 L182.548387,16.6774194 L182.548387,16.6774194 L180.974895,14.1598328 C180.723194,13.7571111 180.845621,13.2265966 181.248343,12.9748955 C181.527182,12.8006209 181.880993,12.8006209 182.159833,12.9748955 Z" id="Rectangle-Copy-59" fill="#FFFFFF" opacity="0.257952009" transform="translate(184.500000, 16.500000) rotate(77.000000) translate(-184.500000, -16.500000) "></path>
                        <circle id="Oval-Copy-11" stroke="#FFFFFF" stroke-width="7.329167" opacity="0.257952009" cx="61.5" cy="21.5" r="10.5"></circle>
                        <circle id="Oval-Copy-12" stroke="#FFFFFF" stroke-width="7.329167" opacity="0.257952009" cx="132.5" cy="49.5" r="10.5"></circle>
                    </g>
                </g>
            </g>
        </g>
    </g>
</svg>