<?xml version="1.0" encoding="UTF-8"?>
<svg width="336px" height="356px" viewBox="0 0 336 356" version="1.1" xmlns="http://www.w3.org/2000/svg" xmlns:xlink="http://www.w3.org/1999/xlink">
    <!-- Generator: Sketch 57.1 (83088) - https://sketch.com -->
    <title>Rectangle Copy 37</title>
    <desc>Created with Sketch.</desc>
    <g id="HS_Website" stroke="none" stroke-width="1" fill="none" fill-rule="evenodd" opacity="0.0783807664">
        <g id="[desktop]-Node.js-Development-Services" transform="translate(-970.000000, -6052.000000)" fill="#74ABFC">
            <g id="Group-67" transform="translate(-160.000000, 5004.000000)">
                <path d="M1213.85773,1095.98024 L1310.74194,1156.53287 L1310.74194,1156.53287 L1378.43568,1111.40371 C1393.29924,1101.49467 1413.38141,1105.5111 1423.29045,1120.37467 C1430.53361,1131.23941 1430.53361,1145.39374 1423.29045,1156.25849 L1378.16129,1223.95223 L1378.16129,1223.95223 L1433.38977,1312.31779 C1442.85755,1327.46624 1438.25246,1347.42165 1423.104,1356.88944 C1412.32384,1363.62704 1398.59657,1363.42521 1388.01915,1356.37359 L1310.74194,1304.85545 L1310.74194,1304.85545 L1222.37637,1360.08393 C1207.22792,1369.55171 1187.27251,1364.94662 1177.80472,1349.79816 C1171.06712,1339.018 1171.26895,1325.29073 1178.32057,1314.71331 L1229.83871,1237.4361 L1229.83871,1237.4361 L1169.28608,1140.55189 C1159.8183,1125.40344 1164.42339,1105.44803 1179.57185,1095.98024 C1190.06045,1089.42487 1203.36913,1089.42487 1213.85773,1095.98024 Z" id="Rectangle-Copy-37" transform="translate(1304.000000, 1230.694161) rotate(53.000000) translate(-1304.000000, -1230.694161) "></path>
            </g>
        </g>
    </g>
</svg>