<?xml version="1.0" encoding="UTF-8"?>
<svg width="265px" height="74px" viewBox="0 0 265 74" version="1.1" xmlns="http://www.w3.org/2000/svg" xmlns:xlink="http://www.w3.org/1999/xlink">
    <!-- Generator: Sketch 57.1 (83088) - https://sketch.com -->
    <title>red</title>
    <desc>Created with Sketch.</desc>
    <defs>
        <linearGradient x1="0%" y1="58.5546831%" x2="100%" y2="58.5546831%" id="linearGradient-1">
            <stop stop-color="#FB93A4" offset="0%"></stop>
            <stop stop-color="#F76478" offset="100%"></stop>
        </linearGradient>
        <rect id="path-2" x="9.09494702e-13" y="0.882575758" width="264" height="73" rx="16"></rect>
    </defs>
    <g id="HS_Website" stroke="none" stroke-width="1" fill="none" fill-rule="evenodd">
        <g id="[desktop]-Node.js-Development-Services" transform="translate(-103.000000, -7593.000000)">
            <g id="Group-64" transform="translate(-16.000000, 6872.000000)">
                <g id="Group-30" transform="translate(119.000000, 721.000000)">
                    <g id="red">
                        <g id="Rectangle-Copy-43">
                            <g transform="translate(0.726027, 0.000000)">
                                <rect id="Mask" fill="url(#linearGradient-1)" x="-3.12638804e-13" y="0.882575758" width="264" height="73" rx="16"></rect>
                                <mask id="mask-3" fill="white">
                                    <use xlink:href="#path-2"></use>
                                </mask>
                                <use id="Mask" fill="url(#linearGradient-1)" xlink:href="#path-2"></use>
                                <path d="M204.802307,-25.0447908 L225.725586,-11.9677419 L225.725586,-11.9677419 L240.372166,-21.7321291 C243.564572,-23.8603993 247.877831,-22.9977474 250.006102,-19.805342 C251.561793,-17.4718052 251.561793,-14.4317304 250.006102,-12.0981936 L240.241715,2.5483871 L240.241715,2.5483871 L252.175239,21.6420259 C254.208735,24.8956205 253.219651,29.1816548 249.966056,31.2151515 C247.650686,32.6622576 244.702336,32.6189089 242.43051,31.1043586 L225.725586,19.9677419 L225.725586,19.9677419 L206.631947,31.9012662 C203.378352,33.9347628 199.092318,32.945678 197.058821,29.6920834 C195.611715,27.3767136 195.655064,24.4283633 197.169614,22.1565379 L208.306231,5.4516129 L208.306231,5.4516129 L195.229182,-15.4716653 C193.195685,-18.7252599 194.18477,-23.0112942 197.438365,-25.0447908 C199.691112,-26.4527581 202.54956,-26.4527581 204.802307,-25.0447908 Z" fill="#FFFFFF" opacity="0.17078218" mask="url(#mask-3)" transform="translate(224.273973, 4.000000) rotate(77.000000) translate(-224.273973, -4.000000) "></path>
                                <path d="M-78.7260274,-4 C-40.0593607,-10 -10.3926941,-4 10.2739726,14 C41.2739726,41 107.273973,65 145.273973,59 C170.607306,55 196.273973,65.3333333 222.273973,90 L-78.7260274,90 L-78.7260274,-4 Z" id="Path-16" fill="#FFFFFF" opacity="0.116768973" mask="url(#mask-3)"></path>
                                <path d="M-69.7260274,-16.75 C-31.0593607,-22.75 -1.39269406,-16.75 19.2739726,1.25 C50.2739726,28.25 116.273973,52.25 154.273973,46.25 C179.607306,42.25 207.940639,55.5 239.273973,86 L-69.7260274,89 L-69.7260274,-16.75 Z" id="Path-16-Copy" fill="#FFFFFF" opacity="0.0874255952" mask="url(#mask-3)"></path>
                                <path d="M-85.7260274,10.25 C-47.0593607,4.25 -17.3926941,10.25 3.2739726,28.25 C34.2739726,55.25 100.273973,79.25 138.273973,73.25 C163.607306,69.25 189.273973,79.5833333 215.273973,104.25 L-85.7260274,104.25 L-85.7260274,10.25 Z" id="Path-16-Copy-2" fill="#FFFFFF" opacity="0.0874255952" mask="url(#mask-3)"></path>
                            </g>
                        </g>
                    </g>
                </g>
            </g>
        </g>
    </g>
</svg>