<?xml version="1.0" encoding="UTF-8"?>
<svg width="229px" height="229px" viewBox="0 0 229 229" version="1.1" xmlns="http://www.w3.org/2000/svg" xmlns:xlink="http://www.w3.org/1999/xlink">
    <!-- Generator: Sketch 63.1 (92452) - https://sketch.com -->
    <title>amp</title>
    <desc>Created with Sketch.</desc>
    <defs>
        <circle id="path-1" cx="81.5" cy="81.5" r="81.5"></circle>
        <filter x="-35.0%" y="-27.6%" width="169.9%" height="169.9%" filterUnits="objectBoundingBox" id="filter-2">
            <feOffset dx="0" dy="12" in="SourceAlpha" result="shadowOffsetOuter1"></feOffset>
            <feGaussianBlur stdDeviation="17" in="shadowOffsetOuter1" result="shadowBlurOuter1"></feGaussianBlur>
            <feColorMatrix values="0 0 0 0 0.0156862745   0 0 0 0 0.474509804   0 0 0 0 0.760784314  0 0 0 0.0534309441 0" type="matrix" in="shadowBlurOuter1"></feColorMatrix>
        </filter>
    </defs>
    <g id="HS_Website" stroke="none" stroke-width="1" fill="none" fill-rule="evenodd">
        <g id="amp" transform="translate(33.000000, 21.000000)">
            <g id="Oval-Copy-33">
                <use fill="black" fill-opacity="1" filter="url(#filter-2)" xlink:href="#path-1"></use>
                <use fill="#FFFFFF" fill-rule="evenodd" xlink:href="#path-1"></use>
            </g>
            <g id="amp-seeklogo.com" transform="translate(27.963598, 53.500000)">
                <path d="M58.4867962,18.5 L54.5860084,18.5 L48.0364018,35.5 L51.4819275,35.5 C51.4819275,35.5 52.175172,35.1838181 52.5890487,34.1614999 L53.3443747,31.7058274 L59.728429,31.7058274 L60.4837503,34.1614999 C60.8976317,35.1838181 61.5908762,35.5 61.5908762,35.5 L65.0364018,35.5 L58.4867962,18.5 Z M54.2445571,29.0393673 L56.5415761,22.104464 L58.8385894,29.0393673 L54.2445571,29.0393673 Z" id="path4" fill="#0479C2" fill-rule="nonzero"></path>
                <path d="M87.0364018,18.5 L87.0364018,35.5 L83.7538186,35.5 L83.7538186,24.3388089 L79.7121994,32.7492246 C79.7121994,32.7492246 79.2193196,33.855858 78.0856933,33.7293856 L78.0364018,33.7293856 L77.9871113,33.7293856 C76.8534841,33.866398 76.3606043,32.7492246 76.3606043,32.7492246 L72.3189851,24.3388089 L72.3189851,35.5 L69.0364018,35.5 L69.0364018,18.5 L72.2401266,18.5 C72.9794453,18.5105362 73.0780211,19.153441 73.0780211,19.153441 L78.0364018,29.6401111 L82.9947763,19.153441 C82.9947763,19.153441 83.0933521,18.51054 83.8326709,18.5 L87.0364018,18.5 Z" id="path6" fill="#0479C2" fill-rule="nonzero"></path>
                <path d="M105.330029,21.2186597 C103.856947,18.164391 97.5423374,18.5119457 97.5423374,18.5119457 L94.0364018,18.5119457 L94.0364018,35.5 L97.64054,35.5 L97.7682041,29.8127398 C103.758744,29.9917834 104.672046,28.0223073 104.672046,28.0223073 C107.294141,25.2524015 105.330029,21.2186597 105.330029,21.2186597 L105.330029,21.2186597 Z M100.184059,26.8321955 L97.6994632,26.8321955 C97.6994632,26.8321955 97.6994632,21.576746 97.6994632,21.5662143 C97.6994632,21.2186597 100.527781,21.5451472 100.802753,21.6399349 C101.431274,21.8505734 102.000863,22.2718525 102.187451,22.9774934 C102.649019,24.7152668 102.020507,26.5794247 100.184059,26.8321955 L100.184059,26.8321955 Z" id="path8" fill="#0479C2" fill-rule="nonzero"></path>
                <circle id="circle10" fill="#0479C2" fill-rule="nonzero" cx="21.5364018" cy="27" r="19.5"></circle>
                <path d="M22.9213147,23.5522636 L27.4347503,23.5522636 C27.4347503,23.5522636 28.3864963,23.5522636 27.895906,24.7020896 L20.1151317,38.5 L18.6727955,38.5 L20.046452,29.4790934 L15.4643322,29.4477345 C15.4643322,29.4477345 14.6499501,29.1027868 15.2680964,27.9843197 L22.9213147,14.5 L24.4225227,14.5 L22.9213147,23.5522636 Z" id="path14" fill="#FFFFFF" fill-rule="nonzero"></path>
                <g id="path16" transform="translate(0.036402, 0.500000)"></g>
            </g>
        </g>
    </g>
</svg>