<?xml version="1.0" encoding="UTF-8"?>
<svg width="229px" height="229px" viewBox="0 0 229 229" version="1.1" xmlns="http://www.w3.org/2000/svg" xmlns:xlink="http://www.w3.org/1999/xlink">
    <!-- Generator: Sketch 63.1 (92452) - https://sketch.com -->
    <title>android</title>
    <desc>Created with Sketch.</desc>
    <defs>
        <circle id="path-1" cx="81.5" cy="81.5" r="81.5"></circle>
        <filter x="-35.0%" y="-27.6%" width="169.9%" height="169.9%" filterUnits="objectBoundingBox" id="filter-2">
            <feOffset dx="0" dy="12" in="SourceAlpha" result="shadowOffsetOuter1"></feOffset>
            <feGaussianBlur stdDeviation="17" in="shadowOffsetOuter1" result="shadowBlurOuter1"></feGaussianBlur>
            <feColorMatrix values="0 0 0 0 0.6   0 0 0 0 0.8   0 0 0 0 0  0 0 0 0.0988854895 0" type="matrix" in="shadowBlurOuter1"></feColorMatrix>
        </filter>
    </defs>
    <g id="HS_Website" stroke="none" stroke-width="1" fill="none" fill-rule="evenodd">
        <g id="[desktop]-Custom-Software-Development-Services" transform="translate(-562.000000, -4113.000000)">
            <g id="android" transform="translate(595.000000, 4134.000000)">
                <g id="Oval-Copy-6">
                    <use fill="black" fill-opacity="1" filter="url(#filter-2)" xlink:href="#path-1"></use>
                    <use fill="#FFFFFF" fill-rule="evenodd" xlink:href="#path-1"></use>
                </g>
                <g id="Group-6" transform="translate(44.903423, 45.000000)">
                    <g id="set3_4" transform="translate(0.096577, 0.000000)" fill="#99CC00">
                        <ellipse id="Oval" cx="37" cy="36.5" rx="36.421875" ry="36.5"></ellipse>
                    </g>
                    <g id="android_icon" transform="translate(16.096577, 13.000000)">
                        <g transform="translate(0.694069, 0.000000)">
                            <path d="M33.4149956,15.3611111 L8.4228422,15.3611111 L8.4228422,33.8611111 C8.4228422,34.6895382 8.75862863,35.4395382 9.30152185,35.9824315 C9.84441507,36.5253247 10.5944151,36.8611111 11.4228422,36.8611111 L13.8207716,36.8611111 L13.8212729,43.9633122 C13.8212729,44.5257791 14.049229,45.0349334 14.4177843,45.4034886 C14.7863395,45.7720438 15.2954938,46 15.8578901,46 C16.4202865,46 16.9294408,45.7720438 17.297996,45.4034886 C17.6665513,45.0349334 17.8945074,44.5257791 17.8945074,43.9633827 L17.8937332,36.8611111 L23.9427622,36.8611111 L23.9433304,43.9633027 C23.9433304,44.5257791 24.1712866,45.0349334 24.5398418,45.4034886 C24.908397,45.7720438 25.4175514,46 25.9799477,46 C26.542344,46 27.0514983,45.7720438 27.4200536,45.4034886 C27.7886088,45.0349334 28.016565,44.5257791 28.016565,43.9633827 L28.0157237,36.8611111 L30.4149956,36.8611111 C31.2434228,36.8611111 31.9934228,36.5253247 32.536316,35.9824315 C33.0792092,35.4395382 33.4149956,34.6895382 33.4149956,33.8611111 L33.4149956,15.3611111 Z" id="Combined-Shape" stroke="#FFFFFF" stroke-width="2" fill="#FFFFFF"></path>
                            <rect id="Rectangle-Copy-33" stroke="#FFFFFF" stroke-width="2" fill="#FFFFFF" x="36.7646033" y="15.3611111" width="4.07323452" height="15.625" rx="2.03661726"></rect>
                            <rect id="Rectangle-Copy-34" stroke="#FFFFFF" stroke-width="2" fill="#FFFFFF" x="1" y="15.3611111" width="4.07323452" height="15.625" rx="2.03661726"></rect>
                            <path d="M20.9189189,3.61111111 C17.4627145,3.61111111 14.3263641,4.71858205 12.0460883,6.48325887 C10.1304906,7.96571594 8.81404708,9.91728245 8.49683804,12.0555556 L33.3409998,12.0555556 C33.0237908,9.91728245 31.7073473,7.96571594 29.7917495,6.48325887 C27.5114737,4.71858205 24.3751233,3.61111111 20.9189189,3.61111111 Z" id="Oval" stroke="#FFFFFF" stroke-width="2" fill="#FFFFFF"></path>
                            <ellipse id="Oval" stroke="#99CC00" stroke-width="2" fill="#99CC00" cx="16.532694" cy="8.15972222" rx="1.01220575" ry="1"></ellipse>
                            <ellipse id="Oval-Copy-19" stroke="#99CC00" stroke-width="2" fill="#99CC00" cx="25.3051439" cy="8.15972222" rx="1.01220575" ry="1"></ellipse>
                            <path d="M27.9075197,-0.122325314 C28.086371,-0.125059591 28.2335751,0.0177114475 28.2363094,0.196562727 C28.2363602,0.199883737 28.2363599,0.203205332 28.2363085,0.206526333 L28.1649584,4.81593397 C28.1620781,5.00201217 28.0119096,5.15215194 27.8258309,5.15499672 C27.6469796,5.15773099 27.4997754,5.01495995 27.4970411,4.83610867 C27.4969904,4.83278766 27.4969907,4.82946607 27.4970421,4.82614507 L27.5683921,0.216737436 C27.5712725,0.0306592297 27.7214409,-0.119480542 27.9075197,-0.122325314 Z" id="Rectangle-Copy-65" fill="#FFFFFF" transform="translate(27.866675, 2.516336) rotate(34.000000) translate(-27.866675, -2.516336) "></path>
                            <path d="M13.9303182,-0.122325314 C14.1163969,-0.119480543 14.2665654,0.0306592296 14.2694457,0.216737436 L14.3407958,4.82614507 C14.3435642,5.00499582 14.2008213,5.15222729 14.0219706,5.15499576 C14.0186496,5.15504717 14.015328,5.15504749 14.012007,5.15499671 C13.8259282,5.15215194 13.6757597,5.00201217 13.6728794,4.81593397 L13.6015294,0.206526333 C13.5987609,0.0276755794 13.7415038,-0.119555891 13.9203545,-0.122324361 C13.9236755,-0.122375768 13.9269971,-0.122376085 13.9303182,-0.122325314 Z" id="Rectangle-Copy-66" fill="#FFFFFF" transform="translate(13.971163, 2.516336) rotate(-34.000000) translate(-13.971163, -2.516336) "></path>
                        </g>
                    </g>
                </g>
            </g>
        </g>
    </g>
</svg>