<?xml version="1.0" encoding="UTF-8"?>
<svg width="229px" height="229px" viewBox="0 0 229 229" version="1.1" xmlns="http://www.w3.org/2000/svg" xmlns:xlink="http://www.w3.org/1999/xlink">
    <!-- Generator: Sketch 63.1 (92452) - https://sketch.com -->
    <title>avs_rds</title>
    <desc>Created with Sketch.</desc>
    <defs>
        <circle id="path-1" cx="81.5" cy="81.5" r="81.5"></circle>
        <filter x="-35.0%" y="-27.6%" width="169.9%" height="169.9%" filterUnits="objectBoundingBox" id="filter-2">
            <feOffset dx="0" dy="12" in="SourceAlpha" result="shadowOffsetOuter1"></feOffset>
            <feGaussianBlur stdDeviation="17" in="shadowOffsetOuter1" result="shadowBlurOuter1"></feGaussianBlur>
            <feColorMatrix values="0 0 0 0 0   0 0 0 0 0.580392157   0 0 0 0 0.219607843  0 0 0 0.0595225087 0" type="matrix" in="shadowBlurOuter1"></feColorMatrix>
        </filter>
    </defs>
    <g id="HS_Website" stroke="none" stroke-width="1" fill="none" fill-rule="evenodd">
        <g id="avs_rds" transform="translate(33.000000, 21.000000)">
            <g id="Oval-Copy-39">
                <use fill="black" fill-opacity="1" filter="url(#filter-2)" xlink:href="#path-1"></use>
                <use fill="#FFFFFF" fill-rule="evenodd" xlink:href="#path-1"></use>
            </g>
            <g id="aws-rds" transform="translate(50.000000, 46.000000)" fill-rule="nonzero">
                <polyline id="Path" fill="#1A476F" points="0.0029975676 55.3357165 7.35968614 63.9736364 8.02117939 63.1864483 8.02117939 7.93671463 7.35968614 7.10181818 0.0029975676 15.7365411 0.0029975676 55.3357165"></polyline>
                <polyline id="Path" fill="#1F5B98" points="7.33390666 63.9181926 21.4560078 70.9609091 22.0433806 70.0181252 22.0529976 0.737895069 21.4658713 0 7.33390666 7.02008772 7.33390666 63.9181926"></polyline>
                <polyline id="Path" fill="#2D72B8" points="62.9457248 15.7365411 55.5795652 7.10181818 54.7557248 7.36298461 54.9193627 63.2685854 55.5795652 63.9736364 62.9457248 55.3367002 62.9457248 15.7365411"></polyline>
                <polyline id="Path" fill="#5294CF" points="41.5154764 70.9609091 55.6148157 63.9181926 55.6148157 7.02008772 41.5056288 0 40.8384521 0.901953739 40.8480535 69.9359728 41.5154764 70.9609091"></polyline>
                <polygon id="Path" fill="#2D72B8" points="21.4802703 0 41.4684521 0 41.4684521 70.9609091 21.4802703 70.9609091"></polygon>
            </g>
        </g>
    </g>
</svg>