<?xml version="1.0" encoding="UTF-8"?>
<svg width="229px" height="229px" viewBox="0 0 229 229" version="1.1" xmlns="http://www.w3.org/2000/svg" xmlns:xlink="http://www.w3.org/1999/xlink">
    <!-- Generator: Sketch 63.1 (92452) - https://sketch.com -->
    <title>aws</title>
    <desc>Created with Sketch.</desc>
    <defs>
        <circle id="path-1" cx="81.5" cy="81.5" r="81.5"></circle>
        <filter x="-35.0%" y="-27.6%" width="169.9%" height="169.9%" filterUnits="objectBoundingBox" id="filter-2">
            <feOffset dx="0" dy="12" in="SourceAlpha" result="shadowOffsetOuter1"></feOffset>
            <feGaussianBlur stdDeviation="17" in="shadowOffsetOuter1" result="shadowBlurOuter1"></feGaussianBlur>
            <feColorMatrix values="0 0 0 0 1   0 0 0 0 0.560533217   0 0 0 0 0  0 0 0 0.0507266171 0" type="matrix" in="shadowBlurOuter1"></feColorMatrix>
        </filter>
    </defs>
    <g id="HS_Website" stroke="none" stroke-width="1" fill="none" fill-rule="evenodd">
        <g id="aws" transform="translate(33.000000, 21.000000)">
            <g id="Oval-Copy-31">
                <use fill="black" fill-opacity="1" filter="url(#filter-2)" xlink:href="#path-1"></use>
                <use fill="#FFFFFF" fill-rule="evenodd" xlink:href="#path-1"></use>
            </g>
            <g id="Amazon_Web_Services_Logo" transform="translate(43.000000, 59.000000)">
                <path d="M21.4645395,16.6723404 C21.4645395,17.6170213 21.5660624,18.3829787 21.7437273,18.9446809 C21.946773,19.506383 22.2005801,20.1191489 22.5559101,20.7829787 C22.6828136,20.987234 22.7335751,21.1914894 22.7335751,21.3702128 C22.7335751,21.6255319 22.5812908,21.8808511 22.2513416,22.1361702 L20.6523568,23.2085106 C20.4239304,23.3617021 20.195504,23.4382979 19.9924583,23.4382979 C19.7386512,23.4382979 19.4848441,23.3106383 19.231037,23.0808511 C18.875707,22.6978723 18.5711385,22.2893617 18.3173314,21.8808511 C18.0635243,21.4468085 17.8097172,20.9617021 17.5305294,20.3744681 C15.5508339,22.7234043 13.0635243,23.8978723 10.0686004,23.8978723 C7.93662074,23.8978723 6.23611313,23.2851064 4.9924583,22.0595745 C3.74880348,20.8340426 3.11428571,19.2 3.11428571,17.1574468 C3.11428571,14.987234 3.87570703,13.2255319 5.42393038,11.8978723 C6.97215373,10.5702128 9.0279913,9.90638298 11.6422045,9.90638298 C12.5051487,9.90638298 13.3934735,9.98297872 14.3325598,10.1106383 C15.2716461,10.2382979 16.2361131,10.4425532 17.2513416,10.6723404 L17.2513416,8.80851064 C17.2513416,6.86808511 16.8452502,5.51489362 16.0584482,4.72340426 C15.2462654,3.93191489 13.875707,3.54893617 11.9213923,3.54893617 C11.0330674,3.54893617 10.1193619,3.65106383 9.18027556,3.88085106 C8.24118927,4.1106383 7.32748368,4.39148936 6.43915881,4.74893617 C6.03306744,4.92765957 5.72849891,5.02978723 5.55083394,5.08085106 C5.37316896,5.13191489 5.24626541,5.15744681 5.14474257,5.15744681 C4.78941262,5.15744681 4.61174764,4.90212766 4.61174764,4.36595745 L4.61174764,3.11489362 C4.61174764,2.70638298 4.66250906,2.4 4.78941262,2.2212766 C4.91631617,2.04255319 5.14474257,1.86382979 5.50007252,1.68510638 C6.38839739,1.22553191 7.45438724,0.842553191 8.69804206,0.536170213 C9.94169688,0.204255319 11.2614938,0.0510638298 12.6574329,0.0510638298 C15.6777375,0.0510638298 17.8858593,0.740425532 19.3071791,2.11914894 C20.7031182,3.49787234 21.4137781,5.59148936 21.4137781,8.4 L21.4137781,16.6723404 L21.4645395,16.6723404 Z M11.159971,20.5531915 C11.9975344,20.5531915 12.8604786,20.4 13.7741842,20.093617 C14.6878898,19.787234 15.5000725,19.2255319 16.1853517,18.4595745 C16.5914431,17.9744681 16.8960116,17.4382979 17.0482959,16.8255319 C17.2005801,16.212766 17.302103,15.4723404 17.302103,14.6042553 L17.302103,13.5319149 C16.5660624,13.3531915 15.7792603,13.2 14.9670776,13.0978723 C14.1548949,12.9957447 13.3680928,12.9446809 12.5812908,12.9446809 C10.8807832,12.9446809 9.63712835,13.2765957 8.7995649,13.9659574 C7.96200145,14.6553191 7.55591008,15.6255319 7.55591008,16.9021277 C7.55591008,18.1021277 7.86047861,18.9957447 8.49499637,19.6085106 C9.10413343,20.2468085 9.9924583,20.5531915 11.159971,20.5531915 Z M31.5406817,23.3106383 C31.0838289,23.3106383 30.7792603,23.2340426 30.5762146,23.0553191 C30.373169,22.9021277 30.195504,22.5446809 30.0432197,22.0595745 L24.0787527,2.32340426 C23.9264685,1.81276596 23.8503263,1.48085106 23.8503263,1.30212766 C23.8503263,0.893617021 24.053372,0.663829787 24.4594634,0.663829787 L26.946773,0.663829787 C27.4290065,0.663829787 27.7589558,0.740425532 27.9366207,0.919148936 C28.1396664,1.07234043 28.2919507,1.42978723 28.444235,1.91489362 L32.7081943,18.8170213 L36.6675852,1.91489362 C36.7944888,1.40425532 36.946773,1.07234043 37.1498187,0.919148936 C37.3528644,0.765957447 37.7081943,0.663829787 38.1650471,0.663829787 L40.195504,0.663829787 C40.6777375,0.663829787 41.0076867,0.740425532 41.2107324,0.919148936 C41.4137781,1.07234043 41.5914431,1.42978723 41.6929659,1.91489362 L45.7031182,19.0212766 L50.0939811,1.91489362 C50.2462654,1.40425532 50.4239304,1.07234043 50.6015954,0.919148936 C50.804641,0.765957447 51.1345903,0.663829787 51.5914431,0.663829787 L53.9518492,0.663829787 C54.3579405,0.663829787 54.5863669,0.868085106 54.5863669,1.30212766 C54.5863669,1.42978723 54.5609862,1.55744681 54.5356055,1.7106383 C54.5102248,1.86382979 54.4594634,2.06808511 54.3579405,2.34893617 L48.2411893,22.0851064 C48.088905,22.5957447 47.91124,22.9276596 47.7081943,23.0808511 C47.5051487,23.2340426 47.1751994,23.3361702 46.7437273,23.3361702 L44.5609862,23.3361702 C44.0787527,23.3361702 43.7488035,23.2595745 43.5457578,23.0808511 C43.3427121,22.9021277 43.1650471,22.5702128 43.0635243,22.0595745 L39.1295141,5.59148936 L35.2208847,22.0340426 C35.0939811,22.5446809 34.9416969,22.8765957 34.7386512,23.0553191 C34.5356055,23.2340426 34.1802756,23.3106383 33.7234228,23.3106383 L31.5406817,23.3106383 Z M64.1548949,24 C62.8350979,24 61.5153009,23.8468085 60.2462654,23.5404255 C58.9772299,23.2340426 57.9873822,22.9021277 57.3274837,22.5191489 C56.9213923,22.2893617 56.6422045,22.0340426 56.5406817,21.8042553 C56.4391588,21.5744681 56.3883974,21.3191489 56.3883974,21.0893617 L56.3883974,19.787234 C56.3883974,19.2510638 56.5914431,18.9957447 56.9721537,18.9957447 C57.124438,18.9957447 57.2767223,19.0212766 57.4290065,19.0723404 C57.5812908,19.1234043 57.8097172,19.2255319 58.0635243,19.3276596 C58.9264685,19.7106383 59.8655547,20.0170213 60.8554025,20.2212766 C61.8706309,20.4255319 62.8604786,20.5276596 63.875707,20.5276596 C65.4746918,20.5276596 66.7183466,20.2468085 67.5812908,19.6851064 C68.444235,19.1234043 68.9010877,18.306383 68.9010877,17.2595745 C68.9010877,16.5446809 68.6726613,15.9574468 68.2158086,15.4723404 C67.7589558,14.987234 66.8960116,14.5531915 65.6523568,14.1446809 L61.9721537,12.9957447 C60.1193619,12.4085106 58.7488035,11.5404255 57.91124,10.3914894 C57.0736766,9.26808511 56.6422045,8.01702128 56.6422045,6.6893617 C56.6422045,5.61702128 56.8706309,4.67234043 57.3274837,3.85531915 C57.7843365,3.03829787 58.3934735,2.32340426 59.1548949,1.76170213 C59.9163162,1.17446809 60.7792603,0.740425532 61.7944888,0.434042553 C62.8097172,0.127659574 63.875707,0 64.9924583,0 C65.5508339,0 66.1345903,0.0255319149 66.6929659,0.10212766 C67.2767223,0.178723404 67.8097172,0.280851064 68.3427121,0.382978723 C68.8503263,0.510638298 69.3325598,0.638297872 69.7894126,0.791489362 C70.2462654,0.944680851 70.6015954,1.09787234 70.8554025,1.25106383 C71.2107324,1.45531915 71.4645395,1.65957447 71.6168238,1.8893617 C71.769108,2.09361702 71.8452502,2.37446809 71.8452502,2.73191489 L71.8452502,3.93191489 C71.8452502,4.46808511 71.6422045,4.74893617 71.2614938,4.74893617 C71.0584482,4.74893617 70.7284989,4.64680851 70.2970268,4.44255319 C68.8503263,3.7787234 67.2259608,3.44680851 65.4239304,3.44680851 C63.9772299,3.44680851 62.8350979,3.67659574 62.0482959,4.16170213 C61.2614938,4.64680851 60.8554025,5.38723404 60.8554025,6.43404255 C60.8554025,7.14893617 61.1092096,7.76170213 61.6168238,8.24680851 C62.124438,8.73191489 63.0635243,9.21702128 64.408702,9.65106383 L68.0127629,10.8 C69.840174,11.387234 71.159971,12.2042553 71.946773,13.2510638 C72.7335751,14.2978723 73.1142857,15.4978723 73.1142857,16.8255319 C73.1142857,17.9234043 72.8858593,18.9191489 72.4543872,19.787234 C71.9975344,20.6553191 71.3883974,21.4212766 70.6015954,22.0340426 C69.8147933,22.6723404 68.875707,23.1319149 67.7843365,23.4638298 C66.6422045,23.8212766 65.4493111,24 64.1548949,24 Z" id="Shape" fill="#252F3E" fill-rule="nonzero"></path>
                <g id="Group" transform="translate(0.114286, 29.000000)" fill="#FF9900">
                    <path d="M68.5761589,7.675 C60.2966887,13.75 48.2675497,16.975 37.9245033,16.975 C23.4291391,16.975 10.3682119,11.65 0.503311258,2.8 C-0.276821192,2.1 0.42781457,1.15 1.3589404,1.7 C12.0291391,7.85 25.1907285,11.575 38.805298,11.575 C47.9907285,11.575 58.0821192,9.675 67.3682119,5.775 C68.7523179,5.15 69.9350993,6.675 68.5761589,7.675 Z" id="Path"></path>
                    <path d="M72.0238411,3.775 C70.9668874,2.425 65.0278146,3.125 62.3350993,3.45 C61.5298013,3.55 61.4039735,2.85 62.1337748,2.325 C66.8649007,-0.975 74.6410596,-0.025 75.5470199,1.075 C76.4529801,2.2 75.2953642,9.925 70.8662252,13.625 C70.186755,14.2 69.5324503,13.9 69.8344371,13.15 C70.8410596,10.675 73.0807947,5.1 72.0238411,3.775 Z" id="Path"></path>
                </g>
            </g>
        </g>
    </g>
</svg>