<?xml version="1.0" encoding="UTF-8"?>
<svg width="229px" height="229px" viewBox="0 0 229 229" version="1.1" xmlns="http://www.w3.org/2000/svg" xmlns:xlink="http://www.w3.org/1999/xlink">
    <!-- Generator: Sketch 63.1 (92452) - https://sketch.com -->
    <title>aws_dyn</title>
    <desc>Created with Sketch.</desc>
    <defs>
        <circle id="path-1" cx="81.5" cy="81.5" r="81.5"></circle>
        <filter x="-35.0%" y="-27.6%" width="169.9%" height="169.9%" filterUnits="objectBoundingBox" id="filter-2">
            <feOffset dx="0" dy="12" in="SourceAlpha" result="shadowOffsetOuter1"></feOffset>
            <feGaussianBlur stdDeviation="17" in="shadowOffsetOuter1" result="shadowBlurOuter1"></feGaussianBlur>
            <feColorMatrix values="0 0 0 0 0.0156862745   0 0 0 0 0.474509804   0 0 0 0 0.760784314  0 0 0 0.0534309441 0" type="matrix" in="shadowBlurOuter1"></feColorMatrix>
        </filter>
    </defs>
    <g id="HS_Website" stroke="none" stroke-width="1" fill="none" fill-rule="evenodd">
        <g id="aws_dyn" transform="translate(33.000000, 21.000000)">
            <g id="Oval-Copy-38">
                <use fill="black" fill-opacity="1" filter="url(#filter-2)" xlink:href="#path-1"></use>
                <use fill="#FFFFFF" fill-rule="evenodd" xlink:href="#path-1"></use>
            </g>
            <g id="aws-dynamodb" transform="translate(55.309524, 49.000000)" fill-rule="nonzero">
                <polyline id="Path" fill="#5294CF" points="36.7002228 63 37.4953657 63 50.4744639 56.7471898 50.6904762 56.4530452 50.6904762 6.54324248 50.4744639 6.24756933 37.4953657 0 36.6904762 0 36.7002228 63"></polyline>
                <polyline id="Path" fill="#1F5B98" points="19.6806301 63 18.8846644 63 6.08208145 56.7471898 5.82227933 56.3111046 5.69047619 6.79742531 6.08208145 6.24756933 18.8846644 0 19.6904762 0 19.6806301 63"></polyline>
                <polygon id="Path" fill="#2D72B8" points="19.6904762 0 37.6904762 0 37.6904762 63 19.6904762 63"></polygon>
                <polyline id="Path" fill="#1A476F" points="56.6904762 30.0732562 56.2671949 29.9786471 50.2235699 29.4105519 50.1338824 29.4555408 37.5968824 28.9500772 19.7840699 28.9500772 7.24685119 29.4555408 7.24685119 19.8173288 7.23372619 19.8243859 7.24685119 19.7961575 19.7840699 16.8674678 37.5968824 16.8674678 50.1338824 19.7961575 54.7427262 22.2659163 54.7427262 20.6780724 56.6904762 20.4632725 56.4887887 20.0667526 50.3217887 15.6210104 50.1338824 15.6825393 37.5968824 11.7660784 19.7840699 11.7660784 7.24685119 15.6825393 7.24685119 6 0.69047619 13.7436056 0.69047619 20.5064971 0.74122619 20.4694474 2.63822619 20.6780724 2.63822619 22.2985553 0.69047619 23.3493992 0.69047619 30.078549 0.74122619 30.0732562 2.63822619 30.1014845 2.63822619 32.9258617 1.00153869 32.9505615 0.69047619 32.9205689 0.69047619 39.6523651 2.63822619 40.7082813 2.63822619 42.3475095 0.77206994 42.5552524 0.69047619 42.4935029 0.69047619 49.2552917 7.24685119 57 7.24685119 47.3183428 19.7840699 51.2348037 37.5968824 51.2348037 50.1708512 47.306875 50.3379762 47.3807539 56.4238199 43.0005103 56.6904762 42.5640737 54.7427262 42.3475095 54.7427262 40.7411408 54.4874449 40.638372 50.3217887 42.9021522 50.1708512 43.2197209 37.5968824 46.1314295 37.5968824 46.1349581 19.7840699 46.1349581 19.7840699 46.1314295 7.24685119 43.207371 7.24685119 33.5338736 19.7840699 34.0375729 19.7840699 34.0499228 37.5968824 34.0499228 50.1338824 33.5338736 50.4193512 33.6661939 56.2772574 33.1576428 56.6904762 32.95409 54.7427262 32.9258617 54.7427262 30.1014845 56.6904762 30.0732562"></polyline>
                <path d="M49.6904762,47.3183428 L49.6904762,57 L56.6904762,49.2552917 L56.6904762,42.5376097 L49.7308792,47.306875 L49.6904762,47.3183428 M49.6904762,43.2285423 L49.7308792,43.2197209 L56.6904762,39.6850041 L56.6904762,32.9258617 L49.6904762,33.5338736 L49.6904762,43.2285423 M49.7308792,19.8049789 L49.6904762,19.7961575 L49.6904762,29.4555408 L56.6904762,30.0732562 L56.6904762,23.3174217 L49.7308792,19.8049789 M49.7308792,15.7204712 L56.6904762,20.4632725 L56.6904762,13.7453699 L49.6904762,6 L49.6904762,15.6825393 L49.7308792,15.6957714 L49.7308792,15.7204712" id="Shape" fill="#2D72B8"></path>
            </g>
        </g>
    </g>
</svg>