<?xml version="1.0" encoding="UTF-8"?>
<svg width="229px" height="229px" viewBox="0 0 229 229" version="1.1" xmlns="http://www.w3.org/2000/svg" xmlns:xlink="http://www.w3.org/1999/xlink">
    <!-- Generator: Sketch 63.1 (92452) - https://sketch.com -->
    <title>bootstrap</title>
    <desc>Created with Sketch.</desc>
    <defs>
        <circle id="path-1" cx="81.5" cy="81.5" r="81.5"></circle>
        <filter x="-35.0%" y="-27.6%" width="169.9%" height="169.9%" filterUnits="objectBoundingBox" id="filter-2">
            <feOffset dx="0" dy="12" in="SourceAlpha" result="shadowOffsetOuter1"></feOffset>
            <feGaussianBlur stdDeviation="17" in="shadowOffsetOuter1" result="shadowBlurOuter1"></feGaussianBlur>
            <feColorMatrix values="0 0 0 0 0   0 0 0 0 0.580392157   0 0 0 0 0.219607843  0 0 0 0.0595225087 0" type="matrix" in="shadowBlurOuter1"></feColorMatrix>
        </filter>
    </defs>
    <g id="HS_Website" stroke="none" stroke-width="1" fill="none" fill-rule="evenodd">
        <g id="bootstrap" transform="translate(33.000000, 21.000000)">
            <g id="Oval-Copy-37">
                <use fill="black" fill-opacity="1" filter="url(#filter-2)" xlink:href="#path-1"></use>
                <use fill="#FFFFFF" fill-rule="evenodd" xlink:href="#path-1"></use>
            </g>
            <g id="Bootstrap_logo" transform="translate(50.000000, 49.000000)" fill-rule="nonzero">
                <path d="M64,53.3333333 C64,59.2 59.2,64 53.3333333,64 L10.6666667,64 C4.8,64 0,59.2 0,53.3333333 L0,10.6666667 C0,4.8 4.8,0 10.6666667,0 L53.3333333,0 C59.2,0 64,4.8 64,10.6666667 L64,53.3333333 Z" id="Path" fill="#563D7C"></path>
                <path d="M17,14 L35.2013536,14 C38.5583756,14 41.2544839,14.7770308 43.2791878,16.3417367 C45.3038917,17.9064426 46.321489,20.2588235 46.321489,23.4201681 C46.321489,25.3361345 45.8598985,26.9753501 44.9367174,28.3378151 C44.0135364,29.7002801 42.691709,30.7647059 40.9712352,31.5098039 L40.9712352,31.6162465 C43.2791878,32.1165266 45.0311337,33.2235294 46.2165821,34.9372549 C47.4020305,36.6616246 48,38.8117647 48,41.4089636 C48,42.8991597 47.7377327,44.2935574 47.213198,45.5815126 C46.6886633,46.880112 45.8703892,47.9977591 44.7478849,48.9344538 C43.6253807,49.8711485 42.1986464,50.6162465 40.4467005,51.1697479 C38.6947547,51.7232493 36.6175973,52 34.2047377,52 L17,52 L17,14 Z M23.5566836,29.9131653 L34.2571912,29.9131653 C35.8307953,29.9131653 37.142132,29.4661064 38.1912014,28.5507003 C39.2402707,27.6352941 39.7648054,26.3366947 39.7648054,24.6336134 C39.7648054,22.7176471 39.2927242,21.3658263 38.3485618,20.5887955 C37.4043993,19.8117647 36.0406091,19.4179272 34.2571912,19.4179272 L23.5566836,19.4179272 L23.5566836,29.9131653 Z M23.5566836,46.5714286 L35.1489002,46.5714286 C37.142132,46.5714286 38.6947547,46.0498599 39.7857868,44.9960784 C40.8873096,43.9529412 41.4433164,42.4627451 41.4433164,40.5467787 C41.4433164,38.6627451 40.8978003,37.2257703 39.7857868,36.2039216 C38.6737733,35.1820728 37.142132,34.692437 35.1489002,34.692437 L23.5566836,34.692437 L23.5566836,46.5714286 Z" id="Shape" fill="#FFFFFF"></path>
            </g>
        </g>
    </g>
</svg>