<?xml version="1.0" encoding="UTF-8"?>
<svg width="229px" height="229px" viewBox="0 0 229 229" version="1.1" xmlns="http://www.w3.org/2000/svg" xmlns:xlink="http://www.w3.org/1999/xlink">
    <!-- Generator: Sketch 63.1 (92452) - https://sketch.com -->
    <title>express</title>
    <desc>Created with Sketch.</desc>
    <defs>
        <circle id="path-1" cx="81.5" cy="81.5" r="81.5"></circle>
        <filter x="-35.0%" y="-27.6%" width="169.9%" height="169.9%" filterUnits="objectBoundingBox" id="filter-2">
            <feOffset dx="0" dy="12" in="SourceAlpha" result="shadowOffsetOuter1"></feOffset>
            <feGaussianBlur stdDeviation="17" in="shadowOffsetOuter1" result="shadowBlurOuter1"></feGaussianBlur>
            <feColorMatrix values="0 0 0 0 0   0 0 0 0 0   0 0 0 0 0  0 0 0 0.0534309441 0" type="matrix" in="shadowBlurOuter1"></feColorMatrix>
        </filter>
    </defs>
    <g id="HS_Website" stroke="none" stroke-width="1" fill="none" fill-rule="evenodd">
        <g id="express" transform="translate(33.000000, 21.000000)">
            <g id="Oval-Copy-34">
                <use fill="black" fill-opacity="1" filter="url(#filter-2)" xlink:href="#path-1"></use>
                <use fill="#FFFFFF" fill-rule="evenodd" xlink:href="#path-1"></use>
            </g>
            <g id="express-seeklogo.com" transform="translate(37.000000, 67.704545)" fill="#222222" fill-rule="nonzero">
                <path d="M0.585746828,20.5696119 L0.585746828,10.5786006 L13.0914416,10.5786006 L13.0914416,9.99433097 L0.585746828,9.99433097 L0.585746828,0.879724211 L13.8821998,0.879724211 L13.8821998,0.295454545 L0,0.295454545 L0,21.1538816 L13.9993492,21.1538816 L13.9993492,20.5696119 L0.585746828,20.5696119 L0.585746828,20.5696119 Z M25.2749756,6.1381512 L20.0911163,12.9448928 L15.0244061,6.1381512 L14.2629352,6.1381512 L19.739668,13.383095 L13.7357631,21.1538816 L14.4386593,21.1538816 L20.0911163,13.8212973 L25.7728604,21.1538816 L26.5050439,21.1538816 L20.4718516,13.383095 L25.9778718,6.1381512 L25.2749756,6.1381512 L25.2749756,6.1381512 Z M28.2622845,26.2954545 L28.2622845,16.94714 L28.3208592,16.94714 C28.672309,18.3104426 29.3654357,19.4059374 30.4002603,20.2336568 C31.4350849,21.0613763 32.7530021,21.4752298 34.3540513,21.4752298 C35.3888761,21.4752298 36.3065368,21.2658688 37.1070615,20.84714 C37.9075862,20.4284114 38.576307,19.8587541 39.1132445,19.1381513 C39.6501817,18.4175484 40.0602002,17.5801036 40.3433128,16.6257917 C40.626425,15.6714798 40.7679792,14.6684936 40.7679792,13.6168029 C40.7679792,12.4872092 40.6215439,11.4452721 40.3286692,10.4909602 C40.0357941,9.5366483 39.6111319,8.70894121 39.0546696,8.00781413 C38.4982073,7.30668701 37.8246052,6.76137412 37.033843,6.37185906 C36.2430809,5.982344 35.3498259,5.78758939 34.3540513,5.78758939 C33.5925768,5.78758939 32.8848064,5.89957329 32.2307191,6.12354446 C31.576632,6.34751562 30.9957722,6.66399184 30.4881224,7.07298266 C29.9804725,7.48197346 29.5411669,7.96399111 29.170192,8.51905006 C28.7992171,9.07410902 28.5161091,9.68271716 28.3208592,10.3448928 L28.2622845,10.3448928 L28.2622845,6.1381512 L27.6765376,6.1381512 L27.6765376,26.2954545 L28.2622845,26.2954545 L28.2622845,26.2954545 Z M34.3540513,20.9201737 C32.5187023,20.9201737 31.0445873,20.2920901 29.9316628,19.035904 C28.8187383,17.779718 28.2622845,15.973369 28.2622845,13.6168029 C28.2622845,12.6430153 28.3989574,11.7179309 28.6723072,10.841522 C28.9456571,9.96511311 29.3410322,9.19583241 29.8584445,8.5336568 C30.3758568,7.87148122 31.0152908,7.34564378 31.7767653,6.95612872 C32.53824,6.56661366 33.3973267,6.37185906 34.3540513,6.37185906 C35.3303009,6.37185906 36.1845067,6.56661366 36.9166939,6.95612872 C37.6488809,7.34564378 38.2541467,7.87635008 38.732509,8.54826357 C39.2108713,9.22017704 39.5720782,9.98945773 39.8161406,10.8561287 C40.060203,11.7227998 40.1822325,12.6430153 40.1822325,13.6168029 C40.1822325,14.4932118 40.0699652,15.3647386 39.8454279,16.2314096 C39.6208905,17.0980807 39.2743273,17.8770991 38.8057271,18.5684882 C38.3371274,19.2598775 37.736743,19.824666 37.0045557,20.2628703 C36.2723685,20.7010747 35.3888761,20.9201737 34.3540513,20.9201737 L34.3540513,20.9201737 L34.3540513,20.9201737 Z M43.9895869,21.1538816 L43.9895869,12.6527579 C43.9895869,11.8347763 44.1067349,11.0362824 44.3410348,10.2572523 C44.5753346,9.47822222 44.9365416,8.79171223 45.4246664,8.19770177 C45.9127913,7.60369131 46.5327004,7.13628023 47.2844127,6.79545455 C48.0361247,6.45462888 48.92938,6.31343178 49.9642045,6.37185906 L49.9642045,5.78758939 C49.0660548,5.76811363 48.2801857,5.86549096 47.6065733,6.07972424 C46.9329613,6.29395752 46.3521013,6.58608943 45.8639764,6.95612872 C45.3758516,7.32616804 44.9853578,7.75949704 44.692483,8.25612873 C44.3996079,8.75276041 44.1848363,9.28346674 44.0481614,9.84826355 L43.9895869,9.84826355 L43.9895869,6.1381512 L43.4038398,6.1381512 L43.4038398,21.1538816 L43.9895869,21.1538816 L43.9895869,21.1538816 Z M50.6963879,13.7628703 L63.2899448,13.7628703 C63.3289946,12.7306554 63.2264899,11.7374069 62.9824275,10.783095 C62.7383651,9.82878315 62.3478713,8.9816006 61.8109341,8.24152199 C61.2739965,7.50144337 60.58087,6.90744182 59.7315326,6.45949952 C58.8821955,6.01155719 57.8717923,5.78758939 56.7002929,5.78758939 C55.8607184,5.78758939 55.0406809,5.96286854 54.2401562,6.3134321 C53.4396315,6.66399566 52.7367424,7.1752265 52.1314675,7.84713997 C51.5261929,8.51905343 51.0380754,9.34189167 50.6671007,10.3156793 C50.2961256,11.2894669 50.1106412,12.3995682 50.1106412,13.6460164 C50.1106412,14.7561343 50.2375518,15.7932026 50.4913764,16.7572524 C50.7452013,17.7213021 51.1356955,18.558747 51.6628702,19.2696119 C52.1900448,19.9804769 52.8685281,20.5306587 53.6983404,20.9201737 C54.5281527,21.3096887 55.5287934,21.4947057 56.7002929,21.4752298 C58.418492,21.4752298 59.86332,20.9932123 61.0348194,20.0291625 C62.2063188,19.0651126 62.8994457,17.7066993 63.1142205,15.9538816 L62.5284738,15.9538816 C62.2746489,17.6093205 61.6254525,18.8508812 60.5808657,19.6786007 C59.5362786,20.5063202 58.2232426,20.9201737 56.6417183,20.9201737 C55.5678436,20.9201737 54.659945,20.7351569 53.9179956,20.3651175 C53.1760458,19.9950782 52.57078,19.4887162 52.1021802,18.8460165 C51.6335804,18.2033166 51.2870171,17.4486425 51.0624798,16.5819714 C50.8379421,15.7153004 50.715913,14.7756095 50.6963879,13.7628703 L50.6963879,13.7628703 L50.6963879,13.7628703 Z M62.7041978,13.1786007 L50.6963879,13.1786007 C50.7549628,12.12691 50.9502097,11.1823502 51.2821346,10.3448928 C51.6140596,9.50743542 52.0484843,8.79171223 52.5854215,8.19770177 C53.1223587,7.60369131 53.7471492,7.15088683 54.4598114,6.83927481 C55.1724736,6.52766275 55.938818,6.37185906 56.7588674,6.37185906 C57.7351171,6.37185906 58.594204,6.55200706 59.3361534,6.9123085 C60.0781032,7.27260994 60.6980123,7.7643653 61.1958997,8.38758941 C61.6937871,9.01081349 62.0696377,9.73627439 62.3234623,10.5639939 C62.5772872,11.3917134 62.7041978,12.2632403 62.7041978,13.1786007 L62.7041978,13.1786007 L62.7041978,13.1786007 Z M75.4441914,10.5786006 L76.0299381,10.5786006 C76.0299381,8.90368589 75.5418206,7.68646959 74.5655709,6.92691524 C73.5893216,6.16736089 72.261642,5.78758939 70.5824926,5.78758939 C69.6452931,5.78758939 68.8545429,5.90444215 68.2102181,6.1381512 C67.5658934,6.37186021 67.0387264,6.67372986 66.6287016,7.04376919 C66.2186767,7.41380848 65.9258061,7.82279317 65.7500815,8.27073547 C65.5743565,8.7186778 65.4864954,9.14713791 65.4864954,9.55612873 C65.4864954,10.3741104 65.6329307,11.0265383 65.9258054,11.5134321 C66.2186802,12.0003259 66.6775107,12.3800974 67.3023104,12.6527579 C67.7318604,12.8475155 68.2199779,13.0227946 68.7666776,13.1786007 C69.3133773,13.3344067 69.94793,13.4999481 70.6703548,13.6752299 C71.3146795,13.8310359 71.9492323,13.9868396 72.574032,14.1426456 C73.1988316,14.2984516 73.7504044,14.5078128 74.2287667,14.7707355 C74.707129,15.0336581 75.0976228,15.3696098 75.4002605,15.7786007 C75.7028978,16.1875915 75.8542141,16.7231667 75.8542141,17.3853422 C75.8542141,18.0280421 75.7028978,18.5733549 75.4002605,19.0212973 C75.0976228,19.4692396 74.7120101,19.8344044 74.2434103,20.1168029 C73.7748105,20.3992013 73.2525247,20.6036938 72.6765377,20.730286 C72.1005504,20.8568784 71.5392151,20.9201737 70.9925154,20.9201737 C69.2157414,20.9201737 67.8538934,20.5257957 66.9069313,19.7370277 C65.9599692,18.9482597 65.4864954,17.706699 65.4864954,16.0123085 L64.9007483,16.0123085 C64.9007483,17.9014565 65.413272,19.2842143 66.438334,20.1606231 C67.463396,21.037032 68.9814411,21.4752298 70.9925154,21.4752298 C71.6368402,21.4752298 72.2860365,21.4021968 72.9401238,21.2561287 C73.5942108,21.1100607 74.1799519,20.8714862 74.697364,20.5403985 C75.2147764,20.2093106 75.6345575,19.7808504 75.9567199,19.2550052 C76.2788823,18.7291599 76.4399609,18.0864696 76.4399609,17.3269153 C76.4399609,16.6063124 76.298407,16.0220486 76.0152945,15.5741063 C75.7321822,15.126164 75.3612128,14.7561302 74.9023755,14.4639939 C74.4435383,14.1718576 73.9261336,13.9430209 73.3501466,13.7774771 C72.7741593,13.6119332 72.1932993,13.4512606 71.6075497,13.2954546 C70.7875,13.0812213 70.0699672,12.8962044 69.4549301,12.7403984 C68.8398929,12.5845924 68.2687955,12.3995755 67.7416205,12.1853422 C67.2339709,11.9711089 66.8288334,11.6643704 66.5261958,11.2651175 C66.2235585,10.8658646 66.0722421,10.2962074 66.0722421,9.55612873 C66.0722421,9.41979846 66.1112916,9.17635521 66.1893915,8.82579165 C66.2674915,8.47522809 66.4529762,8.11980094 66.745851,7.7594995 C67.0387257,7.39919809 67.4877938,7.07785299 68.0930687,6.79545455 C68.6983433,6.51305615 69.528143,6.37185906 70.5824926,6.37185906 C71.3049173,6.37185906 71.9638759,6.4497609 72.5593883,6.60556691 C73.1549004,6.76137296 73.6674237,7.00968507 74.0969736,7.35051074 C74.5265236,7.69133641 74.8584432,8.12466541 75.0927431,8.65051075 C75.327043,9.17635608 75.4441914,9.81904628 75.4441914,10.5786006 L75.4441914,10.5786006 L75.4441914,10.5786006 Z M89.0042305,10.5786006 L89.5899772,10.5786006 C89.5899772,8.90368589 89.1018598,7.68646959 88.1256101,6.92691524 C87.1493604,6.16736089 85.8216811,5.78758939 84.1425318,5.78758939 C83.2053322,5.78758939 82.4145817,5.90444215 81.7702569,6.1381512 C81.1259325,6.37186021 80.5987656,6.67372986 80.1887407,7.04376919 C79.7787158,7.41380848 79.4858453,7.82279317 79.3101203,8.27073547 C79.1343956,8.7186778 79.0465342,9.14713791 79.0465342,9.55612873 C79.0465342,10.3741104 79.1929695,11.0265383 79.4858446,11.5134321 C79.7787193,12.0003259 80.2375499,12.3800974 80.8623496,12.6527579 C81.2918992,12.8475155 81.7800166,13.0227946 82.3267167,13.1786007 C82.8734164,13.3344067 83.5079692,13.4999481 84.2303939,13.6752299 C84.8747183,13.8310359 85.5092711,13.9868396 86.1340711,14.1426456 C86.7588708,14.2984516 87.3104435,14.5078128 87.7888058,14.7707355 C88.2671681,15.0336581 88.657662,15.3696098 88.9602993,15.7786007 C89.2629369,16.1875915 89.4142533,16.7231667 89.4142533,17.3853422 C89.4142533,18.0280421 89.2629369,18.5733549 88.9602993,19.0212973 C88.657662,19.4692396 88.2720492,19.8344044 87.8034495,20.1168029 C87.3348497,20.3992013 86.8125639,20.6036938 86.2365765,20.730286 C85.6605895,20.8568784 85.0992543,20.9201737 84.5525545,20.9201737 C82.7757802,20.9201737 81.4139325,20.5257957 80.4669704,19.7370277 C79.5200084,18.9482597 79.0465342,17.706699 79.0465342,16.0123085 L78.4607875,16.0123085 C78.4607875,17.9014565 78.9733107,19.2842143 79.9983728,20.1606231 C81.0234352,21.037032 82.5414803,21.4752298 84.5525545,21.4752298 C85.1968793,21.4752298 85.8460753,21.4021968 86.5001626,21.2561287 C87.1542499,21.1100607 87.739991,20.8714862 88.2574031,20.5403985 C88.7748156,20.2093106 89.1945963,19.7808504 89.5167587,19.2550052 C89.8389211,18.7291599 90,18.0864696 90,17.3269153 C90,16.6063124 89.8584458,16.0220486 89.5753336,15.5741063 C89.292221,15.126164 88.9212519,14.7561302 88.4624147,14.4639939 C88.0035771,14.1718576 87.4861727,13.9430209 86.9101854,13.7774771 C86.3341984,13.6119332 85.7533384,13.4512606 85.1675885,13.2954546 C84.3475391,13.0812213 83.6300064,12.8962044 83.0149692,12.7403984 C82.3999317,12.5845924 81.8288343,12.3995755 81.3016596,12.1853422 C80.7940097,11.9711089 80.3888722,11.6643704 80.0862349,11.2651175 C79.7835976,10.8658646 79.6322813,10.2962074 79.6322813,9.55612873 C79.6322813,9.41979846 79.6713307,9.17635521 79.7494307,8.82579165 C79.8275306,8.47522809 80.013015,8.11980094 80.3058901,7.7594995 C80.5987649,7.39919809 81.0478329,7.07785299 81.6531079,6.79545455 C82.2583825,6.51305615 83.0881821,6.37185906 84.1425318,6.37185906 C84.8649565,6.37185906 85.523915,6.4497609 86.1194271,6.60556691 C86.7149395,6.76137296 87.2274628,7.00968507 87.6570128,7.35051074 C88.0865624,7.69133641 88.4184824,8.12466541 88.6527823,8.65051075 C88.8870821,9.17635608 89.0042305,9.81904628 89.0042305,10.5786006 L89.0042305,10.5786006 L89.0042305,10.5786006 Z" id="Shape"></path>
            </g>
        </g>
    </g>
</svg>