<?xml version="1.0" encoding="UTF-8"?>
<svg width="229px" height="229px" viewBox="0 0 229 229" version="1.1" xmlns="http://www.w3.org/2000/svg" xmlns:xlink="http://www.w3.org/1999/xlink">
    <!-- Generator: Sketch 63.1 (92452) - https://sketch.com -->
    <title>invision</title>
    <desc>Created with Sketch.</desc>
    <defs>
        <circle id="path-1" cx="81.5" cy="81.5" r="81.5"></circle>
        <filter x="-35.0%" y="-27.6%" width="169.9%" height="169.9%" filterUnits="objectBoundingBox" id="filter-2">
            <feOffset dx="0" dy="12" in="SourceAlpha" result="shadowOffsetOuter1"></feOffset>
            <feGaussianBlur stdDeviation="17" in="shadowOffsetOuter1" result="shadowBlurOuter1"></feGaussianBlur>
            <feColorMatrix values="0 0 0 0 0.643137255   0 0 0 0 0.101247343   0 0 0 0 0.0666666667  0 0 0 0.0548240822 0" type="matrix" in="shadowBlurOuter1"></feColorMatrix>
        </filter>
    </defs>
    <g id="HS_Website" stroke="none" stroke-width="1" fill="none" fill-rule="evenodd">
        <g id="invision" transform="translate(33.000000, 21.000000)">
            <g id="Oval-Copy-42">
                <use fill="black" fill-opacity="1" filter="url(#filter-2)" xlink:href="#path-1"></use>
                <use fill="#FFFFFF" fill-rule="evenodd" xlink:href="#path-1"></use>
            </g>
            <g transform="translate(53.000000, 52.000000)" fill-rule="nonzero">
                <path d="M51.8328164,0.5 L5.16718359,0.5 C2.31339844,0.5 0,2.81339844 0,5.66718359 L0,52.3328164 C0,55.1866016 2.31339844,57.5 5.16718359,57.5 L51.8328164,57.5 C54.6866016,57.5 57,55.1866016 57,52.3328164 L57,5.66718359 C57,2.81339844 54.6866016,0.5 51.8328164,0.5" id="Path" fill="#DC395F"></path>
                <path d="M18.7187872,18.3949781 C20.6278797,18.3949781 22.2271653,16.9026361 22.2271653,14.9467059 C22.2271653,12.9921183 20.6278797,11.5 18.7187872,11.5 C16.8096947,11.5 15.2108578,12.9921183 15.2108578,14.9467059 C15.2108578,16.9024123 16.8096947,18.3949781 18.7187872,18.3949781 M11.4444943,36.857956 C11.2383303,37.7327771 11.1349117,38.677405 11.1349117,39.4479636 C11.1349117,42.4843315 12.7857944,44.5 16.2941725,44.5 C19.2037999,44.5 21.5626844,42.7767589 23.2611262,39.9941116 L22.2240246,44.1451493 L28.0017774,44.1451493 L31.3039914,30.935797 C32.1295449,27.5913399 33.7288305,25.8553457 36.1538939,25.8553457 C38.0627621,25.8553457 39.2492709,27.0393747 39.2492709,28.9939624 C39.2492709,29.5602469 39.1976738,30.1770965 38.9912854,30.8463012 L37.2885813,36.9179181 C37.0305959,37.7927393 36.9278504,38.668008 36.9278504,39.4906979 C36.9278504,42.373133 38.6298814,44.4814296 42.1898566,44.4814296 C45.2338608,44.4814296 47.6584756,42.5270657 49,37.8444231 L46.7301765,36.9704969 C45.5950405,40.1075475 44.6146957,40.6747269 43.8407393,40.6747269 C43.0667829,40.6747269 42.6540061,40.1605737 42.6540061,39.1320436 C42.6540061,38.6689029 42.757649,38.1549735 42.9119916,37.5361102 L44.5633229,31.6208871 C44.9758753,30.2319127 45.130891,29.0002271 45.130891,27.8685531 C45.130891,23.4434346 42.4478421,21.1339962 39.1976738,21.1339962 C36.1538939,21.1339962 33.0580683,23.8723431 31.5106042,26.7543307 L32.6452915,21.5814751 L23.8235345,21.5814751 L22.5852042,26.1377048 L26.7127474,26.1377048 L24.1710297,36.2865255 C22.1751195,40.7116439 18.5088095,40.7834643 18.048698,40.6807679 C17.2931371,40.5107259 16.8099191,40.2245632 16.8099191,39.2454794 C16.8099191,38.6805374 16.9131133,37.8690345 17.1710987,36.8906219 L21.0408808,21.5814751 L11.2383303,21.5814751 L10,26.1377048 L14.0754974,26.1377048 L11.4447186,36.857956" id="Shape" fill="#FFFFFF"></path>
            </g>
        </g>
    </g>
</svg>