<?xml version="1.0" encoding="UTF-8"?>
<svg width="229px" height="229px" viewBox="0 0 229 229" version="1.1" xmlns="http://www.w3.org/2000/svg" xmlns:xlink="http://www.w3.org/1999/xlink">
    <!-- Generator: Sketch 63.1 (92452) - https://sketch.com -->
    <title>loopback</title>
    <desc>Created with Sketch.</desc>
    <defs>
        <circle id="path-1" cx="81.5" cy="81.5" r="81.5"></circle>
        <filter x="-35.0%" y="-27.6%" width="169.9%" height="169.9%" filterUnits="objectBoundingBox" id="filter-2">
            <feOffset dx="0" dy="12" in="SourceAlpha" result="shadowOffsetOuter1"></feOffset>
            <feGaussianBlur stdDeviation="17" in="shadowOffsetOuter1" result="shadowBlurOuter1"></feGaussianBlur>
            <feColorMatrix values="0 0 0 0 0.0156862745   0 0 0 0 0.474509804   0 0 0 0 0.760784314  0 0 0 0.0534309441 0" type="matrix" in="shadowBlurOuter1"></feColorMatrix>
        </filter>
    </defs>
    <g id="HS_Website" stroke="none" stroke-width="1" fill="none" fill-rule="evenodd">
        <g id="loopback" transform="translate(33.000000, 21.000000)">
            <g id="Oval-Copy-35">
                <use fill="black" fill-opacity="1" filter="url(#filter-2)" xlink:href="#path-1"></use>
                <use fill="#FFFFFF" fill-rule="evenodd" xlink:href="#path-1"></use>
            </g>
            <g id="loopback-seeklogo.com" transform="translate(48.000000, 42.000000)" fill="#3F5DFF" fill-rule="nonzero">
                <path d="M67.8056972,20.5276845 C67.8037446,19.973042 67.5077608,19.4612629 67.0285548,19.1839434 L34.5828569,0.622789649 C34.1019594,0.344486784 33.5094694,0.344486784 33.0285719,0.622789649 L0.77715969,19.5130626 C0.294949546,19.7921224 -0.00149865661,20.3084192 5.69839439e-06,20.8665409 L0.194302842,58.3082302 C0.196255569,58.8628728 0.492239119,59.3746518 0.971445305,59.6519715 L33.4171432,78.2053353 C33.8980405,78.4836382 34.4905308,78.4836382 34.971428,78.2053353 L67.2228403,59.3150625 C67.7050505,59.0360026 68.0014986,58.5197058 67.9999943,57.9615841 L67.8056972,20.5276845 Z M33.9184001,19.8110225 L47.5397647,27.6008258 L47.5825075,41.3030898 L42.2143958,38.2339074 L42.1891386,30.7264844 L33.9514287,26.0156008 L25.7545185,30.8160672 L25.7778327,38.3195951 L23.9496051,39.3867981 L20.4310926,41.6516835 L20.3864069,27.7332524 L33.9184001,19.8110225 Z M31.5597727,34.9388204 L27.7032033,37.1920211 L27.6896033,32.7304112 L31.5597727,34.9388204 Z M9.71429801,45.2194135 L9.71429801,33.8365633 L18.4571507,28.7069779 L18.4765793,34.9154511 L15.0862953,36.9018509 L15.1134953,42.1171241 L19.6325787,44.699444 L40.2657111,32.6252489 L40.2831969,38.8337222 L19.6675501,50.9079172 L9.71429801,45.2194135 Z M34.0816001,59.0326821 L22.5371487,52.4269289 L27.6157747,49.1552115 L34.0485715,52.8319987 L40.5415966,49.0286273 L45.9174797,52.1017047 L34.0816001,59.0326821 Z M48.4587354,50.7618585 L36.4732558,43.912674 L41.7966817,40.7811729 L48.4179357,44.5592276 L52.9098189,41.9282215 L52.8826189,36.7129481 L49.4903922,34.7654973 L49.4709636,28.5706563 L58.285702,33.6165014 L58.285702,44.9993515 L48.4587354,50.7618585 Z" id="Shape"></path>
            </g>
        </g>
    </g>
</svg>