<?xml version="1.0" encoding="UTF-8"?>
<svg width="229px" height="229px" viewBox="0 0 229 229" version="1.1" xmlns="http://www.w3.org/2000/svg" xmlns:xlink="http://www.w3.org/1999/xlink">
    <!-- Generator: Sketch 63.1 (92452) - https://sketch.com -->
    <title>mongo</title>
    <desc>Created with Sketch.</desc>
    <defs>
        <circle id="path-1" cx="81.5" cy="81.5" r="81.5"></circle>
        <filter x="-35.0%" y="-27.6%" width="169.9%" height="169.9%" filterUnits="objectBoundingBox" id="filter-2">
            <feOffset dx="0" dy="12" in="SourceAlpha" result="shadowOffsetOuter1"></feOffset>
            <feGaussianBlur stdDeviation="17" in="shadowOffsetOuter1" result="shadowBlurOuter1"></feGaussianBlur>
            <feColorMatrix values="0 0 0 0 0.28627451   0 0 0 0 0.615686275   0 0 0 0 0.290196078  0 0 0 0.0529119318 0" type="matrix" in="shadowBlurOuter1"></feColorMatrix>
        </filter>
    </defs>
    <g id="HS_Website" stroke="none" stroke-width="1" fill="none" fill-rule="evenodd">
        <g id="mongo" transform="translate(33.000000, 21.000000)">
            <g id="Oval">
                <use fill="black" fill-opacity="1" filter="url(#filter-2)" xlink:href="#path-1"></use>
                <use fill="#FFFFFF" fill-rule="evenodd" xlink:href="#path-1"></use>
            </g>
            <g id="mongodb" transform="translate(30.000000, 66.926087)" fill-rule="nonzero">
                <path d="M96.0347128,12.0910848 C95.9423749,12.1095205 95.8496356,12.3129148 95.8496356,12.4237296 C95.831168,13.1635638 95.8127004,15.1237635 95.8127004,16.4551444 C95.8127004,16.4922162 95.8681032,16.5661596 95.9237066,16.5661596 C96.2015232,16.5845953 96.8683633,16.603031 97.4426648,16.603031 C98.2391793,16.603031 98.7022739,16.4922162 98.9618236,16.3814014 C99.628463,16.0483558 99.9434154,15.3271578 99.9434154,14.5318161 C99.9434154,12.7383395 98.6838063,12.0540129 96.8127598,12.0540129 C96.6830853,12.0355772 96.3129309,12.0355772 96.0347128,12.0910848 L96.0347128,12.0910848 Z M100.814202,20.3571082 C100.814202,18.5263593 99.4618533,17.5091876 97.0167061,17.5091876 C96.9054992,17.5091876 96.1274522,17.4907518 95.9421742,17.5276233 C95.8865707,17.5462594 95.8127004,17.5833313 95.8127004,17.6388389 C95.8127004,18.9515836 95.7940321,21.0414347 95.8496356,21.8550118 C95.8865707,22.2062927 96.1461205,22.7056607 96.4610729,22.8535474 C96.7942922,23.0385059 97.5538717,23.0753774 98.0725697,23.0753774 C99.5359244,23.0753774 100.814202,22.2618003 100.814202,20.3571082 L100.814202,20.3571082 Z M92.2560862,11.0741134 C92.4411634,11.0741134 92.9967966,11.1294206 94.4232161,11.1294206 C95.7755645,11.1294206 96.8498957,11.0925492 98.1651083,11.0925492 C99.776605,11.0925492 101.999539,11.6656601 101.999539,14.0697203 C101.999539,15.2532145 101.165889,16.1964429 100.07309,16.658739 C100.017687,16.6771748 100.017687,16.7140462 100.07309,16.732482 C101.628983,17.1210352 103,18.0824989 103,19.8946116 C103,21.6700533 101.888533,22.7980398 100.276835,23.5008021 C99.2950429,23.9260264 98.0725697,24.073913 96.8314281,24.073913 C95.8865707,24.073913 93.3488849,23.9630982 91.9411337,24.0001701 C91.7929916,23.9444621 92.0708082,23.2787717 92.200282,23.1679569 C92.5339028,23.1493208 92.793051,23.130885 93.1451394,23.0198698 C93.6453698,22.8906193 93.7007725,22.7425322 93.7748436,21.9844627 C93.8119795,21.337208 93.8119795,19.0439627 93.8119795,17.4168085 C93.8119795,15.1792711 93.8306478,13.6629318 93.8119795,12.923298 C93.7935119,12.3501871 93.5897663,12.1650281 93.1822753,12.0540129 C92.8671221,11.9987057 92.3486248,11.924562 91.9224654,11.8692548 C91.829726,11.7766753 92.1446785,11.1478564 92.2560862,11.0741134 Z M81.5673743,22.5762098 C82.012202,22.9272904 82.8827877,23.075177 83.6608347,23.075177 C84.6610948,23.075177 85.6613549,22.8906193 86.6246799,22.0211338 C87.6064724,21.1338138 88.2917801,19.7653611 88.2917801,17.5833313 C88.2917801,15.4934802 87.4952655,13.7921823 85.8651005,12.7938471 C84.9389114,12.2203353 83.7533733,11.98027 82.3825572,11.98027 C81.9750662,11.98027 81.5860426,11.9987057 81.345362,12.1095205 C81.2895578,12.1465924 81.160084,12.3129148 81.160084,12.4052939 C81.1229481,12.7752109 81.1229481,15.6229311 81.1229481,17.2873576 C81.1229481,19.0070912 81.1229481,21.4111514 81.160084,21.688489 C81.160084,21.966027 81.2895578,22.3912513 81.5675751,22.5762098 L81.5673743,22.5762098 Z M77.3623876,11.073913 C77.7144759,11.073913 79.0666237,11.1294206 79.7149962,11.1294206 C80.8822674,11.1294206 81.7157171,11.0741134 83.9199829,11.0741134 C85.7723611,11.0741134 87.3284551,11.573281 88.4399222,12.5163091 C89.7920699,13.6813675 90.4962466,15.2902863 90.4962466,17.2502857 C90.4962466,20.0426987 89.2179692,21.6516175 87.9396917,22.5762098 C86.6618158,23.5192378 84.9945148,24.073913 82.6234387,24.073913 C81.3638295,24.073913 79.1964989,24.0370416 77.3995235,24.0184054 L77.3810559,24.0184054 C77.2885173,23.852083 77.529198,23.2048284 77.67734,23.1863926 C78.1591029,23.130885 78.2887774,23.1122489 78.5296588,23.0200702 C78.9184816,22.8719831 78.9927534,22.6685889 79.0483568,21.9844627 C79.1037595,20.7083891 79.085292,19.173614 79.085292,17.4352442 C79.085292,16.1964429 79.1037595,13.7737466 79.0666237,12.997041 C79.0112209,12.3499867 78.7334044,12.1834639 78.1775705,12.0724487 C77.8997539,12.0171415 77.529198,11.9429977 77.0107007,11.8876905 C76.9364289,11.7580392 77.269849,11.1849282 77.3623876,11.0741134 L77.3623876,11.073913 Z" id="Shape" fill="#8E714E"></path>
                <path d="M55.3254688,24.0924318 C54.8585736,24.0363257 54.5224172,23.9617876 54.1115818,23.7748346 C54.055522,23.737363 53.9620215,23.5506126 53.9620215,23.4756694 C53.9247833,22.8214354 53.9247833,20.9523112 53.9247833,19.7001518 C53.9247833,18.6906465 53.7568062,17.8121905 53.3271493,17.1954281 C52.8228135,16.4848854 52.0946432,16.073913 51.1606505,16.073913 C50.3389797,16.073913 49.23701,16.6345693 48.3218388,17.4196501 C48.3032196,17.4382846 48.1538618,17.569334 48.1724809,17.363544 C48.1724809,17.1579565 48.2099216,16.7467816 48.2285407,16.4662509 C48.2473622,16.2045573 48.097802,16.073913 48.097802,16.073913 C47.500168,16.3728757 45.8193859,16.7654161 45.2029304,16.8213197 C44.7548568,16.9151 44.6427372,17.3449094 45.1098347,17.4943908 L45.1284539,17.4943908 C45.632385,17.6438721 45.9687438,17.8121905 46.2300189,17.9805089 C46.4168174,18.1299902 46.3981983,18.3355777 46.3981983,18.5038961 C46.4168174,19.9055368 46.4168174,22.0551917 46.36096,23.2328129 C46.3423409,23.700094 46.2116021,23.8682098 45.8752433,23.9429505 L45.912684,23.924316 C45.6512065,23.9804221 45.4457888,24.0363257 45.1282515,24.0737973 C45.0161319,24.1860096 45.0161319,24.7841374 45.1282515,24.9149842 C45.3336692,24.9149842 46.4168174,24.8588781 47.3135719,24.8588781 C48.546078,24.8588781 49.1811526,24.9149842 49.4984875,24.9149842 C49.6292262,24.7655029 49.6666669,24.2046441 49.5919879,24.0737973 C49.23701,24.0551628 48.9755325,24.0178937 48.7328765,23.9429505 C48.3967201,23.8680073 48.3032196,23.700094 48.2843981,23.3075536 C48.2473622,22.3166828 48.2473622,20.2233365 48.2473622,18.8028588 C48.2473622,18.4103184 48.3592794,18.2233654 48.4711967,18.1111532 C48.9008536,17.7374498 49.5919879,17.4757562 50.208241,17.4757562 C50.8058749,17.4757562 51.1978888,17.6627092 51.4968069,17.9057682 C51.9076423,18.242 52.038381,18.7281181 52.0944408,19.0831869 C52.1877389,19.8869022 52.1505006,21.4756984 52.1505006,22.858907 C52.1505006,23.6065162 52.0944408,23.7934692 51.8145466,23.8868444 C51.6836055,23.9429505 51.347449,24.0178937 50.9552328,24.0549602 C50.8244941,24.1860096 50.8619347,24.7655029 50.9552328,24.8963497 C51.4968069,24.8963497 52.1318815,24.8402436 53.0656719,24.8402436 C54.223499,24.8402436 54.9706932,24.8963497 55.2696114,24.8963497 C55.3627071,24.7841374 55.4001477,24.2421157 55.3254688,24.0924318 L55.3254688,24.0924318 Z M60.4987564,16.9525716 C59.5091086,16.9525716 58.8926532,17.7188153 58.8926532,18.9148685 C58.8926532,20.1299613 59.4342273,21.5318045 60.9656516,21.5318045 C61.227129,21.5318045 61.7128457,21.4195922 61.9366802,21.1578986 C62.2916581,20.8216669 62.5345165,20.1485958 62.5345165,19.4382557 C62.5345165,17.8869312 61.7687032,16.952369 60.4987564,16.952369 L60.4987564,16.9525716 Z M60.3680176,25.2139469 C59.9946229,25.2139469 59.7329431,25.3261592 59.564966,25.4197369 C58.7805336,25.9240845 58.425758,26.4102026 58.425758,26.9898985 C58.425758,27.5317177 58.6311757,27.9615272 59.0794517,28.335433 C59.6210258,28.8027141 60.3680176,29.0271386 61.3204271,29.0271386 C63.2254485,29.0271386 64.0659408,27.9989988 64.0659408,26.9898985 C64.0659408,26.2793558 63.7109628,25.8120748 62.9827925,25.5505837 C62.4598375,25.3261592 61.5074281,25.2139469 60.3680176,25.2139469 L60.3680176,25.2139469 Z M60.4987564,30.073913 C59.3595483,30.073913 58.5376752,29.830854 57.8281241,29.2888322 C57.1369897,28.765445 56.8382739,27.9803642 56.8382739,27.4383425 C56.8382739,27.2888612 56.8757146,26.8774837 57.211871,26.5037804 C57.4170863,26.2793558 57.8655647,25.8495464 58.9300938,25.1205717 C58.9673321,25.1019372 58.9859512,25.0833026 58.9859512,25.0456285 C58.9859512,25.0083594 58.9485106,24.9708878 58.9112723,24.9524558 C58.0335418,24.6160216 57.7720643,24.0737973 57.6971829,23.7748346 L57.6971829,23.737363 C57.6787662,23.6251508 57.6413255,23.513141 57.8095049,23.4009288 C57.9402437,23.3075536 58.1270422,23.1953413 58.3322575,23.0646971 C58.6497948,22.8775416 58.9859512,22.6719541 59.1913689,22.5036357 C59.2288096,22.4663666 59.2288096,22.4290976 59.2288096,22.391626 C59.2288096,22.3541544 59.1913689,22.3166828 59.1539283,22.2982508 C57.8469456,21.8682388 57.1932519,20.896205 57.1932519,19.4382557 C57.1932519,18.485059 57.6227064,17.6252376 58.3883173,17.0832158 C58.9112723,16.6720409 60.2186597,16.1672882 61.0777712,16.1672882 L61.133831,16.1672882 C62.0115615,16.1859228 62.4970758,16.3728757 63.1880078,16.6159348 C63.5616049,16.7467816 63.9165829,16.8026852 64.4022996,16.8026852 C65.1304698,16.8026852 65.4480071,16.5784632 65.7092822,16.3169721 C65.7281038,16.3542412 65.7655444,16.4478189 65.7841636,16.6906754 C65.8027827,16.9337345 65.7281038,17.2888033 65.5413052,17.5504969 C65.3919473,17.7560844 65.0557909,17.9057682 64.7196345,17.9057682 L64.626134,17.9057682 C64.2899776,17.8682966 64.1404173,17.830825 64.1404173,17.830825 L64.0659408,17.8682966 C64.0473216,17.9057682 64.0659408,17.9430373 64.0845599,17.9991434 L64.1033814,18.0366151 C64.1406197,18.2047309 64.2152986,18.709281 64.2152986,18.8403304 C64.2152986,20.3730204 63.5990456,21.0456864 62.9453519,21.550439 C62.3102773,22.0177201 61.582107,22.3166828 60.7602339,22.391626 C60.7416147,22.391626 60.6671382,22.391626 60.4987564,22.4102605 C60.4054583,22.4102605 60.2747196,22.4290976 60.255898,22.4290976 L60.2372789,22.4290976 C60.087921,22.4663666 59.7145263,22.6533196 59.7145263,22.9709168 C59.7145263,23.2512449 59.8825033,23.5878817 60.6855549,23.6439878 C60.8535319,23.6626224 61.021509,23.6626224 61.2085099,23.6814594 C62.273039,23.7559976 63.5990456,23.8495753 64.2152986,24.0551628 C65.07441,24.37276 65.6159842,25.1392062 65.6159842,26.0551338 C65.6159842,27.4385451 64.6263364,28.728176 62.9827925,29.5316888 C62.1797409,29.8869601 61.3764869,30.073913 60.4987564,30.073913 L60.4987564,30.073913 Z M71.1440473,17.0459468 C70.7520335,17.0459468 70.3970555,17.1391194 70.135578,17.3260724 C69.4074077,17.7747189 69.0338107,18.672012 69.0338107,19.9802774 C69.0338107,22.4290976 70.2663168,24.1487405 72.0219803,24.1487405 C72.5449352,24.1487405 72.9557706,23.9990566 73.3105462,23.700094 C73.8521203,23.2512449 74.1324193,22.3541544 74.1324193,21.1017925 C74.1324193,18.672012 72.9183299,17.0457442 71.1442497,17.0457442 L71.1440473,17.0459468 Z M71.4804061,25.045831 C68.305438,25.045831 67.16623,22.7094257 67.16623,20.5225017 C67.16623,18.9898117 67.782483,17.8121905 69.0149891,16.9710036 C69.8929221,16.4289818 70.938832,16.1300192 71.8726224,16.1300192 C74.3003963,16.1300192 76,17.8682966 76,20.3730204 C76,22.0738262 75.3276871,23.4195633 74.0389188,24.2421157 C73.4226658,24.6532906 72.3581367,25.045831 71.4802038,25.045831 L71.4804061,25.045831 L71.4804061,25.045831 Z M38.1995028,17.0457442 C37.8072866,17.0457442 37.452511,17.1391194 37.1908311,17.3260724 C36.4626609,17.7747189 36.0890638,18.672012 36.0890638,19.9802774 C36.0890638,22.4290976 37.3215699,24.1487405 39.0772334,24.1487405 C39.6001883,24.1487405 40.0110237,23.9990566 40.3660017,23.700094 C40.9073734,23.2512449 41.1876724,22.3541544 41.1876724,21.1017925 C41.1876724,18.672012 39.9924046,17.0457442 38.1995028,17.0457442 Z M38.5356592,25.045831 C35.3606911,25.045831 34.2214831,22.7094257 34.2214831,20.5225017 C34.2214831,18.9898117 34.8377361,17.8121905 36.0702422,16.9710036 C36.9481752,16.4289818 37.9940851,16.1300192 38.9278755,16.1300192 C41.3558518,16.1300192 43.0552531,17.8682966 43.0552531,20.3730204 C43.0552531,22.0738262 42.3829403,23.4195633 41.0941719,24.2421157 C40.496538,24.6532906 39.4320089,25.045831 38.5356592,25.045831 Z M17.1888152,24.8588781 C17.1513745,24.8029745 17.1139339,24.6346561 17.1327554,24.4290686 C17.1327554,24.2793848 17.170196,24.1860096 17.1888152,24.1487405 C17.5810314,24.0924318 17.7864491,24.0363257 18.0104859,23.9804221 C18.384083,23.8868444 18.5334409,23.6814594 18.55206,23.2141784 C18.6083222,22.0926633 18.6083222,19.9616429 18.5895007,18.485059 L18.5895007,18.4475874 C18.5895007,18.2794716 18.5895007,18.0736816 18.384083,17.9242002 C18.0851649,17.7374498 17.7303893,17.569334 17.2634941,17.4380821 C17.0955171,17.382381 16.9833975,17.2888033 17.0020166,17.1767936 C17.0020166,17.0645813 17.1141362,16.9337345 17.3569946,16.8962629 C17.9732476,16.8401568 19.5791485,16.4478189 20.2142231,16.1672882 C20.2516637,16.2045573 20.3077235,16.3169721 20.3077235,16.4664534 L20.2891044,16.6718384 C20.2702829,16.8776284 20.2516637,17.1206874 20.2516637,17.363544 C20.2516637,17.4382846 20.326545,17.4943908 20.4010216,17.4943908 C20.4384623,17.4943908 20.4759029,17.4757562 20.5131412,17.4569192 C21.708409,16.522357 22.7915573,16.1859228 23.3517505,16.1859228 C24.2671241,16.1859228 24.9768777,16.6159348 25.5184518,17.5130253 C25.55569,17.569334 25.5931307,17.5879685 25.6491905,17.5879685 C25.6864288,17.5879685 25.7422862,17.569334 25.7611077,17.5318624 C26.8630775,16.6906754 27.9650472,16.1859228 28.6932175,16.1859228 C30.4300595,16.1859228 31.4573503,17.4757562 31.4573503,19.6626802 C31.4573503,20.2794426 31.4573503,21.083158 31.4387312,21.8123352 C31.4387312,22.4663666 31.420112,23.0644945 31.420112,23.4945065 C31.420112,23.5876792 31.5506484,23.8868444 31.7560661,23.9429505 C32.0175436,24.0737973 32.3725215,24.1299034 32.8394167,24.2046441 L32.8580358,24.2046441 C32.8954765,24.3354909 32.8207975,24.8214065 32.7461186,24.9149842 C32.633999,24.9149842 32.4658196,24.9149842 32.2792234,24.8963497 C31.8064544,24.871662 31.3331284,24.8591674 30.8597164,24.8588781 C29.7018892,24.8588781 29.1042553,24.8775126 28.5250381,24.9149842 C28.4880022,24.7655029 28.4691807,24.3168564 28.5250381,24.2046441 C28.8613969,24.1487405 29.029374,24.0924318 29.234994,24.0365282 C29.6085911,23.924316 29.7018892,23.7559976 29.7207107,23.270082 C29.7207107,22.9150132 29.7951873,19.8869022 29.6830677,19.1579276 C29.5711505,18.4103184 29.0107548,17.5318624 27.7780463,17.5318624 C27.3111511,17.5318624 26.5829809,17.7188153 25.8732273,18.2606345 C25.8359891,18.2981061 25.798346,18.3914813 25.798346,18.4475874 L25.798346,18.4664245 C25.8732273,18.8587624 25.8732273,19.3076114 25.8732273,19.9991145 L25.8732273,21.2140048 C25.8732273,22.0551917 25.8544058,22.8402725 25.8732273,23.4381978 C25.8732273,23.8495753 26.1160857,23.9429505 26.3215034,24.0178937 C26.433623,24.0363257 26.5080995,24.0551628 26.6016,24.0737973 C26.769577,24.1112689 26.9377564,24.1487405 27.1992339,24.2046441 C27.2366746,24.2795873 27.2366746,24.5224438 27.1806148,24.7280313 C27.1617933,24.8402436 27.1243526,24.8961472 27.1057335,24.9149842 C26.4708613,24.8963497 25.8171675,24.8775126 24.864758,24.8775126 C24.5846614,24.8775126 24.0989447,24.8963497 23.6881093,24.8963497 C23.3517505,24.8963497 23.0344156,24.9149842 22.8478195,24.9149842 C22.8289979,24.8775126 22.7915573,24.7468684 22.7915573,24.5410784 C22.7915573,24.3729625 22.8289979,24.2421157 22.8664386,24.2046441 C22.9597367,24.1860096 23.0344156,24.167375 23.1279161,24.167375 C23.3517505,24.1299034 23.5387515,24.0924318 23.7253476,24.0551628 C24.0430873,23.9617876 24.1550045,23.7934692 24.1736237,23.3822942 C24.2296835,22.4477321 24.2857433,19.7748925 24.1550045,19.1018214 C23.9309677,18.017778 23.3147146,17.4757562 22.3246621,17.4757562 C21.7458497,17.4757562 21.0172747,17.7560844 20.4198431,18.2049335 C20.3263427,18.2794716 20.2516637,18.466222 20.2516637,18.6345404 L20.2516637,19.7374209 C20.2516637,21.083158 20.2516637,22.7655318 20.2702829,23.4945065 C20.2891044,23.718526 20.3635809,23.9804221 20.7932378,24.0737973 C20.8867383,24.0924318 21.0360962,24.1299034 21.2228947,24.1487405 L21.5588488,24.2046441 C21.5964918,24.3168564 21.5776703,24.7655029 21.5029914,24.9149842 C21.3161928,24.9149842 21.092156,24.8963497 20.8304761,24.8963497 C20.4384623,24.8775126 19.9341264,24.8588781 19.3739332,24.8588781 C18.7202394,24.8588781 18.2533443,24.8775126 17.8797472,24.8963497 C17.6182697,24.8588781 17.412852,24.8588781 17.1888152,24.8588781 L17.1888152,24.8588781 Z" id="Shape" fill="#442D22"></path>
                <path d="M7.49871459,28.073913 L6.69959221,27.8138007 C6.69959221,27.8138007 6.79718527,23.934043 5.33497932,23.6556242 C4.36052743,22.5787632 5.49129721,-22.0124992 9,23.5069599 C9,23.5069599 7.79128252,24.082305 7.57687353,25.0664269 C7.34281918,26.03184 7.49871459,28.073913 7.49871459,28.073913 L7.49871459,28.073913 Z" id="Path" fill="#FFFFFF"></path>
                <path d="M7.49871459,28.073913 L6.69959221,27.8138007 C6.69959221,27.8138007 6.79718527,23.934043 5.33497932,23.6556242 C4.36052743,22.5787632 5.49129721,-22.0124992 9,23.5069599 C9,23.5069599 7.79128252,24.082305 7.57687353,25.0664269 C7.34281918,26.03184 7.49871459,28.073913 7.49871459,28.073913 L7.49871459,28.073913 Z" id="Path" fill="#A6A385"></path>
                <path d="M7.07777521,25.073913 C7.07777521,25.073913 13.2192772,20.6508236 11.7820582,11.4490511 C10.3965591,4.75897608 7.12912432,2.56631784 6.76986591,1.72292526 C6.37649836,1.12322907 6,0.0739130435 6,0.0739130435 L6.25674556,18.6829753 C6.25674556,18.7018618 5.72638524,24.3801907 7.07796058,25.073913" id="Path" fill="#FFFFFF"></path>
                <path d="M7.07777521,25.073913 C7.07777521,25.073913 13.2192772,20.6508236 11.7820582,11.4490511 C10.3965591,4.75897608 7.12912432,2.56631784 6.76986591,1.72292526 C6.37649836,1.12322907 6,0.0739130435 6,0.0739130435 L6.25674556,18.6829753 C6.25674556,18.7018618 5.72638524,24.3801907 7.07796058,25.073913" id="Path" fill="#499D4A"></path>
                <path d="M5.3164552,26.073913 C5.3164552,26.073913 -0.320251161,21.6474981 0.0143263293,13.8534626 C0.332048074,6.05921848 4.31272273,2.22945719 5.08210597,1.5366633 C5.5839722,0.920823336 5.6006467,0.689753008 5.63417695,0.0739130435 C5.98542894,0.940009681 5.91854969,13.0259472 5.9685732,14.4499077 C6.11900619,19.9346997 5.7010562,25.0349308 5.3164552,26.073913 Z" id="Path" fill="#FFFFFF"></path>
                <path d="M5.3164552,26.073913 C5.3164552,26.073913 -0.320251161,21.6474981 0.0143263293,13.8534626 C0.332048074,6.05921848 4.31272273,2.22945719 5.08210597,1.5366633 C5.5839722,0.920823336 5.6006467,0.689753008 5.63417695,0.0739130435 C5.98542894,0.940009681 5.91854969,13.0259472 5.9685732,14.4499077 C6.11900619,19.9346997 5.7010562,25.0349308 5.3164552,26.073913 Z" id="Path" fill="#58AA50"></path>
            </g>
        </g>
    </g>
</svg>