<?xml version="1.0" encoding="UTF-8"?>
<svg width="229px" height="229px" viewBox="0 0 229 229" version="1.1" xmlns="http://www.w3.org/2000/svg" xmlns:xlink="http://www.w3.org/1999/xlink">
    <!-- Generator: Sketch 63.1 (92452) - https://sketch.com -->
    <title>nginx</title>
    <desc>Created with Sketch.</desc>
    <defs>
        <circle id="path-1" cx="81.5" cy="81.5" r="81.5"></circle>
        <filter x="-35.0%" y="-27.6%" width="169.9%" height="169.9%" filterUnits="objectBoundingBox" id="filter-2">
            <feOffset dx="0" dy="12" in="SourceAlpha" result="shadowOffsetOuter1"></feOffset>
            <feGaussianBlur stdDeviation="17" in="shadowOffsetOuter1" result="shadowBlurOuter1"></feGaussianBlur>
            <feColorMatrix values="0 0 0 0 0   0 0 0 0 0.580392157   0 0 0 0 0.219607843  0 0 0 0.0595225087 0" type="matrix" in="shadowBlurOuter1"></feColorMatrix>
        </filter>
    </defs>
    <g id="HS_Website" stroke="none" stroke-width="1" fill="none" fill-rule="evenodd">
        <g id="nginx" transform="translate(33.000000, 21.000000)">
            <g id="Oval-Copy-32">
                <use fill="black" fill-opacity="1" filter="url(#filter-2)" xlink:href="#path-1"></use>
                <use fill="#FFFFFF" fill-rule="evenodd" xlink:href="#path-1"></use>
            </g>
            <g id="nginx-icon" transform="translate(50.500000, 45.000000)" fill-rule="nonzero">
                <path d="M0.502390193,36.0541522 L0.502390193,18.8698994 C0.467795539,18.2512573 0.811199807,17.6729025 1.3721517,17.4050639 L31.1315498,0.286064847 C31.6669614,-0.0469545873 32.2678876,-0.114458527 32.8032992,0.218560908 L62.6959854,17.4028138 C63.2184044,17.7022255 63.5282008,18.2680704 63.4979733,18.8676492 L63.4979733,53.1709012 C63.5282008,53.77048 63.2184044,54.3363249 62.6959854,54.6357366 L37.0165594,69.4190994 C35.6711195,70.2211408 34.3108961,70.9983192 32.9365873,71.7502354 C32.3356612,72.0832549 31.7324759,72.0832549 31.1292907,71.7502354 L1.30437807,54.6312364 C0.768966446,54.2982169 0.502390193,53.8976936 0.502390193,53.2316547 L0.502390193,36.0474018 L0.502390193,36.0541522 Z" id="Path" fill="#009438"></path>
                <path d="M21.4985196,29.733993 L21.4985196,49.7807176 C21.4985196,52.0466732 19.7220577,54.0468408 17.3571429,53.98152 C15.9137676,53.9139468 14.7945966,53.3147975 14.0262768,52.0489256 C13.6310141,51.4497763 13.5,50.7830538 13.5,50.0487581 L13.5,22.2018305 C13.5,20.3323045 14.6169504,19.0033643 16.0625463,18.4019626 C17.5081421,17.8005608 18.953738,17.9357073 20.4015544,18.4019626 C21.7827535,18.802897 22.8330866,19.6678344 23.7324204,20.7354914 L41.2172465,42.0052914 C41.2838638,42.0728646 41.3504811,42.2080111 41.4792746,42.3386527 L41.4792746,22.066684 C41.4792746,19.9336224 42.9226499,18.2668161 44.9655811,18.0663488 C47.5281273,17.7329876 49.2379719,19.5980087 49.5,21.5351079 L49.5,49.915864 C49.5,51.4925727 48.7760918,52.6503274 47.46151,53.3846231 C46.4755736,53.9184516 45.42302,54.0513457 44.3082902,53.9837724 C42.6958761,53.8749307 41.1669444,53.2169615 39.969282,52.1164989 C39.3119911,51.5173496 38.8523316,50.7830538 38.2594375,50.1163313 L21.6273131,29.9119359 C21.6273131,29.8443626 21.5606958,29.7767894 21.4940785,29.7092162 L21.4985196,29.733993 Z" id="Path" fill="#FEFEFE"></path>
            </g>
        </g>
    </g>
</svg>