<?xml version="1.0" encoding="UTF-8"?>
<svg width="229px" height="229px" viewBox="0 0 229 229" version="1.1" xmlns="http://www.w3.org/2000/svg" xmlns:xlink="http://www.w3.org/1999/xlink">
    <!-- Generator: Sketch 63.1 (92452) - https://sketch.com -->
    <title>nodejs</title>
    <desc>Created with Sketch.</desc>
    <defs>
        <circle id="path-1" cx="81.5" cy="81.5" r="81.5"></circle>
        <filter x="-35.0%" y="-27.6%" width="169.9%" height="169.9%" filterUnits="objectBoundingBox" id="filter-2">
            <feOffset dx="0" dy="12" in="SourceAlpha" result="shadowOffsetOuter1"></feOffset>
            <feGaussianBlur stdDeviation="17" in="shadowOffsetOuter1" result="shadowBlurOuter1"></feGaussianBlur>
            <feColorMatrix values="0 0 0 0 0   0 0 0 0 0.580392157   0 0 0 0 0.219607843  0 0 0 0.0595225087 0" type="matrix" in="shadowBlurOuter1"></feColorMatrix>
        </filter>
        <path d="M9.48,0.323944954 L0.610526316,5.2319633 C0.278315789,5.41563303 0.0745263158,5.7547156 0.0745263158,6.12124771 L0.0745263158,15.9441468 C0.0745263158,16.3108807 0.278315789,16.6497615 0.610526316,16.8334312 L9.48063158,21.7452844 C9.81221053,21.9283486 10.2210526,21.9283486 10.5522105,21.7452844 L19.4208421,16.8334312 C19.7513684,16.6497615 19.9555789,16.3106789 19.9555789,15.9441468 L19.9555789,6.12124771 C19.9555789,5.7547156 19.7513684,5.41563303 19.4187368,5.2319633 L10.5513684,0.323944954 C10.3850526,0.232513761 10.1997895,0.186697248 10.0145263,0.186697248 C9.82926316,0.186697248 9.644,0.232513761 9.47768421,0.323944954" id="path-3"></path>
        <linearGradient x1="66.9275519%" y1="17.6825948%" x2="33.0350785%" y2="82.2164389%" id="linearGradient-5">
            <stop stop-color="#3E863D" offset="30%"></stop>
            <stop stop-color="#55934F" offset="50%"></stop>
            <stop stop-color="#5AAD45" offset="80%"></stop>
        </linearGradient>
        <path d="M9.07352681,0.0455401666 C8.92908595,0.0597994258 8.78791391,0.104614241 8.65777412,0.178354981 L0.0750859509,5.11755869 L9.32992466,21.9251513 C9.45863434,21.9068179 9.585301,21.8640402 9.69970961,21.7980402 L18.3069139,16.8407068 C18.5725053,16.6871142 18.7543333,16.4271883 18.8094946,16.1326328 L9.3748709,0.062447574 C9.30540853,0.0487994258 9.23594617,0.0416697962 9.16444079,0.0416697962 C9.13583864,0.0416697962 9.10723649,0.0430957221 9.07863434,0.0457438703" id="path-6"></path>
        <linearGradient x1="0.0337368978%" y1="50.0027925%" x2="100.0189%" y2="50.0027925%" id="linearGradient-8">
            <stop stop-color="#6BBF47" offset="16%"></stop>
            <stop stop-color="#79B461" offset="38%"></stop>
            <stop stop-color="#75AC64" offset="47%"></stop>
            <stop stop-color="#659E5A" offset="70%"></stop>
            <stop stop-color="#3E863D" offset="90%"></stop>
        </linearGradient>
    </defs>
    <g id="HS_Website" stroke="none" stroke-width="1" fill="none" fill-rule="evenodd">
        <g id="nodejs" transform="translate(33.000000, 21.000000)">
            <g id="Oval-Copy-36">
                <use fill="black" fill-opacity="1" filter="url(#filter-2)" xlink:href="#path-1"></use>
                <use fill="#FFFFFF" fill-rule="evenodd" xlink:href="#path-1"></use>
            </g>
            <g id="Node.js_logo" transform="translate(36.000000, 53.000000)">
                <path d="M45.0039293,55.3340858 C44.7019957,55.3340858 44.4021301,55.2567997 44.1374212,55.1080795 L41.3792783,53.5147349 C40.967325,53.2899393 41.1683383,53.2104335 41.3042085,53.1646269 C41.8534795,52.9769609 41.9649467,52.9345848 42.5512357,52.6097007 C42.6128632,52.5753961 42.6935167,52.5875036 42.7565919,52.6238261 L44.8755041,53.8507175 C44.9520215,53.8910758 45.0605935,53.8910758 45.1315272,53.8507175 L53.3933409,49.1974088 C53.4698583,49.1550326 53.5194913,49.0682624 53.5194913,48.9794742 L53.5194913,39.6768926 C53.5194913,39.5840686 53.4698583,39.5013341 53.3916865,39.4549221 L45.1331817,34.8056492 C45.0566643,34.7612552 44.9553304,34.7612552 44.8788129,34.8056492 L36.6219626,39.4549221 C36.5419295,39.4993162 36.4910557,39.5860865 36.4910557,39.6748747 L36.4910557,48.9774562 C36.4910557,49.0662444 36.5406887,49.1509968 36.6192741,49.193373 L38.8817082,50.4686944 C40.110123,51.0680147 40.860821,50.361745 40.860821,49.6514394 L40.860821,40.4699326 C40.860821,40.3387683 40.966291,40.2378726 41.1007135,40.2378726 L42.1471409,40.2378726 C42.2774274,40.2378726 42.3849654,40.3387683 42.3849654,40.4699326 L42.3849654,49.6554752 C42.3849654,51.2536628 41.4915727,52.1718134 39.9384759,52.1718134 C39.460759,52.1718134 39.084376,52.1718134 38.0338124,51.667335 L35.8665081,50.4485152 C35.3308862,50.1458282 35,49.5808124 35,48.9774562 L35,39.6748747 C35,39.0695006 35.3308862,38.5044848 35.8665081,38.2058336 L44.1365939,33.550507 C44.6598077,33.2619454 45.3546686,33.2619454 45.8737463,33.550507 L54.1334919,38.2078515 C54.6670458,38.5085206 55,39.0715185 55,39.6768926 L55,48.9794742 C55,49.5828303 54.6670458,50.1458282 54.1334919,50.4485152 L45.8737463,55.1038418 C45.6090373,55.2531674 45.3091718,55.3298482 45.0031021,55.3298482" id="Path" fill="#689F63" fill-rule="nonzero"></path>
                <path d="M47.2990203,49.3240233 C43.7451364,49.3240233 43,47.6061286 43,46.1652722 C43,46.0282517 43.1049087,45.9190635 43.2352313,45.9190635 L44.2843183,45.9190635 C44.4002059,45.9190635 44.4977953,46.0079127 44.5160934,46.128448 C44.6746763,47.2541571 45.1463588,47.8219359 47.2953607,47.8219359 C49.007243,47.8219359 49.7350979,47.4147281 49.7350979,46.4587959 C49.7350979,45.9085728 49.5277202,45.4996522 46.8684067,45.2256112 C44.6441796,44.9943891 43.2697943,44.4784212 43.2697943,42.6050938 C43.2697943,40.8794917 44.652312,39.8518378 46.9680293,39.8518378 C49.5683825,39.8518378 50.857377,40.8024176 51.0200262,42.8448797 C51.0261255,42.9155309 51.0017281,42.9840412 50.9569996,43.0354239 C50.9122711,43.0846656 50.8492446,43.1146389 50.7841849,43.1146389 L49.7289986,43.1146389 C49.6192104,43.1146389 49.523654,43.0332829 49.5012898,42.9219538 C49.2471505,41.7380108 48.6331499,41.3590635 46.963963,41.3590635 C45.095531,41.3590635 44.8779877,42.0441661 44.8779877,42.557993 C44.8779877,43.1810082 45.1341601,43.3629885 47.6552219,43.7141036 C50.1518863,44.0630778 51.337192,44.5554952 51.337192,46.4031313 C51.337192,48.2657539 49.861151,49.3340858 47.2872282,49.3340858 M57.1803627,38.8670028 L57.4528,38.8670028 C57.6764426,38.8670028 57.719138,38.70215 57.719138,38.6058075 C57.719138,38.3531759 57.5544557,38.3531759 57.4629656,38.3531759 L57.1823958,38.3531759 L57.1803627,38.8670028 Z M56.848965,38.0577254 L57.4528,38.0577254 C57.6601776,38.0577254 58.0668005,38.0577254 58.0668005,38.545861 C58.0668005,38.8862713 57.8594228,38.9569225 57.7354029,38.9997414 C57.9773435,39.016869 57.9936084,39.1838628 58.0261382,39.4193668 C58.0424031,39.567092 58.0688336,39.8218645 58.1176284,39.9075024 L57.7455684,39.9075024 C57.7354029,39.8218645 57.6784757,39.3508565 57.6784757,39.3251652 C57.6540783,39.2202588 57.6195154,39.1688761 57.4954954,39.1688761 L57.1884951,39.1688761 L57.1884951,39.9096433 L56.848965,39.9096433 L56.848965,38.0577254 Z M56.1231432,38.978332 C56.1231432,39.7447905 56.7107132,40.3656647 57.4324688,40.3656647 C58.1603238,40.3656647 58.7478938,39.7319448 58.7478938,38.978332 C58.7478938,38.2097325 58.1521913,37.599563 57.4304357,37.599563 C56.7188457,37.599563 56.1211101,38.2011687 56.1211101,38.976191 M59,38.9826139 C59,39.8903748 58.2945093,40.631142 57.434502,40.631142 C56.5805939,40.631142 55.8690039,39.8989386 55.8690039,38.9826139 C55.8690039,38.0491616 56.5968588,37.3340858 57.434502,37.3340858 C58.2782444,37.3340858 58.9979669,38.0513025 58.9979669,38.9826139" id="Shape" fill="#689F63" fill-rule="nonzero"></path>
                <path d="M19.529299,18.9356244 C19.529299,18.5576353 19.3297602,18.2104606 19.0030924,18.0224932 L10.2900332,13.0161919 C10.1429505,12.9299118 9.97817664,12.8847174 9.81114,12.8785546 L9.72103895,12.8785546 C9.55400231,12.8847174 9.38922847,12.9299118 9.23967719,13.0161919 L0.52702941,18.0224932 C0.20241879,18.2114877 0,18.5586625 0,18.9366516 L0.0191310441,32.4210019 C0.0191310441,32.6079421 0.115814816,32.7825566 0.280382937,32.8749996 C0.440836856,32.9736055 0.642432805,32.9736055 0.802886724,32.8749996 L5.98266835,29.9127155 C6.3097475,29.7183798 6.50928634,29.3749027 6.50928634,29.0006114 L6.50928634,22.7011354 C6.50928634,22.3252006 6.70882519,21.9780258 7.03487578,21.7910856 L9.24008861,20.5227678 C9.40383389,20.4282705 9.58362457,20.3814328 9.7667066,20.3814328 C9.9469087,20.3814328 10.1308136,20.4278597 10.2900332,20.5225624 L12.4942175,21.7904693 C12.8204738,21.9774096 13.0208355,22.3245843 13.0208355,22.7005191 L13.0208355,28.9995842 C13.0208355,29.3734647 13.2230486,29.7185852 13.548482,29.9116883 L18.7249723,32.8719182 C18.8874833,32.9684698 19.0896964,32.9684698 19.2515903,32.8719182 C19.4112214,32.7794752 19.5124308,32.6048607 19.5124308,32.4179204 L19.529299,18.9356244 Z M60.6441757,25.9563611 C60.6441757,26.0502421 60.5941881,26.1371385 60.5125212,26.1835654 L57.5198499,27.9062918 C57.4385944,27.9529242 57.3382078,27.9529242 57.257158,27.9062918 L54.2640753,26.1835654 C54.1817913,26.1369331 54.1324208,26.0500367 54.1324208,25.9563611 L54.1324208,22.505978 C54.1324208,22.4118916 54.1817913,22.3252006 54.2620182,22.277952 L57.2530438,20.5523496 C57.3353279,20.5051009 57.4361259,20.5051009 57.5184099,20.5523496 L60.5114926,22.277952 C60.5937767,22.3252006 60.6431471,22.4118916 60.6431471,22.505978 L60.6441757,25.9563611 Z M61.4526166,0.400600275 C61.2892827,0.309800719 61.0905667,0.312265865 60.92929,0.406146854 C60.768836,0.500644129 60.6696837,0.67320437 60.6696837,0.860144631 L60.6696837,14.2130204 C60.6696837,14.3444949 60.5997423,14.4656979 60.4857789,14.5314352 C60.3726383,14.5971724 60.2317268,14.5971724 60.1175577,14.5314352 L57.934973,13.2760594 C57.6099509,13.0882974 57.209639,13.0882974 56.8833827,13.2760594 L48.1674435,18.2994113 C47.8418044,18.4863515 47.6408256,18.8335263 47.6408256,19.2074068 L47.6408256,29.2569866 C47.6408256,29.6329214 47.8418044,29.9780419 48.1674435,30.1670364 L56.8833827,35.1938806 C57.2088161,35.3808208 57.6095395,35.3808208 57.9360015,35.1938806 L66.6519407,30.1649821 C66.9769627,29.9759876 67.1785587,29.6308671 67.1785587,29.2549323 L67.1785587,4.20904588 C67.1785587,3.82776992 66.9707914,3.47710286 66.637541,3.29077888 L61.4526166,0.400600275 Z M90.4768791,22.4151784 C90.8006669,22.2274165 91,21.8806526 91,21.506772 L91,19.0712075 C91,18.6965053 90.8004612,18.3507685 90.4760562,18.1621848 L81.8156588,13.1415035 C81.4885797,12.9525089 81.0874449,12.9525089 80.7603658,13.1415035 L72.0464837,18.1642391 C71.7194046,18.3532336 71.5198657,18.6983541 71.5198657,19.0742889 L71.5198657,29.1197601 C71.5198657,29.4977492 71.7235188,29.8469783 72.0505979,30.0339185 L80.7089382,34.9621568 C81.027789,35.1449885 81.4186382,35.1470428 81.7416032,34.9683197 L86.9789837,32.0615014 C87.1435518,31.9690584 87.248464,31.7944438 87.248464,31.6054493 C87.248464,31.4164547 87.147666,31.2397859 86.9830979,31.1473429 L78.2157312,26.1225531 C78.0511631,26.0301101 77.9503651,25.8554955 77.9503651,25.6685553 L77.9503651,22.5172766 C77.9503651,22.3291038 78.049106,22.1557218 78.2136741,22.0620462 L80.9413907,20.4905155 C81.1039017,20.3960182 81.3034406,20.3960182 81.4659516,20.4905155 L84.1957253,22.0620462 C84.3582363,22.1544892 84.4590343,22.3291038 84.4590343,22.516044 L84.4590343,24.9935161 C84.4590343,25.1804563 84.5598323,25.3550708 84.7223433,25.4495681 C84.8848543,25.5420111 85.0864503,25.5420111 85.2489613,25.4475138 L90.4768791,22.4151784 Z" id="Shape" fill="#333333"></path>
                <path d="M80.8930041,21.359694 C80.9588477,21.3255497 81.0413717,21.3255497 81.1080933,21.359694 L82.8924554,22.2644226 C82.959177,22.2983741 83,22.3608756 83,22.4283926 L83,24.2397789 C83,24.307296 82.959177,24.3697975 82.8924554,24.4037489 L81.1080933,25.3084775 C81.0413717,25.3426219 80.9588477,25.3426219 80.8930041,25.3084775 L79.1097394,24.4037489 C79.041701,24.3697975 79,24.307296 79,24.2397789 L79,22.4283926 C79,22.3608756 79.0395062,22.2983741 79.1075446,22.2644226 L80.8930041,21.359694 Z" id="Path" fill="#689F63"></path>
                <g id="Clipped" transform="translate(25.000000, 11.334086)">
                    <mask id="mask-4" fill="white">
                        <use xlink:href="#path-3"></use>
                    </mask>
                    <g id="Path"></g>
                    <g id="Group" mask="url(#mask-4)" fill="url(#linearGradient-5)" fill-rule="nonzero">
                        <g transform="translate(-10.801263, -6.260110)" id="Path">
                            <polygon points="37.9711579 11.8664771 12.9785263 0.121706422 0.163789474 25.1843486 25.1557895 36.9297248"></polygon>
                        </g>
                    </g>
                </g>
                <g id="Clipped" transform="translate(26.000000, 11.334086)">
                    <mask id="mask-7" fill="white">
                        <use xlink:href="#path-6"></use>
                    </mask>
                    <g id="Path"></g>
                    <g id="Group" mask="url(#mask-7)" fill="url(#linearGradient-8)" fill-rule="nonzero">
                        <g transform="translate(-1.492624, -1.632889)" id="Path">
                            <polygon points="0.00408602151 0.0741481481 0.00408602151 24.5185926 18.7350215 24.5185926 18.7350215 0.0741481481"></polygon>
                        </g>
                    </g>
                </g>
            </g>
        </g>
    </g>
</svg>