<?xml version="1.0" encoding="UTF-8"?>
<svg width="229px" height="229px" viewBox="0 0 229 229" version="1.1" xmlns="http://www.w3.org/2000/svg" xmlns:xlink="http://www.w3.org/1999/xlink">
    <!-- Generator: Sketch 63.1 (92452) - https://sketch.com -->
    <title>redis</title>
    <desc>Created with Sketch.</desc>
    <defs>
        <circle id="path-1" cx="81.5" cy="81.5" r="81.5"></circle>
        <filter x="-35.0%" y="-27.6%" width="169.9%" height="169.9%" filterUnits="objectBoundingBox" id="filter-2">
            <feOffset dx="0" dy="12" in="SourceAlpha" result="shadowOffsetOuter1"></feOffset>
            <feGaussianBlur stdDeviation="17" in="shadowOffsetOuter1" result="shadowBlurOuter1"></feGaussianBlur>
            <feColorMatrix values="0 0 0 0 0.643137255   0 0 0 0 0.101247343   0 0 0 0 0.0666666667  0 0 0 0.0548240822 0" type="matrix" in="shadowBlurOuter1"></feColorMatrix>
        </filter>
    </defs>
    <g id="HS_Website" stroke="none" stroke-width="1" fill="none" fill-rule="evenodd">
        <g id="redis" transform="translate(33.000000, 21.000000)">
            <g id="Oval-Copy-41">
                <use fill="black" fill-opacity="1" filter="url(#filter-2)" xlink:href="#path-1"></use>
                <use fill="#FFFFFF" fill-rule="evenodd" xlink:href="#path-1"></use>
            </g>
            <g id="redis-official" transform="translate(30.000000, 65.000000)" fill-rule="nonzero">
                <path d="M57.4452628,10.3627851 C57.4452628,11.1935482 56.7629814,11.9348092 55.8732387,11.9348092 C55.1909572,11.9348092 54.5979484,12.1128955 54.0937532,12.498443 C53.5303489,12.8546155 53.0853628,13.3585812 52.7296493,13.9219855 C52.0177633,14.8711668 51.6625088,15.9979753 51.5137976,16.4128979 L51.5137976,22.0478587 C51.5137976,22.9079969 50.7725366,23.6198828 49.8827939,23.6198828 C49.017191,23.6136328 48.3170198,22.9134616 48.3107697,22.0478587 L48.3107697,10.3632441 C48.3107697,9.50310588 49.0221967,8.82105394 49.8827939,8.82105394 C50.7725366,8.82105394 51.5137976,9.50333538 51.5137976,10.3632441 L51.5137976,10.5709348 C51.6916544,10.3632441 51.9268843,10.1261782 52.1366405,9.97769654 C53.1154263,9.32547863 54.3902576,8.79121991 55.8732387,8.82105394 C56.7629814,8.82105394 57.4452628,9.50333538 57.4452628,10.3632441 L57.4452628,10.3627851 Z M56.574568,16.2052071 C56.604402,12.1718751 59.7479913,8.79099041 63.810469,8.79099041 C67.6659443,8.79099041 70.7181956,11.6676799 70.9580153,15.6711779 L70.9580153,15.8194301 C70.9580153,15.8790982 70.9580153,16.0268914 70.9281813,16.08633 C70.8363842,16.798216 70.2162953,17.2728066 69.3859911,17.2728066 L59.9552231,17.2728066 C60.1034753,17.955088 60.4295843,18.7259536 60.9636135,19.2303783 C61.5864564,19.9422643 62.7727035,20.475605 63.810469,20.5646481 C64.8780684,20.6534618 66.1512932,20.3867914 66.8948492,19.8233871 C67.5174626,19.1707102 68.7335437,19.2599828 69.1190913,19.7315901 C69.5046388,20.1446767 69.8011432,21.0369439 69.1190913,21.6593277 C67.6657148,22.9935976 65.9160634,23.6168994 63.8102395,23.6168994 C59.7477618,23.5877539 56.6041725,20.2364738 56.5743385,16.2031417 L56.574568,16.2052071 Z M59.8072004,14.7520601 L68.199744,14.7520601 C67.9032396,13.5655835 66.390654,11.8161616 63.810469,11.6084708 C61.289952,11.726889 60.0467907,13.5362084 59.8069709,14.7520601 L59.8072004,14.7520601 Z M86.0680361,22.0177951 C86.0680361,22.8779333 85.3561501,23.6196533 84.4661779,23.6196533 C83.6629539,23.6196533 83.042865,23.0562491 82.8941538,22.3443631 C81.7696401,23.1154581 80.3438028,23.6196533 78.8608217,23.6196533 C74.8573237,23.6196533 71.6542958,20.2387687 71.6542958,16.2350412 C71.6542958,12.1718751 74.8573237,8.79099041 78.8608217,8.79099041 C80.3141982,8.79099041 81.7375112,9.26535157 82.8347152,10.0364466 L82.8347152,4.46115395 C82.8347152,3.60101576 83.5466012,2.85929575 84.4657189,2.85929575 C85.3554617,2.85929575 86.0675771,3.60055678 86.0675771,4.46115395 L86.0675771,22.0180246 L86.0680361,22.0177951 Z M78.8615102,12.0233934 C77.7939107,12.0233934 76.8151249,12.46815 76.0740933,13.2392451 C75.3328323,13.9805061 74.8876167,15.0481056 74.8876167,16.2345822 C74.8876167,17.3590958 75.3323733,18.4289902 76.0740933,19.1704807 C76.8153544,19.9415758 77.7939107,20.3867914 78.8615102,20.3867914 C79.9584847,20.3867914 80.9078955,19.9420348 81.6491565,19.1704807 C82.3904176,18.4292197 82.8356332,17.3613907 82.8356332,16.2345822 C82.8356332,15.0481056 82.3908765,13.9809651 81.6491565,13.2392451 C80.9078955,12.46815 79.9587142,12.0233934 78.8615102,12.0233934 Z M91.7130946,5.08353782 C91.7130946,5.97328054 91.0310426,6.71454157 90.1112364,6.71454157 C89.2214936,6.71454157 88.5098232,5.97328054 88.5098232,5.08353782 L88.5098232,4.46069496 C88.5080591,4.03541385 88.6761991,3.6270343 88.9768993,3.32629097 C89.2775995,3.02554763 89.685955,2.85734916 90.1112364,2.85905324 C91.0308131,2.85905324 91.7130946,3.57095224 91.7130946,4.46092445 L91.7130946,5.08376731 L91.7130946,5.08353782 Z M91.7130946,10.4536641 L91.7130946,22.0200901 C91.7130946,22.9098328 91.0310426,23.6219613 90.1112364,23.6219613 C89.685955,23.6236654 89.2775995,23.4554669 88.9768993,23.1547236 C88.6761991,22.8539802 88.5080591,22.4456007 88.5098232,22.0203196 L88.5098232,10.4538936 C88.5098232,9.50494182 89.2212641,8.82266039 90.1112364,8.82266039 C91.0310426,8.82266039 91.7130946,9.50494182 91.7130946,10.4538936 L91.7130946,10.4536641 Z M93.7493822,19.3786305 C94.2831819,18.6672035 95.3214064,18.5781604 95.9736243,19.1415647 C96.7447193,19.7942416 98.0794482,20.4758345 99.2358613,20.4464595 C100.039085,20.4464595 100.778051,20.1797891 101.252642,19.8830552 C101.665729,19.5273417 101.786212,19.2308373 101.786212,18.9933125 C101.786212,18.8450603 101.756378,18.7858512 101.697399,18.6965786 C101.667565,18.6077649 101.549146,18.4891173 101.311851,18.3408651 C100.898764,18.0441312 100.006956,17.7177927 98.9393569,17.5101019 L98.9095228,17.5101019 C97.9899461,17.3322452 97.1002033,17.0970153 96.3293378,16.7390069 C95.5261137,16.3534593 94.8146867,15.8198891 94.2829524,15.0191895 C93.957073,14.4853898 93.7789867,13.8327129 93.7789867,13.1511199 C93.7789867,11.7867865 94.5500818,10.6301439 95.5286382,9.88865341 C96.5666331,9.17722642 97.8120893,8.79167889 99.1766522,8.79167889 C101.222808,8.79167889 102.675955,9.77046474 103.625136,10.4226826 C104.337022,10.8972733 104.544484,11.8760591 104.099497,12.6170907 C103.625136,13.3289767 102.64635,13.5366674 101.905089,13.0301773 C100.956138,12.407564 100.125604,11.9327438 99.1741278,11.9327438 C98.4328667,11.9327438 97.7801898,12.1700391 97.3946423,12.4665435 C97.0090948,12.7336729 96.9202812,13.0005728 96.9202812,13.148825 C96.9202812,13.2672431 96.9202812,13.2970772 96.9794902,13.3858908 C97.0093243,13.4450999 97.0981379,13.5637476 97.3058287,13.6823952 C97.6913762,13.9492951 98.4624713,14.216195 99.4708617,14.3942812 L99.5006957,14.4241152 L99.5305297,14.4241152 C100.509316,14.6017425 101.428433,14.8688719 102.288572,15.2840239 C103.091796,15.6397374 103.89043,16.2033712 104.394395,17.0336753 C104.750109,17.6266842 104.9578,18.3089656 104.9578,18.991247 C104.9578,20.444394 104.154576,21.6602457 103.089271,22.4336357 C102.021672,23.1748967 100.686943,23.6201123 99.2337958,23.6201123 C96.9205106,23.5902783 95.1412547,22.5231378 93.9550076,21.5739565 C93.3023307,21.0401568 93.2137465,20.0317664 93.7470873,19.3790895 L93.7493822,19.3786305 Z" id="Shape" fill="#636466"></path>
                <path d="M37.5101605,25.8000623 C35.4268269,26.8860212 24.6342499,31.3234897 22.3365703,32.5212115 C20.0388906,33.7189332 18.7624528,33.7076881 16.947396,32.8402061 C15.1323392,31.9727242 3.64715369,27.3333022 1.5782781,26.3444187 C0.544184544,25.8500917 0.000516626235,25.4333332 0.000516626235,25.0390649 L0.000516626235,21.0929401 C0.000516626235,21.0929401 14.9524171,17.8378173 17.366679,16.9717123 C19.7809409,16.1056074 20.6179003,16.0766913 22.6720884,16.827132 C24.7262765,17.5775727 37.0094077,19.795848 39.0394991,20.539404 L39.0385811,24.4293032 C39.0388106,24.8194405 38.5704162,25.2474442 37.5101605,25.8000623 L37.5101605,25.8000623 Z" id="Path" fill="#A41E11"></path>
                <path d="M37.5101605,21.8530195 C35.4268269,22.9385194 24.6342499,27.3764468 22.3365703,28.5741686 C20.0388906,29.7718904 18.7624528,29.7606452 16.947396,28.8931633 C15.1323392,28.0256813 3.64715369,23.3858004 1.5782781,22.3973759 C-0.490597491,21.4089513 -0.533971588,20.7278174 1.49841468,19.9321666 L17.366679,13.7884208 C19.7804819,12.9227748 20.6179003,12.8933997 22.6720884,13.6438405 C24.7262765,14.3942812 35.454825,18.666515 37.4846869,19.410071 C39.5145487,20.1536269 39.5932647,20.7670606 37.5076361,21.8530195 L37.5101605,21.8530195 Z" id="Path" fill="#D82C20"></path>
                <path d="M37.5101605,19.3653199 C35.4268269,20.4512788 24.6342499,24.8887473 22.3365703,26.0871575 C20.0388906,27.2855678 18.7624528,27.2731752 16.947396,26.4054637 C15.1323392,25.5377523 3.64715369,20.8985598 1.5782781,19.9096763 C0.544184544,19.4153493 0.000516626235,18.9985908 0.000516626235,18.6047815 L0.000516626235,14.6581977 C0.000516626235,14.6581977 14.9524171,11.4028454 17.366679,10.5369699 C19.7809409,9.67109445 20.6179003,9.64194889 22.6720884,10.3923896 C24.7262765,11.1428304 37.0094077,13.3606466 39.0394991,14.1044321 L39.0385811,17.9950197 C39.0388106,18.3851571 38.5704162,18.8129313 37.5101605,19.3655494 L37.5101605,19.3653199 Z" id="Path" fill="#A41E11"></path>
                <path d="M37.5101605,15.4182771 C35.4268269,16.504236 24.6342499,20.9417044 22.3365703,22.1401147 C20.0388906,23.3385249 18.7624528,23.3261323 16.947396,22.4584209 C15.1323392,21.5907095 3.64715369,16.9512875 1.5782781,15.9626335 C-0.490597491,14.9739795 -0.533971588,14.2933045 1.49841468,13.4971947 L17.366679,7.35390789 C19.7804819,6.48803239 20.6179003,6.45888684 22.6720884,7.20932757 C24.7262765,7.9597683 35.454825,12.2317726 37.4846869,12.9755581 C39.5145487,13.7193435 39.5932647,14.3325477 37.5076361,15.4185066 L37.5101605,15.4182771 Z" id="Path" fill="#D82C20"></path>
                <path d="M37.5101605,12.6925937 C35.4268269,13.7785526 24.6342499,18.2164801 22.3365703,19.4167263 C20.0388906,20.6169725 18.7624528,20.6027439 16.947396,19.7350325 C15.1323392,18.867321 3.64715369,14.2278991 1.5782781,13.2392451 C0.544184544,12.744918 0.000516626235,12.3281595 0.000516626235,11.9343503 L0.000516626235,7.98776639 C0.000516626235,7.98776639 14.9524171,4.73034874 17.366679,3.86447324 C19.7809409,2.99859775 20.6179003,2.96945219 22.6720884,3.71989292 C24.7262765,4.47033365 37.0094077,6.68814992 39.0394991,7.43193537 L39.0385811,11.3222935 C39.0388106,11.7119719 38.5704162,12.1399756 37.5101605,12.6923642 L37.5101605,12.6925937 Z" id="Path" fill="#A41E11"></path>
                <path d="M37.5101605,8.74532139 C35.4268269,9.83128027 24.6342499,14.2692077 22.3365703,15.467159 C20.0388906,16.6651103 18.7624528,16.6531766 16.947396,15.7856947 C15.1323392,14.9182128 3.64715369,10.2785613 1.5782781,9.28990728 C-0.490597491,8.30125325 -0.533971588,7.62034877 1.49841468,6.82446851 L17.366679,0.6809522 C19.7804819,-0.185152789 20.6179003,-0.214068854 22.6720884,0.536371876 C24.7262765,1.28681261 35.454825,5.55881695 37.4846869,6.30260239 C39.5145487,7.04638784 39.5932647,7.65936251 37.5076361,8.7450919 L37.5101605,8.74532139 Z" id="Path" fill="#D82C20"></path>
                <g id="Group" transform="translate(6.580528, 2.039548)" fill="#FFFFFF">
                    <path d="M14.672149,3.25558171 L13.9143645,5.07867075 L12.6900216,3.04536651 L8.78405792,2.69424287 L11.6986137,1.64247838 L10.8265419,0.0291455574 L13.5545201,1.09674503 L16.1287384,0.254507269 L15.4319989,1.92245933 L18.0550991,2.90422857 L14.672149,3.25558171 Z M7.39792274,9.12691983 L16.4445202,7.73848973 L13.71287,11.7454301 L7.39792274,9.12691983 Z" id="Shape"></path>
                    <ellipse id="Oval" cx="4.9597936" cy="5.79262216" rx="4.83517913" ry="1.87426588"></ellipse>
                </g>
                <polygon id="Path" fill="#7A0C00" points="33.9865315 7.55953324 28.6361415 9.67178293 28.6331581 5.44223472"></polygon>
                <polygon id="Path" fill="#AD2115" points="28.6333876 5.44200522 28.636371 9.67155344 28.0569023 9.90012804 22.7097252 7.78489495"></polygon>
            </g>
        </g>
    </g>
</svg>