<?xml version="1.0" encoding="UTF-8"?>
<svg width="229px" height="229px" viewBox="0 0 229 229" version="1.1" xmlns="http://www.w3.org/2000/svg" xmlns:xlink="http://www.w3.org/1999/xlink">
    <!-- Generator: Sketch 63.1 (92452) - https://sketch.com -->
    <title>sql</title>
    <desc>Created with Sketch.</desc>
    <defs>
        <circle id="path-1" cx="81.5" cy="81.5" r="81.5"></circle>
        <filter x="-35.0%" y="-27.6%" width="169.9%" height="169.9%" filterUnits="objectBoundingBox" id="filter-2">
            <feOffset dx="0" dy="12" in="SourceAlpha" result="shadowOffsetOuter1"></feOffset>
            <feGaussianBlur stdDeviation="17" in="shadowOffsetOuter1" result="shadowBlurOuter1"></feGaussianBlur>
            <feColorMatrix values="0 0 0 0 0.97254902   0 0 0 0 0.596078431   0 0 0 0 0.11372549  0 0 0 0.0492242133 0" type="matrix" in="shadowBlurOuter1"></feColorMatrix>
        </filter>
    </defs>
    <g id="HS_Website" stroke="none" stroke-width="1" fill="none" fill-rule="evenodd">
        <g id="sql" transform="translate(33.000000, 21.000000)">
            <g id="Oval">
                <use fill="black" fill-opacity="1" filter="url(#filter-2)" xlink:href="#path-1"></use>
                <use fill="#FFFFFF" fill-rule="evenodd" xlink:href="#path-1"></use>
            </g>
            <g id="mysql" transform="translate(25.650685, 38.822314)">
                <polygon id="Path" points="0.349315068 0.17768595 116.349315 0.17768595 116.349315 81.177686 0.349315068 81.177686"></polygon>
                <path d="M35.3960538,64.1925738 L32.1786529,64.1925738 C32.0648782,58.8206328 31.7515313,53.7703317 31.2392341,49.0379806 L31.2106349,49.0379806 L26.3121033,64.1925738 L23.8625266,64.1925738 L18.9932158,49.0379806 L18.9652384,49.0379806 C18.6040191,53.5815296 18.3764696,58.6330607 18.2819682,64.1925738 L15.3493151,64.1925738 C15.5383179,57.4319845 16.013312,51.0938935 16.7724321,45.177686 L20.760144,45.177686 L25.4012835,59.1496526 L25.4298827,59.1496526 L30.0996214,45.177686 L33.9151168,45.177686 C34.7507085,52.1073977 35.2443541,58.4461036 35.3960538,64.1925738 M49.3493151,50.163413 C48.0393511,57.1952132 46.3109696,62.3045533 44.1660357,65.4938935 C42.4948524,67.9489351 40.6638871,69.177686 38.6700311,69.177686 C38.1384606,69.177686 37.482546,69.0190184 36.705396,68.7041433 L36.705396,67.0086148 C37.0852669,67.062734 37.5310402,67.0934835 38.0433374,67.0934835 C38.9746739,67.0934835 39.7232248,66.8401075 40.2939637,66.3321254 C40.9766122,65.7134451 41.3179365,65.0178909 41.3179365,64.248538 C41.3179365,63.7208762 41.0518403,62.6421831 40.5208915,61.0087686 L36.9901438,50.1627981 L40.1509681,50.1627981 L42.6850987,58.2745213 C43.2545942,60.1164175 43.4920912,61.4023624 43.3969681,62.134816 C44.7827819,58.4737782 45.7507999,54.4818756 46.3022655,50.1621831 L49.3493151,50.1621831 L49.3493151,50.163413 L49.3493151,50.163413 Z" id="Shape" fill="#5D87A1" fill-rule="nonzero"></path>
                <path d="M90.3493151,64.5692028 L81.3902707,64.5692028 L81.3902707,45.4619556 L84.4040445,45.4619556 L84.4040445,62.2171803 L90.3493151,62.2171803 L90.3493151,64.5692028 Z M79.0450732,65.030832 L75.5809094,63.2974051 C75.8880766,63.0415624 76.1818358,62.7647084 76.4463409,62.4439781 C77.9187934,60.6901579 78.6531912,58.0965062 78.6531912,54.6611691 C78.6531912,48.339877 76.2068236,45.177686 71.31226,45.177686 C68.9122112,45.177686 67.0399538,45.9798208 65.7009728,47.5847084 C64.2297393,49.3397646 63.4953414,51.9241466 63.4953414,55.3409444 C63.4953414,58.6996522 64.1462434,61.1635286 65.4486569,62.7263938 C66.6401488,64.1421803 68.4362239,64.8510006 70.838101,64.8510006 C71.7340055,64.8510006 72.5561654,64.7397646 73.3051903,64.5154388 L77.8151854,67.177686 L79.0450732,65.030832 Z M67.8231083,60.7457758 C67.0600659,59.5011691 66.6785447,57.5026298 66.6785447,54.747068 C66.6785447,49.9361129 68.1199148,47.5278545 71.0057022,47.5278545 C72.5141127,47.5278545 73.619671,48.1038095 74.3266432,49.2532477 C75.0884667,50.4997084 75.4718163,52.4803264 75.4718163,55.1975736 C75.4718163,60.0480792 74.0292273,62.4736415 71.1452683,62.4736415 C69.6362483,62.474259 68.53069,61.9001579 67.8231083,60.7457758 M62.1819577,59.2731354 C62.1819577,60.8934725 61.5956583,62.2227421 60.4242785,63.2640343 C59.2516798,64.3010006 57.6792761,64.8207197 55.7088958,64.8207197 C53.8658923,64.8207197 52.0789591,64.2237534 50.3493151,63.0360006 L51.1592858,61.3952702 C52.6475842,62.1510567 53.9950976,62.5267871 55.2048733,62.5267871 C56.3402951,62.5267871 57.2276671,62.2715624 57.8712556,61.7654388 C58.5142346,61.2574612 58.8975842,60.5449331 58.8975842,59.6439219 C58.8975842,58.5086972 58.1168675,57.5384725 56.6846393,56.725832 C55.3639421,55.9904388 52.7225476,54.4529107 52.7225476,54.4529107 C51.2909289,53.3949331 50.5742054,52.2590904 50.5742054,50.3878545 C50.5742054,48.8392028 51.1087007,47.5890343 52.1783009,46.6379668 C53.24912,45.6831916 54.6307631,45.2073489 56.3244491,45.2073489 C58.0735959,45.2073489 59.6636739,45.6825736 61.0959021,46.6231354 L60.3694272,48.2644837 C59.144415,47.7367309 57.9352488,47.4728545 56.7425379,47.4728545 C55.7765457,47.4728545 55.0305681,47.7083039 54.5119187,48.1810567 C53.989003,48.6519556 53.6665993,49.2544837 53.6665993,49.9935848 C53.6665993,51.1232477 54.4637714,52.105832 55.935005,52.9345399 C57.2733765,53.6711691 59.9805925,55.2352702 59.9805925,55.2352702 C61.4487787,56.2913938 62.1819577,57.4167309 62.1819577,59.2731354" id="Shape" fill="#F8981D" fill-rule="nonzero"></path>
                <path d="M93.6647529,39.7010028 C91.8139711,39.6544877 90.3810079,39.8387118 89.1783092,40.3418089 C88.8310555,40.4789059 88.2789159,40.4789059 88.2306347,40.9128424 C88.4181888,41.0964544 88.4398535,41.3926819 88.602648,41.6460665 C88.8799558,42.1032606 89.3633874,42.718361 89.8047277,43.0390701 C90.2893973,43.4062942 90.7759239,43.7698461 91.2859721,44.0899431 C92.1853655,44.6401672 93.2048429,44.9602643 94.0813336,45.5086523 C94.5920008,45.8275252 95.0995731,46.2400404 95.6108593,46.5833949 C95.8621695,46.7663949 96.023107,47.0632344 96.3493151,47.177686 L96.3493151,47.1079134 C96.1859016,46.9022679 96.1394773,46.6048163 95.9791587,46.3759133 L95.2846513,45.7136858 C94.6136655,44.8225552 93.7798852,44.0446521 92.8804919,43.4056821 C92.1401791,42.901361 90.5208998,42.215876 90.2206894,41.3724846 L90.1736461,41.3259695 C90.6824563,41.2788424 91.2859721,41.0964544 91.7694038,40.9562972 C92.5561408,40.7512638 93.2735509,40.7977788 94.0807146,40.5927453 C94.4521089,40.5009393 94.8204083,40.3858758 95.1930407,40.2726483 L95.1930407,40.0663908 C94.774603,39.6544877 94.4762496,39.1073238 94.0361473,38.7180662 C92.8588272,37.7124841 91.561423,36.7289355 90.2206894,35.9057414 C89.5026603,35.4473233 88.5791263,35.1523199 87.814673,34.7624503 C87.5392222,34.6247413 87.0749792,34.5568048 86.9128037,34.3279018 C86.49808,33.8248047 86.2647206,33.1625772 85.9638912,32.5670621 C85.2953813,31.3105435 84.6460602,29.9163159 84.069161,28.5875766 C83.6519613,27.6964461 83.3981752,26.8065396 82.889365,25.9821215 C80.5062512,22.0956661 77.9182516,19.7417595 73.9406182,17.4313077 C73.0857922,16.9502441 72.0687907,16.7452106 70.9824622,16.4930501 L69.2474316,16.4024681 C68.8772753,16.2421136 68.5064999,15.806953 68.1833868,15.6013075 C66.8636989,14.7787254 63.4660596,12.9958523 62.4954824,15.349759 C61.8703019,16.8376287 63.4202543,18.3004048 63.9525862,19.0550504 C64.3456452,19.5789568 64.8550745,20.175084 65.1299063,20.7699871 C65.2927008,21.1586326 65.3385061,21.5711477 65.5013006,21.9818267 C65.871457,22.9880208 66.2174727,24.1074423 66.7039993,25.046312 C66.9577855,25.5249274 67.2344743,26.0280245 67.5588253,26.461349 C67.7445225,26.7147336 68.0676356,26.826737 68.1382005,27.2398641 C67.8157064,27.695222 67.7903278,28.3825432 67.6052496,28.9541887 C66.7733263,31.5376104 67.0982963,34.7379687 68.2774734,36.6365174 C68.6463918,37.208163 69.5265964,38.4665177 70.7039164,37.98423 C71.7462966,37.572939 71.5154131,36.2699053 71.8150045,35.1272263 C71.8837125,34.8511961 71.8385262,34.6700322 71.9771801,34.4888683 L71.9771801,34.5335473 C72.2996742,35.1731293 72.6252632,35.7894538 72.9242356,36.4308719 C73.6416457,37.5502935 74.8907687,38.7168421 75.9312919,39.492297 C76.4852884,39.9060362 76.9241528,40.6135547 77.6180412,40.8663273 L77.6180412,40.7977788 L77.5722359,40.7977788 C77.431725,40.5927453 77.2262202,40.5009393 77.041761,40.3418089 C76.6245613,39.9299058 76.1627943,39.4268087 75.8390623,38.9702267 C74.869723,37.6892266 74.0118021,36.2711294 73.2504437,34.8077413 C72.8778114,34.0977746 72.5565552,33.3217077 72.2563448,32.6129651 C72.1164529,32.3393831 72.1164529,31.926868 71.8843315,31.789159 C71.5364588,32.291644 71.0295055,32.7268046 70.7757194,33.342517 C70.3356171,34.3272897 70.2898117,35.5385173 70.1263982,36.798096 L70.0354066,36.8421629 C69.2988078,36.6591629 69.0425457,35.9057414 68.762762,35.2661594 C68.0701115,33.6418047 67.9537413,31.0345134 68.5547812,29.1604463 C68.7157187,28.6812188 69.4120831,27.1719276 69.1341563,26.7153456 C68.9948835,26.2777369 68.5318785,26.0286365 68.2780924,25.6840579 C67.9797389,25.2507334 67.6529119,24.7023454 67.4449311,24.2212818 C66.8903155,22.9415057 66.6111507,21.5234086 66.0138248,20.2442445 C65.7346601,19.6481173 65.2499905,19.0311808 64.8575504,18.4821808 C64.4168291,17.8652442 63.9321595,17.4306957 63.5836678,16.6993076 C63.4685356,16.4477591 63.306979,16.0364681 63.4920572,15.7628861 C63.5372435,15.579274 63.6313301,15.5107255 63.8157893,15.4648225 C64.1153807,15.2144981 64.9714447,15.532759 65.2716551,15.670468 C66.1289571,16.0132105 66.8457482,16.3333076 67.5613013,16.8131471 C67.8850334,17.0426622 68.2322871,17.4772107 68.6476297,17.5916622 L69.1341563,17.5916622 C69.8726121,17.7507927 70.7051544,17.6357291 71.4002808,17.8425987 C72.6252632,18.2318563 73.7351133,18.8028898 74.7304502,19.4192143 C77.759171,21.3183751 80.256798,24.0168604 81.9429284,27.2398641 C82.2196172,27.7649946 82.3372254,28.2460582 82.5897735,28.7938342 C83.0769191,29.9150919 83.6791969,31.058383 84.1626286,32.1557711 C84.6485362,33.2299016 85.1115411,34.3266777 85.8054296,35.2190323 C86.1514453,35.6988718 87.5416981,35.9504204 88.1650217,36.2019689 C88.6261696,36.4070024 89.3441987,36.5893903 89.7601604,36.8409389 C90.5468974,37.3201663 91.3305395,37.8703905 92.0702332,38.3973571 C92.4385326,38.6715511 93.596045,39.2431967 93.6647529,39.7010028 M70.077498,19.8317294 C69.7582564,19.8284484 69.4399902,19.8671418 69.1310614,19.946793 L69.1310614,19.992696 L69.1756287,19.992696 C69.3619449,20.358084 69.6856769,20.6114686 69.9165604,20.9303416 C70.1028766,21.2969537 70.2644331,21.6605056 70.4470354,22.0265056 L70.4916027,21.9812146 C70.8178107,21.7529236 70.9799862,21.3869236 70.9799862,20.8379235 C70.8394754,20.6763449 70.8178107,20.5184385 70.7008215,20.358084 C70.5646436,20.129181 70.2644331,20.0153415 70.077498,19.8317294" id="Shape" fill="#5D87A1" fill-rule="nonzero"></path>
                <path d="M95.9683158,65.177686 L96.3493151,65.177686 L96.3493151,63.1782138 L95.7778162,63.1782138 L95.3116582,64.5426899 L94.8051359,63.1782138 L94.2548036,63.1782138 L94.2548036,65.177686 L94.6146363,65.177686 L94.6146363,63.6564402 L94.6348184,63.6564402 L95.1654608,65.177686 L95.4396424,65.177686 L95.9683158,63.6564402 L95.9683158,65.177686 Z M92.8991551,65.177686 L93.3023055,65.177686 L93.3023055,63.5170895 L93.8299944,63.5170895 L93.8299944,63.177686 L92.3493151,63.177686 L92.3493151,63.5170895 L92.8981706,63.5170895 L92.8991551,65.177686 Z" id="Shape" fill="#F8981D" fill-rule="nonzero"></path>
            </g>
        </g>
    </g>
</svg>