<?xml version="1.0" encoding="UTF-8"?>
<svg width="229px" height="229px" viewBox="0 0 229 229" version="1.1" xmlns="http://www.w3.org/2000/svg" xmlns:xlink="http://www.w3.org/1999/xlink">
    <!-- Generator: Sketch 63.1 (92452) - https://sketch.com -->
    <title>stripe</title>
    <desc>Created with Sketch.</desc>
    <defs>
        <circle id="path-1" cx="81.5" cy="81.5" r="81.5"></circle>
        <filter x="-35.0%" y="-27.6%" width="169.9%" height="169.9%" filterUnits="objectBoundingBox" id="filter-2">
            <feOffset dx="0" dy="12" in="SourceAlpha" result="shadowOffsetOuter1"></feOffset>
            <feGaussianBlur stdDeviation="17" in="shadowOffsetOuter1" result="shadowBlurOuter1"></feGaussianBlur>
            <feColorMatrix values="0 0 0 0 0   0 0 0 0 0.580392157   0 0 0 0 0.219607843  0 0 0 0.0595225087 0" type="matrix" in="shadowBlurOuter1"></feColorMatrix>
        </filter>
    </defs>
    <g id="HS_Website" stroke="none" stroke-width="1" fill="none" fill-rule="evenodd">
        <g id="stripe" transform="translate(33.000000, 21.000000)">
            <g id="Oval-Copy-40">
                <use fill="black" fill-opacity="1" filter="url(#filter-2)" xlink:href="#path-1"></use>
                <use fill="#FFFFFF" fill-rule="evenodd" xlink:href="#path-1"></use>
            </g>
            <g id="Stripe_Logo,_revised_2016" transform="translate(36.000000, 62.000000)" fill="#6772E5">
                <path d="M92,19.7552255 C92,13.2777778 88.8290713,8.16666667 82.7685061,8.16666667 C76.6823688,8.16666667 73,13.2777778 73,19.7046205 C73,27.3206821 77.3472409,31.1666667 83.5868102,31.1666667 C86.6298789,31.1666667 88.9313594,30.4834983 90.6702557,29.5220022 L90.6702557,24.4614961 C88.9313594,25.3217822 86.9367429,25.8531353 84.4051144,25.8531353 C81.9246299,25.8531353 79.7254374,24.9928493 79.4441454,22.0071507 L91.948856,22.0071507 C91.948856,21.6782178 92,20.3624862 92,19.7552255 L92,19.7552255 Z M79.3674293,17.3514851 C79.3674293,14.4922992 81.1318977,13.3030803 82.7429341,13.3030803 C84.3028264,13.3030803 85.9650067,14.4922992 85.9650067,17.3514851 L79.3674293,17.3514851 Z" id="path5516"></path>
                <path d="M63.1428571,8.16666667 C60.5974026,8.16666667 58.961039,9.33417936 58.0519481,10.1463621 L57.7142857,8.57275804 L52,8.57275804 L52,38.1666667 L58.4935065,36.821489 L58.5194805,29.6387479 C59.4545455,30.2986464 60.8311688,31.2377327 63.1168831,31.2377327 C67.7662338,31.2377327 72,27.5829103 72,19.537225 C71.974026,12.176819 67.6883117,8.16666667 63.1428571,8.16666667 L63.1428571,8.16666667 Z M61.5844156,25.6539763 C60.0519481,25.6539763 59.1428571,25.1209814 58.5194805,24.4610829 L58.4935065,15.0448393 C59.1688312,14.3087986 60.1038961,13.8011844 61.5844156,13.8011844 C63.9480519,13.8011844 65.5844156,16.3900169 65.5844156,19.71489 C65.5844156,23.1159052 63.974026,25.6539763 61.5844156,25.6539763 L61.5844156,25.6539763 Z" id="path5518"></path>
                <polygon id="polygon5520" points="49 5.69584955 49 0.166666667 43 1.61024643 43 7.16666667"></polygon>
                <rect id="rect5522" x="43" y="9.16666667" width="6" height="22"></rect>
                <path d="M36.8,10.2623717 L36.4,8.42352301 L31,8.42352301 L31,30.1666667 L37.25,30.1666667 L37.25,15.4310276 C38.725,13.5176309 41.225,13.8655212 42,14.1388636 L42,8.42352301 C41.2,8.12533132 38.275,7.57864657 36.8,10.2623717 Z" id="path5524"></path>
                <path d="M24.2096774,3.16666667 L18.0253456,4.47837838 L18,24.6837838 C18,28.4171171 20.8133641,31.1666667 24.5645161,31.1666667 C26.6428571,31.1666667 28.1635945,30.7882883 29,30.3342342 L29,25.2135135 C28.1889401,25.5414414 24.1843318,26.7018018 24.1843318,22.9684685 L24.1843318,14.0135135 L29,14.0135135 L29,8.64054054 L24.1843318,8.64054054 L24.2096774,3.16666667 Z" id="path5526"></path>
                <path d="M6.37480315,15.0161172 C6.37480315,14.0304029 7.18110236,13.6512821 8.51653543,13.6512821 C10.4314961,13.6512821 12.8503937,14.2326007 14.7653543,15.2688645 L14.7653543,9.32930403 C12.6740157,8.4952381 10.607874,8.16666667 8.51653543,8.16666667 C3.4015748,8.16666667 0,10.8457875 0,15.3194139 C0,22.2952381 9.57480315,21.1831502 9.57480315,24.1908425 C9.57480315,25.3534799 8.56692913,25.7326007 7.15590551,25.7326007 C5.06456693,25.7326007 2.39370079,24.8732601 0.277165354,23.7106227 L0.277165354,29.7260073 C2.62047244,30.7369963 4.98897638,31.1666667 7.15590551,31.1666667 C12.3968504,31.1666667 16,28.56337 16,24.0391941 C15.9748031,16.507326 6.37480315,17.8468864 6.37480315,15.0161172 Z" id="path5528"></path>
            </g>
        </g>
    </g>
</svg>