<?xml version="1.0" encoding="UTF-8"?>
<svg width="75px" height="75px" viewBox="0 0 75 75" version="1.1" xmlns="http://www.w3.org/2000/svg" xmlns:xlink="http://www.w3.org/1999/xlink">
    <!-- Generator: Sketch 57.1 (83088) - https://sketch.com -->
    <title>Android_inactive</title>
    <desc>Created with Sketch.</desc>
    <g id="HS_Website" stroke="none" stroke-width="1" fill="none" fill-rule="evenodd">
        <g id="Android_inactive" transform="translate(2.000000, 2.000000)">
            <circle id="Oval-Copy-13" stroke="#74ABFC" stroke-width="2.68403909" fill="#FFFFFF" cx="35.5" cy="35.5" r="35.5"></circle>
            <path d="M48.4149956,27.3161537 L23.4228422,27.3161537 L23.4228422,45.8161537 C23.4228422,47.4730079 24.7659879,48.8161537 26.4228422,48.8161537 L28.8207716,48.8161537 L28.8208422,49.8160831 L28.8212729,55.9184253 C28.8212729,57.043218 29.7330975,57.9550426 30.8578901,57.9550426 C31.9826828,57.9550426 32.8945074,57.043218 32.8945074,55.9185343 L32.8937332,48.8161537 L38.9427622,48.8161537 L38.9428422,49.8160737 L38.9433304,55.9184253 C38.9433304,57.043218 39.855155,57.9550426 40.9799477,57.9550426 C42.1047403,57.9550426 43.016565,57.043218 43.016565,55.9185437 L43.0157237,48.8161537 L45.4149956,48.8161537 C47.0718499,48.8161537 48.4149956,47.4730079 48.4149956,45.8161537 L48.4149956,27.3161537 Z" id="Combined-Shape-Copy" stroke="#74ABFC" stroke-width="2" fill="#74ABFC"></path>
            <rect id="Rectangle-Copy-117" stroke="#74ABFC" stroke-width="2" fill="#74ABFC" x="51.7646033" y="27.3161537" width="4.07323452" height="15.625" rx="2.03661726"></rect>
            <rect id="Rectangle-Copy-118" stroke="#74ABFC" stroke-width="2" fill="#74ABFC" x="16" y="27.3161537" width="4.07323452" height="15.625" rx="2.03661726"></rect>
            <path d="M23.4968934,24.0105981 L48.3409648,24.0105981 C47.6567348,19.3956805 42.3166026,15.5661537 35.9189189,15.5661537 C29.5096939,15.5661537 24.1803741,19.4042934 23.4968934,24.0105981 Z M31.5664359,17.1355981 C33.2413768,17.1355981 34.6123835,18.4618543 34.6123835,20.1147646 C34.6123835,21.767675 33.2413768,23.0939311 31.5664359,23.0939311 C29.891495,23.0939311 28.5204882,21.767675 28.5204882,20.1147646 C28.5204882,18.4618543 29.891495,17.1355981 31.5664359,17.1355981 Z M40.3388857,17.1355981 C42.0138266,17.1355981 43.3848334,18.4618543 43.3848334,20.1147646 C43.3848334,21.767675 42.0138266,23.0939311 40.3388857,23.0939311 C38.6639448,23.0939311 37.2929381,21.767675 37.2929381,20.1147646 C37.2929381,18.4618543 38.6639448,17.1355981 40.3388857,17.1355981 Z" id="Combined-Shape-Copy-2" stroke="#74ABFC" stroke-width="2" fill="#74ABFC"></path>
            <path d="M42.9075197,11.8327173 C43.086371,11.829983 43.2335751,11.972754 43.2363094,12.1516053 C43.2363602,12.1549263 43.2363599,12.1582479 43.2363085,12.1615689 L43.1649584,16.7709765 C43.1620781,16.9570547 43.0119096,17.1071945 42.8258309,17.1100393 C42.6469796,17.1127736 42.4997754,16.9700025 42.4970411,16.7911512 C42.4969904,16.7878302 42.4969907,16.7845086 42.4970421,16.7811876 L42.5683921,12.17178 C42.5712725,11.9857018 42.7214409,11.835562 42.9075197,11.8327173 Z" id="Rectangle-Copy-119" fill="#74ABFC" transform="translate(42.866675, 14.471378) rotate(34.000000) translate(-42.866675, -14.471378) "></path>
            <path d="M28.9303182,11.8327173 C29.1163969,11.835562 29.2665654,11.9857018 29.2694457,12.17178 L29.3407958,16.7811876 C29.3435642,16.9600384 29.2008213,17.1072699 29.0219706,17.1100383 C29.0186496,17.1100897 29.015328,17.1100901 29.012007,17.1100393 C28.8259282,17.1071945 28.6757597,16.9570547 28.6728794,16.7709765 L28.6015294,12.1615689 C28.5987609,11.9827181 28.7415038,11.8354867 28.9203545,11.8327182 C28.9236755,11.8326668 28.9269971,11.8326665 28.9303182,11.8327173 Z" id="Rectangle-Copy-120" fill="#74ABFC" transform="translate(28.971163, 14.471378) rotate(-34.000000) translate(-28.971163, -14.471378) "></path>
        </g>
    </g>
</svg>