<?xml version="1.0" encoding="UTF-8"?>
<svg width="75px" height="75px" viewBox="0 0 75 75" version="1.1" xmlns="http://www.w3.org/2000/svg" xmlns:xlink="http://www.w3.org/1999/xlink">
    <!-- Generator: Sketch 57.1 (83088) - https://sketch.com -->
    <title>Apple_inactive</title>
    <desc>Created with Sketch.</desc>
    <g id="HS_Website" stroke="none" stroke-width="1" fill="none" fill-rule="evenodd">
        <g id="Apple_inactive" transform="translate(2.000000, 2.000000)">
            <circle id="Oval" stroke="#74ABFC" stroke-width="2.68403909" fill="#FFFFFF" cx="35.5" cy="35.5" r="35.5"></circle>
            <g id="Group-64" transform="translate(16.295082, 9.893443)" fill="#74ABFC">
                <path d="M19.3614471,11.0540891 C19.3614471,7.81874595 20.1681741,5.39223858 21.781628,3.77456701 C24.2018089,1.34805965 26.8908988,-5.68434189e-14 29.0421707,-5.68434189e-14 C29.3110797,1.34805965 29.0421707,4.31379087 26.6219898,7.54913402 C25.0085359,9.70602945 22.588355,10.8743478 19.3614471,11.0540891 Z" id="Path-21"></path>
                <path d="M19.8992651,14.0198203 C22.319446,14.0198203 24.2018089,10.7844772 29.5799887,11.593313 C33.1654419,12.1325368 35.8545318,13.6603377 37.6472583,16.1767158 C34.2410778,18.3336112 32.5379876,21.4790837 32.5379876,25.6131333 C32.5379876,29.7471829 34.6892595,32.8926554 38.9918033,35.0495508 C38.09544,38.284894 36.8405314,40.8911426 35.2270774,42.8682967 C32.8068966,45.834028 31.1934426,47.7213115 27.9665348,47.7213115 C24.7396269,47.7213115 24.2018089,45.564416 20.4370831,45.564416 C16.6723573,45.564416 16.6723573,47.7213115 12.9076314,47.7213115 C9.1429056,47.7213115 6.99163369,44.4859683 4.5714528,40.7114013 C2.15127191,36.9368343 0,31.0053719 0,25.6131333 C0,20.2208947 2.42018089,15.9071038 5.10927077,14.0198203 C7.79836066,12.1325368 9.41181458,11.593313 11.8319955,11.593313 C15.8656303,11.593313 17.4790842,14.0198203 19.8992651,14.0198203 Z" id="Path-22"></path>
            </g>
        </g>
    </g>
</svg>