<?xml version="1.0" encoding="UTF-8"?>
<svg width="73px" height="73px" viewBox="0 0 73 73" version="1.1" xmlns="http://www.w3.org/2000/svg" xmlns:xlink="http://www.w3.org/1999/xlink">
    <!-- Generator: Sketch 57.1 (83088) - https://sketch.com -->
    <title>wearables_inactive</title>
    <desc>Created with Sketch.</desc>
    <g id="HS_Website" stroke="none" stroke-width="1" fill="none" fill-rule="evenodd">
        <g id="wearables_inactive" transform="translate(1.000000, 1.000000)">
            <circle id="Oval-Copy-15" stroke="#74ABFC" stroke-width="2.01302932" fill="#FFFFFF" cx="35.5" cy="35.5" r="35.5"></circle>
            <g id="Group-65" transform="translate(23.860656, 11.057377)" fill="#74ABFC">
                <path d="M2.59195186,25.6065574 L4.14712298,27.7016393 C4.40965048,28.0553089 4.95121802,27.9957399 5.13227577,27.5932788 L7.47236235,22.3916577 L8.68641113,25.2538383 C8.77717483,25.4678182 8.98541692,25.6065574 9.21582883,25.6065574 L13.4677623,25.6065574 L14.4605414,27.6127227 C14.6685945,28.0331474 15.2586083,28.0437893 15.4813803,27.6311353 L18.2307416,22.5383268 L19.0248446,25.7477052 C19.0889474,26.0067778 19.3193334,26.1885246 19.5836363,26.1885246 L23.0395721,26.1885246 L23.0396704,27.4530398 C23.8542245,27.7195516 24.442623,28.485734 24.442623,29.3893443 C24.442623,30.3063911 23.8365955,31.0818927 23.0031846,31.3372051 C22.6950238,34.008162 20.4254404,36.0819672 17.6714939,36.0819672 L5.36807818,36.0819672 C2.40337046,36.0819672 3.63071981e-16,33.6785967 0,30.713889 L0,25.6065574 L2.59195186,25.6065574 Z M17.6714939,13.3852459 C20.6362016,13.3852459 23.0395721,15.7886164 23.0395721,18.7533241 L23.0397366,18.9478678 C23.8754445,19.402671 24.442623,20.2885946 24.442623,21.3069899 L24.442623,21.7585839 C24.442623,22.7769791 23.8754445,23.6629028 23.0397366,24.1177059 L23.0395721,25.0245902 L20.0333551,25.0245902 L18.9904494,20.8096719 C18.8632061,20.2954164 18.177223,20.2067865 17.9259992,20.6721434 L14.9979211,26.096 L14.3389237,24.7643265 C14.2413558,24.5671653 14.0419119,24.442623 13.8237433,24.442623 L9.59563397,24.442623 L8.01727863,20.7215716 C7.82014547,20.2568203 7.17058332,20.2496874 6.96349958,20.7099999 L4.48566191,26.2178186 L3.34073795,24.6754098 C3.23195985,24.5288671 3.06124335,24.442623 2.87994651,24.442623 L0,24.442623 L0,18.7533241 C-3.63071981e-16,15.7886164 2.40337046,13.3852459 5.36807818,13.3852459 L17.6714939,13.3852459 Z" id="Combined-Shape"></path>
                <path d="M8.27791424,0 L15.0007743,0 C17.965482,-5.44607972e-16 20.3688525,2.40337046 20.3688525,5.36807818 L20.3688525,11.6393443 L20.3688525,11.6393443 L2.90983607,11.6393443 L2.90983607,5.36807818 C2.90983607,2.40337046 5.31320653,-3.43570448e-16 8.27791424,0 Z" id="Rectangle"></path>
                <path d="M8.27791424,37.8278689 L15.0007743,37.8278689 C17.965482,37.8278689 20.3688525,40.2312393 20.3688525,43.195947 L20.3688525,49.4672131 L20.3688525,49.4672131 L2.90983607,49.4672131 L2.90983607,43.195947 C2.90983607,40.2312393 5.31320653,37.8278689 8.27791424,37.8278689 Z" id="Rectangle-Copy-58" transform="translate(11.639344, 43.647541) rotate(-180.000000) translate(-11.639344, -43.647541) "></path>
            </g>
        </g>
    </g>
</svg>