<?xml version="1.0" encoding="UTF-8"?>
<svg width="75px" height="75px" viewBox="0 0 75 75" version="1.1" xmlns="http://www.w3.org/2000/svg" xmlns:xlink="http://www.w3.org/1999/xlink">
    <!-- Generator: Sketch 57.1 (83088) - https://sketch.com -->
    <title>web_active</title>
    <desc>Created with Sketch.</desc>
    <g id="HS_Website" stroke="none" stroke-width="1" fill="none" fill-rule="evenodd">
        <g id="web_active" transform="translate(2.000000, 2.000000)">
            <circle id="Oval-Copy-14" stroke="#74ABFC" stroke-width="2.68403909" fill="#74ABFC" cx="35.5" cy="35.5" r="35.5"></circle>
            <path d="M57.6147541,28.672531 L57.6147541,45.8153594 C57.6147541,49.7606922 54.4164299,52.9590164 50.4710971,52.9590164 L20.5289029,52.9590164 C16.5835701,52.9590164 13.3852459,49.7606922 13.3852459,45.8153594 L13.3852459,28.672531 L57.6147541,28.672531 Z M50.4710971,18.6229508 C54.4164299,18.6229508 57.6147541,21.821275 57.6147541,25.7666078 L57.6147541,27.4163335 L13.3852459,27.4163335 L13.3852459,25.7666078 C13.3852459,21.821275 16.5835701,18.6229508 20.5289029,18.6229508 L50.4710971,18.6229508 Z M17.75,21.5327869 C16.946471,21.5327869 16.295082,22.1841759 16.295082,22.9877049 C16.295082,23.791234 16.946471,24.442623 17.75,24.442623 C18.553529,24.442623 19.204918,23.791234 19.204918,22.9877049 C19.204918,22.1841759 18.553529,21.5327869 17.75,21.5327869 Z M23.5696721,21.5327869 C22.7661431,21.5327869 22.1147541,22.1841759 22.1147541,22.9877049 C22.1147541,23.791234 22.7661431,24.442623 23.5696721,24.442623 C24.3732012,24.442623 25.0245902,23.791234 25.0245902,22.9877049 C25.0245902,22.1841759 24.3732012,21.5327869 23.5696721,21.5327869 Z M29.3893443,21.5327869 C28.5858152,21.5327869 27.9344262,22.1841759 27.9344262,22.9877049 C27.9344262,23.791234 28.5858152,24.442623 29.3893443,24.442623 C30.1928733,24.442623 30.8442623,23.791234 30.8442623,22.9877049 C30.8442623,22.1841759 30.1928733,21.5327869 29.3893443,21.5327869 Z" id="Combined-Shape" fill="#FFFFFF"></path>
        </g>
    </g>
</svg>