<?xml version="1.0" encoding="UTF-8"?>
<svg width="104px" height="103px" viewBox="0 0 104 103" version="1.1" xmlns="http://www.w3.org/2000/svg" xmlns:xlink="http://www.w3.org/1999/xlink">
    <title>logo</title>
    <g id="Mobile-App-Design" stroke="none" stroke-width="1" fill="none" fill-rule="evenodd">
        <g id="[Desktop]-Project_Resense" transform="translate(-239.000000, -261.000000)">
            <g id="logo" transform="translate(239.000000, 261.000000)">
                <g id="Group-Copy" transform="translate(52.165493, 51.500000) rotate(-90.000000) translate(-52.165493, -51.500000) translate(0.665493, 0.000000)">
                    <rect id="Rectangle-Copy-3" fill="#000000" x="0.740029273" y="0.740029345" width="102.000002" height="102" rx="23"></rect>
                    <path d="M75.4809968,87.3471463 L69.215637,87.3471463 L69.2161408,60.9106799 L34.5055833,60.9106799 L34.5048585,87.3471463 L28.1845384,87.3471463 L28.1845384,54.1512214 L69.2475894,54.1506548 L69.2483583,36.183415 C69.1424223,31.1769484 68.2112576,27.8613058 66.5374482,26.2537859 C64.8283958,24.6124188 62.7335353,23.7963486 60.212201,23.7963486 C57.7266199,23.7963486 55.6487967,24.6039236 53.9391101,26.2289722 C52.2676732,27.8176648 51.3368862,31.1232635 51.230811,36.1441526 L51.2309766,47.0414591 L44.9130677,46.9696647 L44.9130677,36.0735491 L44.9187967,35.5050134 C44.9378916,34.5482481 45.0047096,33.5454454 45.1191114,32.4964781 L45.1328521,32.3870279 L28.1035894,23.9544137 L28.1035894,16.4156548 L46.8067758,25.7673785 L46.8546399,25.6506524 C47.5881452,23.9466292 48.4670817,22.5136889 49.4942263,21.3540094 C52.1800319,18.4732244 55.7656521,17.0389763 60.212201,17.0389763 C64.6009303,17.0389763 68.1116545,18.4265852 70.6921243,21.2010019 L71.2086631,21.7676324 C73.9837403,24.9088464 75.3720632,29.2191421 75.4809968,35.6035907 L75.4809968,87.3471463 Z" id="Combined-Shape" fill="#FFFFFF" fill-rule="nonzero"></path>
                    <polygon id="Rectangle-Copy-12" fill="#FFFFFF" transform="translate(48.030504, 79.717480) rotate(-270.000000) translate(-48.030504, -79.717480) " points="40.6114515 76.059951 55.4495563 76.059951 55.4495563 83.3750099 40.6114515 83.3750099"></polygon>
                </g>
            </g>
        </g>
    </g>
</svg>