<?xml version="1.0" encoding="UTF-8"?>
<svg width="88px" height="78px" viewBox="0 0 88 78" version="1.1" xmlns="http://www.w3.org/2000/svg" xmlns:xlink="http://www.w3.org/1999/xlink">
    <!-- Generator: Sketch 62 (91390) - https://sketch.com -->
    <title>apps_icon</title>
    <desc>Created with Sketch.</desc>
    <g id="HS_Website" stroke="none" stroke-width="1" fill="none" fill-rule="evenodd">
        <g id="[desktop]-mobile-app-development" transform="translate(-227.000000, -4373.000000)">
            <g id="apps_icon" transform="translate(227.000000, 4373.000000)">
                <path d="M43.7501205,24.0525181 C41.2454527,27.2970612 39.75,31.3899804 39.75,35.8392857 C39.75,40.2888081 41.2455985,44.3819096 43.750487,47.6265281 L43.75,70 C43.75,71.863961 42.9944805,73.551461 41.7729708,74.7729708 C40.551461,75.9944805 38.863961,76.75 37,76.75 L8,76.75 C6.13603897,76.75 4.44853897,75.9944805 3.22702923,74.7729708 C2.00551948,73.551461 1.25,71.863961 1.25,70 L1.25,8 C1.25,6.13603897 2.00551948,4.44853897 3.22702923,3.22702923 C4.44853897,2.00551948 6.13603897,1.25 8,1.25 L37,1.25 C38.863961,1.25 40.551461,2.00551948 41.7729708,3.22702923 C42.9944805,4.44853897 43.75,6.13603897 43.75,8.00000938 L43.7501205,24.0525181 Z" id="Combined-Shape" stroke="#4A4A4A" stroke-width="2.5"></path>
                <path d="M77.25,35.8392857 C77.25,42.1257599 74.2652431,47.6999848 69.6654779,51.176341 L69.6824324,67 C69.6824324,68.7258898 68.9828774,70.2883898 67.8518498,71.4194174 C66.7208223,72.5504449 65.1583223,73.25 63.4324324,73.25 L54.5135135,73.25 C52.7876237,73.25 51.2251237,72.5504449 50.0940961,71.4194174 C48.9630686,70.2883898 48.2635135,68.7258898 48.2635135,67.0000426 L48.2629964,51.8348538 C43.1404637,48.4301618 39.75,42.5394872 39.75,35.8392857 C39.75,30.5707116 41.8466631,25.8019479 45.233303,22.3496487 C48.6285468,18.8885787 53.3196275,16.75 58.5,16.75 C63.6803725,16.75 68.3714532,18.8885787 71.766697,22.3496487 C75.1533369,25.8019479 77.25,30.5707116 77.25,35.8392857 Z" id="Combined-Shape" stroke="#4A4A4A" stroke-width="2.5"></path>
                <path d="M12,0 L34,0 L34,2.5 C34,3.88071187 32.8807119,5 31.5,5 L14.5,5 C13.1192881,5 12,3.88071187 12,2.5 L12,0 L12,0 Z" id="Rectangle" fill="#4A4A4A"></path>
                <rect id="Rectangle-Copy-67" fill="#4A4A4A" opacity="0.299037388" x="6" y="62" width="17" height="6" rx="3"></rect>
                <rect id="Rectangle-Copy-68" fill="#4A4A4A" opacity="0.299037388" x="6" y="45" width="17" height="6" rx="3"></rect>
                <rect id="Rectangle-Copy-69" fill="#4A4A4A" opacity="0.299037388" x="6" y="28" width="17" height="6" rx="3"></rect>
                <rect id="Rectangle-Copy-70" fill="#4A4A4A" opacity="0.299037388" x="6" y="11" width="17" height="6" rx="3"></rect>
                <g id="Group-22" transform="translate(29.000000, 5.000000)" stroke-width="2.5">
                    <g id="Group-19">
                        <path d="M18.5997106,60.9285714 L18.4194015,60.9285714 C18.3651593,60.9285714 18.3160521,60.9065854 18.2805056,60.8710388 C18.244959,60.8354923 18.222973,60.7863851 18.222973,60.7321429 C18.222973,60.6779006 18.244959,60.6287935 18.2805056,60.5932469 C18.3160521,60.5577003 18.3651593,60.5357143 18.4194015,60.5357143 L18.4194015,58.0357143 C18.3651593,58.0357143 18.3160521,58.0137283 18.2805056,57.9781817 C18.244959,57.9426351 18.222973,57.893528 18.222973,57.8392857 C18.222973,57.7850435 18.244959,57.7359363 18.2805056,57.7003897 C18.3160521,57.6648432 18.3651593,57.6428571 18.4194015,57.6428571 L18.4194015,55.1428571 C18.3651593,55.1428571 18.3160521,55.1208711 18.2805056,55.0853245 C18.244959,55.049778 18.222973,55.0006708 18.222973,54.9464286 C18.222973,54.8921863 18.244959,54.8430792 18.2805056,54.8075326 C18.3160521,54.771986 18.3651593,54.75 18.4194015,54.75 L18.4194015,52.25 C18.3651593,52.25 18.3160521,52.228014 18.2805056,52.1924674 C18.222973,51.9993292 18.244959,51.950222 18.2805056,51.9146755 C18.3160521,51.8791289 18.3651593,51.8571429 18.4194015,51.8571429 L41.5265444,51.8571429 C41.5807867,51.8571429 41.6298938,51.8791289 41.6654404,51.9146755 C41.6690437,51.9182788 41.6725077,51.9220215 41.6758236,51.9258947 L18.5997106,51.9258947 L18.5997106,60.9285714 Z" id="Combined-Shape" stroke="#4A4A4A"></path>
                        <rect id="Rectangle-Copy-57" stroke="#4A4A4A" transform="translate(30.000000, 3.446429) rotate(-270.000000) translate(-30.000000, -3.446429) " x="28.25" y="3.25" width="3.5" height="1" rx="0.5"></rect>
                        <rect id="Rectangle-Copy-61" stroke="#4A4A4A" transform="translate(56.000000, 30.446429) rotate(-180.000000) translate(-56.000000, -30.446429) " x="54.25" y="30.25" width="3.5" height="1" rx="0.5"></rect>
                        <rect id="Rectangle-Copy-62" stroke="#4A4A4A" transform="translate(3.000000, 30.446429) rotate(-180.000000) translate(-3.000000, -30.446429) " x="1.25" y="30.25" width="3.5" height="1" rx="0.5"></rect>
                        <rect id="Rectangle-Copy-63" stroke="#4A4A4A" transform="translate(9.000000, 11.446429) rotate(-135.000000) translate(-9.000000, -11.446429) " x="7.25" y="11.25" width="3.5" height="1" rx="0.5"></rect>
                        <rect id="Rectangle-Copy-64" stroke="#4A4A4A" transform="translate(50.000000, 11.446429) rotate(-45.000000) translate(-50.000000, -11.446429) " x="48.25" y="11.25" width="3.5" height="1" rx="0.5"></rect>
                        <path d="" id="Rectangle-Copy-37" stroke="#C5C5C5"></path>
                    </g>
                    <path d="M40,27 C38.4594705,22.9512523 35.0979593,19.8988235 31,19" id="Oval" stroke="#C5C5C5" stroke-linecap="round"></path>
                </g>
            </g>
        </g>
    </g>
</svg>