<?xml version="1.0" encoding="UTF-8"?>
<svg width="73px" height="69px" viewBox="0 0 73 69" version="1.1" xmlns="http://www.w3.org/2000/svg" xmlns:xlink="http://www.w3.org/1999/xlink">
    <title>native4</title>
    <defs>
        <linearGradient x1="8.91922591%" y1="42.4316183%" x2="89.8476481%" y2="56.5653018%" id="linearGradient-1">
            <stop stop-color="#72A5FF" offset="0%"></stop>
            <stop stop-color="#B4BDFF" offset="100%"></stop>
        </linearGradient>
    </defs>
    <g id="HS_Website" stroke="none" stroke-width="1" fill="none" fill-rule="evenodd">
        <g id="[desktop]-mobile-app-development" transform="translate(-1101.000000, -4523.000000)" stroke-width="1.99999988">
            <g id="Group-28" transform="translate(892.000000, 4524.000000)">
                <g id="Group-27" transform="translate(129.000000, 0.000000)">
                    <g id="native4" transform="translate(82.000000, 0.000000)">
                        <path d="M63.1999977,31.8243101 L63.1999977,38.3999977 C63.1999977,50.3293476 55.5652735,59.9999964 46.1473657,59.9999964 L39.1999977,59.9999964" id="Rectangle" stroke="#4A4A4A"></path>
                        <g id="Group-45" transform="translate(0.000000, 39.199998)">
                            <path d="M22.5714272,26.3999984 C28.110054,26.3999984 28.2285697,26.3999984 32.3428552,26.3999984 C32.3428552,20.9585406 28.110054,16.799999 22.5714272,16.799999 C17.0328005,16.799999 12.7999992,20.9585406 12.7999992,26.3999984 C15.8857133,26.3999984 17.0328005,26.3999984 22.5714272,26.3999984 Z" id="Oval-Copy-17" stroke="#4A4A4A" fill="url(#linearGradient-1)" stroke-linejoin="round"></path>
                            <ellipse id="Oval" stroke="#4A4A4A" cx="22.5714272" cy="9.59999943" rx="3.85714263" ry="3.99999976"></ellipse>
                            <path d="M9.77142799,11.1999993 C12.4488807,11.1999993 14.8211755,12.1718073 16.5576551,13.7905669 C12.8302793,14.509301 9.9740434,17.2056294 9.08766416,20.7991491 L-5.336176e-13,20.7999988 C-5.336176e-13,15.3585409 4.23280126,11.1999993 9.77142799,11.1999993 Z" id="Combined-Shape" stroke="#C5C5C5" stroke-linejoin="round"></path>
                            <path d="M35.3714265,11.1999993 C40.9100532,11.1999993 45.1428545,15.3585409 45.1428545,20.7999988 L45.1428545,20.7999988 L36.0551903,20.7991491 C35.1687526,17.2053924 32.3121984,14.5089454 28.5850006,13.7899919 C30.3216437,12.1718217 32.6939539,11.1999993 35.3714265,11.1999993 Z" id="Combined-Shape" stroke="#4A4A4A" stroke-linejoin="round"></path>
                            <ellipse id="Oval" stroke="#C5C5C5" cx="9.77142799" cy="3.99999976" rx="3.85714263" ry="3.99999976"></ellipse>
                            <ellipse id="Oval-Copy-19" stroke="#4A4A4A" cx="35.3714265" cy="3.99999976" rx="3.85714263" ry="3.99999976"></ellipse>
                        </g>
                        <path d="M67.3616468,39.7740092 L60.7273327,40.3396946 C59.8436771,40.3396946 59.1273328,39.6233502 59.1273328,38.7396947 L59.6930181,32.1053805" id="Rectangle" stroke="#4A4A4A" stroke-linecap="round" transform="translate(63.244490, 36.222538) rotate(-225.000000) translate(-63.244490, -36.222538) "></path>
                        <path d="M29.8670329,3.99999976 L29.8670329,10.5756874 C29.8670329,22.5050373 22.2323087,32.1756861 12.8144009,32.1756861 L5.86703289,32.1756861" id="Rectangle" stroke="#4A4A4A" transform="translate(17.867032, 18.087843) rotate(-180.000000) translate(-17.867032, -18.087843) "></path>
                        <path d="M9.93969637,31.3289303 L3.30538219,31.8946157 C2.42172664,31.8946157 1.70538229,31.1782714 1.70538229,30.2946158 L2.27106768,23.6603016" id="Rectangle" stroke="#4A4A4A" stroke-linecap="round" transform="translate(5.822539, 27.777459) rotate(-45.000000) translate(-5.822539, -27.777459) "></path>
                        <g id="Group-45" transform="translate(23.199999, 0.000000)">
                            <path d="M22.5714272,26.3999984 C28.110054,26.3999984 28.2285697,26.3999984 32.3428552,26.3999984 C32.3428552,20.9585406 28.110054,16.799999 22.5714272,16.799999 C17.0328005,16.799999 12.7999992,20.9585406 12.7999992,26.3999984 C15.8857133,26.3999984 17.0328005,26.3999984 22.5714272,26.3999984 Z" id="Oval-Copy-17" stroke="#4A4A4A" fill="url(#linearGradient-1)" stroke-linejoin="round"></path>
                            <ellipse id="Oval" stroke="#4A4A4A" cx="22.5714272" cy="9.59999943" rx="3.85714263" ry="3.99999976"></ellipse>
                            <path d="M9.77142799,11.1999993 C12.4488807,11.1999993 14.8211755,12.1718073 16.5576551,13.7905669 C12.8302793,14.509301 9.9740434,17.2056294 9.08766416,20.7991491 L-5.336176e-13,20.7999988 C-5.336176e-13,15.3585409 4.23280126,11.1999993 9.77142799,11.1999993 Z" id="Combined-Shape" stroke="#4A4A4A" stroke-linejoin="round"></path>
                            <path d="M35.3714265,11.1999993 C40.9100532,11.1999993 45.1428545,15.3585409 45.1428545,20.7999988 L45.1428545,20.7999988 L36.0551903,20.7991491 C35.1687526,17.2053924 32.3121984,14.5089454 28.5850006,13.7899919 C30.3216437,12.1718217 32.6939539,11.1999993 35.3714265,11.1999993 Z" id="Combined-Shape" stroke="#C5C5C5" stroke-linejoin="round"></path>
                            <ellipse id="Oval" stroke="#4A4A4A" cx="9.77142799" cy="3.99999976" rx="3.85714263" ry="3.99999976"></ellipse>
                            <ellipse id="Oval-Copy-19" stroke="#C5C5C5" cx="35.3714265" cy="3.99999976" rx="3.85714263" ry="3.99999976"></ellipse>
                        </g>
                    </g>
                </g>
            </g>
        </g>
    </g>
</svg>