<?xml version="1.0" encoding="UTF-8"?>
<svg width="72px" height="64px" viewBox="0 0 72 64" version="1.1" xmlns="http://www.w3.org/2000/svg" xmlns:xlink="http://www.w3.org/1999/xlink">
    <title>native2</title>
    <defs>
        <linearGradient x1="53.9641437%" y1="44.5551751%" x2="72.8150296%" y2="94.4487057%" id="linearGradient-1">
            <stop stop-color="#72A5FF" offset="0%"></stop>
            <stop stop-color="#B4BDFF" offset="100%"></stop>
        </linearGradient>
    </defs>
    <g id="HS_Website" stroke="none" stroke-width="1" fill="none" fill-rule="evenodd">
        <g id="[desktop]-mobile-app-development" transform="translate(-1102.000000, -4209.000000)">
            <g id="Group-31" transform="translate(892.000000, 4209.000000)">
                <g id="Group-26" transform="translate(142.000000, 0.000000)">
                    <g id="native2" transform="translate(68.000000, 0.000000)">
                        <g id="Group-40">
                            <path d="M0,8.79999948 C14.5803165,8.79999948 26.3999984,20.6196814 26.3999984,35.1999979 L26.3999984,62.3999963 L26.3999984,62.3999963" id="Rectangle" stroke="#4A4A4A" stroke-width="1.99999988" transform="translate(13.199999, 35.599998) scale(1, -1) translate(-13.199999, -35.599998) "></path>
                            <rect id="Rectangle" fill="#4A4A4A" x="0" y="59.9999964" width="3.99999976" height="3.99999976" rx="0.799999952"></rect>
                            <rect id="Rectangle-Copy-76" fill="#4A4A4A" x="24.4481732" y="37.6205662" width="3.99999976" height="3.99999976" rx="0.799999952"></rect>
                            <rect id="Rectangle-Copy-76" fill="#4A4A4A" x="24.4017263" y="5.61322695" width="3.99999976" height="3.99999976" rx="0.799999952"></rect>
                            <path d="M36.1999778,18.9575965 C36.3976055,18.7162952 36.6126884,18.4885769 36.8439238,18.2764088 L41.0353953,14.4305591 L42.1440319,13.4237218 C42.6192597,13.0504697 43.1958135,12.8640205 43.7726799,12.8691377 C44.3285142,12.8740683 44.8845258,13.0565171 45.3500343,13.4202122 L48.4087057,15.8194449 C48.8557742,16.2269876 49.1349308,16.765542 49.2248077,17.3359606 C49.3113227,17.8850427 49.2227641,18.4634835 48.9405466,18.9824492 L45.4378793,25.4061287 C44.935794,26.2284336 44.258981,26.9320517 43.4539359,27.4662149 L36.199971,32.2786326 L36.1999978,55.9999955 C36.1999978,57.4911654 36.8044134,58.8411653 37.7816211,59.8183731 C38.7588289,60.7955808 40.1088288,61.3999963 41.5999975,61.3999963 L64.7999983,61.3999963 C66.291167,61.3999963 67.6411669,60.7955808 68.6183747,59.8183731 C69.5955824,58.8411653 70.199998,57.4911654 70.199998,55.9999967 L70.199998,6.39999962 C70.199998,4.90883088 69.5955824,3.55883096 68.6183747,2.58162323 C67.6411669,1.60441549 66.291167,0.99999994 64.7999983,0.99999994 L41.5999975,0.99999994 C40.1088288,0.99999994 38.7588289,1.60441549 37.7816211,2.58162323 C36.8044134,3.55883096 36.1999978,4.90883088 36.1999978,6.39999962 L36.1999778,18.9575965 Z" id="Combined-Shape" stroke="#4A4A4A" stroke-width="1.99999988"></path>
                            <g id="Group-38" transform="translate(39.273657, 23.734331) rotate(-7.000000) translate(-39.273657, -23.734331) translate(35.273657, 19.734331)" stroke="#C5C5C5" stroke-width="1.99999988">
                                <path d="M4.53137004,1.60588694 C3.90653121,2.23072577 3.90653121,3.24378967 4.53137004,3.8686285 C5.15620887,4.49346733 6.16927278,4.49346733 6.79411161,3.8686285 C7.41895044,3.24378967 7.41895044,2.23072577 6.79411161,1.60588694 C6.16927278,0.981048108 5.15620887,0.981048108 4.53137004,1.60588694 Z M4.53137004,3.8686285 L1.1372577,7.26274085" id="Combined-Shape"></path>
                            </g>
                            <path d="M65.2776047,23.3732214 C65.4804546,23.5241794 65.5999961,23.7621514 65.5999961,24.0150079 L65.5999961,55.1999967 C65.5999961,55.6418245 65.2418239,55.9999967 64.7999961,55.9999967 L41.5925626,55.9999967 C41.1507348,55.9999967 40.7925627,55.6418245 40.7925627,55.1999967 C40.7925627,55.0279216 40.8480454,54.8604325 40.9507761,54.7223881 L64.1582096,23.5373993 C64.4219855,23.1829504 64.9231558,23.1094454 65.2776047,23.3732214 Z M59.8365419,39.0135787 C59.6583958,38.8829383 59.4080749,38.9214492 59.2774345,39.0995953 L59.2774345,39.0995953 L51.6667969,49.477738 C51.6164853,49.5463448 51.5893589,49.6292061 51.5893589,49.7142835 C51.5893589,49.9351974 51.768445,50.1142834 51.9893589,50.1142834 L51.9893589,50.1142834 L59.5999964,50.1142834 C59.8209103,50.1142834 59.9999964,49.9351974 59.9999964,49.7142835 L59.9999964,49.7142835 L59.9999964,39.3361407 C59.9999964,39.2087233 59.9392919,39.0889287 59.8365419,39.0135787 Z" id="Combined-Shape" stroke="#4A4A4A" stroke-width="1.99999988" fill="url(#linearGradient-1)"></path>
                            <path d="M44.7999973,0 L62.3999963,0 L62.3999963,2.00000012 C62.3999963,3.10456955 61.5045658,4 60.3999964,4 L46.7999972,4 C45.6954278,4 44.7999973,3.10456955 44.7999973,2.00000012 L44.7999973,0 L44.7999973,0 Z" id="Rectangle" fill="#4A4A4A"></path>
                            <rect id="Rectangle-Copy-65" fill="#4A4A4A" x="62.3999963" y="31.1999981" width="3.99999976" height="2.39999986" rx="0.799999952"></rect>
                            <rect id="Rectangle-Copy-66" fill="#4A4A4A" x="63.1999962" y="35.1999979" width="3.19999981" height="2.39999986" rx="0.799999952"></rect>
                            <rect id="Rectangle-Copy-71" fill="#4A4A4A" x="62.3999963" y="39.1999977" width="3.99999976" height="2.39999986" rx="0.799999952"></rect>
                            <rect id="Rectangle-Copy-73" fill="#4A4A4A" x="63.1999962" y="43.1999974" width="3.19999981" height="2.39999986" rx="0.799999952"></rect>
                            <rect id="Rectangle-Copy-74" fill="#4A4A4A" x="62.3999963" y="47.1999972" width="3.99999976" height="2.39999986" rx="0.799999952"></rect>
                            <rect id="Rectangle-Copy-75" fill="#4A4A4A" x="63.1999962" y="51.1999969" width="3.19999981" height="2.39999986" rx="0.799999952"></rect>
                            <line x1="26.3999984" y1="39.9999976" x2="26.3999984" y2="54.3999968" id="Path-29" stroke="#4A4A4A" stroke-width="0.799999952"></line>
                            <circle id="Oval" fill="#4A4A4A" cx="26.3999984" cy="55.1999967" r="1.5999999"></circle>
                        </g>
                        <path d="M38.0474732,19.4638789 C37.0262153,19.1234597 35.9371903,19.0380133 34.875337,19.2149888 L27.9842798,20.3634984 C27.3574354,20.4679724 26.8142948,20.791383 26.4278653,21.2475478 C26.0414357,21.7037126 25.8117173,22.2926316 25.8117173,22.9281224 L25.8117173,26.6173158 C25.8117173,27.2528067 26.0414358,27.8417258 26.4278654,28.2978906 C26.8142951,28.7540554 27.3574358,29.0774659 27.9842802,29.1819399 L29.2642387,29.3952661 L34.875337,30.3304491 C35.9371903,30.5074246 37.0262153,30.4219783 38.0474732,30.081559 L53.973995,24.772719 L38.0474732,19.4638789 Z" id="Rectangle" stroke="#4A4A4A" stroke-width="1.99999988" stroke-linejoin="round" transform="translate(38.811716, 24.772719) rotate(-232.000000) translate(-38.811716, -24.772719) "></path>
                    </g>
                </g>
            </g>
        </g>
    </g>
</svg>