<?xml version="1.0" encoding="UTF-8"?>
<svg width="76px" height="74px" viewBox="0 0 76 74" version="1.1" xmlns="http://www.w3.org/2000/svg" xmlns:xlink="http://www.w3.org/1999/xlink">
    <title>native3</title>
    <defs>
        <linearGradient x1="38.3812708%" y1="4.53957081%" x2="77.3017487%" y2="95.4604292%" id="linearGradient-1">
            <stop stop-color="#72A5FF" offset="0%"></stop>
            <stop stop-color="#B4BDFF" offset="100%"></stop>
        </linearGradient>
    </defs>
    <g id="HS_Website" stroke="none" stroke-width="1" fill="none" fill-rule="evenodd">
        <g id="[desktop]-mobile-app-development" transform="translate(-422.000000, -4522.000000)">
            <g id="Group-29" transform="translate(214.000000, 4524.000000)">
                <g id="Group-11" transform="translate(137.000000, 0.000000)">
                    <g id="native3" transform="translate(72.799996, 0.000000)">
                        <g id="Group-41" transform="translate(0.000000, 13.599999)">
                            <path d="M18.5372811,16.3576876 C18.5372811,17.0884043 19.1214908,16.6933944 19.84215,16.6933944 C20.5628091,16.6933944 21.1470188,17.0884043 21.1470188,16.3576876 L21.1789461,2.92307954 C21.1789461,2.19236283 20.5947364,1.5999999 19.8740773,1.5999999 L12.0838156,1.5999999 C11.3631564,1.5999999 10.7789467,2.19236283 10.7789467,2.92307954 C10.7789467,3.65379624 11.3631564,4.24615917 12.0838156,4.24615917 L18.5692084,4.24615917 L18.5372811,16.3576876 Z" id="Path-25" fill="#C5C5C5" fill-rule="nonzero"></path>
                            <path d="M37.1789452,51.9999969 C37.1789452,49.7953445 37.1789452,46.488366 37.1789452,42.0790613 C37.1789452,41.3726539 36.5947355,40.7999976 35.8740763,40.7999976 L28.0838146,40.7999976 C27.3631554,40.7999976 26.7789458,41.3726539 26.7789458,42.0790613 C26.7789458,42.7854687 27.3631554,43.3581251 28.0838146,43.3581251 L34.5692075,43.3581251 C34.5692075,47.198957 34.5692075,50.0795809 34.5692075,51.9999969 C36.2370897,51.9999969 36.2370897,51.9999969 37.1789452,51.9999969 Z" id="Path-25-Copy-2" fill="#C5C5C5" fill-rule="nonzero" transform="translate(31.978945, 46.399997) rotate(-180.000000) translate(-31.978945, -46.399997) "></path>
                            <path d="M37.1789452,14.9920488 C37.1789452,12.3161831 37.1789452,8.30238461 37.1789452,2.95065327 C37.1789452,2.20470802 36.5947355,1.5999999 35.8740763,1.5999999 L28.0838146,1.5999999 C27.3631554,1.5999999 26.7789458,2.20470802 26.7789458,2.95065327 C26.7789458,3.69659853 27.3631554,4.30130664 28.0838146,4.30130664 L34.5692075,4.30130664 C34.5692075,9.50072549 34.5692075,13.4002896 34.5692075,15.999999 C35.263307,15.999999 36.2370897,15.999999 37.1789452,14.9920488 Z" id="Path-25-Copy" fill="#C5C5C5" fill-rule="nonzero" transform="translate(31.978945, 8.799999) scale(-1, 1) translate(-31.978945, -8.799999) "></path>
                            <path d="M21.1789461,51.9999969 C21.1789461,49.7953445 21.1789461,46.488366 21.1789461,42.0790613 C21.1789461,41.3726539 20.5947364,40.7999976 19.8740773,40.7999976 L12.0838156,40.7999976 C11.3631564,40.7999976 10.7789467,41.3726539 10.7789467,42.0790613 C10.7789467,42.7854687 11.3631564,43.3581251 12.0838156,43.3581251 L18.5692084,43.3581251 C18.5692084,47.198957 18.5692084,50.0795809 18.5692084,51.9999969 C19.84215,51.9999969 19.84215,51.9999969 21.1789461,51.9999969 Z" id="Path-25-Copy-3" fill="#C5C5C5" fill-rule="nonzero" transform="translate(15.978946, 46.399997) scale(-1, 1) rotate(-180.000000) translate(-15.978946, -46.399997) "></path>
                            <path d="M9.09451852,18.7315644 C11.62169,16.1754705 15.5772343,15.9580588 18.298596,18.0947221 L18.3359239,18.0552575 C20.0463365,16.3252698 22.8036221,16.3093326 24.4945971,18.0196625 C24.8360444,18.3650593 25.1078989,18.7544385 25.31026,19.1701986 C29.2418695,17.1386855 34.1511072,17.7632911 37.4100688,21.0595548 C41.4681646,25.1645907 41.4303504,31.8582203 37.3256127,36.0104434 C37.0127697,36.3268667 36.6853341,36.6193974 36.3455508,36.8880226 C38.6277129,39.6426882 38.4655868,43.7781493 35.8766081,46.3970785 C33.1399478,49.1650588 28.7282909,49.1905583 26.0227309,46.4540305 C25.937596,46.3679109 25.8551652,46.2800823 25.7754377,46.1906514 C25.7735139,46.1880265 25.7715859,46.1860221 25.769663,46.1840125 L9.05054365,28.7117821 L9.03821443,28.6988234 C6.39430356,26.0243303 6.35829128,21.701659 8.91214112,18.9228871 Z" id="Combined-Shape" stroke="#4A4A4A" stroke-width="1.99999988" fill="url(#linearGradient-1)" stroke-linejoin="round" transform="translate(23.727309, 32.564321) rotate(-46.000000) translate(-23.727309, -32.564321) "></path>
                            <circle id="Oval" fill="#4A4A4A" cx="11.9789467" cy="2.79999983" r="2.79999983"></circle>
                            <circle id="Oval-Copy-23" fill="#4A4A4A" cx="11.9789467" cy="50.799997" r="2.79999983"></circle>
                            <circle id="Oval-Copy-22" fill="#4A4A4A" cx="35.9789452" cy="2.79999983" r="2.79999983"></circle>
                            <circle id="Oval-Copy-24" fill="#4A4A4A" cx="35.9789452" cy="50.799997" r="2.79999983"></circle>
                        </g>
                        <path d="M66.3999975,1.5999999 L66.3999975,25.5999999 C66.3999975,37.5293484 58.7652733,47.1999972 49.3473655,47.1999972 L42.3999975,47.1999972" id="Rectangle" stroke="#4A4A4A" stroke-width="1.99999988"></path>
                        <path d="M70.5616466,9.54969899 L63.9273325,10.1153844 C63.0436769,10.1153844 62.3273326,9.39904003 62.3273326,8.51538448 L62.893018,1.8810703" id="Rectangle" stroke="#4A4A4A" stroke-width="1.99999988" stroke-linecap="round" transform="translate(66.444490, 5.998227) rotate(-225.000000) translate(-66.444490, -5.998227) "></path>
                    </g>
                </g>
            </g>
        </g>
    </g>
</svg>