<?xml version="1.0" encoding="UTF-8"?>
<svg width="73px" height="63px" viewBox="0 0 73 63" version="1.1" xmlns="http://www.w3.org/2000/svg" xmlns:xlink="http://www.w3.org/1999/xlink">
    <title>nativ1</title>
    <defs>
        <linearGradient x1="32.7421282%" y1="18.6356221%" x2="66.7398405%" y2="77.2074814%" id="linearGradient-1">
            <stop stop-color="#72A5FF" offset="0%"></stop>
            <stop stop-color="#B4BDFF" offset="100%"></stop>
        </linearGradient>
    </defs>
    <g id="HS_Website" stroke="none" stroke-width="1" fill="none" fill-rule="evenodd">
        <g id="[desktop]-mobile-app-development" transform="translate(-424.000000, -4209.000000)">
            <g id="Group-30" transform="translate(214.000000, 4209.000000)">
                <g id="Group-7" transform="translate(64.000000, 0.000000)">
                    <g id="nativ1" transform="translate(146.399991, 0.000000)">
                        <path d="M29.6000004,0.99999994 L6.39999962,0.99999994 C4.90883088,0.99999994 3.55883096,1.60441549 2.58162323,2.58162323 C1.60441549,3.55883096 0.99999994,4.90883088 0.99999994,6.39999962 L0.99999994,55.9999967 C0.99999994,57.4911654 1.60441549,58.8411653 2.58162323,59.8183731 C3.55883096,60.7955808 4.90883088,61.3999963 6.39999962,61.3999963 L29.6000004,61.3999963 C31.0911691,61.3999963 32.441169,60.7955808 33.4183768,59.8183731 C34.3955845,58.8411653 35.0000001,57.4911654 35.0000001,55.9999967 L34.999616,38.1002206 C32.9961698,35.5046849 31.7999981,32.2305876 31.7999981,28.6714269 C31.7999981,25.1121635 32.9962388,21.83798 34.9997893,19.2424085 L35.0000001,6.39998321 C35.0000001,4.90883088 34.3955845,3.55883096 33.4183768,2.58162323 C32.441169,1.60441549 31.0911691,0.99999994 29.6000004,0.99999994 Z" id="Combined-Shape" stroke="#4A4A4A" stroke-width="1.99999988"></path>
                        <path d="M46.799998,13.3999992 C42.6556999,13.3999992 38.9028355,15.110862 36.1866405,17.8797178 C33.4773286,20.6415569 31.7999981,24.4565678 31.7999981,28.6714269 C31.7999981,34.0315959 34.5123772,38.7441416 38.6104139,41.4678931 L38.6108085,53.6000293 C38.6108085,54.9807086 39.1704525,56.2307085 40.0752745,57.1355305 C40.9800965,58.0403525 42.2300964,58.5999965 43.6108082,58.5999965 L50.7459429,58.5999965 C52.1266547,58.5999965 53.3766546,58.0403525 54.2814766,57.1355305 C55.1862986,56.2307085 55.7459426,54.9807086 55.7459426,53.5999968 L55.7317279,40.941563 C59.41191,38.1605121 61.799998,33.7009029 61.799998,28.6714269 C61.799998,24.456568 60.1226673,20.6415573 57.4133554,17.8797182 C54.6971602,15.1108621 50.9442955,13.3999992 46.799998,13.3999992 Z" id="Combined-Shape" stroke="#4A4A4A" stroke-width="1.99999988" fill="url(#linearGradient-1)"></path>
                        <path d="M9.59999943,0 L27.1999984,0 L27.1999984,2.00000012 C27.1999984,3.10456955 26.3045679,4 25.1999985,4 L11.5999993,4 C10.4954299,4 9.59999943,3.10456955 9.59999943,2.00000012 L9.59999943,0 L9.59999943,0 Z" id="Rectangle" fill="#4A4A4A"></path>
                        <rect id="Rectangle-Copy-67" fill="#4A4A4A" opacity="0.299037388" x="4.79999971" y="49.599997" width="13.5999992" height="4.79999971" rx="2.39999986"></rect>
                        <rect id="Rectangle-Copy-68" fill="#4A4A4A" opacity="0.299037388" x="4.79999971" y="35.9999979" width="13.5999992" height="4.79999971" rx="2.39999986"></rect>
                        <rect id="Rectangle-Copy-69" fill="#4A4A4A" opacity="0.299037388" x="4.79999971" y="22.3999987" width="13.5999992" height="4.79999971" rx="2.39999986"></rect>
                        <rect id="Rectangle-Copy-70" fill="#4A4A4A" opacity="0.299037388" x="4.79999971" y="8.79999948" width="13.5999992" height="4.79999971" rx="2.39999986"></rect>
                        <g id="Group-22" transform="translate(23.199999, 4.000000)" stroke-width="1.99999988">
                            <g id="Group-19">
                                <rect id="Combined-Shape" stroke="#4A4A4A" x="15.3999991" y="41.7999975" width="17.199999" height="1" rx="0.5"></rect>
                                <rect id="Rectangle-Copy-57" stroke="#4A4A4A" transform="translate(23.999999, 2.757143) rotate(-270.000000) translate(-23.999999, -2.757143) " x="22.5999987" y="2.59999985" width="2.79999983" height="1" rx="0.5"></rect>
                                <rect id="Rectangle-Copy-61" stroke="#4A4A4A" transform="translate(44.799997, 24.357141) rotate(-180.000000) translate(-44.799997, -24.357141) " x="43.3999974" y="24.1999986" width="2.79999983" height="1" rx="0.5"></rect>
                                <rect id="Rectangle-Copy-62" stroke="#4A4A4A" transform="translate(2.400000, 24.357141) rotate(-180.000000) translate(-2.400000, -24.357141) " x="0.99999994" y="24.1999986" width="2.79999983" height="1" rx="0.5"></rect>
                                <rect id="Rectangle-Copy-63" stroke="#4A4A4A" transform="translate(7.200000, 9.157142) rotate(-135.000000) translate(-7.200000, -9.157142) " x="5.79999965" y="8.99999946" width="2.79999983" height="1" rx="0.5"></rect>
                                <rect id="Rectangle-Copy-64" stroke="#4A4A4A" transform="translate(39.999998, 9.157142) rotate(-45.000000) translate(-39.999998, -9.157142) " x="38.5999977" y="8.99999946" width="2.79999983" height="1" rx="0.5"></rect>
                                <path d="M29.5474952,46.2992696 L25.7573136,46.2992696 L29.5474952,46.2992697 L29.5474952,47.2992696 L29.5474952,46.2992696 Z" id="Rectangle-Copy-37" stroke="#FFFFFF"></path>
                            </g>
                            <path d="M31.9999981,21.5999987 C30.7675746,18.3610007 28.0783658,15.9190578 24.7999985,15.1999991" id="Oval" stroke="#FFFFFF" stroke-linecap="round"></path>
                        </g>
                    </g>
                </g>
            </g>
        </g>
    </g>
</svg>