<?xml version="1.0" encoding="UTF-8"?>
<svg width="89px" height="80px" viewBox="0 0 89 80" version="1.1" xmlns="http://www.w3.org/2000/svg" xmlns:xlink="http://www.w3.org/1999/xlink">
    <!-- Generator: Sketch 62 (91390) - https://sketch.com -->
    <title>uiux_icon</title>
    <desc>Created with Sketch.</desc>
    <g id="HS_Website" stroke="none" stroke-width="1" fill="none" fill-rule="evenodd">
        <g id="[desktop]-mobile-app-development" transform="translate(-227.000000, -4591.000000)">
            <g id="uiux_icon" transform="translate(227.000000, 4591.000000)">
                <g id="Group-40">
                    <path d="M0,11 C18.2253967,11 33,25.7746033 33,44 L33,78 L33,78" id="Rectangle" stroke="#4A4A4A" stroke-width="2.5" transform="translate(16.500000, 44.500000) scale(1, -1) translate(-16.500000, -44.500000) "></path>
                    <rect id="Rectangle" fill="#4A4A4A" x="0" y="75" width="5" height="5" rx="1"></rect>
                    <rect id="Rectangle-Copy-76" fill="#4A4A4A" x="30.5602183" y="47.0257105" width="5" height="5" rx="1"></rect>
                    <rect id="Rectangle-Copy-76" fill="#4A4A4A" x="30.5021597" y="7.01653411" width="5" height="5" rx="1"></rect>
                    <path d="M85.7729708,74.7729708 C84.551461,75.9944805 82.863961,76.75 81,76.75 L52,76.75 C50.136039,76.75 48.448539,75.9944805 47.2270292,74.7729708 C46.0055195,73.551461 45.25,71.863961 45.25,69.9999986 L45.2499664,40.3487619 L54.317423,34.3327707 C55.3446564,33.6511812 56.2048637,32.7488715 56.8362235,31.6933439 L61.1756869,23.7280629 C61.5551834,23.030212 61.6546081,22.2463218 61.5026669,21.5146296 C61.3507257,20.7829374 60.9474186,20.1034432 60.3214515,19.6143841 L56.6875465,16.7752664 C56.0615794,16.2862073 55.3047002,16.0592646 54.5579845,16.0888491 C53.8112688,16.1184335 53.0747165,16.4045451 52.4894033,16.9415944 L51.2942471,18.0381999 L46.0549076,22.8455123 C45.7658627,23.110723 45.4970086,23.3953714 45.2499749,23.6969944 L45.25,8 C45.25,6.13603897 46.0055195,4.44853897 47.2270292,3.22702923 C48.448539,2.00551948 50.136039,1.25 52,1.25 L81,1.25 C82.863961,1.25 84.551461,2.00551948 85.7729708,3.22702923 C86.9944805,4.44853897 87.75,6.13603897 87.75,8 L87.75,70 C87.75,71.863961 86.9944805,73.551461 85.7729708,74.7729708 Z" id="Combined-Shape" stroke="#4A4A4A" stroke-width="2.5"></path>
                    <g id="Group-38" transform="translate(48.500000, 31.000000) rotate(-7.000000) translate(-48.500000, -31.000000) translate(33.000000, 16.000000)" stroke="#C5C5C5" stroke-width="2.5">
                        <path d="M16.9142136,10.7573593 C16.133165,11.5384079 16.133165,12.8047379 16.9142136,13.5857864 C17.6952621,14.366835 18.9615921,14.366835 19.7426407,13.5857864 C20.5236893,12.8047379 20.5236893,11.5384079 19.7426407,10.7573593 C18.9615921,9.97631073 17.6952621,9.97631073 16.9142136,10.7573593 Z M16.9142136,13.5857864 L12.6715729,17.8284271" id="Combined-Shape"></path>
                    </g>
                    <path d="M56,0 L78,0 L78,2.5 C78,3.88071187 76.8807119,5 75.5,5 L58.5,5 C57.1192881,5 56,3.88071187 56,2.5 L56,0 L56,0 Z" id="Rectangle" fill="#4A4A4A"></path>
                    <rect id="Rectangle-Copy-65" fill="#4A4A4A" x="78" y="39" width="5" height="3" rx="1"></rect>
                    <rect id="Rectangle-Copy-66" fill="#4A4A4A" x="79" y="44" width="4" height="3" rx="1"></rect>
                    <rect id="Rectangle-Copy-71" fill="#4A4A4A" x="78" y="49" width="5" height="3" rx="1"></rect>
                    <rect id="Rectangle-Copy-73" fill="#4A4A4A" x="79" y="54" width="4" height="3" rx="1"></rect>
                    <rect id="Rectangle-Copy-74" fill="#4A4A4A" x="78" y="59" width="5" height="3" rx="1"></rect>
                    <rect id="Rectangle-Copy-75" fill="#4A4A4A" x="79" y="64" width="4" height="3" rx="1"></rect>
                    <path d="M82,30.0187617 L82,69 C82,69.5522847 81.5522847,70 81,70 L51.9907064,70 C51.4384216,70 50.9907064,69.5522847 50.9907064,69 C50.9907064,68.7849061 51.0600598,68.5755447 51.1884731,68.4029892 L80.1977668,29.4217509 C80.5274867,28.9786897 81.1539496,28.8868085 81.5970108,29.2165284 C81.8505732,29.405226 82,29.702691 82,30.0187617 Z" id="Path-28" stroke="#4A4A4A" stroke-width="2.5"></path>
                    <path d="M75,49.1701787 L75,62.1428571 C75,62.4189995 74.7761424,62.6428571 74.5,62.6428571 L64.9867025,62.6428571 C64.7105601,62.6428571 64.4867025,62.4189995 64.4867025,62.1428571 C64.4867025,62.0365105 64.5206105,61.9329338 64.5835,61.8471753 L74.0967975,48.8744969 C74.2600981,48.6518143 74.5729992,48.6036757 74.7956818,48.7669762 C74.9241194,48.8611638 75,49.010907 75,49.1701787 Z" id="Path-28" stroke="#C5C5C5" stroke-width="2.5"></path>
                    <line x1="33" y1="50" x2="33" y2="68" id="Path-29" stroke="#4A4A4A"></line>
                    <circle id="Oval" fill="#4A4A4A" cx="33" cy="69" r="2"></circle>
                </g>
                <path d="M67.4674956,30.9659006 L47.5593444,37.601951 C46.282772,38.0274751 44.9214905,38.1342831 43.5941737,37.9130636 L36.5803003,36.7440847 L34.9803518,36.4774266 C34.1967963,36.3468341 33.5178705,35.9425708 33.0348336,35.3723648 C32.5517966,34.8021588 32.2646485,34.06601 32.2646485,33.2716464 L32.2646485,28.6601547 C32.2646485,27.8657911 32.5517966,27.1296423 33.0348336,26.5594363 C33.5178705,25.9892303 34.1967963,25.5849671 34.9803518,25.4543745 L43.5941737,24.0187375 C44.9214905,23.797518 46.282772,23.904326 47.5593444,24.3298502 L67.4674956,30.9659006 Z" id="Rectangle" stroke="#4A4A4A" stroke-width="2.5" stroke-linejoin="round" transform="translate(48.514649, 30.965901) rotate(-232.000000) translate(-48.514649, -30.965901) "></path>
            </g>
        </g>
    </g>
</svg>