<?xml version="1.0" encoding="UTF-8"?>
<svg width="264px" height="73px" viewBox="0 0 264 73" version="1.1" xmlns="http://www.w3.org/2000/svg" xmlns:xlink="http://www.w3.org/1999/xlink">
    <title>ocean</title>
    <defs>
        <linearGradient x1="0%" y1="50%" x2="100%" y2="50%" id="linearGradient-1">
            <stop stop-color="#79F0EE" offset="0.720544764%"></stop>
            <stop stop-color="#29CCCA" offset="100%"></stop>
        </linearGradient>
        <rect id="path-2" x="0" y="0" width="264" height="73" rx="16"></rect>
    </defs>
    <g id="Page-1" stroke="none" stroke-width="1" fill="none" fill-rule="evenodd">
        <g id="ocean">
            <mask id="mask-3" fill="white">
                <use xlink:href="#path-2"></use>
            </mask>
            <use id="Rectangle" fill="url(#linearGradient-1)" xlink:href="#path-2"></use>
            <g id="Group-48" mask="url(#mask-3)" opacity="0.257952009">
                <g transform="translate(10.000000, 9.000000)" id="Combined-Shape">
                    <path d="M215,52 C218.850622,43.4341085 223.402081,40.7614161 232.534374,44.680708 C241.666667,48.6 243.983055,40.3763296 247,35" stroke="#FFFFFF" stroke-width="7.43583664" fill="none" stroke-linecap="round" transform="translate(231.000000, 43.500000) rotate(55.000000) translate(-231.000000, -43.500000) "></path>
                    <path d="M9.03240805,33.770255 L13.8387097,36.7741935 L13.8387097,36.7741935 L17.1704323,34.5530451 C17.9248055,34.0501296 18.9440394,34.2539764 19.4469549,35.0083496 C19.8145685,35.5597701 19.8145685,36.2781472 19.4469549,36.8295677 L17.2258065,40.1612903 L17.2258065,40.1612903 L19.9595273,44.5352437 C20.4400475,45.3040761 20.2063244,46.3168765 19.437492,46.7973967 C18.8903644,47.1393514 18.193662,47.129108 17.6568241,46.7712161 L13.8387097,44.2258065 L13.8387097,44.2258065 L9.46475631,46.9595273 C8.69592393,47.4400475 7.68312352,47.2063244 7.20260329,46.437492 C6.86064856,45.8903644 6.87089197,45.193662 7.22878392,44.6568241 L9.77419355,40.8387097 L9.77419355,40.8387097 L6.77025503,36.0324081 C6.2897348,35.2635757 6.52345797,34.2507753 7.29229034,33.770255 C7.82462015,33.4375489 8.50007825,33.4375489 9.03240805,33.770255 Z" stroke="none" fill="#FFFFFF" fill-rule="evenodd" transform="translate(13.500000, 40.500000) rotate(77.000000) translate(-13.500000, -40.500000) "></path>
                    <path d="M172.159833,3.97489549 L174.677419,5.5483871 L174.677419,5.5483871 L176.422607,4.38492839 C176.817755,4.12149648 177.35164,4.22827336 177.615072,4.62342123 C177.807631,4.91226052 177.807631,5.2885533 177.615072,5.57739259 L176.451613,7.32258065 L176.451613,7.32258065 L177.883562,9.61369908 C178.135263,10.0164208 178.012837,10.5469353 177.610115,10.7986364 C177.323524,10.9777555 176.958585,10.9723899 176.677384,10.7849227 L174.677419,9.4516129 L174.677419,9.4516129 L172.386301,10.8835619 C171.983579,11.135263 171.453065,11.0128366 171.201364,10.6101149 C171.022244,10.3235242 171.02761,9.95858488 171.215077,9.67738406 L172.548387,7.67741935 L172.548387,7.67741935 L170.974895,5.15983279 C170.723194,4.75711107 170.845621,4.22659657 171.248343,3.97489549 C171.527182,3.80062085 171.880993,3.80062085 172.159833,3.97489549 Z" stroke="none" fill="#FFFFFF" fill-rule="evenodd" transform="translate(174.500000, 7.500000) rotate(77.000000) translate(-174.500000, -7.500000) "></path>
                    <circle stroke="#FFFFFF" stroke-width="7.329167" fill="none" cx="51.5" cy="12.5" r="10.5"></circle>
                    <circle stroke="#FFFFFF" stroke-width="7.329167" fill="none" cx="122.5" cy="40.5" r="10.5"></circle>
                </g>
            </g>
        </g>
    </g>
</svg>