<?xml version="1.0" encoding="UTF-8"?>
<svg width="264px" height="73px" viewBox="0 0 264 73" version="1.1" xmlns="http://www.w3.org/2000/svg" xmlns:xlink="http://www.w3.org/1999/xlink">
    <title>red</title>
    <defs>
        <linearGradient x1="0%" y1="58.5546831%" x2="100%" y2="58.5546831%" id="linearGradient-1">
            <stop stop-color="#FB93A4" offset="0%"></stop>
            <stop stop-color="#F76478" offset="100%"></stop>
        </linearGradient>
        <rect id="path-2" x="0" y="0" width="264" height="73" rx="16"></rect>
    </defs>
    <g id="Page-1" stroke="none" stroke-width="1" fill="none" fill-rule="evenodd">
        <g id="red">
            <mask id="mask-3" fill="white">
                <use xlink:href="#path-2"></use>
            </mask>
            <use id="Mask" fill="url(#linearGradient-1)" xlink:href="#path-2"></use>
            <g id="Group-46" mask="url(#mask-3)" fill="#FFFFFF">
                <g transform="translate(-85.000000, -50.000000)" id="Combined-Shape">
                    <path d="M290.528335,24.9552092 L311.451613,38.0322581 L311.451613,38.0322581 L326.098194,28.2678709 C329.290599,26.1396007 333.603859,27.0022526 335.732129,30.194658 C337.28782,32.5281948 337.28782,35.5682696 335.732129,37.9018064 L325.967742,52.5483871 L325.967742,52.5483871 L337.901266,71.6420259 C339.934763,74.8956205 338.945678,79.1816548 335.692083,81.2151515 C333.376714,82.6622576 330.428363,82.6189089 328.156538,81.1043586 L311.451613,69.9677419 L311.451613,69.9677419 L292.357974,81.9012662 C289.104379,83.9347628 284.818345,82.945678 282.784849,79.6920834 C281.337742,77.3767136 281.381091,74.4283633 282.895641,72.1565379 L294.032258,55.4516129 L294.032258,55.4516129 L280.955209,34.5283347 C278.921713,31.2747401 279.910797,26.9887058 283.164392,24.9552092 C285.41714,23.5472419 288.275587,23.5472419 290.528335,24.9552092 Z" opacity="0.17078218" transform="translate(310.000000, 54.000000) rotate(77.000000) translate(-310.000000, -54.000000) "></path>
                    <path d="M7,46 C45.6666667,40 75.3333333,46 96,64 C127,91 193,115 231,109 C256.333333,105 282,115.333333 308,140 L7,140 L7,46 Z" opacity="0.116768973"></path>
                    <path d="M16,33.25 C54.6666667,27.25 84.3333333,33.25 105,51.25 C136,78.25 202,102.25 240,96.25 C265.333333,92.25 293.666667,105.5 325,136 L16,139 L16,33.25 Z" opacity="0.0874255952"></path>
                    <path d="M0,60.25 C38.6666667,54.25 68.3333333,60.25 89,78.25 C120,105.25 186,129.25 224,123.25 C249.333333,119.25 275,129.583333 301,154.25 L0,154.25 L0,60.25 Z" opacity="0.0874255952"></path>
                </g>
            </g>
        </g>
    </g>
</svg>